<?xml version="1.0" standalone="no"?>
<!DOCTYPE svg PUBLIC "-//W3C//DTD SVG 1.1//EN" "http://www.w3.org/Graphics/SVG/1.1/DTD/svg11.dtd" >
<svg xmlns="http://www.w3.org/2000/svg" xmlns:xlink="http://www.w3.org/1999/xlink" version="1.1">
<metadata>
Created by FontForge 20170731 at Mon Mar 16 15:35:50 2015
 By Aleksey,,,
Copyright (c) 2015 by Fontfabric LLC. All rights reserved.
</metadata>
<defs>
<font id="MullerBoldItalic" horiz-adv-x="643" >
  <font-face 
    font-family="MullerBoldItalic"
    font-weight="400"
    font-style="italic"
    font-stretch="normal"
    units-per-em="1000"
    panose-1="0 0 0 0 0 0 0 0 0 0"
    ascent="757"
    descent="-243"
    x-height="480"
    cap-height="700"
    bbox="-209 -260 1285.63 974"
    underline-thickness="50"
    underline-position="-175"
    slope="-9"
    unicode-range="U+0020-25CA"
  />
<missing-glyph horiz-adv-x="222" 
 />
    <glyph glyph-name="f_f" unicode="ff" horiz-adv-x="728" 
d="M786 599q-34 15 -73 15q-89 0 -104 -80l-9 -54h146l-18 -117h-146l-58 -363h-138l57 363h-188l-57 -363h-139l58 363h-83l19 117h82l5 33q16 97 83 144t161 47q75 0 142 -34q56 60 158 60q71 0 119 -21zM274 480h188l10 64l6 28q-36 18 -88 18q-46 0 -75.5 -22.5
t-36.5 -63.5z" />
    <glyph glyph-name="f_f_i" unicode="ffi" horiz-adv-x="949" 
d="M198 0h-139l58 363h-83l19 117h82l5 33q16 97 82.5 144t161.5 47q82 0 152 -39q69 65 188 65q84 0 164 -32l-18 -115q-62 31 -132 31q-115 0 -131 -94l-7 -40h319l-76 -480h-138l57 363h-180l-58 -363h-138l57 363h-188zM278 504l-4 -24h188l8 49q3 21 9 41
q-37 20 -89 20q-46 0 -75.5 -22.5t-36.5 -63.5z" />
    <glyph glyph-name="f_f_l" unicode="ffl" horiz-adv-x="960" 
d="M699 724q80 0 150 -30l118 20l-113 -714h-139l93 590q-40 17 -85 17q-101 0 -117 -89l-6 -38h129l-18 -117h-129l-58 -363h-138l57 363h-188l-57 -363h-139l58 363h-83l19 117h82l5 33q15 96 81.5 143.5t155.5 47.5q87 0 161 -40q61 60 161 60zM462 480l8 49q3 23 9 42
q-37 19 -89 19q-45 0 -75 -22.5t-37 -63.5l-4 -24h188z" />
    <glyph glyph-name=".notdef" horiz-adv-x="222" 
 />
    <glyph glyph-name=".null" horiz-adv-x="0" 
 />
    <glyph glyph-name="nonmarkingreturn" horiz-adv-x="333" 
 />
    <glyph glyph-name="space" unicode=" " horiz-adv-x="222" 
 />
    <glyph glyph-name="exclam" unicode="!" horiz-adv-x="271" 
d="M192 240h-129l64 460h147zM184 60q-6 -37 -31 -55t-59 -18q-38 0 -60.5 24t-15.5 67q6 36 30.5 54t58.5 18q38 0 60.5 -23.5t16.5 -66.5z" />
    <glyph glyph-name="quotedbl" unicode="&#x22;" horiz-adv-x="403" 
d="M368 481h-98l35 219h124zM179 481h-98l35 219h124z" />
    <glyph glyph-name="numbersign" unicode="#" horiz-adv-x="688" 
d="M154 0h-133l59 151h-68l16 102h93l69 175h-84l17 102h107l59 151h134l-59 -151h127l59 151h133l-59 -151h67l-16 -102h-92l-68 -175h82l-17 -102h-106l-60 -151h-133l59 151h-126zM323 428l-69 -175h127l69 175h-127z" />
    <glyph glyph-name="dollar" unicode="$" horiz-adv-x="607" 
d="M291 -130h-109l19 119q-111 13 -195 61l22 140q94 -72 233 -72q134 0 145 68q5 34 -30 59t-87.5 44t-104 43.5t-83 71t-21.5 112.5q13 77 77.5 122t153.5 54l19 118h109l-19 -121q97 -12 162 -52l-21 -134q-82 61 -203 59q-118 -2 -128 -58q-4 -24 14 -43.5t49 -33.5
t69 -28t75.5 -32.5t67.5 -42.5t45 -62t7 -87q-14 -91 -82 -135.5t-165 -52.5z" />
    <glyph glyph-name="percent" unicode="%" horiz-adv-x="920" 
d="M253 -60h-102l539 820h102zM429 533q-12 -78 -69 -120.5t-131 -42.5q-77 0 -125 48.5t-34 132.5q12 78 68.5 120.5t131.5 42.5q76 0 124.5 -48.5t34.5 -132.5zM179 535q-3 -26 11 -44t46 -18q36 0 58 22t25 54q2 27 -11.5 44.5t-44.5 17.5q-37 0 -59 -22t-25 -54z
M869 149q-12 -78 -68.5 -120.5t-130.5 -42.5q-77 0 -125.5 48.5t-34.5 132.5q12 78 69 120.5t132 42.5q76 0 124 -48.5t34 -132.5zM620 151q-3 -26 11 -44t46 -18q36 0 57.5 22t24.5 54q2 27 -11 44.5t-44 17.5q-37 0 -59 -22t-25 -54z" />
    <glyph glyph-name="ampersand" unicode="&#x26;" horiz-adv-x="720" 
d="M571 124l110 -124h-150l-47 52q-105 -66 -232 -66q-114 0 -178 56.5t-50 143.5q19 110 171 186q-68 83 -54 163q13 80 83.5 129.5t169.5 49.5q90 0 148 -53t45 -128q-6 -36 -25.5 -66t-52 -54.5t-60.5 -40.5t-69 -35l110 -123q43 57 50 128h136q-13 -119 -105 -218z
M383 603q-49 0 -78 -23.5t-35 -61.5q-6 -40 36 -97q43 18 68.5 30.5t51 35.5t30.5 49t-16 46.5t-57 20.5zM166 186q-5 -38 24 -61t85 -23q68 0 131 36l-136 149q-93 -43 -104 -101z" />
    <glyph glyph-name="quotesingle" unicode="'" horiz-adv-x="214" 
d="M179 481h-98l35 219h124z" />
    <glyph glyph-name="parenleft" unicode="(" horiz-adv-x="315" 
d="M267 810h114q-159 -223 -196 -456q-19 -119 -6 -245.5t53 -219.5h-108q-54 100 -75.5 224t-2.5 246q19 117 78 237.5t143 213.5z" />
    <glyph glyph-name="parenright" unicode=")" horiz-adv-x="316" 
d="M102 811h107q54 -100 76 -227t3 -249q-18 -116 -77 -233.5t-144 -211.5h-114q158 222 195 462q19 121 6.5 243t-52.5 216z" />
    <glyph glyph-name="asterisk" unicode="*" horiz-adv-x="481" 
d="M270 446l-85 -123l-99 75l102 90l-120 24l62 121l107 -57l4 124h130l-36 -124l120 57l27 -121l-129 -24l75 -90l-114 -75z" />
    <glyph glyph-name="plus" unicode="+" horiz-adv-x="538" 
d="M347 409h175l-19 -118h-175l-28 -175h-117l28 175h-176l19 118h175l28 175h118z" />
    <glyph glyph-name="comma" unicode="," horiz-adv-x="265" 
d="M53 -145h-114l106 269h149z" />
    <glyph glyph-name="hyphen" unicode="-" horiz-adv-x="483" 
d="M58 302h372l-19 -117h-372z" />
    <glyph glyph-name="period" unicode="." horiz-adv-x="249" 
d="M175 60q-6 -37 -31 -55t-59 -18q-39 0 -61.5 24t-15.5 67q6 36 31 54.5t59 18.5q39 0 61 -23.5t16 -67.5z" />
    <glyph glyph-name="slash" unicode="/" horiz-adv-x="458" 
d="M72 -59h-103l435 818h103z" />
    <glyph glyph-name="zero" unicode="0" horiz-adv-x="705" 
d="M52 349q24 154 114.5 249.5t243.5 95.5q102 0 167 -49.5t86.5 -130t5.5 -183.5q-25 -154 -115.5 -249.5t-242.5 -95.5q-102 0 -167 49.5t-86.5 130t-5.5 183.5zM521 341q35 221 -120 221q-167 0 -203 -223q-35 -221 120 -221q169 0 203 223z" />
    <glyph glyph-name="one" unicode="1" horiz-adv-x="459" 
d="M277 680h110l-87 -551h113l-21 -129h-388l21 129h128l64 401l-136 -48l21 135z" />
    <glyph glyph-name="two" unicode="2" horiz-adv-x="595" 
d="M116 623q114 71 238 71q107 0 172.5 -54t49.5 -156q-6 -40 -22.5 -71.5t-46.5 -58t-56.5 -44.5t-73.5 -44q-17 -10 -56 -31t-53 -30t-36 -24t-30.5 -27t-11.5 -25h335l-21 -129h-510l12 71q7 48 28 88.5t41.5 66t61 54.5t62.5 41t70 38q94 49 118 69q36 29 41 67
q5 33 -20.5 50.5t-74.5 17.5q-115 0 -239 -84z" />
    <glyph glyph-name="three" unicode="3" horiz-adv-x="594" 
d="M558 497q-8 -50 -40.5 -86t-85.5 -53q53 -18 83.5 -63.5t19.5 -117.5q-16 -98 -97.5 -144.5t-198.5 -46.5q-126 0 -232 47l20 134q90 -50 207 -50q66 1 111 24t53 71q6 39 -19 56.5t-79 17.5h-122l22 128h91q53 -1 85.5 17.5t37.5 54.5q6 36 -21 56.5t-85 20.5
q-102 0 -217 -63l23 143q99 51 221 51q107 0 172 -52t51 -145z" />
    <glyph glyph-name="four" unicode="4" horiz-adv-x="656" 
d="M435 680h150l-69 -431h103l-19 -125h-103l-20 -124h-143l20 124h-357l19 124zM373 249l38 240l-232 -240h194z" />
    <glyph glyph-name="five" unicode="5" horiz-adv-x="588" 
d="M149 680h432l-21 -128l-300 1l-29 -132q45 9 87 9q104 0 170 -57t49 -170q-18 -109 -105.5 -163t-210.5 -54q-122 0 -215 48l20 132q77 -49 186 -49q162 0 178 101q7 47 -27 72t-106 25q-98 0 -191 -31z" />
    <glyph glyph-name="six" unicode="6" horiz-adv-x="642" 
d="M211 399q88 41 179 41q43 0 83 -15t71.5 -42.5t47 -72.5t6.5 -99q-17 -109 -97 -167t-192 -58q-153 0 -218.5 96t-38.5 267q27 173 128.5 259t241.5 86q103 0 186 -43l-20 -126q-64 43 -152 43q-169 0 -225 -169zM306 108q56 0 95.5 25.5t48.5 81.5q8 51 -23.5 75.5
t-86.5 24.5q-75 0 -152 -46q-8 -161 118 -161z" />
    <glyph glyph-name="seven" unicode="7" horiz-adv-x="566" 
d="M85 681h523l-17 -108l-369 -573h-164l357 552h-351z" />
    <glyph glyph-name="eight" unicode="8" horiz-adv-x="655" 
d="M597 172q-12 -79 -89.5 -132.5t-216.5 -53.5q-138 0 -208.5 62.5t-56.5 150.5q7 48 42.5 92t89.5 74q-72 63 -57 150q13 74 83.5 126.5t198.5 52.5q116 0 184 -62.5t56 -141.5q-12 -84 -110 -150q49 -29 71.5 -68t12.5 -100zM175 206q-6 -43 28.5 -72.5t103.5 -29.5
q56 0 96 22.5t46 55.5q4 22 -2.5 38t-26 28t-35.5 18t-49 16q-43 13 -85 30q-67 -48 -76 -106zM340 406q30 -8 70 -23q64 53 71 109q5 33 -25 58.5t-84 25.5q-53 0 -88.5 -20t-41.5 -54q-5 -37 20.5 -58t77.5 -38z" />
    <glyph glyph-name="nine" unicode="9" horiz-adv-x="641" 
d="M59 469q18 109 98 167t191 58q153 0 218.5 -96t38.5 -267q-27 -174 -128 -259.5t-242 -85.5q-104 0 -188 42l20 126q65 -42 154 -42q172 0 225 169q-84 -40 -172 -40q-61 0 -113.5 24.5t-83 78t-18.5 125.5zM345 571q-54 0 -91 -26.5t-46 -78.5q-8 -53 24 -78t87 -25
q74 0 149 46q8 162 -123 162z" />
    <glyph glyph-name="colon" unicode=":" horiz-adv-x="280" 
d="M236 364q-6 -37 -30.5 -55t-59.5 -18q-38 0 -60.5 23.5t-15.5 67.5q6 37 30.5 55t58.5 18q39 0 61.5 -23.5t15.5 -67.5zM189 60q-6 -37 -31 -55t-59 -18q-39 0 -61.5 24t-15.5 67q6 36 31 54.5t58 18.5q40 0 62 -23.5t16 -67.5z" />
    <glyph glyph-name="semicolon" unicode=";" horiz-adv-x="292" 
d="M64 -145h-114l106 269h149zM248 392q-6 -37 -31 -55.5t-59 -18.5q-39 0 -61.5 24t-15.5 68q6 36 31 54t58 18q40 0 62 -23.5t16 -66.5z" />
    <glyph glyph-name="less" unicode="&#x3c;" horiz-adv-x="505" 
d="M432 261l-20 -125l-375 145l22 138l421 145l-20 -127l-290 -90z" />
    <glyph glyph-name="equal" unicode="=" horiz-adv-x="579" 
d="M535 391h-460l18 117h461zM503 192h-460l19 117h460z" />
    <glyph glyph-name="greater" unicode="&#x3e;" horiz-adv-x="506" 
d="M465 281l-421 -147l20 127l292 92l-264 86l20 125l376 -145z" />
    <glyph glyph-name="question" unicode="?" horiz-adv-x="498" 
d="M282 230h-132q7 45 38.5 89.5t66 73.5t64.5 62.5t35 60.5q5 37 -20.5 51.5t-76.5 14.5q-86 0 -184 -52l21 135q93 49 195 49q101 0 166 -46.5t50 -137.5q-7 -45 -41.5 -90.5t-72.5 -76t-71 -67t-38 -66.5zM275 60q-6 -37 -31 -55t-59 -18q-39 0 -61.5 24t-15.5 67
q6 36 31 54.5t59 18.5q39 0 61 -23.5t16 -67.5z" />
    <glyph glyph-name="at" unicode="@" horiz-adv-x="1047" 
d="M30 252q14 91 59.5 173.5t116 147t171 103t215.5 38.5q91 0 166 -27t124 -72t80.5 -102.5t41 -119.5t0.5 -122q-21 -133 -86.5 -199t-168.5 -66q-61 0 -102.5 28.5t-50.5 72.5q-53 -76 -149 -76q-87 0 -130.5 65t-30.5 151q13 81 70.5 140t145.5 59q44 0 78.5 -21.5
t51.5 -53.5l10 63h107l-40 -252q-11 -73 51 -73q92 0 119 173q5 43 0.5 87t-28 85.5t-57 73.5t-87.5 51t-120 19q-173 0 -291.5 -103.5t-141.5 -253.5q-13 -86 9.5 -155.5t72 -113t117.5 -66.5t147 -23q111 0 225 37l-13 -119q-99 -34 -222 -34q-104 0 -194.5 32t-157 91
t-96.5 153t-12 209zM607 281q-5 28 -26 46.5t-54 18.5q-48 0 -82 -32t-42 -80q-6 -42 14 -73t62 -31q38 0 69.5 21.5t45.5 51.5z" />
    <glyph glyph-name="A" unicode="A" horiz-adv-x="739" 
d="M690 0h-151l-31 131h-321l-71 -131h-159l396 700h163zM391 502l-137 -247h226l-56 247q-7 27 -8 60q-14 -40 -25 -60z" />
    <glyph glyph-name="B" unicode="B" horiz-adv-x="687" 
d="M140 700h296q109 0 173 -48.5t50 -138.5q-17 -111 -130 -146q54 -16 86 -61t20 -119q-29 -187 -302 -187h-304zM490 211q7 36 -8 57t-38.5 27.5t-56.5 6.5h-161l-28 -180h147q129 0 145 89zM508 496q7 42 -16.5 61.5t-74.5 19.5h-147l-25 -160h148q46 0 77 20.5t38 58.5z
" />
    <glyph glyph-name="C" unicode="C" horiz-adv-x="650" 
d="M47 364q14 86 58.5 155t105.5 110.5t128 63t132 21.5q113 0 197 -51l-21 -134q-61 52 -158 52q-64 0 -123 -22t-108 -76.5t-61 -132.5q-17 -110 46.5 -170t159.5 -60q107 0 193 57l-24 -149q-87 -42 -200 -42q-70 0 -133 24t-112 69t-72 119t-8 166z" />
    <glyph glyph-name="D" unicode="D" horiz-adv-x="742" 
d="M140 700h259q175 0 257 -99t57 -260q-25 -156 -129 -248.5t-283 -92.5h-272zM562 359q17 104 -28 156.5t-149 52.5h-116l-69 -436h109q104 0 170 58t83 169z" />
    <glyph glyph-name="E" unicode="E" horiz-adv-x="618" 
d="M140 700h493l-21 -132h-344l-23 -149h313l-20 -131h-314l-25 -156h350l-21 -132h-499z" />
    <glyph glyph-name="F" unicode="F" horiz-adv-x="606" 
d="M140 700h494l-21 -135h-345l-25 -163h315l-21 -135h-316l-42 -267h-150z" />
    <glyph glyph-name="G" unicode="G" horiz-adv-x="701" 
d="M47 362q14 90 58.5 160t106 110.5t129 61t137.5 20.5q119 0 211 -47l-21 -136q-64 49 -178 49q-47 0 -93 -13.5t-87.5 -40.5t-71.5 -74t-40 -107q-8 -52 0.5 -93t28.5 -66t49.5 -41t58.5 -22t61 -6q48 0 85 14l40 249h143l-55 -348q-107 -46 -228 -46q-75 0 -140 22.5
t-114.5 66.5t-72 118.5t-7.5 168.5z" />
    <glyph glyph-name="H" unicode="H" horiz-adv-x="765" 
d="M604 700h150l-111 -700h-150l44 282h-314l-44 -282h-150l111 700h150l-45 -282h314z" />
    <glyph glyph-name="I" unicode="I" horiz-adv-x="301" 
d="M140 700h150l-111 -700h-150z" />
    <glyph glyph-name="J" unicode="J" horiz-adv-x="513" 
d="M172 700h335l-77 -490q-35 -223 -279 -223q-113 0 -178 38l21 135q58 -35 136 -35q137 0 154 111l52 329h-185z" />
    <glyph glyph-name="K" unicode="K" horiz-adv-x="690" 
d="M581 700h166l-278 -352l178 -348h-159l-146 286h-118l-45 -286h-150l111 700h150l-44 -278h116z" />
    <glyph glyph-name="L" unicode="L" horiz-adv-x="579" 
d="M140 700h150l-90 -565h344l-22 -135h-493z" />
    <glyph glyph-name="M" unicode="M" horiz-adv-x="907" 
d="M744 700h152l-111 -700h-149l69 434l-220 -275h-101l-135 277l-70 -436h-150l111 700h135l178 -365z" />
    <glyph glyph-name="N" unicode="N" horiz-adv-x="765" 
d="M179 0h-150l111 700h125l271 -457q3 52 11 98l57 359h150l-111 -700h-125l-271 457q-1 -36 -9 -93z" />
    <glyph glyph-name="O" unicode="O" horiz-adv-x="814" 
d="M787 341q-11 -71 -44 -134t-85 -113t-127.5 -79t-164.5 -29q-115 0 -194.5 53t-110.5 137t-15 183q24 148 136.5 251.5t285.5 103.5q112 0 191 -53t111.5 -137.5t16.5 -182.5zM196 346q-14 -92 31.5 -156.5t146.5 -64.5q108 0 177 64.5t85 164.5q14 92 -31.5 156.5
t-146.5 64.5q-107 0 -176.5 -64.5t-85.5 -164.5z" />
    <glyph glyph-name="P" unicode="P" horiz-adv-x="668" 
d="M140 700h264q61 0 111 -12.5t89 -39.5t56 -76t7 -116q-20 -124 -105 -175t-226 -51h-121l-36 -230h-150zM516 467q17 101 -119 101h-128l-33 -206h122q141 0 158 105z" />
    <glyph glyph-name="Q" unicode="Q" horiz-adv-x="814" 
d="M739 32l-111 -89l-72 84q-87 -41 -190 -41q-115 0 -194.5 53t-110.5 137t-15 183q24 148 136.5 251.5t285.5 103.5q112 0 191 -53t111.5 -137.5t16.5 -182.5q-21 -138 -115 -232zM196 346q-14 -92 31.5 -156.5t146.5 -64.5q46 0 84 15l-70 83l106 93l82 -96q47 55 60 134
q14 92 -31.5 156.5t-146.5 64.5q-107 0 -176.5 -64.5t-85.5 -164.5z" />
    <glyph glyph-name="R" unicode="R" horiz-adv-x="706" 
d="M179 0h-150l111 700h284q52 0 97.5 -12t84 -38t56 -74t7.5 -112q-25 -155 -183 -201l163 -263h-162l-147 245h-123zM269 568l-31 -198h141q53 0 91.5 26t46.5 76q8 51 -21 73.5t-82 22.5h-145z" />
    <glyph glyph-name="S" unicode="S" horiz-adv-x="602" 
d="M81 526q15 92 94.5 140t184.5 48q132 0 222 -58l-20 -134q-84 62 -197 60q-124 -2 -133 -68q-3 -24 16 -43t50.5 -32.5t70 -28t75.5 -33.5t66 -43.5t43 -63.5t5 -89q-34 -195 -293 -195q-150 0 -256 65l22 138q96 -71 230 -71t145 68q4 28 -13.5 49t-48.5 36t-69 29.5
t-75.5 33t-67 42t-44.5 62t-7 88.5z" />
    <glyph glyph-name="T" unicode="T" horiz-adv-x="606" 
d="M78 700h579l-21 -135h-215l-89 -565h-150l90 565h-215z" />
    <glyph glyph-name="U" unicode="U" horiz-adv-x="751" 
d="M597 700h150l-70 -441q-12 -75 -44.5 -129.5t-80 -85t-101 -44.5t-116.5 -14q-60 0 -111.5 15.5t-93 47t-60 88t-6.5 130.5l68 433h150l-69 -433q-12 -79 22 -112.5t107 -33.5q163 0 188 154z" />
    <glyph glyph-name="V" unicode="V" horiz-adv-x="710" 
d="M386 0h-154l-161 700h156l104 -524l272 524h167z" />
    <glyph glyph-name="W" unicode="W" horiz-adv-x="1055" 
d="M945 700h165l-325 -700h-167l-63 473l-214 -473h-165l-105 700h156l58 -528l237 528h130l68 -524z" />
    <glyph glyph-name="X" unicode="X" horiz-adv-x="674" 
d="M124 0h-179l317 361l-187 339h168l119 -223l194 223h179l-299 -340l198 -360h-168l-129 246z" />
    <glyph glyph-name="Y" unicode="Y" horiz-adv-x="702" 
d="M379 0h-149l40 248l-202 452h162l130 -315l229 315h175l-345 -452z" />
    <glyph glyph-name="Z" unicode="Z" horiz-adv-x="614" 
d="M534 0h-548l16 106l406 459h-317l21 135h521l-16 -108l-406 -457h344z" />
    <glyph glyph-name="bracketleft" unicode="[" horiz-adv-x="332" 
d="M240 -110h-241l145 920h241l-19 -125h-101l-107 -669h101z" />
    <glyph glyph-name="backslash" unicode="\" horiz-adv-x="448" 
d="M371 -59h-98l-176 818h98z" />
    <glyph glyph-name="bracketright" unicode="]" horiz-adv-x="331" 
d="M207 -110h-241l19 126h102l106 669h-101l19 125h241z" />
    <glyph glyph-name="asciicircum" unicode="^" horiz-adv-x="590" 
d="M197 354h-153l256 346h122l147 -346h-143l-80 208z" />
    <glyph glyph-name="underscore" unicode="_" horiz-adv-x="485" 
d="M411 -173h-484l19 118h484z" />
    <glyph glyph-name="grave" unicode="`" horiz-adv-x="253" 
d="M343 764h-138l-85 148h156z" />
    <glyph glyph-name="a" unicode="a" horiz-adv-x="620" 
d="M406 71q-67 -85 -181 -85q-109 0 -162.5 78t-36.5 185q16 101 88.5 173t178.5 72q115 0 165 -94l13 80h122l-76 -480h-122zM164 237q-9 -56 18 -95t82 -39q46 0 84 24t60 60l19 112q-9 34 -37.5 56t-69.5 22q-61 0 -103.5 -39.5t-52.5 -100.5z" />
    <glyph glyph-name="b" unicode="b" horiz-adv-x="621" 
d="M123 700h139l-45 -273q69 67 164 67q106 0 160.5 -78.5t38.5 -184.5q-16 -102 -86.5 -173.5t-181.5 -71.5q-61 0 -102 26t-61 64l-14 -76h-123zM441 241q9 57 -18 96.5t-81 39.5q-45 0 -83 -24t-62 -60l-18 -112q10 -35 37.5 -56.5t67.5 -21.5q63 0 105.5 38.5t51.5 99.5
z" />
    <glyph glyph-name="c" unicode="c" horiz-adv-x="493" 
d="M25 247q10 65 41.5 114.5t75.5 77.5t91 42t96 14q87 0 152 -41l-19 -115q-47 35 -118 35q-67 0 -118 -34t-62 -104q-9 -65 27.5 -97.5t99.5 -32.5q72 0 146 36l-20 -125q-72 -31 -160 -31q-112 0 -182 67t-50 194z" />
    <glyph glyph-name="d" unicode="d" horiz-adv-x="620" 
d="M490 700h138l-111 -700h-122l11 71q-62 -85 -181 -85q-109 0 -162.5 78t-36.5 185q16 101 88 173t177 72q104 0 154 -76zM427 302q-9 32 -38 53.5t-69 21.5q-61 0 -103.5 -39t-52.5 -102q-9 -55 18 -94t82 -39q46 0 84 24t60 60z" />
    <glyph glyph-name="e" unicode="e" horiz-adv-x="543" 
d="M25 250q9 62 38 110.5t68.5 76.5t83 42.5t87.5 14.5q56 0 99 -17.5t67.5 -47.5t36 -68.5t8.5 -81t-19 -85.5h-339q3 -50 45.5 -74t102.5 -24q91 0 157 33l-17 -113q-70 -30 -174 -30q-75 0 -134 30t-90.5 91t-19.5 143zM384 284q10 36 -9 70t-75 34q-48 0 -84.5 -29
t-46.5 -75h215z" />
    <glyph glyph-name="f" unicode="f" horiz-adv-x="402" 
d="M144 535q8 51 29.5 87.5t52 55.5t63 27.5t68.5 8.5q69 0 116 -22l-17 -109q-30 14 -71 14q-92 0 -104 -76l-7 -41h146l-18 -117h-147l-57 -363h-139l58 363h-83l19 117h82z" />
    <glyph glyph-name="g" unicode="g" horiz-adv-x="622" 
d="M519 9q-20 -124 -103.5 -183.5t-199.5 -59.5q-120 0 -206 49l19 117q71 -49 174 -49q70 0 118 31t59 97l7 44q-56 -69 -163 -69q-109 0 -162.5 78t-36.5 185q16 100 89 172.5t178 72.5q115 0 164 -90l13 76h124zM163 236q-9 -55 18 -94t82 -39q46 0 84 23.5t60 58.5
l19 117q-9 32 -38 53.5t-69 21.5q-61 0 -103.5 -39t-52.5 -102z" />
    <glyph glyph-name="h" unicode="h" horiz-adv-x="589" 
d="M123 700h139l-43 -266q72 60 152 60q90 0 134.5 -57.5t31.5 -143.5l-47 -293h-139l45 283q7 46 -12.5 68.5t-58.5 22.5q-67 0 -126 -65l-48 -309h-139z" />
    <glyph glyph-name="i" unicode="i" horiz-adv-x="259" 
d="M153 0h-139l76 480h139zM265 630q-6 -36 -30 -53.5t-57 -17.5q-37 0 -58.5 23t-15.5 65q6 36 30 53.5t57 17.5q37 0 58.5 -23t15.5 -65z" />
    <glyph glyph-name="j" unicode="j" horiz-adv-x="259" 
d="M140 -79q-24 -155 -186 -155q-52 0 -91 17l18 114q19 -9 49 -9q66 0 78 71l82 521h139zM265 630q-6 -36 -30 -53.5t-57 -17.5q-37 0 -58.5 23t-15.5 65q6 36 30 53.5t57 17.5q37 0 58.5 -23t15.5 -65z" />
    <glyph glyph-name="k" unicode="k" horiz-adv-x="545" 
d="M406 480h160l-206 -240l139 -240h-146l-110 194h-62l-30 -194h-139l111 700h139l-64 -396h60z" />
    <glyph glyph-name="l" unicode="l" horiz-adv-x="259" 
d="M130 730h139l-116 -730h-139z" />
    <glyph glyph-name="m" unicode="m" horiz-adv-x="873" 
d="M498 424q83 70 169 70q62 0 101 -31.5t50 -74t4 -88.5l-48 -300h-138l48 302q5 34 -12 53t-49 19q-56 0 -106 -52q0 -8 -2 -22l-48 -300h-138l48 302q5 34 -12 53t-49 19q-63 0 -116 -64l-49 -310h-139l76 480h122l-9 -58q28 29 73 50.5t93 21.5q94 0 131 -70z" />
    <glyph glyph-name="n" unicode="n" horiz-adv-x="589" 
d="M200 418q81 76 176 76q87 0 130.5 -57t30.5 -142l-47 -295h-139l45 283q7 47 -12.5 69t-58.5 22q-66 0 -126 -64l-48 -310h-139l76 480h122z" />
    <glyph glyph-name="o" unicode="o" horiz-adv-x="593" 
d="M552 228q-18 -115 -105 -178.5t-192 -63.5q-112 0 -180.5 71.5t-49.5 194.5q19 116 104.5 179t194.5 63q108 0 178 -72t50 -194zM163 238q-8 -55 18.5 -91.5t84.5 -36.5t98 36.5t50 95.5q8 55 -18 91.5t-83 36.5q-59 0 -99.5 -36.5t-50.5 -95.5z" />
    <glyph glyph-name="p" unicode="p" horiz-adv-x="620" 
d="M199 409q66 85 182 85q106 0 160.5 -78.5t38.5 -184.5q-16 -101 -88.5 -173t-178.5 -72q-105 0 -153 75l-44 -281h-139l111 700h123zM441 244q9 55 -18 94t-82 39q-45 0 -83.5 -24.5t-61.5 -60.5l-18 -114q10 -32 38 -53.5t69 -21.5q61 0 103.5 40t52.5 101z" />
    <glyph glyph-name="q" unicode="q" horiz-adv-x="620" 
d="M26 249q16 101 88.5 173t178.5 72q61 0 103 -27.5t62 -66.5l13 80h122l-111 -700h-138l43 270q-60 -64 -162 -64q-109 0 -162.5 78t-36.5 185zM427 302q-9 31 -37.5 53t-69.5 22q-61 0 -103.5 -40t-52.5 -101q-9 -55 18 -94t82 -39q46 0 84 24.5t60 59.5z" />
    <glyph glyph-name="r" unicode="r" horiz-adv-x="393" 
d="M200 410q67 93 209 79l-21 -134q-61 13 -113 -9t-81 -69l-43 -277h-139l76 480h123z" />
    <glyph glyph-name="s" unicode="s" horiz-adv-x="478" 
d="M44 355q12 74 75 106.5t145 32.5q98 0 178 -41l-18 -114q-72 49 -159 49q-73 0 -78 -39q-3 -21 23 -36t64.5 -26.5t76.5 -27.5t61 -50t15 -83q-22 -140 -234 -140q-119 0 -189 46l18 115q70 -52 174 -52q83 0 90 38q3 20 -23 35t-64.5 27t-76.5 28.5t-61.5 50t-16.5 81.5
z" />
    <glyph glyph-name="t" unicode="t" horiz-adv-x="415" 
d="M145 619l143 34l-27 -173h152l-19 -117h-152l-31 -192q-6 -37 9 -52.5t54 -15.5q50 0 93 18l-18 -114q-48 -21 -125 -21q-76 0 -121 41.5t-32 124.5l33 211h-81l19 117h80z" />
    <glyph glyph-name="u" unicode="u" horiz-adv-x="588" 
d="M422 480h138l-76 -480h-122l10 62q-66 -76 -166 -76q-91 0 -137 58t-32 144l46 292h138l-44 -283q-15 -91 71 -91q73 0 125 64z" />
    <glyph glyph-name="v" unicode="v" horiz-adv-x="563" 
d="M432 480h155l-280 -480h-146l-122 480h142l71 -333z" />
    <glyph glyph-name="w" unicode="w" horiz-adv-x="819" 
d="M686 480h153l-236 -480h-146l-44 312l-150 -312h-144l-78 480h138l43 -318l148 318h132l45 -318z" />
    <glyph glyph-name="x" unicode="x" horiz-adv-x="528" 
d="M117 0h-163l227 251l-139 229h149l79 -136l118 136h162l-216 -239l146 -241h-148l-87 148z" />
    <glyph glyph-name="y" unicode="y" horiz-adv-x="563" 
d="M266 152l157 328h161l-297 -541q-52 -95 -108 -133.5t-122 -38.5q-43 0 -83 15l19 114q24 -10 51 -10q40 0 69.5 27t61.5 86l8 9l-150 472h145z" />
    <glyph glyph-name="z" unicode="z" horiz-adv-x="482" 
d="M75 480h392l-14 -89l-267 -275h238l-19 -116h-420l14 90l267 275h-209z" />
    <glyph glyph-name="braceleft" unicode="{" horiz-adv-x="355" 
d="M273 13l-19 -125q-104 -22 -155.5 21.5t-38.5 125.5l30 192q7 39 -10 50.5t-54 11.5l20 123q37 -3 58 12.5t27 58.5l30 191q14 89 76 123.5t163 11.5l-20 -120q-41 7 -61.5 -14.5t-28.5 -71.5l-24 -151q-15 -95 -101 -102q33 -2 54.5 -29t12.5 -81l-24 -152
q-8 -47 6.5 -64.5t58.5 -10.5z" />
    <glyph glyph-name="bar" unicode="|" horiz-adv-x="263" 
d="M140 -100h-140l144 910h140z" />
    <glyph glyph-name="braceright" unicode="}" horiz-adv-x="355" 
d="M213 26q-14 -89 -75 -124.5t-164 -10.5l19 122q42 -9 62.5 10t28.5 69l25 160q8 48 36.5 73t67.5 27q-33 2 -56 31.5t-15 78.5l24 152q8 47 -5.5 64.5t-59.5 10.5l19 123q103 22 155 -21.5t39 -125.5l-30 -192q-4 -21 0 -34.5t15 -19.5t21.5 -7.5t26.5 -1.5l-19 -122
q-72 5 -84 -71z" />
    <glyph glyph-name="asciitilde" unicode="~" horiz-adv-x="603" 
d="M563 411q-1 -81 -41.5 -122.5t-104.5 -41.5q-42 0 -111.5 27t-89.5 26q-19 0 -31 -12.5t-12 -35.5h-117q2 83 42.5 123.5t100.5 40.5q46 0 113.5 -26t89.5 -26q43 0 43 47h118z" />
    <glyph glyph-name="exclamdown" unicode="&#xa1;" horiz-adv-x="260" 
d="M122 -219h-146l82 460h128zM232 403q-6 -36 -30.5 -54t-58.5 -18q-38 0 -60.5 23.5t-15.5 66.5q6 37 30.5 55t58.5 18q39 0 61 -23.5t15 -67.5z" />
    <glyph glyph-name="cent" unicode="&#xa2;" horiz-adv-x="511" 
d="M483 454l-19 -115q-36 27 -87 33l-42 -263q50 7 104 33l-20 -125q-49 -21 -103 -28l-17 -109h-90l17 108q-100 10 -159 76.5t-40 182.5q12 80 58 136.5t102 81.5t119 29l17 106h90l-18 -111q52 -11 88 -35zM286 366q-103 -27 -120 -130q-14 -101 80 -125z" />
    <glyph glyph-name="sterling" unicode="&#xa3;" horiz-adv-x="603" 
d="M521 0h-528l20 122h22q34 0 57.5 25.5t29.5 64.5l11 67h-80l17 112h80l11 66q19 122 94.5 179.5t180.5 57.5q88 0 161 -39l-18 -115q-53 39 -129 39q-59 0 -99.5 -33t-51.5 -100l-9 -55h193l-17 -112h-193l-13 -76q-9 -63 -52 -81h333z" />
    <glyph glyph-name="currency" unicode="&#xa4;" horiz-adv-x="569" 
d="M168 177l-74 -63l-63 72l69 62q-23 44 -13 111q9 58 46 103l-48 55l75 68l53 -61q46 23 105 23q60 0 102 -26l76 66l61 -71l-70 -63q22 -48 13 -112q-9 -59 -47 -104l49 -54l-77 -68l-52 60q-45 -22 -104 -22q-58 0 -101 24zM204 341q-4 -35 15 -57t59 -22
q45 0 72.5 27.5t32.5 69.5q4 35 -15 57t-59 22q-45 0 -72.5 -27.5t-32.5 -69.5z" />
    <glyph glyph-name="yen" unicode="&#xa5;" horiz-adv-x="717" 
d="M582 680h166l-254 -332h107l-15 -96h-161l-9 -52h162l-16 -96h-161l-17 -104h-149l17 104h-162l16 96h161l9 52h-162l15 96h108l-148 332h156l119 -304z" />
    <glyph glyph-name="brokenbar" unicode="&#xa6;" horiz-adv-x="275" 
d="M231 438h-140l59 372h140zM146 -100h-140l59 372h140z" />
    <glyph glyph-name="section" unicode="&#xa7;" horiz-adv-x="520" 
d="M436 104q-8 -51 -45.5 -83.5t-83.5 -44t-104 -11.5q-100 0 -179 47l17 107q72 -47 158 -47q90 0 97 40q3 20 -21 33.5t-83 32.5q-71 23 -109.5 57.5t-29.5 99.5q9 73 91 126q-55 37 -43 114q11 73 73 106t146 33q91 0 173 -43l-17 -106q-26 18 -68 30.5t-81 12.5
q-81 0 -86 -41q-1 -7 1 -13t8.5 -11.5t12 -9.5t18 -9.5t20.5 -8.5t24.5 -9t25.5 -9q34 -13 55.5 -23.5t44 -28.5t31.5 -43t4 -58q-11 -72 -89 -122q50 -43 39 -118zM246 290q12 -4 56 -16q45 24 50 61q3 23 -12 35.5t-47 24.5q-4 1 -24.5 6.5t-31.5 9.5q-48 -22 -54 -61
q-3 -22 13 -35t50 -25z" />
    <glyph glyph-name="dieresis" unicode="&#xa8;" horiz-adv-x="346" 
d="M465 824q-5 -27 -28 -46t-51 -19q-33 0 -53 24.5t-15 58.5q5 27 27.5 46.5t50.5 19.5q34 0 54 -24.5t15 -59.5zM251 824q-5 -27 -28 -46t-51 -19q-33 0 -53 24.5t-15 58.5q5 27 27.5 46.5t50.5 19.5q34 0 54 -24.5t15 -59.5z" />
    <glyph glyph-name="copyright" unicode="&#xa9;" horiz-adv-x="846" 
d="M814 341q-18 -114 -87 -196.5t-158.5 -120.5t-187.5 -38q-71 0 -135 24t-113.5 69t-72.5 118t-9 162q18 114 87 196.5t158 120.5t187 38q71 0 135.5 -24t114 -69t72.5 -118t9 -162zM561 177q-63 -31 -142 -31q-35 0 -69 12.5t-63 36.5t-43 64.5t-6 91.5q16 100 89 151.5
t156 51.5q75 0 130 -37l-11 -83q-44 27 -100 27q-55 0 -98 -27.5t-53 -87.5q-9 -56 21 -81.5t79 -25.5q66 0 123 31zM99 345q-10 -75 9.5 -136t61 -98.5t96.5 -58t117 -20.5q137 0 250 85.5t134 237.5q13 99 -25.5 172t-107 107t-151.5 34q-138 0 -250.5 -85.5
t-133.5 -237.5z" />
    <glyph glyph-name="guillemotleft" unicode="&#xab;" horiz-adv-x="559" 
d="M485 46h-137l-100 181l4 29l154 178h144l-169 -194zM257 46h-137l-100 181l4 29l154 178h144l-169 -194z" />
    <glyph glyph-name="logicalnot" unicode="&#xac;" horiz-adv-x="575" 
d="M504 238h-119l20 124h-349l19 118h468z" />
    <glyph glyph-name="registered" unicode="&#xae;" horiz-adv-x="846" 
d="M814 341q-18 -114 -87 -196.5t-158.5 -120.5t-187.5 -38q-71 0 -135 24t-113.5 69t-72.5 118t-9 162q18 114 87 196.5t158 120.5t187 38q71 0 135.5 -24t114 -69t72.5 -118t9 -162zM99 345q-10 -75 9.5 -136t61 -98.5t96.5 -58t117 -20.5q137 0 250 85.5t134 237.5
q13 99 -25.5 172t-107 107t-151.5 34q-138 0 -250.5 -85.5t-133.5 -237.5zM343 159h-96l62 391h179q29 0 55.5 -8t49 -24.5t33 -45t4.5 -65.5q-13 -85 -101 -112l83 -136h-104l-75 128h-9h-62zM390 462l-15 -95h78q69 0 78 50q4 26 -12.5 35.5t-44.5 9.5h-84z" />
    <glyph glyph-name="macron" unicode="&#xaf;" horiz-adv-x="360" 
d="M135 884h326l-18 -110h-326z" />
    <glyph glyph-name="degree" unicode="&#xb0;" horiz-adv-x="416" 
d="M423 538q-12 -76 -67.5 -118.5t-128.5 -42.5q-74 0 -121 48.5t-34 130.5q12 73 68 115.5t127 42.5q74 0 121 -48.5t35 -127.5zM172 540q-3 -31 14 -49.5t48 -18.5q36 0 60 22.5t27 59.5q3 29 -13.5 47t-47.5 18q-36 0 -60 -21.5t-28 -57.5z" />
    <glyph glyph-name="plusminus" unicode="&#xb1;" horiz-adv-x="576" 
d="M404 648l-28 -175h176l-19 -118h-175l-28 -175h-117l27 175h-175l19 118h175l27 175h118zM477 0h-468l18 118h469z" />
    <glyph glyph-name="acute" unicode="&#xb4;" horiz-adv-x="240" 
d="M252 764h-144l113 148h162z" />
    <glyph glyph-name="paragraph" unicode="&#xb6;" horiz-adv-x="732" 
d="M321 -220h-143l77 486q-106 1 -158.5 61.5t-35.5 164.5q15 99 83 153.5t176 54.5h402l-146 -920h-143l124 785h-112z" />
    <glyph glyph-name="periodcentered" unicode="&#xb7;" horiz-adv-x="262" 
d="M206 230q-6 -37 -30.5 -55t-58.5 -18q-39 0 -61.5 23.5t-15.5 67.5q6 36 31 54.5t59 18.5q39 0 61 -23.5t15 -67.5z" />
    <glyph glyph-name="cedilla" unicode="&#xb8;" horiz-adv-x="222" 
d="M32 0h97l-22 -49q93 -9 81 -95q-7 -46 -50 -68t-100 -22q-61 0 -108 19l14 86q33 -18 79 -18q62 0 66 28q3 19 -24 25.5t-67 0.5z" />
    <glyph glyph-name="guillemotright" unicode="&#xbb;" horiz-adv-x="559" 
d="M365 46h-144l169 194l-104 194h137l101 -181l-5 -29zM137 46h-144l169 194l-104 194h137l101 -181l-5 -29z" />
    <glyph glyph-name="onequarter" unicode="&#xbc;" horiz-adv-x="938" 
d="M768 408h98l-41 -254h60l-13 -82h-59l-12 -72h-92l11 72h-211l13 81zM732 154l22 131l-127 -131h105zM210 -14h-47l573 728h47zM220 680h71l-52 -324h75l-13 -84h-258l13 84h89l36 227l-91 -29l14 88z" />
    <glyph glyph-name="onehalf" unicode="&#xbd;" horiz-adv-x="900" 
d="M205 -14h-47l573 728h47zM586 376q73 41 145 41q62 0 103 -34.5t30 -97.5q-7 -44 -36.5 -70.5t-89.5 -59.5q-90 -50 -95 -71h190l-13 -84h-307l7 47q5 35 19.5 62.5t40.5 49t44 32.5t52 29q48 26 69 42.5t25 35.5q3 17 -11 25.5t-38 8.5q-70 0 -150 -52zM215 680h71
l-52 -324h75l-13 -84h-258l13 84h89l36 227l-91 -29l14 88z" />
    <glyph glyph-name="threequarters" unicode="&#xbe;" horiz-adv-x="990" 
d="M265 -14h-47l573 728h47zM820 408h98l-41 -254h60l-13 -82h-59l-12 -72h-92l11 72h-211l13 81zM784 154l22 131l-127 -131h105zM374 572q-9 -59 -74 -82q31 -10 49 -38t11 -72q-18 -112 -176 -112q-76 0 -141 30l14 88q51 -31 120 -31q87 0 95 47q4 23 -10.5 33t-44.5 10
h-73l14 83h54q64 0 71 41q3 19 -13.5 29t-45.5 10q-69 0 -132 -34l14 89q67 31 131 31q63 0 104.5 -33t32.5 -89z" />
    <glyph glyph-name="questiondown" unicode="&#xbf;" horiz-adv-x="491" 
d="M384 -187q-94 -47 -194 -47q-47 0 -88 10.5t-73.5 32t-48 58t-7.5 83.5q6 37 30 73.5t54.5 65.5t60.5 55.5t52.5 54t26.5 51.5h131q-7 -44 -38.5 -88t-66 -73.5t-64.5 -63.5t-34 -61q-6 -37 19.5 -51.5t77.5 -14.5q89 0 184 53zM371 403q-6 -36 -31 -54t-59 -18
q-39 0 -61 23t-15 67q6 37 30.5 55t58.5 18q39 0 61.5 -23.5t15.5 -67.5z" />
    <glyph glyph-name="Agrave" unicode="&#xc0;" horiz-adv-x="739" 
d="M690 0h-151l-31 131h-321l-71 -131h-159l396 700h163zM391 502l-137 -247h226l-56 247q-7 27 -8 60q-14 -40 -25 -60zM538 764h-138l-85 148h156z" />
    <glyph glyph-name="Aacute" unicode="&#xc1;" horiz-adv-x="739" 
d="M690 0h-151l-31 131h-321l-71 -131h-159l396 700h163zM391 502l-137 -247h226l-56 247q-7 27 -8 60q-14 -40 -25 -60zM503 764h-144l113 148h162z" />
    <glyph glyph-name="Acircumflex" unicode="&#xc2;" horiz-adv-x="739" 
d="M690 0h-151l-31 131h-321l-71 -131h-159l396 700h163zM391 502l-137 -247h226l-56 247q-7 27 -8 60q-14 -40 -25 -60zM408 912h122l100 -155h-127l-43 66l-63 -66h-138z" />
    <glyph glyph-name="Atilde" unicode="&#xc3;" horiz-adv-x="739" 
d="M690 0h-151l-31 131h-321l-71 -131h-159l396 700h163zM391 502l-137 -247h226l-56 247q-7 27 -8 60q-14 -40 -25 -60zM636 892q4 -63 -27 -101t-81 -38q-35 0 -81.5 21t-58.5 21q-16 0 -23.5 -12.5t-5.5 -23.5h-100q-4 63 27 101t80 38q35 0 82 -21t59 -21q17 0 24 12
t5 24h100z" />
    <glyph glyph-name="Adieresis" unicode="&#xc4;" horiz-adv-x="739" 
d="M690 0h-151l-31 131h-321l-71 -131h-159l396 700h163zM391 502l-137 -247h226l-56 247q-7 27 -8 60q-14 -40 -25 -60zM637 824q-5 -27 -28 -46t-51 -19q-33 0 -53 24.5t-15 58.5q5 27 27.5 46.5t50.5 19.5q34 0 54 -24.5t15 -59.5zM423 824q-5 -27 -28 -46t-51 -19
q-33 0 -53 24.5t-15 58.5q5 27 27.5 46.5t50.5 19.5q34 0 54 -24.5t15 -59.5z" />
    <glyph glyph-name="Aring" unicode="&#xc5;" horiz-adv-x="739" 
d="M690 0h-151l-31 131h-321l-71 -131h-159l396 700h163zM391 502l-137 -247h226l-56 247q-7 27 -8 60q-14 -40 -25 -60zM586 847q-9 -52 -47.5 -82t-88.5 -30t-85.5 36t-26.5 94q9 50 48 79.5t88 29.5q51 0 86 -35.5t26 -91.5zM420 857q-3 -20 7.5 -32t28.5 -12t32 10.5
t17 29.5t-7.5 31.5t-28.5 12.5t-32 -10.5t-17 -29.5z" />
    <glyph glyph-name="AE" unicode="&#xc6;" horiz-adv-x="1020" 
d="M1035 700l-21 -132h-319l-24 -149h289l-20 -131h-290l-25 -156h326l-21 -132h-475l21 135h-266l-108 -135h-161l569 700h525zM307 255h189l47 293z" />
    <glyph glyph-name="Ccedilla" unicode="&#xc7;" horiz-adv-x="650" 
d="M647 529q-60 52 -157 52q-47 0 -93 -13.5t-88 -40t-72 -72.5t-39 -105q-17 -110 46.5 -170t159.5 -60q106 0 192 57l-23 -149q-78 -38 -178 -41l-15 -36q46 -5 67 -29.5t14 -65.5q-7 -46 -50 -68t-99 -22q-61 0 -109 19l14 86q33 -18 79 -18q62 0 66 28q3 19 -24 25.5
t-66 0.5l31 85q-60 11 -110.5 39.5t-88.5 73.5t-54 112t-3 147q14 86 58.5 155t105.5 110.5t128 63t133 21.5q112 0 196 -51z" />
    <glyph glyph-name="Egrave" unicode="&#xc8;" horiz-adv-x="618" 
d="M140 700h493l-21 -132h-344l-23 -149h313l-20 -131h-314l-25 -156h350l-21 -132h-499zM487 764h-138l-85 148h156z" />
    <glyph glyph-name="Eacute" unicode="&#xc9;" horiz-adv-x="618" 
d="M140 700h493l-21 -132h-344l-23 -149h313l-20 -131h-314l-25 -156h350l-21 -132h-499zM452 764h-144l113 148h162z" />
    <glyph glyph-name="Ecircumflex" unicode="&#xca;" horiz-adv-x="618" 
d="M140 700h493l-21 -132h-344l-23 -149h313l-20 -131h-314l-25 -156h350l-21 -132h-499zM357 912h122l100 -155h-127l-43 66l-63 -66h-138z" />
    <glyph glyph-name="Edieresis" unicode="&#xcb;" horiz-adv-x="618" 
d="M140 700h493l-21 -132h-344l-23 -149h313l-20 -131h-314l-25 -156h350l-21 -132h-499zM586 824q-5 -27 -28 -46t-51 -19q-33 0 -53 24.5t-15 58.5q5 27 27.5 46.5t50.5 19.5q34 0 54 -24.5t15 -59.5zM372 824q-5 -27 -28 -46t-51 -19q-33 0 -53 24.5t-15 58.5
q5 27 27.5 46.5t50.5 19.5q34 0 54 -24.5t15 -59.5z" />
    <glyph glyph-name="Igrave" unicode="&#xcc;" horiz-adv-x="301" 
d="M140 700h150l-111 -700h-150zM315 764h-138l-85 148h156z" />
    <glyph glyph-name="Iacute" unicode="&#xcd;" horiz-adv-x="301" 
d="M140 700h150l-111 -700h-150zM280 764h-144l113 148h162z" />
    <glyph glyph-name="Icircumflex" unicode="&#xce;" horiz-adv-x="301" 
d="M140 700h150l-111 -700h-150zM185 912h122l100 -155h-127l-43 66l-63 -66h-138z" />
    <glyph glyph-name="Idieresis" unicode="&#xcf;" horiz-adv-x="301" 
d="M140 700h150l-111 -700h-150zM414 824q-5 -27 -28 -46t-51 -19q-33 0 -53 24.5t-15 58.5q5 27 27.5 46.5t50.5 19.5q34 0 54 -24.5t15 -59.5zM200 824q-5 -27 -28 -46t-51 -19q-33 0 -53 24.5t-15 58.5q5 27 27.5 46.5t50.5 19.5q34 0 54 -24.5t15 -59.5z" />
    <glyph glyph-name="Eth" unicode="&#xd0;" horiz-adv-x="752" 
d="M151 700h258q175 0 257 -99.5t57 -259.5q-25 -157 -128.5 -249t-283.5 -92h-271l46 294h-73l18 111h73zM320 132q104 0 170 58t83 169q17 104 -28 156.5t-149 52.5h-116l-26 -163h157l-18 -111h-156l-26 -162h109z" />
    <glyph glyph-name="Ntilde" unicode="&#xd1;" horiz-adv-x="765" 
d="M179 0h-150l111 700h125l271 -457q3 52 11 98l57 359h150l-111 -700h-125l-271 457q-1 -36 -9 -93zM639 892q4 -63 -27 -101t-81 -38q-35 0 -81.5 21t-58.5 21q-16 0 -23.5 -12.5t-5.5 -23.5h-100q-4 63 27 101t80 38q35 0 82 -21t59 -21q17 0 24 12t5 24h100z" />
    <glyph glyph-name="Ograve" unicode="&#xd2;" horiz-adv-x="814" 
d="M787 341q-11 -71 -44 -134t-85 -113t-127.5 -79t-164.5 -29q-115 0 -194.5 53t-110.5 137t-15 183q24 148 136.5 251.5t285.5 103.5q112 0 191 -53t111.5 -137.5t16.5 -182.5zM196 346q-14 -92 31.5 -156.5t146.5 -64.5q108 0 177 64.5t85 164.5q14 92 -31.5 156.5
t-146.5 64.5q-107 0 -176.5 -64.5t-85.5 -164.5zM569 764h-138l-85 148h156z" />
    <glyph glyph-name="Oacute" unicode="&#xd3;" horiz-adv-x="814" 
d="M787 341q-11 -71 -44 -134t-85 -113t-127.5 -79t-164.5 -29q-115 0 -194.5 53t-110.5 137t-15 183q24 148 136.5 251.5t285.5 103.5q112 0 191 -53t111.5 -137.5t16.5 -182.5zM196 346q-14 -92 31.5 -156.5t146.5 -64.5q108 0 177 64.5t85 164.5q14 92 -31.5 156.5
t-146.5 64.5q-107 0 -176.5 -64.5t-85.5 -164.5zM534 764h-144l113 148h162z" />
    <glyph glyph-name="Ocircumflex" unicode="&#xd4;" horiz-adv-x="814" 
d="M787 341q-11 -71 -44 -134t-85 -113t-127.5 -79t-164.5 -29q-115 0 -194.5 53t-110.5 137t-15 183q24 148 136.5 251.5t285.5 103.5q112 0 191 -53t111.5 -137.5t16.5 -182.5zM196 346q-14 -92 31.5 -156.5t146.5 -64.5q108 0 177 64.5t85 164.5q14 92 -31.5 156.5
t-146.5 64.5q-107 0 -176.5 -64.5t-85.5 -164.5zM439 912h122l100 -155h-127l-43 66l-63 -66h-138z" />
    <glyph glyph-name="Otilde" unicode="&#xd5;" horiz-adv-x="814" 
d="M787 341q-11 -71 -44 -134t-85 -113t-127.5 -79t-164.5 -29q-115 0 -194.5 53t-110.5 137t-15 183q24 148 136.5 251.5t285.5 103.5q112 0 191 -53t111.5 -137.5t16.5 -182.5zM196 346q-14 -92 31.5 -156.5t146.5 -64.5q108 0 177 64.5t85 164.5q14 92 -31.5 156.5
t-146.5 64.5q-107 0 -176.5 -64.5t-85.5 -164.5zM667 892q4 -63 -27 -101t-81 -38q-35 0 -81.5 21t-58.5 21q-16 0 -23.5 -12.5t-5.5 -23.5h-100q-4 63 27 101t80 38q35 0 82 -21t59 -21q17 0 24 12t5 24h100z" />
    <glyph glyph-name="Odieresis" unicode="&#xd6;" horiz-adv-x="814" 
d="M787 341q-11 -71 -44 -134t-85 -113t-127.5 -79t-164.5 -29q-115 0 -194.5 53t-110.5 137t-15 183q24 148 136.5 251.5t285.5 103.5q112 0 191 -53t111.5 -137.5t16.5 -182.5zM196 346q-14 -92 31.5 -156.5t146.5 -64.5q108 0 177 64.5t85 164.5q14 92 -31.5 156.5
t-146.5 64.5q-107 0 -176.5 -64.5t-85.5 -164.5zM668 824q-5 -27 -28 -46t-51 -19q-33 0 -53 24.5t-15 58.5q5 27 27.5 46.5t50.5 19.5q34 0 54 -24.5t15 -59.5zM454 824q-5 -27 -28 -46t-51 -19q-33 0 -53 24.5t-15 58.5q5 27 27.5 46.5t50.5 19.5q34 0 54 -24.5t15 -59.5z
" />
    <glyph glyph-name="multiply" unicode="&#xd7;" horiz-adv-x="504" 
d="M252 273l-146 -125l-67 77l145 126l-106 125l88 77l105 -125l146 125l67 -77l-145 -125l106 -126l-88 -77z" />
    <glyph glyph-name="Oslash" unicode="&#xd8;" horiz-adv-x="814" 
d="M119 -48h-103l109 124q-51 53 -71.5 127t-7.5 156q24 148 136.5 251.5t285.5 103.5q101 0 178 -44l69 78h102l-110 -126q52 -52 73 -126t7 -155q-11 -71 -44 -134t-85 -113t-127.5 -79t-164.5 -29q-104 0 -179 44zM196 346q-14 -91 30 -154l321 365q-36 18 -89 18
q-107 0 -176.5 -64.5t-85.5 -164.5zM286 143q36 -18 88 -18q108 0 177 64.5t85 164.5q16 91 -30 154z" />
    <glyph glyph-name="Ugrave" unicode="&#xd9;" horiz-adv-x="751" 
d="M597 700h150l-70 -441q-12 -75 -44.5 -129.5t-80 -85t-101 -44.5t-116.5 -14q-60 0 -111.5 15.5t-93 47t-60 88t-6.5 130.5l68 433h150l-69 -433q-12 -79 22 -112.5t107 -33.5q163 0 188 154zM531 764h-138l-85 148h156z" />
    <glyph glyph-name="Uacute" unicode="&#xda;" horiz-adv-x="751" 
d="M597 700h150l-70 -441q-12 -75 -44.5 -129.5t-80 -85t-101 -44.5t-116.5 -14q-60 0 -111.5 15.5t-93 47t-60 88t-6.5 130.5l68 433h150l-69 -433q-12 -79 22 -112.5t107 -33.5q163 0 188 154zM496 764h-144l113 148h162z" />
    <glyph glyph-name="Ucircumflex" unicode="&#xdb;" horiz-adv-x="751" 
d="M597 700h150l-70 -441q-12 -75 -44.5 -129.5t-80 -85t-101 -44.5t-116.5 -14q-60 0 -111.5 15.5t-93 47t-60 88t-6.5 130.5l68 433h150l-69 -433q-12 -79 22 -112.5t107 -33.5q163 0 188 154zM401 912h122l100 -155h-127l-43 66l-63 -66h-138z" />
    <glyph glyph-name="Udieresis" unicode="&#xdc;" horiz-adv-x="751" 
d="M597 700h150l-70 -441q-12 -75 -44.5 -129.5t-80 -85t-101 -44.5t-116.5 -14q-60 0 -111.5 15.5t-93 47t-60 88t-6.5 130.5l68 433h150l-69 -433q-12 -79 22 -112.5t107 -33.5q163 0 188 154zM630 824q-5 -27 -28 -46t-51 -19q-33 0 -53 24.5t-15 58.5q5 27 27.5 46.5
t50.5 19.5q34 0 54 -24.5t15 -59.5zM416 824q-5 -27 -28 -46t-51 -19q-33 0 -53 24.5t-15 58.5q5 27 27.5 46.5t50.5 19.5q34 0 54 -24.5t15 -59.5z" />
    <glyph glyph-name="Yacute" unicode="&#xdd;" horiz-adv-x="702" 
d="M379 0h-149l40 248l-202 452h162l130 -315l229 315h175l-345 -452zM475 764h-144l113 148h162z" />
    <glyph glyph-name="Thorn" unicode="&#xde;" horiz-adv-x="664" 
d="M272 585h112q60 0 110 -12.5t90 -39.5t58 -76t7 -116q-20 -124 -105.5 -175t-228.5 -51h-118l-18 -115h-150l111 700h150zM218 247h118q69 0 111 24t52 85q8 54 -26 75.5t-93 21.5h-129z" />
    <glyph glyph-name="germandbls" unicode="&#xdf;" horiz-adv-x="588" 
d="M542 128q-11 -70 -71 -106t-137 -36q-69 0 -124 26l16 104q36 -20 82 -20q38 0 65 16.5t31 44.5q4 22 -13.5 49.5t-40.5 50.5t-40 54.5t-13 60.5q6 34 49.5 85t49.5 84q6 31 -11 47.5t-50 16.5q-41 0 -68.5 -23.5t-33.5 -63.5l-82 -518h-139l78 494q35 219 249 220
q102 1 151 -50t40 -112q-6 -35 -31 -68.5t-49 -61t-27 -48.5q-3 -16 10.5 -35t33.5 -39t39.5 -43.5t30.5 -57.5t5 -71z" />
    <glyph glyph-name="agrave" unicode="&#xe0;" horiz-adv-x="620" 
d="M406 71q-67 -85 -181 -85q-109 0 -162.5 78t-36.5 185q16 101 88.5 173t178.5 72q115 0 165 -94l13 80h122l-76 -480h-122zM164 237q-9 -56 18 -95t82 -39q46 0 84 24t60 60l19 112q-9 34 -37.5 56t-69.5 22q-61 0 -103.5 -39.5t-52.5 -100.5zM433 551h-138l-85 148h156z
" />
    <glyph glyph-name="aacute" unicode="&#xe1;" horiz-adv-x="620" 
d="M406 71q-67 -85 -181 -85q-109 0 -162.5 78t-36.5 185q16 101 88.5 173t178.5 72q115 0 165 -94l13 80h122l-76 -480h-122zM164 237q-9 -56 18 -95t82 -39q46 0 84 24t60 60l19 112q-9 34 -37.5 56t-69.5 22q-61 0 -103.5 -39.5t-52.5 -100.5zM398 551h-144l113 148h162z
" />
    <glyph glyph-name="acircumflex" unicode="&#xe2;" horiz-adv-x="620" 
d="M406 71q-67 -85 -181 -85q-109 0 -162.5 78t-36.5 185q16 101 88.5 173t178.5 72q115 0 165 -94l13 80h122l-76 -480h-122zM164 237q-9 -56 18 -95t82 -39q46 0 84 24t60 60l19 112q-9 34 -37.5 56t-69.5 22q-61 0 -103.5 -39.5t-52.5 -100.5zM303 699h122l100 -155h-127
l-43 66l-63 -66h-138z" />
    <glyph glyph-name="atilde" unicode="&#xe3;" horiz-adv-x="620" 
d="M406 71q-67 -85 -181 -85q-109 0 -162.5 78t-36.5 185q16 101 88.5 173t178.5 72q115 0 165 -94l13 80h122l-76 -480h-122zM164 237q-9 -56 18 -95t82 -39q46 0 84 24t60 60l19 112q-9 34 -37.5 56t-69.5 22q-61 0 -103.5 -39.5t-52.5 -100.5zM531 679q4 -63 -27 -101
t-81 -38q-35 0 -81.5 21t-58.5 21q-16 0 -23.5 -12.5t-5.5 -23.5h-100q-4 63 27 101t80 38q35 0 82 -21t59 -21q17 0 24 12t5 24h100z" />
    <glyph glyph-name="adieresis" unicode="&#xe4;" horiz-adv-x="620" 
d="M406 71q-67 -85 -181 -85q-109 0 -162.5 78t-36.5 185q16 101 88.5 173t178.5 72q115 0 165 -94l13 80h122l-76 -480h-122zM164 237q-9 -56 18 -95t82 -39q46 0 84 24t60 60l19 112q-9 34 -37.5 56t-69.5 22q-61 0 -103.5 -39.5t-52.5 -100.5zM532 611q-5 -27 -28 -46
t-51 -19q-33 0 -53 24.5t-15 58.5q5 27 27.5 46.5t50.5 19.5q34 0 54 -24.5t15 -59.5zM318 611q-5 -27 -28 -46t-51 -19q-33 0 -53 24.5t-15 58.5q5 27 27.5 46.5t50.5 19.5q34 0 54 -24.5t15 -59.5z" />
    <glyph glyph-name="aring" unicode="&#xe5;" horiz-adv-x="620" 
d="M406 71q-67 -85 -181 -85q-109 0 -162.5 78t-36.5 185q16 101 88.5 173t178.5 72q115 0 165 -94l13 80h122l-76 -480h-122zM164 237q-9 -56 18 -95t82 -39q46 0 84 24t60 60l19 112q-9 34 -37.5 56t-69.5 22q-61 0 -103.5 -39.5t-52.5 -100.5zM481 634q-9 -52 -47.5 -82
t-88.5 -30t-85.5 36t-26.5 94q9 50 48 79.5t88 29.5q51 0 86 -35.5t26 -91.5zM315 644q-3 -20 7.5 -32t28.5 -12t32 10.5t17 29.5t-7.5 31.5t-28.5 12.5t-32 -10.5t-17 -29.5z" />
    <glyph glyph-name="ae" unicode="&#xe6;" horiz-adv-x="955" 
d="M406 72q-66 -86 -181 -86q-109 0 -162.5 78.5t-36.5 185.5q16 101 88 172.5t179 71.5q61 0 102.5 -26.5t62.5 -66.5l13 79h116l-12 -76q60 90 172 90q63 0 105.5 -26.5t59.5 -70t15.5 -96.5t-21.5 -107h-345q4 -50 47 -74t107 -24q84 0 149 34l-17 -113q-72 -31 -147 -31
q-129 0 -177 92l-12 -78h-116zM163 237q-9 -56 18 -95t82 -39q46 0 84 24t60 60l19 112q-9 34 -37.5 56t-69.5 22q-61 0 -103.5 -39.5t-52.5 -100.5zM712 388q-52 0 -86.5 -28.5t-44.5 -75.5h215q10 36 -9 70t-75 34z" />
    <glyph glyph-name="ccedilla" unicode="&#xe7;" horiz-adv-x="493" 
d="M462 339q-47 35 -118 35q-67 0 -118.5 -34t-61.5 -104q-10 -64 26.5 -97t99.5 -33q72 0 146 36l-19 -125q-61 -26 -126 -30l-16 -36q93 -9 81 -95q-7 -46 -50.5 -68t-99.5 -22q-61 0 -108 19l14 86q33 -18 79 -18q61 0 65 28q4 19 -23 25.5t-67 0.5l31 85q-90 17 -140 82
t-33 173q10 65 42 114.5t76 77.5t91 42t96 14q87 0 152 -41z" />
    <glyph glyph-name="egrave" unicode="&#xe8;" horiz-adv-x="543" 
d="M25 250q9 62 38 110.5t68.5 76.5t83 42.5t87.5 14.5q56 0 99 -17.5t67.5 -47.5t36 -68.5t8.5 -81t-19 -85.5h-339q3 -50 45.5 -74t102.5 -24q91 0 157 33l-17 -113q-70 -30 -174 -30q-75 0 -134 30t-90.5 91t-19.5 143zM384 284q10 36 -9 70t-75 34q-48 0 -84.5 -29
t-46.5 -75h215zM401 544h-138l-85 148h156z" />
    <glyph glyph-name="eacute" unicode="&#xe9;" horiz-adv-x="543" 
d="M25 250q9 62 38 110.5t68.5 76.5t83 42.5t87.5 14.5q56 0 99 -17.5t67.5 -47.5t36 -68.5t8.5 -81t-19 -85.5h-339q3 -50 45.5 -74t102.5 -24q91 0 157 33l-17 -113q-70 -30 -174 -30q-75 0 -134 30t-90.5 91t-19.5 143zM384 284q10 36 -9 70t-75 34q-48 0 -84.5 -29
t-46.5 -75h215zM366 544h-144l113 148h162z" />
    <glyph glyph-name="ecircumflex" unicode="&#xea;" horiz-adv-x="543" 
d="M25 250q9 62 38 110.5t68.5 76.5t83 42.5t87.5 14.5q56 0 99 -17.5t67.5 -47.5t36 -68.5t8.5 -81t-19 -85.5h-339q3 -50 45.5 -74t102.5 -24q91 0 157 33l-17 -113q-70 -30 -174 -30q-75 0 -134 30t-90.5 91t-19.5 143zM384 284q10 36 -9 70t-75 34q-48 0 -84.5 -29
t-46.5 -75h215zM271 692h122l100 -155h-127l-43 66l-63 -66h-138z" />
    <glyph glyph-name="edieresis" unicode="&#xeb;" horiz-adv-x="543" 
d="M25 250q9 62 38 110.5t68.5 76.5t83 42.5t87.5 14.5q56 0 99 -17.5t67.5 -47.5t36 -68.5t8.5 -81t-19 -85.5h-339q3 -50 45.5 -74t102.5 -24q91 0 157 33l-17 -113q-70 -30 -174 -30q-75 0 -134 30t-90.5 91t-19.5 143zM384 284q10 36 -9 70t-75 34q-48 0 -84.5 -29
t-46.5 -75h215zM500 604q-5 -27 -28 -46t-51 -19q-33 0 -53 24.5t-15 58.5q5 27 27.5 46.5t50.5 19.5q34 0 54 -24.5t15 -59.5zM286 604q-5 -27 -28 -46t-51 -19q-33 0 -53 24.5t-15 58.5q5 27 27.5 46.5t50.5 19.5q34 0 54 -24.5t15 -59.5z" />
    <glyph glyph-name="igrave" unicode="&#xec;" horiz-adv-x="259" 
d="M244 544h-136l-57 148h156zM153 0h-139l76 480h139z" />
    <glyph glyph-name="iacute" unicode="&#xed;" horiz-adv-x="259" 
d="M153 0h-139l76 480h139zM226 544h-144l113 148h162z" />
    <glyph glyph-name="icircumflex" unicode="&#xee;" horiz-adv-x="259" 
d="M153 0h-139l76 480h139zM133 537h-131l129 155h122l80 -155h-127l-26 66z" />
    <glyph glyph-name="idieresis" unicode="&#xef;" horiz-adv-x="259" 
d="M153 0h-139l76 480h139zM155 605q-5 -26 -26 -43.5t-48 -17.5q-31 0 -49.5 22.5t-13.5 54.5q5 26 26 44t47 18q32 0 50.5 -23t13.5 -55zM342 605q-5 -26 -26 -43.5t-48 -17.5q-31 0 -49.5 22.5t-13.5 54.5q5 26 26 44t47 18q32 0 50.5 -23t13.5 -55z" />
    <glyph glyph-name="eth" unicode="&#xf0;" horiz-adv-x="582" 
d="M542 268q-24 -145 -103 -213.5t-192 -68.5q-109 0 -174.5 65.5t-50.5 174.5q14 97 81 154.5t155 57.5q55 0 99 -22.5t66 -63.5q2 15 2 42q-6 111 -88 165l-95 -83l-56 64l67 55q-39 10 -100 10l10 105q97 0 180 -33l89 77l55 -64l-65 -57q73 -52 106.5 -145.5
t13.5 -219.5zM161 215q-7 -52 19 -81.5t78 -29.5t85.5 29t44.5 80q7 53 -19.5 84t-78.5 31q-51 0 -86.5 -30.5t-42.5 -82.5z" />
    <glyph glyph-name="ntilde" unicode="&#xf1;" horiz-adv-x="589" 
d="M200 418q81 76 176 76q87 0 130.5 -57t30.5 -142l-47 -295h-139l45 283q7 47 -12.5 69t-58.5 22q-66 0 -126 -64l-48 -310h-139l76 480h122zM529 672q4 -63 -27 -101t-81 -38q-35 0 -81.5 21t-58.5 21q-16 0 -23.5 -12.5t-5.5 -23.5h-100q-4 63 27 101t80 38q35 0 82 -21
t59 -21q17 0 24 12t5 24h100z" />
    <glyph glyph-name="ograve" unicode="&#xf2;" horiz-adv-x="593" 
d="M552 228q-18 -115 -105 -178.5t-192 -63.5q-112 0 -180.5 71.5t-49.5 194.5q19 116 104.5 179t194.5 63q108 0 178 -72t50 -194zM163 238q-8 -55 18.5 -91.5t84.5 -36.5t98 36.5t50 95.5q8 55 -18 91.5t-83 36.5q-59 0 -99.5 -36.5t-50.5 -95.5zM421 538h-138l-85 148
h156z" />
    <glyph glyph-name="oacute" unicode="&#xf3;" horiz-adv-x="593" 
d="M552 228q-18 -115 -105 -178.5t-192 -63.5q-112 0 -180.5 71.5t-49.5 194.5q19 116 104.5 179t194.5 63q108 0 178 -72t50 -194zM163 238q-8 -55 18.5 -91.5t84.5 -36.5t98 36.5t50 95.5q8 55 -18 91.5t-83 36.5q-59 0 -99.5 -36.5t-50.5 -95.5zM386 538h-144l113 148
h162z" />
    <glyph glyph-name="ocircumflex" unicode="&#xf4;" horiz-adv-x="593" 
d="M552 228q-18 -115 -105 -178.5t-192 -63.5q-112 0 -180.5 71.5t-49.5 194.5q19 116 104.5 179t194.5 63q108 0 178 -72t50 -194zM163 238q-8 -55 18.5 -91.5t84.5 -36.5t98 36.5t50 95.5q8 55 -18 91.5t-83 36.5q-59 0 -99.5 -36.5t-50.5 -95.5zM291 686h122l100 -155
h-127l-43 66l-63 -66h-138z" />
    <glyph glyph-name="otilde" unicode="&#xf5;" horiz-adv-x="593" 
d="M552 228q-18 -115 -105 -178.5t-192 -63.5q-112 0 -180.5 71.5t-49.5 194.5q19 116 104.5 179t194.5 63q108 0 178 -72t50 -194zM163 238q-8 -55 18.5 -91.5t84.5 -36.5t98 36.5t50 95.5q8 55 -18 91.5t-83 36.5q-59 0 -99.5 -36.5t-50.5 -95.5zM519 666q4 -63 -27 -101
t-81 -38q-35 0 -81.5 21t-58.5 21q-16 0 -23.5 -12.5t-5.5 -23.5h-100q-4 63 27 101t80 38q35 0 82 -21t59 -21q17 0 24 12t5 24h100z" />
    <glyph glyph-name="odieresis" unicode="&#xf6;" horiz-adv-x="593" 
d="M552 228q-18 -115 -105 -178.5t-192 -63.5q-112 0 -180.5 71.5t-49.5 194.5q19 116 104.5 179t194.5 63q108 0 178 -72t50 -194zM163 238q-8 -55 18.5 -91.5t84.5 -36.5t98 36.5t50 95.5q8 55 -18 91.5t-83 36.5q-59 0 -99.5 -36.5t-50.5 -95.5zM520 598q-5 -27 -28 -46
t-51 -19q-33 0 -53 24.5t-15 58.5q5 27 27.5 46.5t50.5 19.5q34 0 54 -24.5t15 -59.5zM306 598q-5 -27 -28 -46t-51 -19q-33 0 -53 24.5t-15 58.5q5 27 27.5 46.5t50.5 19.5q34 0 54 -24.5t15 -59.5z" />
    <glyph glyph-name="divide" unicode="&#xf7;" horiz-adv-x="556" 
d="M518 291h-480l19 118h480zM335 118q-6 -37 -30.5 -55.5t-58.5 -18.5q-39 0 -61.5 24t-15.5 68q6 36 31 54t58 18q40 0 62 -23.5t15 -66.5zM406 565q-6 -37 -31 -55.5t-59 -18.5q-38 0 -60.5 24t-15.5 68q6 36 31 54t58 18q40 0 62 -23.5t15 -66.5z" />
    <glyph glyph-name="oslash" unicode="&#xf8;" horiz-adv-x="593" 
d="M561 543l-80 -101q94 -75 71 -214q-18 -115 -105 -178.5t-192 -63.5q-67 0 -118 26l-58 -74h-63l80 100q-92 74 -71 214q19 116 104.5 179t194.5 63q63 0 115 -26l60 75h62zM313 370q-59 0 -99 -36.5t-50 -95.5q-9 -56 18 -92l174 217q-21 7 -43 7zM266 110q58 0 98 36.5
t50 95.5q8 57 -19 93l-174 -217q21 -8 45 -8z" />
    <glyph glyph-name="ugrave" unicode="&#xf9;" horiz-adv-x="588" 
d="M422 480h138l-76 -480h-122l10 62q-66 -76 -166 -76q-91 0 -137 58t-32 144l46 292h138l-44 -283q-15 -91 71 -91q73 0 125 64zM421 544h-138l-85 148h156z" />
    <glyph glyph-name="uacute" unicode="&#xfa;" horiz-adv-x="588" 
d="M422 480h138l-76 -480h-122l10 62q-66 -76 -166 -76q-91 0 -137 58t-32 144l46 292h138l-44 -283q-15 -91 71 -91q73 0 125 64zM386 544h-144l113 148h162z" />
    <glyph glyph-name="ucircumflex" unicode="&#xfb;" horiz-adv-x="588" 
d="M422 480h138l-76 -480h-122l10 62q-66 -76 -166 -76q-91 0 -137 58t-32 144l46 292h138l-44 -283q-15 -91 71 -91q73 0 125 64zM291 692h122l100 -155h-127l-43 66l-63 -66h-138z" />
    <glyph glyph-name="udieresis" unicode="&#xfc;" horiz-adv-x="588" 
d="M422 480h138l-76 -480h-122l10 62q-66 -76 -166 -76q-91 0 -137 58t-32 144l46 292h138l-44 -283q-15 -91 71 -91q73 0 125 64zM520 604q-5 -27 -28 -46t-51 -19q-33 0 -53 24.5t-15 58.5q5 27 27.5 46.5t50.5 19.5q34 0 54 -24.5t15 -59.5zM306 604q-5 -27 -28 -46
t-51 -19q-33 0 -53 24.5t-15 58.5q5 27 27.5 46.5t50.5 19.5q34 0 54 -24.5t15 -59.5z" />
    <glyph glyph-name="yacute" unicode="&#xfd;" horiz-adv-x="563" 
d="M266 152l157 328h161l-297 -541q-52 -95 -108 -133.5t-122 -38.5q-43 0 -83 15l19 114q24 -10 51 -10q40 0 69.5 27t61.5 86l8 9l-150 472h145zM364 544h-144l113 148h162z" />
    <glyph glyph-name="thorn" unicode="&#xfe;" horiz-adv-x="620" 
d="M116 -220h-139l146 920h139l-44 -271q67 65 163 65q106 0 160.5 -78.5t38.5 -184.5q-16 -101 -88.5 -173t-178.5 -72q-105 0 -153 75zM178 178q10 -32 38 -53.5t69 -21.5q61 0 103.5 40t52.5 101q9 55 -18 94t-82 39q-45 0 -83.5 -24.5t-61.5 -60.5z" />
    <glyph glyph-name="ydieresis" unicode="&#xff;" horiz-adv-x="563" 
d="M266 152l157 328h161l-297 -541q-52 -95 -108 -133.5t-122 -38.5q-43 0 -83 15l19 114q24 -10 51 -10q40 0 69.5 27t61.5 86l8 9l-150 472h145zM498 604q-5 -27 -28 -46t-51 -19q-33 0 -53 24.5t-15 58.5q5 27 27.5 46.5t50.5 19.5q34 0 54 -24.5t15 -59.5zM284 604
q-5 -27 -28 -46t-51 -19q-33 0 -53 24.5t-15 58.5q5 27 27.5 46.5t50.5 19.5q34 0 54 -24.5t15 -59.5z" />
    <glyph glyph-name="Amacron" unicode="&#x100;" horiz-adv-x="739" 
d="M690 0h-151l-31 131h-321l-71 -131h-159l396 700h163zM391 502l-137 -247h226l-56 247q-7 27 -8 60q-14 -40 -25 -60zM306 884h326l-18 -110h-326z" />
    <glyph glyph-name="amacron" unicode="&#x101;" horiz-adv-x="620" 
d="M406 71q-67 -85 -181 -85q-109 0 -162.5 78t-36.5 185q16 101 88.5 173t178.5 72q115 0 165 -94l13 80h122l-76 -480h-122zM164 237q-9 -56 18 -95t82 -39q46 0 84 24t60 60l19 112q-9 34 -37.5 56t-69.5 22q-61 0 -103.5 -39.5t-52.5 -100.5zM201 671h326l-18 -110h-326
z" />
    <glyph glyph-name="Abreve" unicode="&#x102;" horiz-adv-x="739" 
d="M690 0h-151l-31 131h-321l-71 -131h-159l396 700h163zM391 502l-137 -247h226l-56 247q-7 27 -8 60q-14 -40 -25 -60zM608 793q-74 -45 -159 -45q-96 0 -154 45l17 109q63 -43 146 -43q91 0 167 43z" />
    <glyph glyph-name="abreve" unicode="&#x103;" horiz-adv-x="620" 
d="M406 71q-67 -85 -181 -85q-109 0 -162.5 78t-36.5 185q16 101 88.5 173t178.5 72q115 0 165 -94l13 80h122l-76 -480h-122zM164 237q-9 -56 18 -95t82 -39q46 0 84 24t60 60l19 112q-9 34 -37.5 56t-69.5 22q-61 0 -103.5 -39.5t-52.5 -100.5zM503 580q-73 -45 -159 -45
q-96 0 -154 45l17 109q63 -43 146 -43q91 0 167 43z" />
    <glyph glyph-name="Aogonek" unicode="&#x104;" horiz-adv-x="739" 
d="M690 0q-37 -22 -62.5 -51.5t-27.5 -51.5q-1 -13 6.5 -20t23.5 -7q19 0 41 12l-15 -99q-37 -17 -79 -17q-56 0 -83.5 31.5t-19.5 77.5q12 68 94 127h-30l-30 129h-321l-71 -131h-159l396 700h163zM391 502l-137 -247h226l-56 247q-7 27 -8 60q-14 -40 -25 -60z" />
    <glyph glyph-name="aogonek" unicode="&#x105;" horiz-adv-x="620" 
d="M517 0h1q-37 -22 -62.5 -52t-27.5 -52q-1 -12 6.5 -19t23.5 -7q22 0 41 9l-15 -98q-36 -15 -78 -15q-57 0 -84.5 31t-19.5 78q12 64 94 132l10 64q-67 -85 -181 -85q-109 0 -162.5 78t-36.5 185q16 101 88.5 173t178.5 72q115 0 165 -94l13 80h122zM164 237
q-9 -56 18 -95t82 -39q46 0 84 24t60 60l19 112q-9 34 -37.5 56t-69.5 22q-61 0 -103.5 -39.5t-52.5 -100.5z" />
    <glyph glyph-name="Cacute" unicode="&#x106;" horiz-adv-x="650" 
d="M47 364q14 86 58.5 155t105.5 110.5t128 63t132 21.5q113 0 197 -51l-21 -134q-61 52 -158 52q-64 0 -123 -22t-108 -76.5t-61 -132.5q-17 -110 46.5 -170t159.5 -60q107 0 193 57l-24 -149q-87 -42 -200 -42q-70 0 -133 24t-112 69t-72 119t-8 166zM533 764h-144
l113 148h162z" />
    <glyph glyph-name="cacute" unicode="&#x107;" horiz-adv-x="493" 
d="M25 247q10 65 41.5 114.5t75.5 77.5t91 42t96 14q87 0 152 -41l-19 -115q-47 35 -118 35q-67 0 -118 -34t-62 -104q-9 -65 27.5 -97.5t99.5 -32.5q72 0 146 36l-20 -125q-72 -31 -160 -31q-112 0 -182 67t-50 194zM375 544h-144l113 148h162z" />
    <glyph glyph-name="Cdotaccent" unicode="&#x10a;" horiz-adv-x="650" 
d="M47 364q14 86 58.5 155t105.5 110.5t128 63t132 21.5q113 0 197 -51l-21 -134q-61 52 -158 52q-64 0 -123 -22t-108 -76.5t-61 -132.5q-17 -110 46.5 -170t159.5 -60q107 0 193 57l-24 -149q-87 -42 -200 -42q-70 0 -133 24t-112 69t-72 119t-8 166zM564 830
q-6 -35 -29.5 -52.5t-56.5 -17.5q-38 0 -59.5 23t-14.5 65q6 35 29.5 52.5t56.5 17.5q37 0 58.5 -23t15.5 -65z" />
    <glyph glyph-name="cdotaccent" unicode="&#x10b;" horiz-adv-x="493" 
d="M25 247q10 65 41.5 114.5t75.5 77.5t91 42t96 14q87 0 152 -41l-19 -115q-47 35 -118 35q-67 0 -118 -34t-62 -104q-9 -65 27.5 -97.5t99.5 -32.5q72 0 146 36l-20 -125q-72 -31 -160 -31q-112 0 -182 67t-50 194zM406 610q-6 -35 -29.5 -52.5t-56.5 -17.5
q-38 0 -59.5 23t-14.5 65q6 35 29.5 52.5t56.5 17.5q37 0 58.5 -23t15.5 -65z" />
    <glyph glyph-name="Ccaron" unicode="&#x10c;" horiz-adv-x="650" 
d="M47 364q14 86 58.5 155t105.5 110.5t128 63t132 21.5q113 0 197 -51l-21 -134q-61 52 -158 52q-64 0 -123 -22t-108 -76.5t-61 -132.5q-17 -110 46.5 -170t159.5 -60q107 0 193 57l-24 -149q-87 -42 -200 -42q-70 0 -133 24t-112 69t-72 119t-8 166zM692 915l-155 -155
h-123l-106 155h128l48 -72l71 72h137z" />
    <glyph glyph-name="ccaron" unicode="&#x10d;" horiz-adv-x="493" 
d="M25 247q10 65 41.5 114.5t75.5 77.5t91 42t96 14q87 0 152 -41l-19 -115q-47 35 -118 35q-67 0 -118 -34t-62 -104q-9 -65 27.5 -97.5t99.5 -32.5q72 0 146 36l-20 -125q-72 -31 -160 -31q-112 0 -182 67t-50 194zM534 695l-155 -155h-123l-106 155h128l48 -72l71 72h137
z" />
    <glyph glyph-name="Dcaron" unicode="&#x10e;" horiz-adv-x="742" 
d="M140 700h259q175 0 257 -99t57 -260q-25 -156 -129 -248.5t-283 -92.5h-272zM562 359q17 104 -28 156.5t-149 52.5h-116l-69 -436h109q104 0 170 58t83 169zM622 915l-155 -155h-123l-106 155h128l48 -72l71 72h137z" />
    <glyph glyph-name="dcaron" unicode="&#x10f;" horiz-adv-x="620" 
d="M690 700h126l-64 -202h-110zM490 700h138l-111 -700h-122l11 71q-62 -85 -181 -85q-109 0 -162.5 78t-36.5 185q16 101 88 173t177 72q104 0 154 -76zM427 302q-9 32 -38 53.5t-69 21.5q-61 0 -103.5 -39t-52.5 -102q-9 -55 18 -94t82 -39q46 0 84 24t60 60z" />
    <glyph glyph-name="Dcroat" unicode="&#x110;" horiz-adv-x="752" 
d="M151 700h258q175 0 257 -99.5t57 -259.5q-25 -157 -128.5 -249t-283.5 -92h-271l46 294h-73l18 111h73zM320 132q104 0 170 58t83 169q17 104 -28 156.5t-149 52.5h-116l-26 -163h157l-18 -111h-156l-26 -162h109z" />
    <glyph glyph-name="dcroat" unicode="&#x111;" horiz-adv-x="621" 
d="M617 632h60l-13 -86h-60l-87 -546h-122l11 71q-62 -85 -181 -85q-109 0 -162.5 78t-36.5 185q16 101 88 173t177 72q104 0 154 -76l20 128h-134l14 86h134l11 68h138zM264 103q46 0 84 24t60 60l19 115q-9 32 -38 53.5t-69 21.5q-61 0 -103.5 -39t-52.5 -102
q-9 -55 18 -94t82 -39z" />
    <glyph glyph-name="Emacron" unicode="&#x112;" horiz-adv-x="618" 
d="M140 700h493l-21 -132h-344l-23 -149h313l-20 -131h-314l-25 -156h350l-21 -132h-499zM255 884h326l-18 -110h-326z" />
    <glyph glyph-name="emacron" unicode="&#x113;" horiz-adv-x="543" 
d="M25 250q9 62 38 110.5t68.5 76.5t83 42.5t87.5 14.5q56 0 99 -17.5t67.5 -47.5t36 -68.5t8.5 -81t-19 -85.5h-339q3 -50 45.5 -74t102.5 -24q91 0 157 33l-17 -113q-70 -30 -174 -30q-75 0 -134 30t-90.5 91t-19.5 143zM384 284q10 36 -9 70t-75 34q-48 0 -84.5 -29
t-46.5 -75h215zM169 664h326l-18 -110h-326z" />
    <glyph glyph-name="Edotaccent" unicode="&#x116;" horiz-adv-x="618" 
d="M140 700h493l-21 -132h-344l-23 -149h313l-20 -131h-314l-25 -156h350l-21 -132h-499zM483 830q-6 -35 -29.5 -52.5t-56.5 -17.5q-38 0 -59.5 23t-14.5 65q6 35 29.5 52.5t56.5 17.5q37 0 58.5 -23t15.5 -65z" />
    <glyph glyph-name="edotaccent" unicode="&#x117;" horiz-adv-x="543" 
d="M25 250q9 62 38 110.5t68.5 76.5t83 42.5t87.5 14.5q56 0 99 -17.5t67.5 -47.5t36 -68.5t8.5 -81t-19 -85.5h-339q3 -50 45.5 -74t102.5 -24q91 0 157 33l-17 -113q-70 -30 -174 -30q-75 0 -134 30t-90.5 91t-19.5 143zM384 284q10 36 -9 70t-75 34q-48 0 -84.5 -29
t-46.5 -75h215zM397 610q-6 -35 -29.5 -52.5t-56.5 -17.5q-38 0 -59.5 23t-14.5 65q6 35 29.5 52.5t56.5 17.5q37 0 58.5 -23t15.5 -65z" />
    <glyph glyph-name="Eogonek" unicode="&#x118;" horiz-adv-x="618" 
d="M633 700l-21 -132h-344l-23 -149h313l-20 -131h-314l-25 -156h350l-21 -132q-38 -23 -63 -52t-26 -51q-3 -27 26 -27q20 0 43 10l-16 -97q-39 -17 -81 -17q-54 0 -80.5 31t-18.5 78q12 69 96 125h-379l111 700h493z" />
    <glyph glyph-name="eogonek" unicode="&#x119;" horiz-adv-x="543" 
d="M391 -215q-35 -19 -84 -19q-56 0 -83.5 31t-19.5 78q11 61 85 112q-6 -1 -20 -1q-75 0 -134 30t-90.5 91t-19.5 143q9 62 38 110.5t68.5 76.5t83 42.5t87.5 14.5q56 0 99 -17.5t67.5 -47.5t36 -68.5t8.5 -81t-19 -85.5h-339q3 -50 45.5 -74t102.5 -24q91 0 157 33
l-17 -113q-54 -35 -82 -66t-30 -54q-2 -26 30 -26q22 0 45 14zM300 388q-48 0 -84.5 -29t-46.5 -75h215q10 36 -9 70t-75 34z" />
    <glyph glyph-name="Ecaron" unicode="&#x11a;" horiz-adv-x="618" 
d="M140 700h493l-21 -132h-344l-23 -149h313l-20 -131h-314l-25 -156h350l-21 -132h-499zM611 915l-155 -155h-123l-106 155h128l48 -72l71 72h137z" />
    <glyph glyph-name="ecaron" unicode="&#x11b;" horiz-adv-x="543" 
d="M25 250q9 62 38 110.5t68.5 76.5t83 42.5t87.5 14.5q56 0 99 -17.5t67.5 -47.5t36 -68.5t8.5 -81t-19 -85.5h-339q3 -50 45.5 -74t102.5 -24q91 0 157 33l-17 -113q-70 -30 -174 -30q-75 0 -134 30t-90.5 91t-19.5 143zM384 284q10 36 -9 70t-75 34q-48 0 -84.5 -29
t-46.5 -75h215zM525 695l-155 -155h-123l-106 155h128l48 -72l71 72h137z" />
    <glyph glyph-name="Gbreve" unicode="&#x11e;" horiz-adv-x="701" 
d="M47 362q14 90 58.5 160t106 110.5t129 61t137.5 20.5q119 0 211 -47l-21 -136q-64 49 -178 49q-47 0 -93 -13.5t-87.5 -40.5t-71.5 -74t-40 -107q-8 -52 0.5 -93t28.5 -66t49.5 -41t58.5 -22t61 -6q48 0 85 14l40 249h143l-55 -348q-107 -46 -228 -46q-75 0 -140 22.5
t-114.5 66.5t-72 118.5t-7.5 168.5zM637 793q-73 -45 -159 -45q-95 0 -154 45l17 109q63 -43 146 -43q91 0 167 43z" />
    <glyph glyph-name="gbreve" unicode="&#x11f;" horiz-adv-x="622" 
d="M519 9q-20 -124 -103.5 -183.5t-199.5 -59.5q-120 0 -206 49l19 117q71 -49 174 -49q70 0 118 31t59 97l7 44q-56 -69 -163 -69q-109 0 -162.5 78t-36.5 185q16 100 89 172.5t178 72.5q115 0 164 -90l13 76h124zM163 236q-9 -55 18 -94t82 -39q46 0 84 23.5t60 58.5
l19 117q-9 32 -38 53.5t-69 21.5q-61 0 -103.5 -39t-52.5 -102zM476 573q-74 -45 -159 -45q-95 0 -154 45l17 109q63 -43 146 -43q91 0 167 43z" />
    <glyph glyph-name="Gdotaccent" unicode="&#x120;" horiz-adv-x="701" 
d="M47 362q14 90 58.5 160t106 110.5t129 61t137.5 20.5q119 0 211 -47l-21 -136q-64 49 -178 49q-47 0 -93 -13.5t-87.5 -40.5t-71.5 -74t-40 -107q-8 -52 0.5 -93t28.5 -66t49.5 -41t58.5 -22t61 -6q48 0 85 14l40 249h143l-55 -348q-107 -46 -228 -46q-75 0 -140 22.5
t-114.5 66.5t-72 118.5t-7.5 168.5zM563 830q-6 -35 -29.5 -52.5t-56.5 -17.5q-38 0 -59.5 23t-14.5 65q6 35 29.5 52.5t56.5 17.5q37 0 58.5 -23t15.5 -65z" />
    <glyph glyph-name="gdotaccent" unicode="&#x121;" horiz-adv-x="622" 
d="M519 9q-20 -124 -103.5 -183.5t-199.5 -59.5q-120 0 -206 49l19 117q71 -49 174 -49q70 0 118 31t59 97l7 44q-56 -69 -163 -69q-109 0 -162.5 78t-36.5 185q16 100 89 172.5t178 72.5q115 0 164 -90l13 76h124zM163 236q-9 -55 18 -94t82 -39q46 0 84 23.5t60 58.5
l19 117q-9 32 -38 53.5t-69 21.5q-61 0 -103.5 -39t-52.5 -102zM402 610q-6 -35 -29.5 -52.5t-56.5 -17.5q-38 0 -59.5 23t-14.5 65q6 35 29.5 52.5t56.5 17.5q37 0 58.5 -23t15.5 -65z" />
    <glyph glyph-name="Gcommaaccent" unicode="&#x122;" horiz-adv-x="701" 
d="M47 362q14 90 58.5 160t106 110.5t129 61t137.5 20.5q119 0 211 -47l-21 -136q-64 49 -178 49q-47 0 -93 -13.5t-87.5 -40.5t-71.5 -74t-40 -107q-8 -52 0.5 -93t28.5 -66t49.5 -41t58.5 -22t61 -6q48 0 85 14l40 249h143l-55 -348q-107 -46 -228 -46q-75 0 -140 22.5
t-114.5 66.5t-72 118.5t-7.5 168.5zM387 -260h-113l58 197h130z" />
    <glyph glyph-name="gcommaaccent" unicode="&#x123;" horiz-adv-x="622" 
d="M371 540h-120l78 194h104zM519 9q-20 -124 -103.5 -183.5t-199.5 -59.5q-120 0 -206 49l19 117q71 -49 174 -49q70 0 118 31t59 97l7 44q-56 -69 -163 -69q-109 0 -162.5 78t-36.5 185q16 100 89 172.5t178 72.5q115 0 164 -90l13 76h124zM163 236q-9 -55 18 -94t82 -39
q46 0 84 23.5t60 58.5l19 117q-9 32 -38 53.5t-69 21.5q-61 0 -103.5 -39t-52.5 -102z" />
    <glyph glyph-name="Hbar" unicode="&#x126;" horiz-adv-x="777" 
d="M185 0h-150l79 497h-68l15 96h68l17 107h150l-17 -107h314l17 107h150l-17 -107h68l-15 -96h-68l-79 -497h-150l46 289h-315zM264 497l-14 -86h314l14 86h-314z" />
    <glyph glyph-name="hbar" unicode="&#x127;" horiz-adv-x="590" 
d="M220 434q72 60 152 60q90 0 134.5 -57.5t31.5 -143.5l-47 -293h-139l45 283q7 46 -12.5 68.5t-58.5 22.5q-67 0 -126 -65l-48 -309h-139l86 546h-61l13 86h62l11 68h139l-12 -68h132l-13 -86h-132z" />
    <glyph glyph-name="Imacron" unicode="&#x12a;" horiz-adv-x="301" 
d="M140 700h150l-111 -700h-150zM83 884h326l-18 -110h-326z" />
    <glyph glyph-name="imacron" unicode="&#x12b;" horiz-adv-x="259" 
d="M297 564h-246l15 97h246zM153 0h-139l76 480h139z" />
    <glyph glyph-name="Iogonek" unicode="&#x12e;" horiz-adv-x="301" 
d="M290 700l-111 -700q-78 -58 -81 -103q-1 -13 7 -20.5t24 -6.5q21 0 45 13l-15 -98q-37 -19 -84 -19q-55 0 -83 31t-20 78q12 66 88 127h-30l111 698h149z" />
    <glyph glyph-name="iogonek" unicode="&#x12f;" horiz-adv-x="259" 
d="M104 647q6 36 30 53.5t57 17.5q37 0 58.5 -23t15.5 -65q-6 -36 -30 -53.5t-57 -17.5q-37 0 -58.5 23t-15.5 65zM153 0h-1q-66 -60 -70 -102q-1 -13 6.5 -20.5t23.5 -7.5q23 0 43 7l-16 -94q-35 -17 -80 -17q-57 0 -84 30.5t-19 79.5q10 57 78 124h-20l76 480h139z" />
    <glyph glyph-name="Idotaccent" unicode="&#x130;" horiz-adv-x="301" 
d="M140 700h150l-111 -700h-150zM311 830q-6 -35 -29.5 -52.5t-56.5 -17.5q-38 0 -59.5 23t-14.5 65q6 35 29.5 52.5t56.5 17.5q37 0 58.5 -23t15.5 -65z" />
    <glyph glyph-name="dotlessi" unicode="&#x131;" horiz-adv-x="259" 
d="M153 0h-139l76 480h139z" />
    <glyph glyph-name="IJ" unicode="&#x132;" horiz-adv-x="814" 
d="M140 700h150l-111 -700h-150zM473 700h335l-77 -490q-35 -223 -279 -223q-113 0 -178 38l21 135q58 -35 136 -35q137 0 154 111l52 329h-185z" />
    <glyph glyph-name="ij" unicode="&#x133;" horiz-adv-x="518" 
d="M153 0h-139l76 480h139zM265 630q-6 -36 -30 -53.5t-57 -17.5q-37 0 -58.5 23t-15.5 65q6 36 30 53.5t57 17.5q37 0 58.5 -23t15.5 -65zM399 -79q-24 -155 -186 -155q-52 0 -91 17l18 114q20 -9 49 -9q66 0 78 71l82 521h139zM524 630q-6 -36 -30 -53.5t-57 -17.5
q-37 0 -58.5 23t-15.5 65q6 36 30 53.5t57 17.5q37 0 58.5 -23t15.5 -65z" />
    <glyph glyph-name="Kcommaaccent" unicode="&#x136;" horiz-adv-x="690" 
d="M581 700h166l-278 -352l178 -348h-159l-146 286h-118l-45 -286h-150l111 700h150l-44 -278h116zM326 -250h-113l58 197h130z" />
    <glyph glyph-name="kcommaaccent" unicode="&#x137;" horiz-adv-x="545" 
d="M406 480h160l-206 -240l139 -240h-146l-110 194h-62l-30 -194h-139l111 700h139l-64 -396h60zM241 -250h-113l58 197h130z" />
    <glyph glyph-name="Lacute" unicode="&#x139;" horiz-adv-x="579" 
d="M140 700h150l-90 -565h344l-22 -135h-493zM297 764h-144l113 148h162z" />
    <glyph glyph-name="lacute" unicode="&#x13a;" horiz-adv-x="259" 
d="M130 730h139l-116 -730h-139zM276 777h-144l113 148h162z" />
    <glyph glyph-name="Lcommaaccent" unicode="&#x13b;" horiz-adv-x="579" 
d="M140 700h150l-90 -565h344l-22 -135h-493zM274 -250h-113l58 197h130z" />
    <glyph glyph-name="lcommaaccent" unicode="&#x13c;" horiz-adv-x="259" 
d="M130 730h139l-116 -730h-139zM67 -250h-113l58 197h130z" />
    <glyph glyph-name="Lcaron" unicode="&#x13d;" horiz-adv-x="581" 
d="M442 700h126l-71 -202h-103zM140 700h150l-90 -565h344l-22 -135h-493z" />
    <glyph glyph-name="lcaron" unicode="&#x13e;" horiz-adv-x="259" 
d="M331 730h126l-64 -202h-110zM130 730h139l-116 -730h-139z" />
    <glyph glyph-name="Ldot" unicode="&#x13f;" horiz-adv-x="586" 
d="M487 379q-6 -34 -29 -51t-54 -17q-36 0 -57 22.5t-15 63.5q5 33 28.5 50t54.5 17q37 0 57.5 -22t14.5 -63zM140 700h150l-90 -565h344l-22 -135h-493z" />
    <glyph glyph-name="ldot" unicode="&#x140;" horiz-adv-x="410" 
d="M130 730h139l-116 -730h-139zM427 341q-6 -37 -30.5 -55t-58.5 -18q-39 0 -61.5 23.5t-15.5 67.5q6 36 31 54.5t59 18.5q39 0 61 -23.5t15 -67.5z" />
    <glyph glyph-name="Lslash" unicode="&#x141;" horiz-adv-x="601" 
d="M545 0h-494l39 247l-84 -31l19 122l85 31l52 331h150l-44 -275l185 68l-19 -122l-185 -68l-27 -168h344z" />
    <glyph glyph-name="lslash" unicode="&#x142;" horiz-adv-x="361" 
d="M183 730h138l-46 -288l83 31l-17 -109l-83 -31l-53 -333h-138l43 278l-82 -31l17 109l83 32z" />
    <glyph glyph-name="Nacute" unicode="&#x143;" horiz-adv-x="765" 
d="M179 0h-150l111 700h125l271 -457q3 52 11 98l57 359h150l-111 -700h-125l-271 457q-1 -36 -9 -93zM506 764h-144l113 148h162z" />
    <glyph glyph-name="nacute" unicode="&#x144;" horiz-adv-x="589" 
d="M200 418q81 76 176 76q87 0 130.5 -57t30.5 -142l-47 -295h-139l45 283q7 47 -12.5 69t-58.5 22q-66 0 -126 -64l-48 -310h-139l76 480h122zM396 544h-144l113 148h162z" />
    <glyph glyph-name="Ncommaaccent" unicode="&#x145;" horiz-adv-x="765" 
d="M179 0h-150l111 700h125l271 -457q3 52 11 98l57 359h150l-111 -700h-125l-271 457q-1 -36 -9 -93zM337 -250h-113l58 197h130z" />
    <glyph glyph-name="ncommaaccent" unicode="&#x146;" horiz-adv-x="589" 
d="M200 418q81 76 176 76q87 0 130.5 -57t30.5 -142l-47 -295h-139l45 283q7 47 -12.5 69t-58.5 22q-66 0 -126 -64l-48 -310h-139l76 480h122zM239 -250h-113l58 197h130z" />
    <glyph glyph-name="Ncaron" unicode="&#x147;" horiz-adv-x="765" 
d="M179 0h-150l111 700h125l271 -457q3 52 11 98l57 359h150l-111 -700h-125l-271 457q-1 -36 -9 -93zM665 915l-155 -155h-123l-106 155h128l48 -72l71 72h137z" />
    <glyph glyph-name="ncaron" unicode="&#x148;" horiz-adv-x="589" 
d="M200 418q81 76 176 76q87 0 130.5 -57t30.5 -142l-47 -295h-139l45 283q7 47 -12.5 69t-58.5 22q-66 0 -126 -64l-48 -310h-139l76 480h122zM555 695l-155 -155h-123l-106 155h128l48 -72l71 72h137z" />
    <glyph glyph-name="Eng" unicode="&#x14a;" horiz-adv-x="765" 
d="M635 -49q-15 -90 -66 -136t-127 -46q-44 0 -85 12l20 124q17 -6 37 -6q62 0 74 74l11 59l-252 425q-1 -35 -9 -92l-59 -365h-150l111 700h124l272 -456q3 50 11 98l57 358h150z" />
    <glyph glyph-name="eng" unicode="&#x14b;" horiz-adv-x="589" 
d="M477 -79q-24 -155 -180 -155q-45 0 -81 16l18 114q19 -8 45 -8q54 0 65 71l52 324q7 47 -12.5 69t-58.5 22q-66 0 -126 -64l-48 -310h-139l76 480h122l-10 -62q81 76 176 76q87 0 130.5 -57t30.5 -142z" />
    <glyph glyph-name="Omacron" unicode="&#x14c;" horiz-adv-x="814" 
d="M787 341q-11 -71 -44 -134t-85 -113t-127.5 -79t-164.5 -29q-115 0 -194.5 53t-110.5 137t-15 183q24 148 136.5 251.5t285.5 103.5q112 0 191 -53t111.5 -137.5t16.5 -182.5zM196 346q-14 -92 31.5 -156.5t146.5 -64.5q108 0 177 64.5t85 164.5q14 92 -31.5 156.5
t-146.5 64.5q-107 0 -176.5 -64.5t-85.5 -164.5zM337 884h326l-18 -110h-326z" />
    <glyph glyph-name="omacron" unicode="&#x14d;" horiz-adv-x="593" 
d="M552 228q-18 -115 -105 -178.5t-192 -63.5q-112 0 -180.5 71.5t-49.5 194.5q19 116 104.5 179t194.5 63q108 0 178 -72t50 -194zM163 238q-8 -55 18.5 -91.5t84.5 -36.5t98 36.5t50 95.5q8 55 -18 91.5t-83 36.5q-59 0 -99.5 -36.5t-50.5 -95.5zM189 658h326l-18 -110
h-326z" />
    <glyph glyph-name="Ohungarumlaut" unicode="&#x150;" horiz-adv-x="814" 
d="M787 341q-11 -71 -44 -134t-85 -113t-127.5 -79t-164.5 -29q-115 0 -194.5 53t-110.5 137t-15 183q24 148 136.5 251.5t285.5 103.5q112 0 191 -53t111.5 -137.5t16.5 -182.5zM196 346q-14 -92 31.5 -156.5t146.5 -64.5q108 0 177 64.5t85 164.5q14 92 -31.5 156.5
t-146.5 64.5q-107 0 -176.5 -64.5t-85.5 -164.5zM634 774h-129l97 153h137zM453 774h-129l97 153h137z" />
    <glyph glyph-name="ohungarumlaut" unicode="&#x151;" horiz-adv-x="593" 
d="M552 228q-18 -115 -105 -178.5t-192 -63.5q-112 0 -180.5 71.5t-49.5 194.5q19 116 104.5 179t194.5 63q108 0 178 -72t50 -194zM163 238q-8 -55 18.5 -91.5t84.5 -36.5t98 36.5t50 95.5q8 55 -18 91.5t-83 36.5q-59 0 -99.5 -36.5t-50.5 -95.5zM486 548h-129l97 153h137
zM305 548h-129l97 153h137z" />
    <glyph glyph-name="OE" unicode="&#x152;" horiz-adv-x="1043" 
d="M484 -1q-51 -13 -112 -13q-117 0 -198 53.5t-112.5 140t-14.5 188.5q24 145 135.5 245.5t280.5 100.5q68 0 120 -15l475 1l-21 -132h-320l-24 -149h291l-21 -131h-290l-25 -156h326l-21 -132zM198 354q-17 -102 36 -167.5t153 -65.5q58 0 113 22l66 418q-37 18 -105 18
q-100 0 -173.5 -62.5t-89.5 -162.5z" />
    <glyph glyph-name="oe" unicode="&#x153;" horiz-adv-x="935" 
d="M461 82q-74 -95 -213 -95q-108 0 -175 71.5t-48 194.5q12 78 58.5 134.5t106.5 82t127 25.5q129 0 181 -93q74 92 199 92q70 0 118.5 -27t68 -70t22 -96.5t-19.5 -106.5h-339q3 -50 45.5 -74t102.5 -24q89 0 157 33l-18 -113q-70 -30 -174 -30q-66 0 -118.5 24.5
t-80.5 71.5zM163 238q-8 -55 17.5 -91.5t81.5 -36.5q61 0 101.5 36t50.5 96q8 55 -17.5 91.5t-80.5 36.5q-61 0 -102 -36t-51 -96zM691 388q-48 0 -84.5 -29t-46.5 -75h215q10 36 -9 70t-75 34z" />
    <glyph glyph-name="Racute" unicode="&#x154;" horiz-adv-x="706" 
d="M179 0h-150l111 700h284q52 0 97.5 -12t84 -38t56 -74t7.5 -112q-25 -155 -183 -201l163 -263h-162l-147 245h-123zM269 568l-31 -198h141q53 0 91.5 26t46.5 76q8 51 -21 73.5t-82 22.5h-145zM450 764h-144l113 148h162z" />
    <glyph glyph-name="racute" unicode="&#x155;" horiz-adv-x="393" 
d="M200 410q67 93 209 79l-21 -134q-61 13 -113 -9t-81 -69l-43 -277h-139l76 480h123zM316 544h-144l113 148h162z" />
    <glyph glyph-name="Rcommaaccent" unicode="&#x156;" horiz-adv-x="706" 
d="M179 0h-150l111 700h284q52 0 97.5 -12t84 -38t56 -74t7.5 -112q-25 -155 -183 -201l163 -263h-162l-147 245h-123zM269 568l-31 -198h141q53 0 91.5 26t46.5 76q8 51 -21 73.5t-82 22.5h-145zM324 -250h-113l58 197h130z" />
    <glyph glyph-name="rcommaaccent" unicode="&#x157;" horiz-adv-x="393" 
d="M200 410q67 93 209 79l-21 -134q-61 13 -113 -9t-81 -69l-43 -277h-139l76 480h123zM64 -250h-113l58 197h130z" />
    <glyph glyph-name="Rcaron" unicode="&#x158;" horiz-adv-x="706" 
d="M179 0h-150l111 700h284q52 0 97.5 -12t84 -38t56 -74t7.5 -112q-25 -155 -183 -201l163 -263h-162l-147 245h-123zM269 568l-31 -198h141q53 0 91.5 26t46.5 76q8 51 -21 73.5t-82 22.5h-145zM609 915l-155 -155h-123l-106 155h128l48 -72l71 72h137z" />
    <glyph glyph-name="rcaron" unicode="&#x159;" horiz-adv-x="393" 
d="M200 410q67 93 209 79l-21 -134q-61 13 -113 -9t-81 -69l-43 -277h-139l76 480h123zM475 695l-155 -155h-123l-106 155h128l48 -72l71 72h137z" />
    <glyph glyph-name="Sacute" unicode="&#x15a;" horiz-adv-x="602" 
d="M81 526q15 92 94.5 140t184.5 48q132 0 222 -58l-20 -134q-84 62 -197 60q-124 -2 -133 -68q-3 -24 16 -43t50.5 -32.5t70 -28t75.5 -33.5t66 -43.5t43 -63.5t5 -89q-34 -195 -293 -195q-150 0 -256 65l22 138q96 -71 230 -71t145 68q4 28 -13.5 49t-48.5 36t-69 29.5
t-75.5 33t-67 42t-44.5 62t-7 88.5zM419 764h-144l113 148h162z" />
    <glyph glyph-name="sacute" unicode="&#x15b;" horiz-adv-x="478" 
d="M44 355q12 74 75 106.5t145 32.5q98 0 178 -41l-18 -114q-72 49 -159 49q-73 0 -78 -39q-3 -21 23 -36t64.5 -26.5t76.5 -27.5t61 -50t15 -83q-22 -140 -234 -140q-119 0 -189 46l18 115q70 -52 174 -52q83 0 90 38q3 20 -23 35t-64.5 27t-76.5 28.5t-61.5 50t-16.5 81.5
zM322 544h-144l113 148h162z" />
    <glyph glyph-name="Scedilla" unicode="&#x15e;" horiz-adv-x="602" 
d="M373 -144q-7 -46 -50 -68t-99 -22q-61 0 -109 19l14 86q33 -18 80 -18q61 0 65 28q3 19 -24 25.5t-66 0.5l29 81q-118 10 -204 63l22 138q96 -71 230 -71t145 68q4 28 -13.5 49t-48.5 36t-69 29.5t-75.5 33t-67 42t-44.5 62t-7 88.5q15 92 94.5 140t184.5 48
q132 0 222 -58l-20 -134q-84 62 -197 60q-124 -2 -133 -68q-3 -24 16 -43t50.5 -32.5t70 -28t75.5 -33.5t66 -43.5t43 -63.5t5 -89q-30 -179 -250 -193l-16 -37q46 -5 67 -29.5t14 -65.5z" />
    <glyph glyph-name="scedilla" unicode="&#x15f;" horiz-adv-x="478" 
d="M314 -144q-7 -46 -50 -68t-100 -22q-61 0 -108 19l14 86q33 -18 79 -18q62 0 66 28q3 19 -24 25.5t-67 0.5l29 81q-92 6 -149 44l18 115q70 -52 174 -52q83 0 90 38q3 20 -23 35t-64.5 27t-76.5 28.5t-61.5 50t-16.5 81.5q12 74 75 106.5t145 32.5q98 0 178 -41l-18 -114
q-72 49 -159 49q-73 0 -78 -39q-3 -21 23 -36t64.5 -26.5t76.5 -27.5t61 -50t15 -83q-18 -122 -177 -138l-17 -37q93 -9 81 -95z" />
    <glyph glyph-name="Scaron" unicode="&#x160;" horiz-adv-x="602" 
d="M81 526q15 92 94.5 140t184.5 48q132 0 222 -58l-20 -134q-84 62 -197 60q-124 -2 -133 -68q-3 -24 16 -43t50.5 -32.5t70 -28t75.5 -33.5t66 -43.5t43 -63.5t5 -89q-34 -195 -293 -195q-150 0 -256 65l22 138q96 -71 230 -71t145 68q4 28 -13.5 49t-48.5 36t-69 29.5
t-75.5 33t-67 42t-44.5 62t-7 88.5zM578 915l-155 -155h-123l-106 155h128l48 -72l71 72h137z" />
    <glyph glyph-name="scaron" unicode="&#x161;" horiz-adv-x="478" 
d="M44 355q12 74 75 106.5t145 32.5q98 0 178 -41l-18 -114q-72 49 -159 49q-73 0 -78 -39q-3 -21 23 -36t64.5 -26.5t76.5 -27.5t61 -50t15 -83q-22 -140 -234 -140q-119 0 -189 46l18 115q70 -52 174 -52q83 0 90 38q3 20 -23 35t-64.5 27t-76.5 28.5t-61.5 50t-16.5 81.5
zM481 695l-155 -155h-123l-106 155h128l48 -72l71 72h137z" />
    <glyph glyph-name="Tcommaaccent" unicode="&#x162;" horiz-adv-x="606" 
d="M78 700h579l-21 -135h-215l-89 -565h-150l90 565h-215zM241 -250h-113l58 197h130z" />
    <glyph glyph-name="tcommaaccent" unicode="&#x163;" horiz-adv-x="415" 
d="M145 619l143 34l-27 -173h152l-19 -117h-152l-31 -192q-6 -37 9 -52.5t54 -15.5q50 0 93 18l-18 -114q-48 -21 -125 -21q-76 0 -121 41.5t-32 124.5l33 211h-81l19 117h80zM212 -250h-113l58 197h130z" />
    <glyph glyph-name="Tcaron" unicode="&#x164;" horiz-adv-x="606" 
d="M78 700h579l-21 -135h-215l-89 -565h-150l90 565h-215zM593 915l-155 -155h-123l-106 155h128l48 -72l71 72h137z" />
    <glyph glyph-name="tcaron" unicode="&#x165;" horiz-adv-x="415" 
d="M384 736h126l-63 -198h-110zM145 619l143 34l-27 -173h152l-19 -117h-152l-31 -192q-6 -37 9 -52.5t54 -15.5q50 0 93 18l-18 -114q-48 -21 -125 -21q-76 0 -121 41.5t-32 124.5l33 211h-81l19 117h80z" />
    <glyph glyph-name="Tbar" unicode="&#x166;" horiz-adv-x="617" 
d="M337 0h-150l45 282h-118l16 102h118l29 181h-215l21 135h579l-21 -135h-215l-28 -181h118l-17 -102h-117z" />
    <glyph glyph-name="tbar" unicode="&#x167;" horiz-adv-x="417" 
d="M414 480l-18 -110h-151l-11 -72h128l-13 -83h-129l-7 -44q-6 -37 9 -52.5t54 -15.5q48 0 93 18l-18 -114q-50 -21 -126 -21t-121 41.5t-32 124.5l10 63h-46l13 83h46l12 72h-81l17 110h81l22 139l144 34l-28 -173h152z" />
    <glyph glyph-name="Umacron" unicode="&#x16a;" horiz-adv-x="751" 
d="M597 700h150l-70 -441q-12 -75 -44.5 -129.5t-80 -85t-101 -44.5t-116.5 -14q-60 0 -111.5 15.5t-93 47t-60 88t-6.5 130.5l68 433h150l-69 -433q-12 -79 22 -112.5t107 -33.5q163 0 188 154zM299 884h326l-18 -110h-326z" />
    <glyph glyph-name="umacron" unicode="&#x16b;" horiz-adv-x="588" 
d="M422 480h138l-76 -480h-122l10 62q-66 -76 -166 -76q-91 0 -137 58t-32 144l46 292h138l-44 -283q-15 -91 71 -91q73 0 125 64zM189 664h326l-18 -110h-326z" />
    <glyph glyph-name="Uring" unicode="&#x16e;" horiz-adv-x="751" 
d="M597 700h150l-70 -441q-12 -75 -44.5 -129.5t-80 -85t-101 -44.5t-116.5 -14q-60 0 -111.5 15.5t-93 47t-60 88t-6.5 130.5l68 433h150l-69 -433q-12 -79 22 -112.5t107 -33.5q163 0 188 154zM579 847q-9 -52 -47.5 -82t-88.5 -30t-85.5 36t-26.5 94q9 50 48 79.5
t88 29.5q51 0 86 -35.5t26 -91.5zM413 857q-3 -20 7.5 -32t28.5 -12t32 10.5t17 29.5t-7.5 31.5t-28.5 12.5t-32 -10.5t-17 -29.5z" />
    <glyph glyph-name="uring" unicode="&#x16f;" horiz-adv-x="588" 
d="M422 480h138l-76 -480h-122l10 62q-66 -76 -166 -76q-91 0 -137 58t-32 144l46 292h138l-44 -283q-15 -91 71 -91q73 0 125 64zM469 627q-9 -52 -47.5 -82t-88.5 -30t-85.5 36t-26.5 94q9 50 48 79.5t88 29.5q51 0 86 -35.5t26 -91.5zM303 637q-3 -20 7.5 -32t28.5 -12
t32 10.5t17 29.5t-7.5 31.5t-28.5 12.5t-32 -10.5t-17 -29.5z" />
    <glyph glyph-name="Uhungarumlaut" unicode="&#x170;" horiz-adv-x="751" 
d="M597 700h150l-70 -441q-12 -75 -44.5 -129.5t-80 -85t-101 -44.5t-116.5 -14q-60 0 -111.5 15.5t-93 47t-60 88t-6.5 130.5l68 433h150l-69 -433q-12 -79 22 -112.5t107 -33.5q163 0 188 154zM596 774h-129l97 153h137zM415 774h-129l97 153h137z" />
    <glyph glyph-name="uhungarumlaut" unicode="&#x171;" horiz-adv-x="588" 
d="M422 480h138l-76 -480h-122l10 62q-66 -76 -166 -76q-91 0 -137 58t-32 144l46 292h138l-44 -283q-15 -91 71 -91q73 0 125 64zM486 554h-129l97 153h137zM305 554h-129l97 153h137z" />
    <glyph glyph-name="Uogonek" unicode="&#x172;" horiz-adv-x="751" 
d="M530 275l67 425h150l-70 -441q-22 -139 -119 -211q-65 -48 -93.5 -86.5t-30.5 -64.5q-1 -13 6.5 -20.5t24.5 -6.5q24 0 45 13l-15 -98q-37 -19 -85 -19q-57 0 -84 31t-19 78q10 58 85 114q-28 -3 -57 -3q-60 0 -111.5 15.5t-93 47t-60 88t-6.5 130.5l68 433h150l-69 -433
q-12 -79 22 -112.5t107 -33.5q163 0 188 154z" />
    <glyph glyph-name="uogonek" unicode="&#x173;" horiz-adv-x="588" 
d="M560 480l-76 -480q-37 -22 -62.5 -52t-27.5 -52q-1 -12 6 -19t22 -7q22 0 41 9l-15 -98q-36 -15 -78 -15q-55 0 -82.5 31t-19.5 78q12 66 95 133l9 54q-66 -76 -166 -76q-91 0 -137 58t-32 144l46 292h138l-44 -283q-15 -91 71 -91q73 0 125 64l49 310h138z" />
    <glyph glyph-name="Wcircumflex" unicode="&#x174;" horiz-adv-x="1055" 
d="M945 700h165l-325 -700h-167l-63 473l-214 -473h-165l-105 700h156l58 -528l237 528h130l68 -524zM555 912h122l100 -155h-127l-43 66l-63 -66h-138z" />
    <glyph glyph-name="wcircumflex" unicode="&#x175;" horiz-adv-x="818" 
d="M685 480h153l-236 -480h-146l-44 312l-150 -312h-144l-78 480h138l43 -318l148 318h132l45 -318zM408 692h122l100 -155h-127l-43 66l-63 -66h-138z" />
    <glyph glyph-name="Ycircumflex" unicode="&#x176;" horiz-adv-x="702" 
d="M379 0h-149l40 248l-202 452h162l130 -315l229 315h175l-345 -452zM380 912h122l100 -155h-127l-43 66l-63 -66h-138z" />
    <glyph glyph-name="ycircumflex" unicode="&#x177;" horiz-adv-x="563" 
d="M266 152l157 328h161l-297 -541q-52 -95 -108 -133.5t-122 -38.5q-43 0 -83 15l19 114q24 -10 51 -10q40 0 69.5 27t61.5 86l8 9l-150 472h145zM269 692h122l100 -155h-127l-43 66l-63 -66h-138z" />
    <glyph glyph-name="Ydieresis" unicode="&#x178;" horiz-adv-x="702" 
d="M379 0h-149l40 248l-202 452h162l130 -315l229 315h175l-345 -452zM609 824q-5 -27 -28 -46t-51 -19q-33 0 -53 24.5t-15 58.5q5 27 27.5 46.5t50.5 19.5q34 0 54 -24.5t15 -59.5zM395 824q-5 -27 -28 -46t-51 -19q-33 0 -53 24.5t-15 58.5q5 27 27.5 46.5t50.5 19.5
q34 0 54 -24.5t15 -59.5z" />
    <glyph glyph-name="Zacute" unicode="&#x179;" horiz-adv-x="614" 
d="M534 0h-548l16 106l406 459h-317l21 135h521l-16 -108l-406 -457h344zM436 764h-144l113 148h162z" />
    <glyph glyph-name="zacute" unicode="&#x17a;" horiz-adv-x="482" 
d="M75 480h392l-14 -89l-267 -275h238l-19 -116h-420l14 90l267 275h-209zM341 544h-144l113 148h162z" />
    <glyph glyph-name="Zdotaccent" unicode="&#x17b;" horiz-adv-x="614" 
d="M534 0h-548l16 106l406 459h-317l21 135h521l-16 -108l-406 -457h344zM467 830q-6 -35 -29.5 -52.5t-56.5 -17.5q-38 0 -59.5 23t-14.5 65q6 35 29.5 52.5t56.5 17.5q37 0 58.5 -23t15.5 -65z" />
    <glyph glyph-name="zdotaccent" unicode="&#x17c;" horiz-adv-x="482" 
d="M75 480h392l-14 -89l-267 -275h238l-19 -116h-420l14 90l267 275h-209zM372 610q-6 -35 -29.5 -52.5t-56.5 -17.5q-38 0 -59.5 23t-14.5 65q6 35 29.5 52.5t56.5 17.5q37 0 58.5 -23t15.5 -65z" />
    <glyph glyph-name="Zcaron" unicode="&#x17d;" horiz-adv-x="614" 
d="M534 0h-548l16 106l406 459h-317l21 135h521l-16 -108l-406 -457h344zM595 915l-155 -155h-123l-106 155h128l48 -72l71 72h137z" />
    <glyph glyph-name="zcaron" unicode="&#x17e;" horiz-adv-x="482" 
d="M75 480h392l-14 -89l-267 -275h238l-19 -116h-420l14 90l267 275h-209zM500 695l-155 -155h-123l-106 155h128l48 -72l71 72h137z" />
    <glyph glyph-name="Scommaaccent" unicode="&#x218;" horiz-adv-x="602" 
d="M81 526q15 92 94.5 140t184.5 48q132 0 222 -58l-20 -134q-84 62 -197 60q-124 -2 -133 -68q-3 -24 16 -43t50.5 -32.5t70 -28t75.5 -33.5t66 -43.5t43 -63.5t5 -89q-34 -195 -293 -195q-150 0 -256 65l22 138q96 -71 230 -71t145 68q4 28 -13.5 49t-48.5 36t-69 29.5
t-75.5 33t-67 42t-44.5 62t-7 88.5zM268 -250h-113l58 197h130z" />
    <glyph glyph-name="scommaaccent" unicode="&#x219;" horiz-adv-x="478" 
d="M44 355q12 74 75 106.5t145 32.5q98 0 178 -41l-18 -114q-72 49 -159 49q-73 0 -78 -39q-3 -21 23 -36t64.5 -26.5t76.5 -27.5t61 -50t15 -83q-22 -140 -234 -140q-119 0 -189 46l18 115q70 -52 174 -52q83 0 90 38q3 20 -23 35t-64.5 27t-76.5 28.5t-61.5 50t-16.5 81.5
zM203 -250h-113l58 197h130z" />
    <glyph glyph-name="uni021A" unicode="&#x21a;" horiz-adv-x="606" 
d="M78 700h579l-21 -135h-215l-89 -565h-150l90 565h-215zM241 -250h-113l58 197h130z" />
    <glyph glyph-name="uni021B" unicode="&#x21b;" horiz-adv-x="415" 
d="M145 619l143 34l-27 -173h152l-19 -117h-152l-31 -192q-6 -37 9 -52.5t54 -15.5q50 0 93 18l-18 -114q-48 -21 -125 -21q-76 0 -121 41.5t-32 124.5l33 211h-81l19 117h80zM212 -250h-113l58 197h130z" />
    <glyph glyph-name="circumflex" unicode="&#x2c6;" horiz-adv-x="368" 
d="M245 912h122l100 -155h-127l-43 66l-63 -66h-138z" />
    <glyph glyph-name="caron" unicode="&#x2c7;" horiz-adv-x="368" 
d="M501 915l-155 -155h-123l-106 155h128l48 -72l71 72h137z" />
    <glyph glyph-name="breve" unicode="&#x2d8;" horiz-adv-x="359" 
d="M442 793q-73 -45 -159 -45q-96 0 -154 45l17 109q63 -43 146 -43q91 0 167 43z" />
    <glyph glyph-name="dotaccent" unicode="&#x2d9;" horiz-adv-x="156" 
d="M269 830q-6 -35 -29.5 -52.5t-56.5 -17.5q-38 0 -59.5 23t-14.5 65q6 35 29.5 52.5t56.5 17.5q37 0 58.5 -23t15.5 -65z" />
    <glyph glyph-name="ring" unicode="&#x2da;" horiz-adv-x="247" 
d="M362 847q-9 -52 -47.5 -82t-88.5 -30t-85.5 36t-26.5 94q9 50 48 79.5t88 29.5q51 0 86 -35.5t26 -91.5zM196 857q-3 -20 7.5 -32t28.5 -12t32 10.5t17 29.5t-7.5 31.5t-28.5 12.5t-32 -10.5t-17 -29.5z" />
    <glyph glyph-name="ogonek" unicode="&#x2db;" horiz-adv-x="225" 
d="M61 0h120q-38 -23 -63 -52t-26 -51q-2 -12 5.5 -19.5t24.5 -7.5q24 0 45 12l-16 -99q-33 -17 -83 -17q-57 0 -84 31t-19 78q12 69 96 125z" />
    <glyph glyph-name="tilde" unicode="&#x2dc;" horiz-adv-x="356" 
d="M475 892q4 -63 -27 -101t-81 -38q-35 0 -81.5 21t-58.5 21q-16 0 -23.5 -12.5t-5.5 -23.5h-100q-4 63 27 101t80 38q35 0 82 -21t59 -21q17 0 24 12t5 24h100z" />
    <glyph glyph-name="hungarumlaut" unicode="&#x2dd;" horiz-adv-x="430" 
d="M447 774h-129l97 153h137zM266 774h-129l97 153h137z" />
    <glyph glyph-name="uni0326" unicode="&#x326;" horiz-adv-x="160" 
d="M78 -250h-113l58 197h130z" />
    <glyph glyph-name="uni0401" unicode="&#x401;" horiz-adv-x="617" 
d="M586 824q-5 -27 -28 -46t-51 -19q-33 0 -53 24.5t-15 58.5q5 27 27.5 46.5t50.5 19.5q34 0 54 -24.5t15 -59.5zM372 824q-5 -27 -28 -46t-51 -19q-33 0 -53 24.5t-15 58.5q5 27 27.5 46.5t50.5 19.5q34 0 54 -24.5t15 -59.5zM140 700h493l-21 -132h-344l-23 -149h313
l-20 -131h-314l-25 -156h350l-21 -132h-499z" />
    <glyph glyph-name="uni0410" unicode="&#x410;" horiz-adv-x="739" 
d="M690 0h-151l-31 131h-321l-71 -131h-159l396 700h163zM391 502l-137 -247h226l-56 247q-7 27 -8 60q-14 -40 -25 -60z" />
    <glyph glyph-name="uni0411" unicode="&#x411;" horiz-adv-x="674" 
d="M249 440h153q51 0 94.5 -11t79.5 -36t52 -71.5t6 -110.5q-32 -211 -297 -211h-308l111 700h515l-22 -135h-365zM200 132h152q117 0 132 90q8 52 -21 69t-82 17h-153z" />
    <glyph glyph-name="uni0412" unicode="&#x412;" horiz-adv-x="687" 
d="M140 700h296q109 0 173 -48.5t50 -138.5q-17 -111 -130 -146q54 -16 86 -61t20 -119q-29 -187 -302 -187h-304zM490 211q7 36 -8 57t-38.5 27.5t-56.5 6.5h-161l-28 -180h147q129 0 145 89zM508 496q7 42 -16.5 61.5t-74.5 19.5h-147l-25 -160h148q46 0 77 20.5t38 58.5z
" />
    <glyph glyph-name="uni0413" unicode="&#x413;" horiz-adv-x="577" 
d="M179 0h-150l111 700h489l-21 -135h-340z" />
    <glyph glyph-name="uni0414" unicode="&#x414;" horiz-adv-x="808" 
d="M83 -152h-132l45 284h82q144 192 202 568h474l-90 -568h90l-45 -284h-132l24 152h-494zM401 565q-64 -295 -159 -433h273l69 433h-183z" />
    <glyph glyph-name="uni0415" unicode="&#x415;" horiz-adv-x="617" 
d="M140 700h493l-21 -132h-344l-23 -149h313l-20 -131h-314l-25 -156h350l-21 -132h-499z" />
    <glyph glyph-name="uni0416" unicode="&#x416;" horiz-adv-x="986" 
d="M869 700h165l-252 -348l153 -352h-150l-124 286h-94l-45 -286h-150l46 286h-84l-212 -286h-166l269 359l-141 341h153l113 -278h89l44 278h150l-44 -278h85z" />
    <glyph glyph-name="uni0417" unicode="&#x417;" horiz-adv-x="620" 
d="M567 181q-11 -72 -60.5 -117t-112 -61.5t-140.5 -16.5q-131 0 -256 47l21 134q112 -46 231 -46q156 2 171 95q8 42 -21.5 60t-82.5 18h-168l22 132h137q119 0 133 76q6 39 -26.5 58t-93.5 19q-110 0 -236 -57l23 145q108 47 233 47q120 0 192.5 -52.5t57.5 -147.5
q-18 -110 -135 -146q57 -17 90 -64t21 -123z" />
    <glyph glyph-name="uni0418" unicode="&#x418;" horiz-adv-x="764" 
d="M754 700l-111 -700h-150l58 361q6 42 18 87l-405 -448h-135l111 700h150l-58 -361q-6 -42 -17 -87l404 448h135z" />
    <glyph glyph-name="uni0419" unicode="&#x419;" horiz-adv-x="764" 
d="M754 700l-111 -700h-150l58 361q6 42 18 87l-405 -448h-135l111 700h150l-58 -361q-6 -42 -17 -87l404 448h135zM630 793q-74 -45 -159 -45q-95 0 -154 45l17 109q63 -43 146 -43q91 0 167 43z" />
    <glyph glyph-name="uni041A" unicode="&#x41a;" horiz-adv-x="690" 
d="M581 700h166l-278 -352l178 -348h-159l-146 286h-118l-45 -286h-150l111 700h150l-44 -278h116z" />
    <glyph glyph-name="uni041B" unicode="&#x41b;" horiz-adv-x="749" 
d="M261 700h478l-111 -700h-149l89 565h-188q-14 -65 -22 -99t-22.5 -92.5t-25 -90.5t-27.5 -79t-32.5 -72.5t-38 -56.5t-45.5 -46.5t-52.5 -26.5t-62.5 -11q-54 0 -90 16l20 131q22 -9 50 -7q94 7 164 272q20 75 65 297z" />
    <glyph glyph-name="uni041C" unicode="&#x41c;" horiz-adv-x="906" 
d="M744 700h152l-111 -700h-149l69 434l-220 -275h-101l-135 277l-70 -436h-150l111 700h135l178 -365z" />
    <glyph glyph-name="uni041D" unicode="&#x41d;" horiz-adv-x="764" 
d="M604 700h150l-111 -700h-150l44 282h-314l-44 -282h-150l111 700h150l-45 -282h314z" />
    <glyph glyph-name="uni041E" unicode="&#x41e;" horiz-adv-x="813" 
d="M786 341q-11 -71 -44 -134t-85 -113t-127.5 -79t-164.5 -29q-115 0 -194.5 53t-110.5 137t-15 183q24 148 136.5 251.5t285.5 103.5q112 0 191 -53t111.5 -137.5t16.5 -182.5zM195 346q-14 -92 31.5 -156.5t146.5 -64.5q108 0 177 64.5t85 164.5q14 92 -31.5 156.5
t-146.5 64.5q-107 0 -176.5 -64.5t-85.5 -164.5z" />
    <glyph glyph-name="uni041F" unicode="&#x41f;" horiz-adv-x="759" 
d="M179 0h-150l111 700h609l-111 -700h-149l89 565h-310z" />
    <glyph glyph-name="uni0420" unicode="&#x420;" horiz-adv-x="666" 
d="M140 700h264q61 0 111 -12.5t89 -39.5t56 -76t7 -116q-20 -124 -105 -175t-226 -51h-121l-36 -230h-150zM516 467q17 101 -119 101h-128l-33 -206h122q141 0 158 105z" />
    <glyph glyph-name="uni0421" unicode="&#x421;" horiz-adv-x="649" 
d="M46 364q14 86 58.5 155t105.5 110.5t128 63t132 21.5q113 0 197 -51l-21 -134q-61 52 -158 52q-64 0 -123 -22t-108 -76.5t-61 -132.5q-17 -110 46.5 -170t159.5 -60q107 0 193 57l-24 -149q-87 -42 -200 -42q-70 0 -133 24t-112 69t-72 119t-8 166z" />
    <glyph glyph-name="uni0422" unicode="&#x422;" horiz-adv-x="603" 
d="M77 700h579l-21 -135h-215l-89 -565h-150l90 565h-215z" />
    <glyph glyph-name="uni0423" unicode="&#x423;" horiz-adv-x="662" 
d="M391 156q-61 -96 -118.5 -133t-126.5 -37q-62 0 -113 19l20 126q36 -14 75 -14q67 0 117 65l17 24l-200 494h159l133 -366l211 366h165z" />
    <glyph glyph-name="uni0424" unicode="&#x424;" horiz-adv-x="878" 
d="M460 -39h-144l16 88q-94 6 -166 43t-110 107t-24 161q21 134 124.5 210t269.5 81l14 88h143l-14 -88q67 -5 125 -28.5t100 -62t62 -95.5t9 -125q-22 -134 -124 -210t-267 -81zM180 351q-11 -69 30.5 -119.5t140.5 -58.5l56 353q-105 -8 -160.5 -54.5t-66.5 -120.5z
M550 527l-56 -353q198 17 224 175q11 68 -30.5 119t-137.5 59z" />
    <glyph glyph-name="uni0425" unicode="&#x425;" horiz-adv-x="674" 
d="M124 0h-179l317 361l-187 339h168l119 -223l194 223h179l-299 -340l198 -360h-168l-129 246z" />
    <glyph glyph-name="uni0426" unicode="&#x426;" horiz-adv-x="803" 
d="M704 -152h-132l24 152h-567l111 700h150l-90 -565h311l89 565h150l-89 -565h88z" />
    <glyph glyph-name="uni0427" unicode="&#x427;" horiz-adv-x="692" 
d="M571 0h-149l39 252q-86 -31 -174 -31q-117 1 -180 64.5t-44 180.5l37 234h149l-37 -237q-9 -57 23 -81t97 -24q73 0 151 29l50 313h149z" />
    <glyph glyph-name="uni0428" unicode="&#x428;" horiz-adv-x="1051" 
d="M930 0h-901l111 700h150l-90 -565h226l90 565h150l-90 -565h226l90 565h149z" />
    <glyph glyph-name="uni0429" unicode="&#x429;" horiz-adv-x="1095" 
d="M995 -152h-131l24 152h-859l111 700h150l-90 -565h226l90 565h150l-90 -565h226l90 565h149l-89 -565h89z" />
    <glyph glyph-name="uni042A" unicode="&#x42a;" horiz-adv-x="770" 
d="M400 0h-267l89 565h-166l21 135h316l-36 -230h112q63 0 113.5 -12.5t90 -39.5t56 -76t5.5 -116q-19 -124 -104.5 -175t-229.5 -51zM336 338l-33 -206h118q68 0 110.5 22.5t52.5 83.5q8 54 -26.5 77t-95.5 23h-126z" />
    <glyph glyph-name="uni042B" unicode="&#x42b;" horiz-adv-x="922" 
d="M296 0h-267l111 700h150l-37 -230h113q63 0 113 -12.5t89.5 -39.5t56 -76t6.5 -116q-20 -125 -105.5 -175.5t-229.5 -50.5zM233 338l-33 -206h118q68 0 110.5 22.5t52.5 83.5q8 54 -26.5 77t-95.5 23h-126zM801 0h-150l111 700h150z" />
    <glyph glyph-name="uni042C" unicode="&#x42c;" horiz-adv-x="666" 
d="M296 0h-267l111 700h150l-37 -230h113q63 0 113 -12.5t89.5 -39.5t56 -76t6.5 -116q-20 -125 -105.5 -175.5t-229.5 -50.5zM233 338l-33 -206h118q68 0 110.5 22.5t52.5 83.5q8 54 -26.5 77t-95.5 23h-126z" />
    <glyph glyph-name="uni042D" unicode="&#x42d;" horiz-adv-x="652" 
d="M103 669q84 45 198 45q70 0 132.5 -23t111 -68t70.5 -120.5t7 -170.5q-18 -117 -83 -197t-151 -114.5t-188 -34.5q-112 0 -198 47l22 137q70 -49 168 -49q96 0 169.5 40t102.5 128l-317 -1l20 129l316 1q-2 45 -20.5 77.5t-49.5 50t-64.5 25.5t-71.5 8q-114 0 -197 -55z
" />
    <glyph glyph-name="uni042E" unicode="&#x42e;" horiz-adv-x="1104" 
d="M1078 341q-24 -149 -136 -252t-286 -103q-148 0 -231.5 84.5t-86.5 212.5h-115l-44 -283h-150l111 700h150l-45 -282h111q39 128 143.5 212t258.5 84q112 0 191.5 -53t112 -137.5t16.5 -182.5zM487 346q-14 -92 31.5 -156.5t146.5 -64.5q108 0 177 64.5t85 164.5
q14 92 -31.5 156.5t-146.5 64.5q-107 0 -176.5 -64.5t-85.5 -164.5z" />
    <glyph glyph-name="uni042F" unicode="&#x42f;" horiz-adv-x="699" 
d="M142 0h-176l243 264q-68 28 -101 81.5t-20 129.5q18 116 105 170.5t212 54.5h284l-111 -700h-149l37 238h-104zM240 467q-9 -53 21.5 -78.5t90.5 -25.5h134l33 205h-128q-62 0 -102.5 -25t-48.5 -76z" />
    <glyph glyph-name="uni0430" unicode="&#x430;" horiz-adv-x="620" 
d="M406 71q-67 -85 -181 -85q-109 0 -162.5 78t-36.5 185q16 101 88.5 173t178.5 72q115 0 165 -94l13 80h122l-76 -480h-122zM164 237q-9 -56 18 -95t82 -39q46 0 84 24t60 60l19 112q-9 34 -37.5 56t-69.5 22q-61 0 -103.5 -39.5t-52.5 -100.5z" />
    <glyph glyph-name="uni0431" unicode="&#x431;" horiz-adv-x="584" 
d="M539 210q-17 -108 -93.5 -166t-186.5 -58q-54 0 -97.5 17t-76 52t-45 94t-0.5 136q36 227 194 320q64 34 135 50t123 26.5t82 35.5l-17 -133q-35 -26 -117.5 -39.5t-128.5 -38.5q-43 -19 -73.5 -56t-42.5 -75q62 75 164 75q89 0 143 -65.5t37 -174.5zM170 213
q-5 -46 18 -81t79 -35q61 0 93.5 39t38.5 91q5 43 -17.5 78t-75.5 35q-60 0 -95 -38.5t-41 -88.5z" />
    <glyph glyph-name="uni0432" unicode="&#x432;" horiz-adv-x="548" 
d="M306 0h-294l76 480h279q79 0 115.5 -39.5t28.5 -96.5q-13 -74 -91 -105q37 -12 55.5 -42.5t11.5 -75.5q-8 -53 -51.5 -87t-129.5 -34zM182 199l-16 -104h107q72 0 81 55q4 26 -11 37.5t-43 11.5h-118zM212 385l-16 -102h102q65 0 73 54q4 25 -11 36.5t-43 11.5h-105z" />
    <glyph glyph-name="uni0433" unicode="&#x433;" horiz-adv-x="439" 
d="M151 0h-139l76 480h366l-19 -117h-227z" />
    <glyph glyph-name="uni0434" unicode="&#x434;" horiz-adv-x="652" 
d="M83 -127h-128l37 233h68q98 141 130 374h393l-59 -374h72l-37 -233h-128l20 127h-348zM298 373q-31 -168 -95 -267h185l43 267h-133z" />
    <glyph glyph-name="uni0435" unicode="&#x435;" horiz-adv-x="542" 
d="M25 250q9 62 38 110.5t68.5 76.5t83 42.5t87.5 14.5q56 0 99 -17.5t67.5 -47.5t36 -68.5t8.5 -81t-19 -85.5h-339q3 -50 45.5 -74t102.5 -24q91 0 157 33l-17 -113q-70 -30 -174 -30q-75 0 -134 30t-90.5 91t-19.5 143zM384 284q10 36 -9 70t-75 34q-48 0 -84.5 -29
t-46.5 -75h215z" />
    <glyph glyph-name="uni0436" unicode="&#x436;" horiz-adv-x="789" 
d="M105 0h-151l207 247l-111 233h136l90 -191h50l30 191h139l-30 -191h52l138 191h150l-189 -252l122 -228h-140l-97 179h-54l-28 -179h-139l28 179h-55z" />
    <glyph glyph-name="uni0437" unicode="&#x437;" horiz-adv-x="493" 
d="M433 124q-9 -60 -71 -98.5t-185 -39.5q-115 0 -185 43l17 106q66 -42 154 -42q124 0 133 60q5 28 -20 37.5t-65 9.5h-99l14 87h86q95 0 104 52q3 23 -19.5 36t-66.5 13q-95 0 -179 -41l17 110q82 38 184 37q113 0 164 -44.5t41 -106.5q-12 -76 -96 -99q39 -12 59 -43.5
t13 -76.5z" />
    <glyph glyph-name="uni0438" unicode="&#x438;" horiz-adv-x="589" 
d="M134 0h-122l76 480h139l-42 -263l254 263h122l-76 -480h-138l41 262z" />
    <glyph glyph-name="uni0439" unicode="&#x439;" horiz-adv-x="589" 
d="M498 583q-70 -45 -159 -45t-154 45l16 104q69 -43 146 -43q88 0 167 43zM134 0h-122l76 480h139l-42 -263l254 263h122l-76 -480h-138l41 262z" />
    <glyph glyph-name="uni043A" unicode="&#x43a;" horiz-adv-x="547" 
d="M151 0h-139l76 480h139l-29 -176h61l147 176h160l-206 -240l139 -240h-146l-110 194h-62z" />
    <glyph glyph-name="uni043B" unicode="&#x43b;" horiz-adv-x="589" 
d="M283 370q-19 -93 -36.5 -153.5t-44.5 -116.5t-65 -83t-88 -27q-48 0 -82 13l18 113q14 -10 39 -8q52 3 84.5 95.5t63.5 276.5h389l-76 -480h-138l58 370h-122z" />
    <glyph glyph-name="uni043C" unicode="&#x43c;" horiz-adv-x="683" 
d="M148 0h-136l76 480h128l113 -238l188 238h138l-76 -480h-136l46 283l-139 -176h-71l-85 178z" />
    <glyph glyph-name="uni043D" unicode="&#x43d;" horiz-adv-x="588" 
d="M151 0h-139l76 480h139l-29 -182h195l28 182h139l-76 -480h-139l29 182h-195z" />
    <glyph glyph-name="uni043E" unicode="&#x43e;" horiz-adv-x="593" 
d="M552 228q-18 -115 -105 -178.5t-192 -63.5q-112 0 -180.5 71.5t-49.5 194.5q19 116 104.5 179t194.5 63q108 0 178 -72t50 -194zM163 238q-8 -55 18.5 -91.5t84.5 -36.5t98 36.5t50 95.5q8 55 -18 91.5t-83 36.5q-59 0 -99.5 -36.5t-50.5 -95.5z" />
    <glyph glyph-name="uni043F" unicode="&#x43f;" horiz-adv-x="588" 
d="M151 0h-139l76 480h472l-76 -480h-139l58 363h-195z" />
    <glyph glyph-name="uni0440" unicode="&#x440;" horiz-adv-x="620" 
d="M199 409q66 85 182 85q106 0 160.5 -78.5t38.5 -184.5q-16 -101 -88.5 -173t-178.5 -72q-105 0 -153 75l-44 -281h-139l111 700h123zM441 244q9 55 -18 94t-82 39q-45 0 -83.5 -24.5t-61.5 -60.5l-18 -114q10 -32 38 -53.5t69 -21.5q61 0 103.5 40t52.5 101z" />
    <glyph glyph-name="uni0441" unicode="&#x441;" horiz-adv-x="496" 
d="M25 247q10 65 41.5 114.5t75.5 77.5t91 42t96 14q87 0 152 -41l-19 -115q-47 35 -118 35q-67 0 -118 -34t-62 -104q-9 -65 27.5 -97.5t99.5 -32.5q72 0 146 36l-20 -125q-72 -31 -160 -31q-112 0 -182 67t-50 194z" />
    <glyph glyph-name="uni0442" unicode="&#x442;" horiz-adv-x="475" 
d="M261 0h-139l58 363h-153l19 117h444l-19 -117h-153z" />
    <glyph glyph-name="uni0443" unicode="&#x443;" horiz-adv-x="563" 
d="M266 152l157 328h161l-297 -541q-52 -95 -108 -133.5t-122 -38.5q-43 0 -83 15l19 114q24 -10 51 -10q40 0 69.5 27t61.5 86l8 9l-150 472h145z" />
    <glyph glyph-name="uni0444" unicode="&#x444;" horiz-adv-x="745" 
d="M357 -220h-132l33 207q-110 4 -181.5 76.5t-53.5 185.5q17 110 102 175t213 70l33 206h132l-33 -207q111 -4 182.5 -76.5t53.5 -185.5q-17 -110 -103 -175t-214 -70zM158 239q-8 -54 22 -93.5t97 -43.5l44 276q-67 -4 -110 -42t-53 -97zM452 378l-44 -276q69 4 111 41.5
t51 97.5q9 54 -21.5 93.5t-96.5 43.5z" />
    <glyph glyph-name="uni0445" unicode="&#x445;" horiz-adv-x="528" 
d="M117 0h-163l227 251l-139 229h149l79 -136l118 136h162l-216 -239l146 -241h-148l-87 148z" />
    <glyph glyph-name="uni0446" unicode="&#x446;" horiz-adv-x="625" 
d="M532 -127h-129l20 127h-411l76 480h139l-58 -363h190l57 363h139l-58 -366h72z" />
    <glyph glyph-name="uni0447" unicode="&#x447;" horiz-adv-x="537" 
d="M433 0h-139l24 148q-53 -18 -119 -18q-81 0 -130 45t-36 132l28 173h138l-26 -164q-10 -69 69 -69q50 0 95 18l33 215h139z" />
    <glyph glyph-name="uni0448" unicode="&#x448;" horiz-adv-x="812" 
d="M708 0h-696l76 480h139l-58 -363h140l58 363h138l-57 -363h140l58 363h138z" />
    <glyph glyph-name="uni0449" unicode="&#x449;" horiz-adv-x="854" 
d="M760 -127h-128l20 127h-640l76 480h139l-58 -363h140l58 363h138l-57 -363h140l58 363h138l-57 -366h71z" />
    <glyph glyph-name="uni044A" unicode="&#x44a;" horiz-adv-x="604" 
d="M346 0h-253l58 371h-123l17 109h262l-23 -150h112q85 0 131 -50t34 -124q-11 -69 -67 -112.5t-148 -43.5zM267 230l-20 -130h75q90 0 100 68q5 28 -13.5 45t-55.5 17h-86z" />
    <glyph glyph-name="uni044B" unicode="&#x44b;" horiz-adv-x="777" 
d="M265 0h-253l76 480h139l-24 -150h112q85 0 131 -50t35 -124q-11 -69 -67.5 -112.5t-148.5 -43.5zM186 230l-20 -130h75q90 0 100 68q5 28 -13.5 45t-55.5 17h-86zM673 0h-139l76 480h139z" />
    <glyph glyph-name="uni044C" unicode="&#x44c;" horiz-adv-x="524" 
d="M265 0h-253l76 480h139l-24 -150h112q85 0 131 -50t35 -124q-11 -69 -67.5 -112.5t-148.5 -43.5zM186 230l-20 -130h75q90 0 100 68q5 28 -13.5 45t-55.5 17h-86z" />
    <glyph glyph-name="uni044D" unicode="&#x44d;" horiz-adv-x="502" 
d="M460 222q-19 -118 -101.5 -177t-188.5 -59q-97 0 -174 44l17 103q54 -40 132 -40q136 0 173 98l-210 -1l17 104l211 1q-3 48 -42 70t-93 22q-82 0 -156 -44l18 109q72 42 160 42q40 0 77.5 -9.5t70.5 -31.5t56 -53t32.5 -77t0.5 -101z" />
    <glyph glyph-name="uni044E" unicode="&#x44e;" horiz-adv-x="834" 
d="M794 228q-18 -115 -105 -178.5t-193 -63.5q-91 0 -155.5 53t-70.5 146h-90l-29 -185h-139l76 480h139l-30 -185h87q29 96 108 147.5t173 51.5q109 0 178.5 -72t50.5 -194zM406 238q-9 -55 17.5 -91.5t84.5 -36.5t98 36.5t50 95.5q8 55 -18 91.5t-83 36.5
q-59 0 -99.5 -36.5t-49.5 -95.5z" />
    <glyph glyph-name="uni044F" unicode="&#x44f;" horiz-adv-x="550" 
d="M125 0h-157l157 172q-88 48 -71 152q10 65 65 110.5t149 45.5h254l-76 -480h-138l23 143h-74zM191 309q-4 -28 14.5 -47t54.5 -19h86l21 131h-80q-85 0 -96 -65z" />
    <glyph glyph-name="uni0451" unicode="&#x451;" horiz-adv-x="542" 
d="M500 604q-5 -27 -28 -46t-51 -19q-33 0 -53 24.5t-15 58.5q5 27 27.5 46.5t50.5 19.5q34 0 54 -24.5t15 -59.5zM286 604q-5 -27 -28 -46t-51 -19q-33 0 -53 24.5t-15 58.5q5 27 27.5 46.5t50.5 19.5q34 0 54 -24.5t15 -59.5zM25 250q9 62 38 110.5t68.5 76.5t83 42.5
t87.5 14.5q56 0 99 -17.5t67.5 -47.5t36 -68.5t8.5 -81t-19 -85.5h-339q3 -50 45.5 -74t102.5 -24q91 0 157 33l-17 -113q-70 -30 -174 -30q-75 0 -134 30t-90.5 91t-19.5 143zM384 284q10 36 -9 70t-75 34q-48 0 -84.5 -29t-46.5 -75h215z" />
    <glyph glyph-name="Wgrave" unicode="&#x1e80;" horiz-adv-x="1055" 
d="M945 700h165l-325 -700h-167l-63 473l-214 -473h-165l-105 700h156l58 -528l237 528h130l68 -524zM685 764h-138l-85 148h156z" />
    <glyph glyph-name="wgrave" unicode="&#x1e81;" horiz-adv-x="818" 
d="M685 480h153l-236 -480h-146l-44 312l-150 -312h-144l-78 480h138l43 -318l148 318h132l45 -318zM538 544h-138l-85 148h156z" />
    <glyph glyph-name="Wacute" unicode="&#x1e82;" horiz-adv-x="1055" 
d="M945 700h165l-325 -700h-167l-63 473l-214 -473h-165l-105 700h156l58 -528l237 528h130l68 -524zM650 764h-144l113 148h162z" />
    <glyph glyph-name="wacute" unicode="&#x1e83;" horiz-adv-x="818" 
d="M685 480h153l-236 -480h-146l-44 312l-150 -312h-144l-78 480h138l43 -318l148 318h132l45 -318zM503 544h-144l113 148h162z" />
    <glyph glyph-name="Wdieresis" unicode="&#x1e84;" horiz-adv-x="1055" 
d="M945 700h165l-325 -700h-167l-63 473l-214 -473h-165l-105 700h156l58 -528l237 528h130l68 -524zM784 824q-5 -27 -28 -46t-51 -19q-33 0 -53 24.5t-15 58.5q5 27 27.5 46.5t50.5 19.5q34 0 54 -24.5t15 -59.5zM570 824q-5 -27 -28 -46t-51 -19q-33 0 -53 24.5t-15 58.5
q5 27 27.5 46.5t50.5 19.5q34 0 54 -24.5t15 -59.5z" />
    <glyph glyph-name="wdieresis" unicode="&#x1e85;" horiz-adv-x="818" 
d="M685 480h153l-236 -480h-146l-44 312l-150 -312h-144l-78 480h138l43 -318l148 318h132l45 -318zM637 604q-5 -27 -28 -46t-51 -19q-33 0 -53 24.5t-15 58.5q5 27 27.5 46.5t50.5 19.5q34 0 54 -24.5t15 -59.5zM423 604q-5 -27 -28 -46t-51 -19q-33 0 -53 24.5t-15 58.5
q5 27 27.5 46.5t50.5 19.5q34 0 54 -24.5t15 -59.5z" />
    <glyph glyph-name="Ygrave" unicode="&#x1ef2;" horiz-adv-x="702" 
d="M379 0h-149l40 248l-202 452h162l130 -315l229 315h175l-345 -452zM510 764h-138l-85 148h156z" />
    <glyph glyph-name="ygrave" unicode="&#x1ef3;" horiz-adv-x="563" 
d="M266 152l157 328h161l-297 -541q-52 -95 -108 -133.5t-122 -38.5q-43 0 -83 15l19 114q24 -10 51 -10q40 0 69.5 27t61.5 86l8 9l-150 472h145zM399 544h-138l-85 148h156z" />
    <glyph glyph-name="endash" unicode="&#x2013;" horiz-adv-x="579" 
d="M507 185h-468l19 117h468z" />
    <glyph glyph-name="emdash" unicode="&#x2014;" horiz-adv-x="775" 
d="M703 185h-664l19 117h664z" />
    <glyph glyph-name="quoteleft" unicode="&#x2018;" horiz-adv-x="268" 
d="M199 431h-148l140 269h114z" />
    <glyph glyph-name="quoteright" unicode="&#x2019;" horiz-adv-x="264" 
d="M172 431h-114l106 269h148z" />
    <glyph glyph-name="quotesinglbase" unicode="&#x201a;" horiz-adv-x="265" 
d="M53 -145h-114l106 269h149z" />
    <glyph glyph-name="quotedblleft" unicode="&#x201c;" horiz-adv-x="460" 
d="M391 431h-148l140 269h114zM199 431h-148l140 269h114z" />
    <glyph glyph-name="quotedblright" unicode="&#x201d;" horiz-adv-x="456" 
d="M364 431h-114l106 269h148zM172 431h-114l106 269h148z" />
    <glyph glyph-name="quotedblbase" unicode="&#x201e;" horiz-adv-x="457" 
d="M245 -145h-114l106 269h149zM53 -145h-114l106 269h149z" />
    <glyph glyph-name="dagger" unicode="&#x2020;" horiz-adv-x="542" 
d="M265 -220h-150l90 565h-167l21 135h167l35 220h150l-35 -220h166l-22 -135h-166z" />
    <glyph glyph-name="daggerdbl" unicode="&#x2021;" horiz-adv-x="592" 
d="M291 -220h-149l39 246h-171l21 132h171l30 190h-171l21 132h171l35 220h149l-35 -220h171l-20 -132h-171l-31 -190h171l-20 -132h-171z" />
    <glyph glyph-name="bullet" unicode="&#x2022;" horiz-adv-x="383" 
d="M76 359q8 56 47 84t90 28q57 0 89.5 -33.5t23.5 -96.5q-9 -56 -47.5 -84.5t-90.5 -28.5q-56 0 -89 34t-23 97z" />
    <glyph glyph-name="ellipsis" unicode="&#x2026;" horiz-adv-x="739" 
d="M665 60q-6 -37 -31 -55t-59 -18q-39 0 -61.5 24t-15.5 67q6 36 31 54.5t58 18.5q40 0 62 -23.5t16 -67.5zM175 60q-6 -37 -31 -55t-59 -18q-39 0 -61.5 24t-15.5 67q6 36 31 54.5t59 18.5q39 0 61 -23.5t16 -67.5zM420 60q-6 -37 -31 -55t-59 -18q-39 0 -61.5 24
t-15.5 67q6 36 31 54.5t59 18.5q39 0 61 -23.5t16 -67.5z" />
    <glyph glyph-name="perthousand" unicode="&#x2030;" horiz-adv-x="1329" 
d="M253 -60h-102l539 820h102zM429 533q-12 -78 -69 -120.5t-131 -42.5q-77 0 -125 48.5t-34 132.5q12 78 68.5 120.5t131.5 42.5q76 0 124.5 -48.5t34.5 -132.5zM179 535q-3 -26 11 -44t46 -18q36 0 58 22t25 54q2 27 -11.5 44.5t-44.5 17.5q-37 0 -59 -22t-25 -54z
M869 149q-12 -78 -68.5 -120.5t-130.5 -42.5q-77 0 -125.5 48.5t-34.5 132.5q12 78 69 120.5t132 42.5q76 0 124 -48.5t34 -132.5zM620 151q-3 -26 11 -44t46 -18q36 0 57.5 22t24.5 54q2 27 -11 44.5t-44 17.5q-37 0 -59 -22t-25 -54zM1278 149q-12 -78 -68.5 -120.5
t-130.5 -42.5q-77 0 -125.5 48.5t-34.5 132.5q12 78 69 120.5t132 42.5q76 0 124 -48.5t34 -132.5zM1029 151q-3 -26 11 -44t46 -18q36 0 57.5 22t24.5 54q2 27 -11 44.5t-44 17.5q-37 0 -59 -22t-25 -54z" />
    <glyph glyph-name="guilsinglleft" unicode="&#x2039;" horiz-adv-x="331" 
d="M257 46h-137l-100 181l4 29l154 178h144l-169 -194z" />
    <glyph glyph-name="guilsinglright" unicode="&#x203a;" horiz-adv-x="331" 
d="M137 46h-144l169 194l-104 194h137l101 -181l-5 -29z" />
    <glyph glyph-name="fraction" unicode="&#x2044;" horiz-adv-x="182" 
d="M-162 -14h-47l573 728h47z" />
    <glyph glyph-name="Euro" unicode="&#x20ac;" horiz-adv-x="727" 
d="M707 510q-67 51 -168 51q-157 0 -229 -108h260l-14 -89h-284q-5 -20 -7 -48h284l-14 -89h-256q22 -51 71.5 -79t112.5 -28q107 0 194 56l-23 -148q-90 -42 -199 -42q-118 0 -208 63.5t-110 177.5h-92l14 89h74q1 28 6 48h-73l14 89h85q49 119 156 180t230 61
q105 0 197 -49z" />
    <glyph glyph-name="trademark" unicode="&#x2122;" horiz-adv-x="680" 
d="M404 442h-78l41 258h75l59 -122l92 122h86l-40 -258h-78l21 134l-62 -79h-56l-39 78zM215 442h-79l31 188h-77l11 70h231l-11 -70h-77z" />
    <glyph glyph-name="oneeighth" unicode="&#x215b;" horiz-adv-x="933" 
d="M570 311q7 42 50 74t116 32q75 0 116 -38t34 -88q-7 -49 -62 -88q58 -32 48 -100q-8 -47 -52.5 -79.5t-129.5 -32.5q-84 0 -127.5 39t-35.5 93q9 58 75 97q-41 32 -32 91zM719 165q-32 9 -54 18q-41 -26 -44 -59q-2 -24 16.5 -39.5t58.5 -15.5q73 0 80 43
q4 20 -11.5 31.5t-45.5 21.5zM795 292q2 19 -13.5 33t-48.5 14q-66 0 -72 -39q-6 -35 55 -56q6 -2 19.5 -5.5t21.5 -6.5q33 29 38 60zM205 -14h-47l573 728h47zM219 680h71l-52 -324h75l-13 -84h-258l13 84h89l36 227l-91 -29l14 88z" />
    <glyph glyph-name="threeeighths" unicode="&#x215c;" horiz-adv-x="941" 
d="M578 311q7 42 50 74t116 32q75 0 116 -38t34 -88q-7 -49 -62 -88q58 -32 48 -100q-8 -47 -52.5 -79.5t-129.5 -32.5q-84 0 -127.5 39t-35.5 93q9 58 75 97q-41 32 -32 91zM727 165q-32 9 -54 18q-41 -26 -44 -59q-2 -24 16.5 -39.5t58.5 -15.5q73 0 80 43
q4 20 -11.5 31.5t-45.5 21.5zM803 292q2 19 -13.5 33t-48.5 14q-66 0 -72 -39q-6 -35 55 -56q6 -2 19.5 -5.5t21.5 -6.5q33 29 38 60zM223 -14h-47l573 728h47zM374 572q-9 -59 -74 -82q31 -10 49 -38t11 -72q-18 -112 -176 -112q-76 0 -141 30l14 88q51 -31 120 -31
q87 0 95 47q4 23 -10.5 33t-44.5 10h-73l14 83h54q64 0 71 41q3 19 -13.5 29t-45.5 10q-69 0 -132 -34l14 89q67 31 131 31q63 0 104.5 -33t32.5 -89z" />
    <glyph glyph-name="fiveeighths" unicode="&#x215d;" horiz-adv-x="941" 
d="M578 311q7 42 50 74t116 32q75 0 116 -38t34 -88q-7 -49 -62 -88q58 -32 48 -100q-8 -47 -52.5 -79.5t-129.5 -32.5q-84 0 -127.5 39t-35.5 93q9 58 75 97q-41 32 -32 91zM727 165q-32 9 -54 18q-41 -26 -44 -59q-2 -24 16.5 -39.5t58.5 -15.5q73 0 80 43
q4 20 -11.5 31.5t-45.5 21.5zM803 292q2 19 -13.5 33t-48.5 14q-66 0 -72 -39q-6 -35 55 -56q6 -2 19.5 -5.5t21.5 -6.5q33 29 38 60zM224 -14h-47l573 728h47zM126 680h261l-13 -84h-175l-15 -67q19 4 42 4q67 0 106.5 -35.5t28.5 -106.5q-11 -65 -64.5 -97t-125.5 -32
q-74 0 -132 29l13 85q47 -28 108 -28q99 0 107 59q4 25 -17.5 38t-65.5 13q-48 0 -108 -19z" />
    <glyph glyph-name="seveneighths" unicode="&#x215e;" horiz-adv-x="867" 
d="M138 -14h-47l573 728h47zM504 311q7 42 50 74t116 32q75 0 116 -38t34 -88q-7 -49 -62 -88q58 -32 48 -100q-8 -47 -52.5 -79.5t-129.5 -32.5q-84 0 -127.5 39t-35.5 93q9 58 75 97q-41 32 -32 91zM653 165q-32 9 -54 18q-41 -26 -44 -59q-2 -24 16.5 -39.5t58.5 -15.5
q73 0 80 43q4 20 -11.5 31.5t-45.5 21.5zM729 292q2 19 -13.5 33t-48.5 14q-66 0 -72 -39q-6 -35 55 -56q6 -2 19.5 -5.5t21.5 -6.5q33 29 38 60zM180 271h-106l204 325h-198l14 84h309l-11 -71z" />
    <glyph glyph-name="partialdiff" unicode="&#x2202;" horiz-adv-x="584" 
d="M544 281q-23 -143 -103 -219t-201 -76q-107 0 -170 68t-47 175q14 97 81.5 156.5t155.5 59.5q55 0 98 -22.5t59 -57.5q4 16 4 38q-5 98 -80.5 144.5t-191.5 38.5l14 124q91 0 166 -25t130.5 -74.5t78.5 -134t6 -195.5zM161 208q-5 -44 17 -77.5t78 -33.5q59 0 91.5 36.5
t42.5 86.5q5 45 -17.5 79.5t-78.5 34.5q-59 0 -92.5 -38t-40.5 -88z" />
    <glyph glyph-name="emptyset" unicode="&#x2205;" horiz-adv-x="814" 
d="M780 339q-24 -147 -145 -250t-269 -103q-117 0 -204 71l-59 -57h-85l102 100q-91 109 -67 261q24 147 145 250t269 103q118 0 204 -72l58 58h85l-101 -100q91 -109 67 -261zM121 343q-15 -111 49 -193l450 442q-66 52 -157 52q-125 0 -225 -88t-117 -213zM213 107
q67 -51 157 -51q125 0 225 88t117 213q15 112 -49 193z" />
    <glyph glyph-name="product" unicode="&#x220f;" horiz-adv-x="788" 
d="M192 -220h-150l127 798h-89l20 122h719l-20 -122h-88l-127 -798h-150l127 798h-243z" />
    <glyph glyph-name="summation" unicode="&#x2211;" horiz-adv-x="581" 
d="M489 0h-498l14 85l278 270l-193 268l12 77h495l-22 -135h-274l145 -201l-5 -33l-202 -196h272z" />
    <glyph glyph-name="minus" unicode="&#x2212;" horiz-adv-x="519" 
d="M458 289h-400l19 118h400z" />
    <glyph glyph-name="radical" unicode="&#x221a;" horiz-adv-x="771" 
d="M358 0h-124l-99 345h-106l21 135h192l77 -310l379 610h158z" />
    <glyph glyph-name="infinity" unicode="&#x221e;" horiz-adv-x="875" 
d="M458 447q107 112 211 112q80 0 131 -58t36 -152q-15 -89 -76 -140.5t-141 -51.5q-107 0 -181 112q-107 -112 -211 -112q-79 0 -130 58t-36 152q14 89 75.5 140.5t140.5 51.5q57 0 103.5 -32t77.5 -80zM384 365q-43 76 -97 76q-36 0 -64 -21t-34 -63q-6 -38 12.5 -60
t51.5 -22q59 0 131 90zM707 360q5 38 -13.5 59.5t-50.5 21.5q-36 0 -66.5 -22.5t-65.5 -67.5q45 -76 98 -76q36 0 63 20.5t35 64.5z" />
    <glyph glyph-name="integral" unicode="&#x222b;" horiz-adv-x="459" 
d="M212 618q8 50 29.5 86t51.5 55t61 27t66 8q54 0 107 -19l-18 -120q-28 15 -65 15q-85 0 -98 -79l-102 -649q-10 -63 -45 -104.5t-76 -56.5t-88 -15q-61 0 -106 20l18 119q25 -15 62 -15q88 0 101 79z" />
    <glyph glyph-name="approxequal" unicode="&#x2248;" horiz-adv-x="616" 
d="M587 536q-1 -82 -41.5 -123.5t-104.5 -41.5q-42 0 -111.5 27t-89.5 26q-19 0 -31 -12.5t-12 -34.5h-117q2 83 42.5 123.5t100.5 40.5q46 0 113.5 -26.5t89.5 -26.5q43 0 43 48h118zM557 343q-1 -82 -41.5 -123.5t-104.5 -41.5q-42 0 -111.5 27t-89.5 26q-19 0 -31 -12.5
t-12 -34.5h-117q2 83 42.5 123.5t100.5 40.5q46 0 113.5 -26.5t89.5 -26.5q43 0 43 48h118z" />
    <glyph glyph-name="notequal" unicode="&#x2260;" horiz-adv-x="579" 
d="M164 91h-104l72 101h-89l19 117h154l59 82h-200l18 117h266l73 101h105l-72 -101h88l-18 -117h-155l-59 -82h201l-19 -117h-266z" />
    <glyph glyph-name="lessequal" unicode="&#x2264;" horiz-adv-x="522" 
d="M456 299l-20 -125l-375 144l22 139l421 144l-20 -126l-290 -90zM409 0h-398l18 118h399z" />
    <glyph glyph-name="greaterequal" unicode="&#x2265;" horiz-adv-x="521" 
d="M471 325l-421 -147l20 127l291 92l-263 86l20 125l376 -145zM420 0h-398l19 118h398z" />
    <glyph glyph-name="lozenge" unicode="&#x25ca;" horiz-adv-x="593" 
d="M329 0h-155l-133 350l242 350h155l133 -350zM183 334l79 -206l164 238l-78 205z" />
    <glyph glyph-name="i.loclTRK" horiz-adv-x="259" 
d="M153 0h-139l76 480h139zM257 610q-6 -35 -29.5 -52.5t-56.5 -17.5q-38 0 -59.5 23t-14.5 65q6 35 29.5 52.5t56.5 17.5q37 0 58.5 -23t15.5 -65z" />
    <glyph glyph-name="a.ss01" horiz-adv-x="556" 
d="M462 120q-5 -28 22 -28q13 0 33 5l-15 -94q-34 -12 -71 -12q-82 0 -103 59q-67 -64 -172 -64q-70 0 -116 42t-40 110q4 44 26.5 76t56.5 48t69.5 23.5t73.5 7.5q63 0 123 -13l4 23q5 36 -23 55.5t-85 19.5q-84 0 -170 -38l20 125q83 29 170 29q124 0 181.5 -52.5
t39.5 -168.5zM252 208q-103 0 -110 -64q-3 -27 16 -44.5t49 -17.5q68 0 119 48l11 69q-40 9 -85 9z" />
    <glyph glyph-name="aacute.ss01" horiz-adv-x="556" 
d="M462 120q-5 -28 22 -28q13 0 33 5l-15 -94q-34 -12 -71 -12q-82 0 -103 59q-67 -64 -172 -64q-70 0 -116 42t-40 110q4 44 26.5 76t56.5 48t69.5 23.5t73.5 7.5q63 0 123 -13l4 23q5 36 -23 55.5t-85 19.5q-84 0 -170 -38l20 125q83 29 170 29q124 0 181.5 -52.5
t39.5 -168.5zM252 208q-103 0 -110 -64q-3 -27 16 -44.5t49 -17.5q68 0 119 48l11 69q-40 9 -85 9zM346 544h-144l113 148h162z" />
    <glyph glyph-name="abreve.ss01" horiz-adv-x="556" 
d="M462 120q-5 -28 22 -28q13 0 33 5l-15 -94q-34 -12 -71 -12q-82 0 -103 59q-67 -64 -172 -64q-70 0 -116 42t-40 110q4 44 26.5 76t56.5 48t69.5 23.5t73.5 7.5q63 0 123 -13l4 23q5 36 -23 55.5t-85 19.5q-84 0 -170 -38l20 125q83 29 170 29q124 0 181.5 -52.5
t39.5 -168.5zM252 208q-103 0 -110 -64q-3 -27 16 -44.5t49 -17.5q68 0 119 48l11 69q-40 9 -85 9zM451 573q-73 -45 -159 -45q-96 0 -154 45l17 109q63 -43 146 -43q91 0 167 43z" />
    <glyph glyph-name="acircumflex.ss01" horiz-adv-x="556" 
d="M462 120q-5 -28 22 -28q13 0 33 5l-15 -94q-34 -12 -71 -12q-82 0 -103 59q-67 -64 -172 -64q-70 0 -116 42t-40 110q4 44 26.5 76t56.5 48t69.5 23.5t73.5 7.5q63 0 123 -13l4 23q5 36 -23 55.5t-85 19.5q-84 0 -170 -38l20 125q83 29 170 29q124 0 181.5 -52.5
t39.5 -168.5zM252 208q-103 0 -110 -64q-3 -27 16 -44.5t49 -17.5q68 0 119 48l11 69q-40 9 -85 9zM251 692h122l100 -155h-127l-43 66l-63 -66h-138z" />
    <glyph glyph-name="adieresis.ss01" horiz-adv-x="556" 
d="M462 120q-5 -28 22 -28q13 0 33 5l-15 -94q-34 -12 -71 -12q-82 0 -103 59q-67 -64 -172 -64q-70 0 -116 42t-40 110q4 44 26.5 76t56.5 48t69.5 23.5t73.5 7.5q63 0 123 -13l4 23q5 36 -23 55.5t-85 19.5q-84 0 -170 -38l20 125q83 29 170 29q124 0 181.5 -52.5
t39.5 -168.5zM252 208q-103 0 -110 -64q-3 -27 16 -44.5t49 -17.5q68 0 119 48l11 69q-40 9 -85 9zM480 604q-5 -27 -28 -46t-51 -19q-33 0 -53 24.5t-15 58.5q5 27 27.5 46.5t50.5 19.5q34 0 54 -24.5t15 -59.5zM266 604q-5 -27 -28 -46t-51 -19q-33 0 -53 24.5t-15 58.5
q5 27 27.5 46.5t50.5 19.5q34 0 54 -24.5t15 -59.5z" />
    <glyph glyph-name="agrave.ss01" horiz-adv-x="556" 
d="M462 120q-5 -28 22 -28q13 0 33 5l-15 -94q-34 -12 -71 -12q-82 0 -103 59q-67 -64 -172 -64q-70 0 -116 42t-40 110q4 44 26.5 76t56.5 48t69.5 23.5t73.5 7.5q63 0 123 -13l4 23q5 36 -23 55.5t-85 19.5q-84 0 -170 -38l20 125q83 29 170 29q124 0 181.5 -52.5
t39.5 -168.5zM252 208q-103 0 -110 -64q-3 -27 16 -44.5t49 -17.5q68 0 119 48l11 69q-40 9 -85 9zM381 544h-138l-85 148h156z" />
    <glyph glyph-name="amacron.ss01" horiz-adv-x="556" 
d="M462 120q-5 -28 22 -28q13 0 33 5l-15 -94q-34 -12 -71 -12q-82 0 -103 59q-67 -64 -172 -64q-70 0 -116 42t-40 110q4 44 26.5 76t56.5 48t69.5 23.5t73.5 7.5q63 0 123 -13l4 23q5 36 -23 55.5t-85 19.5q-84 0 -170 -38l20 125q83 29 170 29q124 0 181.5 -52.5
t39.5 -168.5zM252 208q-103 0 -110 -64q-3 -27 16 -44.5t49 -17.5q68 0 119 48l11 69q-40 9 -85 9zM149 664h326l-18 -110h-326z" />
    <glyph glyph-name="aogonek.ss01" horiz-adv-x="557" 
d="M517 97l-15 -94q-37 -22 -62.5 -51.5t-27.5 -51.5q-1 -13 6.5 -20t22.5 -7q18 0 41 9l-15 -97q-35 -16 -78 -16q-56 0 -83.5 31.5t-19.5 77.5q12 65 90 123q-36 14 -48 49q-67 -64 -172 -64q-70 0 -116 42t-40 110q4 44 26.5 76t56.5 48t69.5 23.5t73.5 7.5q63 0 123 -13
l4 23q5 36 -23 55.5t-85 19.5q-84 0 -170 -38l20 125q83 29 170 29q124 0 181.5 -52.5t39.5 -168.5l-24 -153q-5 -28 22 -28q13 0 33 5zM207 82q68 0 119 48l11 69q-40 9 -85 9q-103 0 -110 -64q-3 -27 16 -44.5t49 -17.5z" />
    <glyph glyph-name="aring.ss01" horiz-adv-x="556" 
d="M462 120q-5 -28 22 -28q13 0 33 5l-15 -94q-34 -12 -71 -12q-82 0 -103 59q-67 -64 -172 -64q-70 0 -116 42t-40 110q4 44 26.5 76t56.5 48t69.5 23.5t73.5 7.5q63 0 123 -13l4 23q5 36 -23 55.5t-85 19.5q-84 0 -170 -38l20 125q83 29 170 29q124 0 181.5 -52.5
t39.5 -168.5zM252 208q-103 0 -110 -64q-3 -27 16 -44.5t49 -17.5q68 0 119 48l11 69q-40 9 -85 9zM429 627q-9 -52 -47.5 -82t-88.5 -30t-85.5 36t-26.5 94q9 50 48 79.5t88 29.5q51 0 86 -35.5t26 -91.5zM263 637q-3 -20 7.5 -32t28.5 -12t32 10.5t17 29.5t-7.5 31.5
t-28.5 12.5t-32 -10.5t-17 -29.5z" />
    <glyph glyph-name="atilde.ss01" horiz-adv-x="556" 
d="M462 120q-5 -28 22 -28q13 0 33 5l-15 -94q-34 -12 -71 -12q-82 0 -103 59q-67 -64 -172 -64q-70 0 -116 42t-40 110q4 44 26.5 76t56.5 48t69.5 23.5t73.5 7.5q63 0 123 -13l4 23q5 36 -23 55.5t-85 19.5q-84 0 -170 -38l20 125q83 29 170 29q124 0 181.5 -52.5
t39.5 -168.5zM252 208q-103 0 -110 -64q-3 -27 16 -44.5t49 -17.5q68 0 119 48l11 69q-40 9 -85 9zM479 672q4 -63 -27 -101t-81 -38q-35 0 -81.5 21t-58.5 21q-16 0 -23.5 -12.5t-5.5 -23.5h-100q-4 63 27 101t80 38q35 0 82 -21t59 -21q17 0 24 12t5 24h100z" />
    <glyph glyph-name="ae.ss01" horiz-adv-x="854" 
d="M387 63q-95 -77 -220 -77q-79 0 -126 42t-41 111q4 44 26.5 75.5t57 48t70.5 23.5t76 7q59 0 119 -13l4 23q5 36 -23 55.5t-82 19.5q-83 0 -172 -38l19 125q89 29 174 29q134 0 169 -70q77 70 180 70q85 0 139.5 -43t64 -110t-17.5 -148h-339q4 -51 45 -74t104 -23
q92 0 156 32l-17 -112q-69 -31 -174 -31q-131 0 -192 78zM143 144q-4 -27 15.5 -44.5t51.5 -17.5q73 0 141 54q-8 32 -7 62q-48 10 -89 10q-105 0 -112 -64zM610 387q-48 0 -84.5 -28.5t-46.5 -74.5h215q10 35 -9 69t-75 34z" />
    <glyph glyph-name="y.ss01" horiz-adv-x="589" 
d="M486 9q-21 -130 -102 -186.5t-195 -56.5t-190 45l19 117q64 -45 157 -45q153 0 173 128l5 33q-65 -58 -147 -58q-92 0 -137.5 57.5t-31.5 143.5l46 293h138l-44 -283q-15 -91 71 -91q68 0 125 63l49 311h138z" />
    <glyph glyph-name="yacute.ss01" horiz-adv-x="589" 
d="M486 9q-21 -130 -102 -186.5t-195 -56.5t-190 45l19 117q64 -45 157 -45q153 0 173 128l5 33q-65 -58 -147 -58q-92 0 -137.5 57.5t-31.5 143.5l46 293h138l-44 -283q-15 -91 71 -91q68 0 125 63l49 311h138zM380 544h-144l113 148h162z" />
    <glyph glyph-name="ycircumflex.ss01" horiz-adv-x="589" 
d="M486 9q-21 -130 -102 -186.5t-195 -56.5t-190 45l19 117q64 -45 157 -45q153 0 173 128l5 33q-65 -58 -147 -58q-92 0 -137.5 57.5t-31.5 143.5l46 293h138l-44 -283q-15 -91 71 -91q68 0 125 63l49 311h138zM285 692h122l100 -155h-127l-43 66l-63 -66h-138z" />
    <glyph glyph-name="ydieresis.ss01" horiz-adv-x="589" 
d="M486 9q-21 -130 -102 -186.5t-195 -56.5t-190 45l19 117q64 -45 157 -45q153 0 173 128l5 33q-65 -58 -147 -58q-92 0 -137.5 57.5t-31.5 143.5l46 293h138l-44 -283q-15 -91 71 -91q68 0 125 63l49 311h138zM514 604q-5 -27 -28 -46t-51 -19q-33 0 -53 24.5t-15 58.5
q5 27 27.5 46.5t50.5 19.5q34 0 54 -24.5t15 -59.5zM300 604q-5 -27 -28 -46t-51 -19q-33 0 -53 24.5t-15 58.5q5 27 27.5 46.5t50.5 19.5q34 0 54 -24.5t15 -59.5z" />
    <glyph glyph-name="ygrave.ss01" horiz-adv-x="589" 
d="M486 9q-21 -130 -102 -186.5t-195 -56.5t-190 45l19 117q64 -45 157 -45q153 0 173 128l5 33q-65 -58 -147 -58q-92 0 -137.5 57.5t-31.5 143.5l46 293h138l-44 -283q-15 -91 71 -91q68 0 125 63l49 311h138zM415 544h-138l-85 148h156z" />
    <glyph glyph-name="f_b" horiz-adv-x="997" 
d="M593 427q69 67 164 67q106 0 160.5 -78.5t38.5 -184.5q-16 -102 -86.5 -173.5t-181.5 -71.5q-61 0 -102 26t-61 64l-14 -76h-123l92 580q-40 17 -88 17q-97 0 -113 -86l-5 -31h129l-18 -117h-130l-57 -363h-139l58 363h-83l19 117h82l7 43q15 93 79.5 142t150.5 49
q79 0 149 -30l117 20zM660 103q63 0 105.5 38.5t51.5 99.5q9 57 -18 96.5t-81 39.5q-45 0 -83 -24t-62 -60l-18 -112q10 -35 37.5 -56.5t67.5 -21.5z" />
    <glyph glyph-name="f_f_b" horiz-adv-x="1323" 
d="M919 427q69 67 164 67q106 0 160.5 -78.5t38.5 -184.5q-16 -102 -86.5 -173.5t-181.5 -71.5q-61 0 -102 26t-61 64l-14 -76h-123l94 590q-40 17 -85 17q-101 0 -117 -89l-6 -38h129l-18 -117h-129l-58 -363h-138l57 363h-188l-57 -363h-139l58 363h-83l19 117h82l5 33
q15 96 81.5 143.5t155.5 47.5q87 0 161 -40q61 60 161 60q80 0 150 -30l117 20zM462 480l8 49q3 23 9 42q-37 19 -89 19q-45 0 -75 -22.5t-37 -63.5l-4 -24h188zM986 103q63 0 105.5 38.5t51.5 99.5q9 57 -18 96.5t-81 39.5q-45 0 -83 -24t-62 -60l-18 -112
q10 -35 37.5 -56.5t67.5 -21.5z" />
    <glyph glyph-name="f_f_h" horiz-adv-x="1292" 
d="M922 434q72 60 152 60q90 0 134.5 -57.5t31.5 -143.5l-47 -293h-139l45 283q7 46 -12.5 68.5t-58.5 22.5q-67 0 -126 -65l-48 -309h-139l93 590q-40 17 -85 17q-101 0 -117 -89l-6 -38h129l-18 -117h-129l-58 -363h-138l57 363h-188l-57 -363h-139l58 363h-83l19 117h82
l5 33q15 96 81.5 143.5t155.5 47.5q87 0 161 -40q61 60 161 60q80 0 150 -30l118 20zM462 480l8 49q3 23 9 42q-37 19 -89 19q-45 0 -75 -22.5t-37 -63.5l-4 -24h188z" />
    <glyph glyph-name="f_f_j" horiz-adv-x="949" 
d="M831 -79q-25 -155 -180 -155q-47 0 -81 17l18 113q19 -8 42 -8q57 0 68 71l64 404h-180l-58 -363h-138l57 363h-188l-57 -363h-139l58 363h-83l19 117h82l5 33q16 97 82.5 144t161.5 47q82 0 152 -39q69 65 188 65q84 0 164 -32l-18 -115q-62 31 -132 31q-115 0 -131 -94
l-7 -40h319zM278 504l-4 -24h188l8 49q3 21 9 41q-37 20 -89 20q-46 0 -75.5 -22.5t-36.5 -63.5z" />
    <glyph glyph-name="f_f_k" horiz-adv-x="1249" 
d="M1113 480h158l-208 -242l139 -238h-146l-110 194h-62l-30 -194h-139l93 590q-40 17 -85 17q-101 0 -117 -89l-6 -38h129l-18 -117h-129l-58 -363h-138l57 363h-188l-57 -363h-139l58 363h-83l19 117h82l5 33q15 96 81.5 143.5t155.5 47.5q87 0 161 -40q61 60 161 60
q80 0 150 -30l118 20l-65 -410h63zM462 480l8 49q3 23 9 42q-37 19 -89 19q-45 0 -75 -22.5t-37 -63.5l-4 -24h188z" />
    <glyph glyph-name="f_h" horiz-adv-x="965" 
d="M595 434q72 60 152 60q90 0 134.5 -57.5t31.5 -143.5l-47 -293h-139l45 283q7 46 -12.5 68.5t-58.5 22.5q-67 0 -126 -65l-48 -309h-139l92 580q-40 17 -88 17q-97 0 -113 -86l-5 -31h129l-18 -117h-130l-57 -363h-139l58 363h-83l19 117h82l7 43q15 93 79.5 142
t150.5 49q79 0 149 -30l117 20z" />
    <glyph glyph-name="f_i" horiz-adv-x="610" 
d="M198 0h-139l58 363h-83l19 117h82l6 36q16 99 84.5 148.5t168.5 49.5q87 0 166 -33l-19 -114q-60 30 -132 30q-53 0 -88 -22.5t-42 -67.5l-5 -27h306l-76 -480h-139l58 363h-168z" />
    <glyph glyph-name="f_j" horiz-adv-x="610" 
d="M492 -79q-25 -155 -180 -155q-49 0 -81 17l18 113q19 -8 42 -8q57 0 68 71l64 404h-168l-57 -363h-139l58 363h-83l19 117h82l6 36q16 99 84.5 148.5t168.5 49.5q87 0 166 -33l-19 -114q-60 30 -132 30q-53 0 -88 -22.5t-42 -67.5l-5 -27h306z" />
    <glyph glyph-name="f_k" horiz-adv-x="923" 
d="M787 480h158l-208 -242l138 -238h-145l-111 194h-62l-30 -194h-139l92 580q-40 17 -88 17q-97 0 -113 -86l-5 -31h129l-18 -117h-130l-57 -363h-139l58 363h-83l19 117h82l7 43q15 93 79.5 142t150.5 49q79 0 149 -30l117 20l-64 -400h65z" />
    <glyph glyph-name="f_l" horiz-adv-x="633" 
d="M372 714q79 0 149 -30l117 20l-111 -704h-139l92 580q-40 17 -88 17q-97 0 -113 -86l-5 -31h129l-18 -117h-130l-57 -363h-139l58 363h-83l19 117h82l7 43q15 93 79.5 142t150.5 49z" />
    <glyph glyph-name="uni0414.loclBGR" horiz-adv-x="831" 
d="M88 -152h-132l44 284h83l314 568h166l137 -568h81l-45 -284h-132l24 152h-516zM461 545l-220 -413h308z" />
    <glyph glyph-name="uni041B.loclBGR" horiz-adv-x="707" 
d="M-42 0l384 700h154l161 -700h-159l-104 519l-269 -519h-167z" />
    <glyph glyph-name="uni0424.loclBGR" horiz-adv-x="911" 
d="M467 -94h-142l15 94q-152 10 -234 115t-59 250q23 143 129.5 236t274.5 99l16 94h142l-16 -94q151 -11 232.5 -115.5t57.5 -249.5q-23 -142 -128 -235t-273 -100zM195 356q-8 -33 -1.5 -71.5t21.5 -71.5t53 -56.5t93 -27.5l70 442q-108 -7 -165.5 -69t-70.5 -146z
M572 571l-69 -441q104 8 162 72.5t70 148.5q8 32 2 69t-21 69t-52.5 55t-91.5 27z" />
    <glyph glyph-name="uni0432.loclBGR" horiz-adv-x="591" 
d="M548 528q-13 -85 -102 -133q56 -23 83.5 -74.5t17.5 -118.5q-16 -100 -91 -158t-186 -58q-122 0 -185.5 71.5t-39.5 222.5l17 112q24 158 101 240t201 82q91 0 143.5 -55t40.5 -131zM410 521q5 30 -11 51.5t-51 21.5q-114 0 -146 -191l104 23q48 10 73.5 36t30.5 59z
M276 109q53 0 88.5 28.5t43.5 76.5q7 48 -23.5 81.5t-90.5 20.5l-108 -23l-3 -19q-14 -87 10 -126t83 -39z" />
    <glyph glyph-name="uni0433.loclBGR" horiz-adv-x="488" 
d="M406 31q-84 -45 -205 -45q-97 0 -152.5 38.5t-44.5 119.5q7 50 40 81.5t76.5 44.5t86.5 21.5t74.5 21t34.5 33.5q4 22 -14.5 31.5t-50.5 9.5q-96 0 -185 -49l18 113q91 43 193 43q85 0 139 -37.5t42 -118.5q-8 -50 -42 -82t-77.5 -45t-86 -21.5t-73.5 -21t-34 -33.5
q-4 -22 17.5 -31t69.5 -9q107 0 192 54z" />
    <glyph glyph-name="uni0434.loclBGR" horiz-adv-x="622" 
d="M519 9q-20 -124 -103.5 -183.5t-199.5 -59.5q-120 0 -206 49l19 117q71 -49 174 -49q70 0 118 31t59 97l7 44q-56 -69 -163 -69q-109 0 -162.5 78t-36.5 185q16 100 89 172.5t178 72.5q115 0 164 -90l13 76h124zM163 236q-9 -55 18 -94t82 -39q46 0 84 23.5t60 58.5
l19 117q-9 32 -38 53.5t-69 21.5q-61 0 -103.5 -39t-52.5 -102z" />
    <glyph glyph-name="uni0436.loclBGR" horiz-adv-x="789" 
d="M105 0h-151l207 247l-111 233h136l90 -191h50l65 411h139l-65 -411h52l138 191h150l-189 -252l122 -228h-140l-97 179h-54l-28 -179h-139l28 179h-55z" />
    <glyph glyph-name="uni0438.loclBGR" horiz-adv-x="588" 
d="M422 480h138l-76 -480h-122l10 62q-66 -76 -166 -76q-91 0 -137 58t-32 144l46 292h138l-44 -283q-15 -91 71 -91q73 0 125 64z" />
    <glyph glyph-name="uni0439.loclBGR" horiz-adv-x="588" 
d="M491 583q-68 -45 -158 -45q-89 0 -154 45l16 104q69 -43 146 -43q88 0 167 43zM422 480h138l-76 -480h-122l10 62q-66 -76 -166 -76q-91 0 -137 58t-32 144l46 292h138l-44 -283q-15 -91 71 -91q73 0 125 64z" />
    <glyph glyph-name="uni043A.loclBGR" horiz-adv-x="547" 
d="M406 480h160l-206 -240l139 -240h-146l-110 194h-62l-30 -194h-139l111 700h139l-64 -396h60z" />
    <glyph glyph-name="uni043B.loclBGR" horiz-adv-x="558" 
d="M386 480l118 -480h-142l-68 333l-178 -333h-154l274 480h150z" />
    <glyph glyph-name="uni043F.loclBGR" horiz-adv-x="589" 
d="M200 418q81 76 176 76q87 0 130.5 -57t30.5 -142l-47 -295h-139l45 283q7 47 -12.5 69t-58.5 22q-66 0 -126 -64l-48 -310h-139l76 480h122z" />
    <glyph glyph-name="uni0442.loclBGR" horiz-adv-x="873" 
d="M498 424q83 70 169 70q62 0 101 -31.5t50 -74t4 -88.5l-48 -300h-138l48 302q5 34 -12 53t-49 19q-56 0 -106 -52q0 -8 -2 -22l-48 -300h-138l48 302q5 34 -12 53t-49 19q-63 0 -116 -64l-49 -310h-139l76 480h122l-9 -58q28 29 73 50.5t93 21.5q94 0 131 -70z" />
    <glyph glyph-name="uni0446.loclBGR" horiz-adv-x="629" 
d="M504 120q-2 -16 4.5 -22t22.5 -6h41l-35 -219h-127l19 124q-47 14 -61 61q-66 -72 -162 -72q-91 0 -137 58t-32 144l46 292h138l-44 -283q-15 -91 71 -91q73 0 125 64l49 310h138z" />
    <glyph glyph-name="uni0448.loclBGR" horiz-adv-x="873" 
d="M657 164l50 316h138l-76 -480h-123l9 55q-25 -27 -67 -48t-91 -21q-96 0 -135 73q-78 -73 -172 -73q-61 0 -100 31.5t-50.5 74.5t-4.5 89l48 299h138l-47 -299q-6 -36 10 -55.5t48 -19.5q59 0 108 53q3 27 4 30l46 291h138l-47 -299q-6 -36 10 -55.5t48 -19.5
q67 0 118 58z" />
    <glyph glyph-name="uni0449.loclBGR" horiz-adv-x="913" 
d="M787 119q-2 -15 4.5 -21t23.5 -6h42l-35 -219h-127l19 123q-46 14 -61 58q-66 -68 -157 -68q-95 0 -135 72q-77 -72 -171 -72q-61 0 -100 31.5t-50.5 74.5t-4.5 89l48 299h138l-47 -299q-6 -36 10 -55.5t48 -19.5q54 0 107 51q0 8 2 24l48 299h138l-47 -299
q-6 -36 10 -55.5t48 -19.5q67 0 118 58l50 316h138z" />
    <glyph glyph-name="uni044E.loclBGR" horiz-adv-x="834" 
d="M794 228q-18 -115 -105 -178.5t-193 -63.5q-91 0 -155.5 52.5t-70.5 146.5h-90l-29 -185h-139l111 700h139l-65 -405h87q29 96 108 147.5t173 51.5q109 0 178.5 -72t50.5 -194zM406 238q-9 -55 17.5 -91.5t84.5 -36.5t98 36.5t50 95.5q8 55 -18 91.5t-83 36.5
q-59 0 -99.5 -36.5t-49.5 -95.5z" />
    <glyph glyph-name="uni0430.ss01" horiz-adv-x="565" 
d="M462 120q-5 -28 22 -28q13 0 33 5l-15 -94q-34 -12 -71 -12q-82 0 -103 59q-67 -64 -172 -64q-70 0 -116 42t-40 110q4 44 26.5 76t56.5 48t69.5 23.5t73.5 7.5q63 0 123 -13l4 23q5 36 -23 55.5t-85 19.5q-84 0 -170 -38l20 125q83 29 170 29q124 0 181.5 -52.5
t39.5 -168.5zM252 208q-103 0 -110 -64q-3 -27 16 -44.5t49 -17.5q68 0 119 48l11 69q-40 9 -85 9z" />
    <glyph glyph-name="uni0437.ss01" horiz-adv-x="473" 
d="M409 -27q-12 -72 -55 -119.5t-102 -67t-133 -19.5q-114 0 -181 42l18 119q66 -47 150 -47q65 0 110 27t54 84q8 52 -24 84.5t-98 18.5l-64 -14l17 110l72 16q48 11 71.5 37t27.5 58q6 39 -19.5 59.5t-68.5 20.5q-80 0 -155 -48l18 122q85 38 175 38q84 0 142.5 -51.5
t45.5 -134.5q-13 -88 -104 -135q57 -23 85 -78t18 -122z" />
    <glyph glyph-name="uni0443.ss01" horiz-adv-x="589" 
d="M486 9q-21 -130 -102 -186.5t-195 -56.5t-190 45l19 117q64 -45 157 -45q153 0 173 128l5 33q-65 -58 -147 -58q-92 0 -137.5 57.5t-31.5 143.5l46 293h138l-44 -283q-15 -91 71 -91q68 0 125 63l49 311h138z" />
    <glyph glyph-name="zero.osf" horiz-adv-x="668" 
d="M624 249q-11 -67 -50 -125t-112.5 -98t-168.5 -40q-97 0 -161 43t-86.5 106t-11.5 135q16 105 104.5 184.5t225.5 79.5q97 0 161.5 -43t87 -106.5t11.5 -135.5zM181 257q-9 -57 22 -98t97 -41q72 0 119.5 41.5t56.5 103.5q10 56 -21 97.5t-97 41.5q-72 0 -119.5 -41
t-57.5 -104z" />
    <glyph glyph-name="one.osf" horiz-adv-x="462" 
d="M252 520h109l-61 -391h114l-21 -129h-388l21 129h128l38 241l-136 -48l22 135z" />
    <glyph glyph-name="two.osf" horiz-adv-x="555" 
d="M463 0h-470l11 68q3 17 8.5 32.5t10.5 27.5t17.5 24.5t18.5 20.5t24 18.5t23.5 15t28 15t27.5 12.5t31 13t29 12q10 4 30 12.5t29 12.5t24 11t22.5 12t16.5 12t13.5 14.5t6.5 16.5q5 26 -15.5 39.5t-59.5 13.5q-99 0 -219 -66l22 144q107 53 224 53q95 0 153.5 -48
t43.5 -135q-9 -54 -48.5 -90t-101.5 -66q-23 -11 -76 -33.5t-69 -32.5h266z" />
    <glyph glyph-name="three.osf" horiz-adv-x="554" 
d="M497 337q-8 -50 -40 -87t-85 -54q53 -17 83.5 -62t19.5 -117q-10 -66 -55 -110.5t-103.5 -62.5t-128.5 -18q-111 0 -214 45l20 132q83 -46 191 -45q59 0 102 23.5t50 67.5q6 42 -19 59.5t-71 17.5h-105l21 128l81 -1q48 -1 77 20.5t34 55.5q6 35 -20 54.5t-75 19.5
q-102 0 -198 -48l22 137q96 42 203 42q100 0 162 -54t48 -143z" />
    <glyph glyph-name="four.osf" horiz-adv-x="612" 
d="M376 520h150l-68 -431h100l-20 -125h-99l-20 -124h-143l20 124h-327l19 124zM315 89l39 237l-213 -237h174z" />
    <glyph glyph-name="five.osf" horiz-adv-x="546" 
d="M119 521h402l-21 -129l-268 1l-28 -132q34 9 73 9q93 0 154.5 -58t44.5 -168q-17 -108 -102 -163t-199 -55q-117 0 -203 44l21 131q77 -44 174 -44q64 0 109 27t52 74q8 49 -25.5 73t-97.5 24q-86 0 -170 -31z" />
    <glyph glyph-name="six.osf" horiz-adv-x="616" 
d="M219 408q73 32 153 32q92 0 154 -63t45 -169q-17 -108 -96.5 -165t-184.5 -57q-143 0 -204.5 95t-34.5 261q14 90 52 160t90 110.5t110 61t119 20.5q91 0 165 -42l-20 -122q-58 38 -132 38q-66 0 -125 -37.5t-91 -122.5zM294 110q47 0 83.5 28t45.5 80q8 54 -21 77
t-74 23q-70 0 -136 -44q-12 -164 102 -164z" />
    <glyph glyph-name="seven.osf" horiz-adv-x="520" 
d="M55 521h486l-16 -108l-352 -573h-164l340 552h-314z" />
    <glyph glyph-name="eight.osf" horiz-adv-x="627" 
d="M101 515q12 72 81.5 125.5t186.5 53.5q115 0 175.5 -60.5t49.5 -140.5q-13 -87 -111 -153q103 -52 85 -165q-12 -79 -87 -134t-207 -55q-134 0 -198 61.5t-50 148.5q7 49 42.5 94t90.5 75q-73 55 -58 150zM325 287q-14 4 -41.5 14t-32.5 11q-67 -42 -77 -107
q-5 -43 24 -70.5t87 -27.5q56 0 93.5 23t42.5 60q6 37 -15 56t-81 41zM451 497q5 32 -21 55.5t-70 23.5q-49 0 -81.5 -23t-37.5 -57q-11 -60 78 -91q8 -2 28.5 -8.5t32.5 -9.5q63 48 71 110z" />
    <glyph glyph-name="nine.osf" horiz-adv-x="604" 
d="M29 313q17 107 96.5 164t183.5 57q139 0 202.5 -95.5t37.5 -260.5q-14 -90 -52 -160t-89.5 -110.5t-108 -61t-115.5 -20.5q-95 0 -170 43l18 121q58 -38 142 -38q62 0 118.5 37.5t88.5 121.5q-68 -31 -148 -31q-98 0 -159.5 63t-44.5 170zM302 407q-49 0 -83.5 -24
t-42.5 -77q-8 -54 21.5 -80.5t73.5 -26.5q72 0 136 44q12 164 -105 164z" />
    <glyph glyph-name="zero.sinf" horiz-adv-x="431" 
d="M372 95q-15 -90 -69 -147t-144 -57q-94 0 -134 62.5t-25 159.5q15 90 68.5 147t144.5 57q92 0 133 -63t26 -159zM94 103q-10 -60 7.5 -93t61.5 -33q93 0 114 128q10 60 -7.5 93t-61.5 33q-93 0 -114 -128z" />
    <glyph glyph-name="one.sinf" horiz-adv-x="304" 
d="M147 308h71l-52 -324h75l-13 -84h-258l13 84h89l36 227l-91 -29l14 88z" />
    <glyph glyph-name="two.sinf" horiz-adv-x="365" 
d="M39 276q73 41 145 41q62 0 103 -34.5t30 -97.5q-7 -44 -36.5 -70.5t-89.5 -59.5q-90 -50 -95 -71h190l-13 -84h-307l7 47q5 35 19.5 62.5t40.5 49t44 32.5t52 29q48 26 69 42.5t25 35.5q3 17 -11 25.5t-38 8.5q-70 0 -150 -52z" />
    <glyph glyph-name="three.sinf" horiz-adv-x="362" 
d="M303 195q-9 -59 -74 -82q31 -10 49 -38t11 -72q-18 -112 -176 -112q-77 0 -141 30l14 88q51 -31 120 -31q87 0 95 47q4 23 -10.5 33t-44.5 10h-73l14 83h54q64 0 71 41q3 19 -13.5 29t-45.5 10q-69 0 -132 -34l14 89q67 31 131 31q63 0 104.5 -33t32.5 -89z" />
    <glyph glyph-name="four.sinf" horiz-adv-x="402" 
d="M226 308h98l-41 -254h60l-13 -82h-59l-12 -72h-92l11 72h-211l13 81zM190 54l22 131l-127 -131h105z" />
    <glyph glyph-name="five.sinf" horiz-adv-x="360" 
d="M58 309h261l-13 -84h-175l-15 -67q19 4 42 4q67 0 106.5 -35.5t28.5 -106.5q-11 -65 -64.5 -97t-125.5 -32q-74 0 -132 29l13 85q47 -28 108 -28q99 0 107 59q4 25 -17.5 38t-65.5 13q-48 0 -108 -19z" />
    <glyph glyph-name="six.sinf" horiz-adv-x="395" 
d="M105 147q46 19 98 19q60 0 99.5 -38t28.5 -104q-11 -64 -59.5 -98.5t-113.5 -34.5q-93 0 -134 59t-24 164q16 101 78 152t142 51q58 0 117 -28l-13 -80q-37 26 -91 26q-93 0 -128 -88zM156 -29q71 0 80 58q4 28 -13.5 42t-49.5 14q-41 0 -85 -25q-2 -50 16 -69.5
t52 -19.5z" />
    <glyph glyph-name="seven.sinf" horiz-adv-x="339" 
d="M105 -100h-106l204 325h-198l14 84h309l-11 -71z" />
    <glyph glyph-name="eight.sinf" horiz-adv-x="402" 
d="M28 211q7 42 50 74t116 32q75 0 116 -38t34 -88q-7 -49 -62 -88q58 -32 48 -100q-8 -47 -52.5 -79.5t-129.5 -32.5q-84 0 -127.5 39t-35.5 93q9 58 75 97q-41 32 -32 91zM177 65q-32 9 -54 18q-41 -26 -44 -59q-2 -24 16.5 -39.5t58.5 -15.5q73 0 80 43q4 20 -11.5 31.5
t-45.5 21.5zM253 192q2 19 -13.5 33t-48.5 14q-66 0 -72 -39q-6 -35 55 -56q6 -2 19.5 -5.5t21.5 -6.5q33 29 38 60z" />
    <glyph glyph-name="nine.sinf" horiz-adv-x="394" 
d="M4 184q10 64 58.5 98.5t113.5 34.5q95 0 135.5 -59t22.5 -164q-16 -101 -77.5 -152t-142.5 -51q-65 0 -116 28l12 81q42 -27 98 -27q91 0 123 89q-47 -19 -99 -19q-58 0 -98.5 38t-29.5 103zM178 237q-72 0 -80 -57q-4 -27 14 -42t48 -15q44 0 86 25q2 51 -16 70t-52 19z
" />
    <glyph glyph-name="zero.sups" horiz-adv-x="430" 
d="M447 572q-15 -90 -69 -147t-144 -57q-94 0 -134 62.5t-25 159.5q15 90 68.5 147t144.5 57q92 0 133 -63t26 -159zM169 580q-10 -60 7.5 -93t61.5 -33q93 0 114 128q10 60 -7.5 93t-61.5 33q-93 0 -114 -128z" />
    <glyph glyph-name="one.sups" horiz-adv-x="304" 
d="M222 780h71l-52 -324h75l-13 -84h-258l13 84h89l36 227l-91 -29l14 88z" />
    <glyph glyph-name="two.sups" horiz-adv-x="366" 
d="M115 753q73 41 145 41q62 0 103 -34.5t30 -97.5q-7 -44 -36.5 -70.5t-89.5 -59.5q-90 -50 -95 -71h190l-13 -84h-307l7 47q5 35 19.5 62.5t40.5 49t44 32.5t52 29q48 26 69 42.5t25 35.5q3 17 -11 25.5t-38 8.5q-70 0 -150 -52z" />
    <glyph glyph-name="three.sups" horiz-adv-x="362" 
d="M379 672q-9 -59 -74 -82q31 -10 49 -38t11 -72q-18 -112 -176 -112q-77 0 -141 30l14 88q51 -31 120 -31q87 0 95 47q4 23 -10.5 33t-44.5 10h-73l14 83h54q64 0 71 41q3 19 -13.5 29t-45.5 10q-69 0 -132 -34l14 89q67 31 131 31q63 0 104.5 -33t32.5 -89z" />
    <glyph glyph-name="four.sups" horiz-adv-x="402" 
d="M301 780h98l-41 -254h60l-13 -82h-59l-12 -72h-92l11 72h-211l13 81zM265 526l22 131l-127 -131h105z" />
    <glyph glyph-name="five.sups" horiz-adv-x="361" 
d="M133 780h261l-13 -84h-175l-15 -67q19 4 42 4q67 0 106.5 -35.5t28.5 -106.5q-11 -65 -64.5 -97t-125.5 -32q-74 0 -132 29l13 85q47 -28 108 -28q99 0 107 59q4 25 -17.5 38t-65.5 13q-48 0 -108 -19z" />
    <glyph glyph-name="six.sups" horiz-adv-x="394" 
d="M180 624q46 19 98 19q60 0 99.5 -38t28.5 -104q-11 -64 -59.5 -98.5t-113.5 -34.5q-93 0 -134 59t-24 164q16 101 78 152t142 51q58 0 117 -28l-13 -80q-37 26 -91 26q-93 0 -128 -88zM231 448q71 0 80 58q4 28 -13.5 42t-49.5 14q-41 0 -85 -25q-2 -50 16 -69.5
t52 -19.5z" />
    <glyph glyph-name="seven.sups" horiz-adv-x="340" 
d="M180 371h-106l204 325h-198l14 84h309l-11 -71z" />
    <glyph glyph-name="eight.sups" horiz-adv-x="402" 
d="M103 688q7 42 50 74t116 32q75 0 116 -38t34 -88q-7 -49 -62 -88q58 -32 48 -100q-8 -47 -52.5 -79.5t-129.5 -32.5q-84 0 -127.5 39t-35.5 93q9 58 75 97q-41 32 -32 91zM252 542q-32 9 -54 18q-41 -26 -44 -59q-2 -24 16.5 -39.5t58.5 -15.5q73 0 80 43
q4 20 -11.5 31.5t-45.5 21.5zM328 669q2 19 -13.5 33t-48.5 14q-66 0 -72 -39q-6 -35 55 -56q6 -2 19.5 -5.5t21.5 -6.5q33 29 38 60z" />
    <glyph glyph-name="nine.sups" horiz-adv-x="393" 
d="M79 661q10 64 58.5 98.5t113.5 34.5q95 0 135.5 -59t22.5 -164q-16 -101 -77.5 -152t-142.5 -51q-65 0 -116 28l12 81q42 -27 98 -27q91 0 123 89q-48 -19 -99 -19q-58 0 -98.5 38t-29.5 103zM253 714q-72 0 -80 -57q-4 -27 14 -42t48 -15q44 0 86 25q2 51 -16 70t-52 19
z" />
    <glyph glyph-name="zero.tf" 
d="M36 349q24 153 112 249t230 96q141 0 205 -103t39 -260q-24 -153 -112 -249t-231 -96q-141 0 -204.5 103t-38.5 260zM475 341q17 106 -10 163.5t-95 57.5q-152 0 -188 -223q-17 -106 9.5 -163.5t94.5 -57.5q153 0 189 223z" />
    <glyph glyph-name="one.tf" 
d="M364 680h110l-87 -551h196l-21 -129h-551l21 129h208l64 401l-186 -67l22 136z" />
    <glyph glyph-name="two.tf" 
d="M130 623q128 71 248 71q113 0 180 -55.5t51 -157.5q-6 -40 -23 -71t-49.5 -57.5t-59 -43t-76.5 -43.5q-14 -8 -43.5 -23t-41.5 -21.5t-33.5 -18.5t-31 -19t-21 -17t-17 -19t-7.5 -19h353l-21 -129h-530l12 71q7 46 26 84.5t41.5 65t58.5 52t64 41t70 37.5q3 2 5 2.5
t4.5 2t4.5 2.5q9 5 35.5 18t35 18t28.5 16.5t27.5 18.5t18.5 18t16 21.5t7 23.5q5 33 -22 52t-83 19q-111 0 -246 -84z" />
    <glyph glyph-name="three.tf" 
d="M592 497q-8 -50 -40.5 -86t-85.5 -53q53 -18 83.5 -63.5t19.5 -117.5q-16 -98 -100 -144.5t-206 -46.5q-136 0 -242 47l20 134q93 -51 217 -50q159 2 174 95q6 40 -20.5 57t-87.5 17h-132l22 128h101q123 0 133 72q6 36 -23 56.5t-93 20.5q-112 0 -227 -63l23 143
q99 51 231 51q114 0 180.5 -52t52.5 -145z" />
    <glyph glyph-name="four.tf" 
d="M429 680h150l-69 -431h100l-20 -125h-99l-20 -124h-143l20 124h-357l19 124zM367 249l38 240l-232 -240h194z" />
    <glyph glyph-name="five.tf" 
d="M166 680h452l-21 -128l-320 1l-29 -132q45 9 97 9q108 0 177 -57.5t52 -169.5q-18 -109 -109 -163t-217 -54q-132 0 -225 48l20 132q77 -49 196 -49q82 0 131.5 25.5t56.5 75.5q7 48 -28.5 72.5t-114.5 24.5q-108 0 -201 -31z" />
    <glyph glyph-name="six.tf" 
d="M212 399q88 41 179 41q96 0 160.5 -61.5t47.5 -167.5q-17 -109 -97 -167t-192 -58q-157 0 -221 95t-36 268q27 173 128.5 259t241.5 86q103 0 186 -43l-20 -126q-64 43 -152 43q-169 0 -225 -169zM307 108q56 0 95.5 25.5t48.5 81.5q8 51 -23.5 75.5t-86.5 24.5
q-75 0 -152 -46q-8 -161 118 -161z" />
    <glyph glyph-name="seven.tf" 
d="M105 681h556l-16 -108l-370 -573h-163l356 552h-384z" />
    <glyph glyph-name="eight.tf" 
d="M591 172q-12 -80 -88.5 -133t-217.5 -53q-137 0 -207.5 62.5t-57.5 149.5q7 48 42.5 92.5t89.5 74.5q-72 63 -57 150q13 74 83.5 126.5t199.5 52.5q117 0 184 -62.5t55 -141.5q-12 -84 -110 -150q49 -29 71.5 -68t12.5 -100zM169 206q-6 -43 28 -72.5t104 -29.5
q57 0 96.5 22.5t45.5 55.5q4 22 -2.5 38t-26 28t-35.5 18t-49 16q-43 13 -85 30q-67 -48 -76 -106zM334 406q30 -8 70 -23q64 53 71 109q5 34 -24 59t-84 25t-90 -20t-41 -54q-5 -37 20.5 -58t77.5 -38z" />
    <glyph glyph-name="nine.tf" 
d="M60 469q17 109 97.5 167t191.5 58q156 0 220.5 -95.5t36.5 -267.5q-28 -174 -128.5 -259.5t-242.5 -85.5q-105 0 -187 42l20 126q64 -42 154 -42q171 0 225 170q-87 -42 -179 -42q-95 0 -160 62.5t-48 166.5zM348 572q-54 0 -92.5 -27t-46.5 -79q-8 -53 23.5 -77
t87.5 -24q74 0 149 46q8 161 -121 161z" />
    <glyph glyph-name="zero.tosf" 
d="M612 251q-17 -106 -104 -185.5t-225 -79.5q-142 0 -210.5 85.5t-50.5 197.5q17 106 104 185.5t225 79.5q141 0 209.5 -85.5t51.5 -197.5zM168 257q-9 -57 22.5 -98t98.5 -41q72 0 118.5 41.5t55.5 104.5q10 56 -22 97t-98 41q-71 0 -118 -41.5t-57 -103.5z" />
    <glyph glyph-name="one.tosf" 
d="M336 520h110l-61 -391h196l-21 -129h-551l21 129h208l38 241l-185 -67l22 136z" />
    <glyph glyph-name="two.tosf" 
d="M535 0h-525l11 68q7 44 31 77.5t63.5 55t71 33.5t79.5 26q7 2 11 3q34 10 51.5 15.5t40.5 14.5t34.5 16.5t20 18t10.5 23.5q5 27 -21 39.5t-70 12.5q-125 0 -259 -80l23 144q122 67 250 67q114 0 177.5 -49.5t48.5 -142.5q-16 -100 -157 -148q-19 -7 -59.5 -20.5t-69 -24
t-48.5 -20.5h307z" />
    <glyph glyph-name="three.tosf" 
d="M565 337q-17 -104 -125 -139q53 -18 83 -63t19 -118q-16 -98 -99 -144.5t-207 -46.5q-132 0 -238 47l20 134q90 -50 214 -50q158 2 173 95q7 39 -19 56.5t-82 17.5h-135l22 128h104q55 -1 88.5 17.5t38.5 54.5q6 36 -23 56.5t-94 20.5q-108 0 -223 -63l23 143
q99 51 228 51q114 0 180 -52t52 -145z" />
    <glyph glyph-name="four.tosf" 
d="M404 517h150l-68 -431h103l-19 -125h-103l-21 -125h-143l20 125h-357l19 123zM343 86l38 239l-232 -239h194z" />
    <glyph glyph-name="five.tosf" 
d="M143 520h448l-20 -128l-317 1l-29 -132q45 9 93 9q112 0 179.5 -57t49.5 -170q-17 -109 -106 -163t-220 -54q-128 0 -221 48l20 132q77 -49 192 -49q172 0 188 101q8 47 -28 71.5t-115 25.5q-99 2 -197 -31z" />
    <glyph glyph-name="six.tosf" 
d="M211 399q88 41 179 41q43 0 83 -15t71.5 -42.5t47 -72.5t6.5 -99q-17 -109 -97 -167t-192 -58q-153 0 -218.5 96t-38.5 267q27 173 128.5 259t241.5 86q103 0 186 -43l-20 -126q-64 43 -152 43q-169 0 -225 -169zM306 108q56 0 95.5 25.5t48.5 81.5q8 51 -23.5 75.5
t-86.5 24.5q-75 0 -152 -46q-8 -161 118 -161z" />
    <glyph glyph-name="seven.tosf" 
d="M83 521h553l-17 -108l-376 -573h-164l363 552h-380z" />
    <glyph glyph-name="eight.tosf" 
d="M591 172q-12 -79 -89 -132.5t-217 -53.5q-138 0 -208.5 62.5t-56.5 150.5q7 48 42.5 92t89.5 74q-72 63 -57 150q13 74 83 126.5t199 52.5q117 0 184.5 -62.5t55.5 -141.5q-12 -84 -110 -150q49 -29 71.5 -68t12.5 -100zM169 206q-6 -43 28 -72.5t104 -29.5
q57 0 96.5 22.5t45.5 55.5q4 22 -2.5 38t-26 28t-35.5 18t-49 16q-43 13 -85 30q-67 -48 -76 -106zM334 406q30 -8 70 -23q64 53 71 109q5 34 -24 59t-85 25q-54 0 -89 -20t-41 -54q-5 -37 20.5 -58t77.5 -38z" />
    <glyph glyph-name="nine.tosf" 
d="M34 309q18 109 98 167t191 58q153 0 218.5 -96t38.5 -267q-27 -174 -128 -259.5t-242 -85.5q-104 0 -188 42l20 126q64 -42 154 -42q172 0 225 169q-84 -40 -172 -40q-61 0 -113.5 24.5t-83 78t-18.5 125.5zM320 411q-54 0 -91 -26.5t-46 -78.5q-8 -53 24 -78t87 -25
q74 0 149 46q8 162 -123 162z" />
    <glyph glyph-name="zero.dnom" horiz-adv-x="431" 
d="M388 195q-15 -90 -69 -147t-144 -57q-94 0 -134 62.5t-25 159.5q15 90 68.5 147t144.5 57q92 0 133 -63t26 -159zM110 203q-10 -60 7.5 -93t61.5 -33q93 0 114 128q10 60 -7.5 93t-61.5 33q-93 0 -114 -128z" />
    <glyph glyph-name="one.dnom" horiz-adv-x="304" 
d="M163 408h71l-52 -324h75l-13 -84h-258l13 84h89l36 227l-91 -29l14 88z" />
    <glyph glyph-name="two.dnom" horiz-adv-x="365" 
d="M55 376q73 41 145 41q62 0 103 -34.5t30 -97.5q-7 -44 -36.5 -70.5t-89.5 -59.5q-90 -50 -95 -71h190l-13 -84h-307l7 47q5 35 19.5 62.5t40.5 49t44 32.5t52 29q48 26 69 42.5t25 35.5q3 17 -11 25.5t-38 8.5q-70 0 -150 -52z" />
    <glyph glyph-name="three.dnom" horiz-adv-x="362" 
d="M319 295q-9 -59 -74 -82q31 -10 49 -38t11 -72q-18 -112 -176 -112q-77 0 -141 30l14 88q51 -31 120 -31q87 0 95 47q4 23 -10.5 33t-44.5 10h-73l14 83h54q64 0 71 41q3 19 -13.5 29t-45.5 10q-69 0 -132 -34l14 89q67 31 131 31q63 0 104.5 -33t32.5 -89z" />
    <glyph glyph-name="four.dnom" horiz-adv-x="402" 
d="M242 408h98l-41 -254h60l-13 -82h-59l-12 -72h-92l11 72h-211l13 81zM206 154l22 131l-127 -131h105z" />
    <glyph glyph-name="five.dnom" horiz-adv-x="360" 
d="M74 409h261l-13 -84h-175l-15 -67q19 4 42 4q67 0 106.5 -35.5t28.5 -106.5q-11 -65 -64.5 -97t-125.5 -32q-74 0 -132 29l13 85q47 -28 108 -28q99 0 107 59q4 25 -17.5 38t-65.5 13q-48 0 -108 -19z" />
    <glyph glyph-name="six.dnom" horiz-adv-x="394" 
d="M120 247q46 19 98 19q60 0 99.5 -38t28.5 -104q-11 -64 -59.5 -98.5t-113.5 -34.5q-93 0 -134 59t-24 164q16 101 78 152t142 51q58 0 117 -28l-13 -80q-37 26 -91 26q-93 0 -128 -88zM171 71q71 0 80 58q4 28 -13.5 42t-49.5 14q-41 0 -85 -25q-2 -50 16 -69.5t52 -19.5
z" />
    <glyph glyph-name="seven.dnom" horiz-adv-x="340" 
d="M121 0h-106l204 325h-198l14 84h309l-11 -71z" />
    <glyph glyph-name="eight.dnom" horiz-adv-x="402" 
d="M44 311q7 42 50 74t116 32q75 0 116 -38t34 -88q-7 -49 -62 -88q58 -32 48 -100q-8 -47 -52.5 -79.5t-129.5 -32.5q-84 0 -127.5 39t-35.5 93q9 58 75 97q-41 32 -32 91zM193 165q-32 9 -54 18q-41 -26 -44 -59q-2 -24 16.5 -39.5t58.5 -15.5q73 0 80 43q4 20 -11.5 31.5
t-45.5 21.5zM269 292q2 19 -13.5 33t-48.5 14q-66 0 -72 -39q-6 -35 55 -56q6 -2 19.5 -5.5t21.5 -6.5q33 29 38 60z" />
    <glyph glyph-name="nine.dnom" horiz-adv-x="394" 
d="M20 284q10 64 58.5 98.5t113.5 34.5q95 0 135.5 -59t22.5 -164q-16 -101 -77.5 -152t-142.5 -51q-65 0 -116 28l12 81q42 -27 98 -27q91 0 123 89q-47 -19 -99 -19q-58 0 -98.5 38t-29.5 103zM194 337q-72 0 -80 -57q-4 -27 14 -42t48 -15q44 0 86 25q2 51 -16 70t-52 19
z" />
    <glyph glyph-name="zero.numr" horiz-adv-x="430" 
d="M431 472q-15 -90 -69 -147t-144 -57q-94 0 -134 62.5t-25 159.5q15 90 68.5 147t144.5 57q92 0 133 -63t26 -159zM153 480q-10 -60 7.5 -93t61.5 -33q93 0 114 128q10 60 -7.5 93t-61.5 33q-93 0 -114 -128z" />
    <glyph glyph-name="one.numr" horiz-adv-x="304" 
d="M206 680h71l-52 -324h75l-13 -84h-258l13 84h89l36 227l-91 -29l14 88z" />
    <glyph glyph-name="two.numr" horiz-adv-x="366" 
d="M99 653q73 41 145 41q62 0 103 -34.5t30 -97.5q-7 -44 -36.5 -70.5t-89.5 -59.5q-90 -50 -95 -71h190l-13 -84h-307l7 47q5 35 19.5 62.5t40.5 49t44 32.5t52 29q48 26 69 42.5t25 35.5q3 17 -11 25.5t-38 8.5q-70 0 -150 -52z" />
    <glyph glyph-name="three.numr" horiz-adv-x="362" 
d="M363 572q-9 -59 -74 -82q31 -10 49 -38t11 -72q-18 -112 -176 -112q-77 0 -141 30l14 88q51 -31 120 -31q87 0 95 47q4 23 -10.5 33t-44.5 10h-73l14 83h54q64 0 71 41q3 19 -13.5 29t-45.5 10q-69 0 -132 -34l14 89q67 31 131 31q63 0 104.5 -33t32.5 -89z" />
    <glyph glyph-name="four.numr" horiz-adv-x="402" 
d="M285 680h98l-41 -254h60l-13 -82h-59l-12 -72h-92l11 72h-211l13 81zM249 426l22 131l-127 -131h105z" />
    <glyph glyph-name="five.numr" horiz-adv-x="361" 
d="M117 680h261l-13 -84h-175l-15 -67q19 4 42 4q67 0 106.5 -35.5t28.5 -106.5q-11 -65 -64.5 -97t-125.5 -32q-74 0 -132 29l13 85q47 -28 108 -28q99 0 107 59q4 25 -17.5 38t-65.5 13q-48 0 -108 -19z" />
    <glyph glyph-name="six.numr" horiz-adv-x="394" 
d="M164 524q46 19 98 19q60 0 99.5 -38t28.5 -104q-11 -64 -59.5 -98.5t-113.5 -34.5q-93 0 -134 59t-24 164q16 101 78 152t142 51q58 0 117 -28l-13 -80q-37 26 -91 26q-93 0 -128 -88zM215 348q71 0 80 58q4 28 -13.5 42t-49.5 14q-41 0 -85 -25q-2 -50 16 -69.5
t52 -19.5z" />
    <glyph glyph-name="seven.numr" horiz-adv-x="340" 
d="M164 271h-106l204 325h-198l14 84h309l-11 -71z" />
    <glyph glyph-name="eight.numr" horiz-adv-x="403" 
d="M88 588q7 42 50 74t116 32q75 0 116 -38t34 -88q-7 -49 -62 -88q58 -32 48 -100q-8 -47 -52.5 -79.5t-129.5 -32.5q-84 0 -127.5 39t-35.5 93q9 58 75 97q-41 32 -32 91zM237 442q-32 9 -54 18q-41 -26 -44 -59q-2 -24 16.5 -39.5t58.5 -15.5q73 0 80 43q4 20 -11.5 31.5
t-45.5 21.5zM313 569q2 19 -13.5 33t-48.5 14q-66 0 -72 -39q-6 -35 55 -56q6 -2 19.5 -5.5t21.5 -6.5q33 29 38 60z" />
    <glyph glyph-name="nine.numr" horiz-adv-x="394" 
d="M64 561q10 64 58.5 98.5t113.5 34.5q95 0 135.5 -59t22.5 -164q-16 -101 -77.5 -152t-142.5 -51q-65 0 -116 28l12 81q42 -27 98 -27q91 0 123 89q-48 -19 -99 -19q-58 0 -98.5 38t-29.5 103zM238 614q-72 0 -80 -57q-4 -27 14 -42t48 -15q44 0 86 25q2 51 -16 70t-52 19
z" />
    <glyph glyph-name="emdash.case" horiz-adv-x="783" 
d="M723 291h-664l19 118h664z" />
    <glyph glyph-name="endash.case" horiz-adv-x="587" 
d="M527 291h-468l19 118h468z" />
    <glyph glyph-name="hyphen.case" horiz-adv-x="491" 
d="M78 409h372l-19 -118h-372z" />
    <glyph glyph-name="guillemotleft.case" horiz-adv-x="592" 
d="M513 156h-137l-100 181l4 29l154 178h144l-169 -194zM285 156h-137l-100 181l4 29l154 178h144l-169 -194z" />
    <glyph glyph-name="guillemotright.case" horiz-adv-x="594" 
d="M406 156h-144l169 194l-104 194h137l101 -181l-5 -29zM178 156h-144l169 194l-104 194h137l101 -181l-5 -29z" />
    <glyph glyph-name="guilsinglleft.case" horiz-adv-x="364" 
d="M285 156h-137l-100 181l4 29l154 178h144l-169 -194z" />
    <glyph glyph-name="guilsinglright.case" horiz-adv-x="366" 
d="M178 156h-144l169 194l-104 194h137l101 -181l-5 -29z" />
    <glyph glyph-name="cent.tf" 
d="M549 454l-19 -115q-35 27 -88 33l-42 -263q51 7 105 33l-20 -125q-48 -20 -104 -28l-17 -109h-90l17 108q-100 10 -158.5 76.5t-39.5 182.5q18 116 98 177.5t180 69.5l17 106h90l-18 -111q50 -11 89 -35zM351 366q-103 -28 -119 -130q-14 -100 79 -124z" />
    <glyph glyph-name="currency.tf" 
d="M205 177l-74 -63l-63 72l69 62q-23 44 -13 111q9 58 46 103l-48 55l75 68l53 -61q46 23 105 23q60 0 102 -26l76 66l61 -71l-70 -63q22 -48 13 -112q-9 -59 -47 -104l49 -54l-77 -68l-52 60q-45 -22 -104 -22q-58 0 -101 24zM241 341q-4 -35 15 -57t59 -22
q45 0 72.5 27.5t32.5 69.5q4 35 -15 57t-59 22q-45 0 -72.5 -27.5t-32.5 -69.5z" />
    <glyph glyph-name="dollar.tf" 
d="M309 -130h-109l19 119q-111 13 -195 61l22 140q94 -72 233 -72q134 0 145 68q5 34 -30 59t-87.5 44t-104 43.5t-83 71t-21.5 112.5q13 77 77.5 122t153.5 54l19 118h109l-19 -121q97 -12 162 -52l-21 -134q-82 61 -203 59q-118 -2 -128 -58q-4 -24 14 -43.5t49 -33.5
t69 -28t75.5 -32.5t67.5 -42.5t45 -62t7 -87q-14 -91 -82 -135.5t-165 -52.5z" />
    <glyph glyph-name="Euro.tf" 
d="M641 543q-43 18 -108 18q-161 0 -236 -108h241l-14 -89h-264q-7 -23 -7 -48h263l-14 -89h-236q22 -52 72.5 -79.5t116.5 -27.5q70 0 130 22l-22 -137q-66 -19 -136 -19q-119 0 -210 63t-111 178h-94l14 89h75q0 22 6 48h-73l14 89h85q48 119 154.5 180t232.5 61
q71 0 142 -22z" />
    <glyph glyph-name="sterling.tf" 
d="M552 0h-548l20 122h22q34 0 57.5 25.5t29.5 64.5l11 67h-80l17 112h80l11 66q19 122 95.5 179.5t185.5 57.5q95 0 168 -39l-18 -115q-61 39 -135 39q-137 0 -158 -133l-9 -55h193l-17 -112h-193l-13 -76q-9 -63 -52 -81h352z" />
    <glyph glyph-name="yen.tf" 
d="M525 680h167l-243 -332h115l-15 -96h-161l-9 -52h162l-16 -96h-161l-17 -104h-149l17 104h-162l16 96h161l9 52h-162l15 96h116l-137 332h155l103 -295z" />
    </font>
</defs>
</svg>
