<?xml version="1.0" standalone="no"?>
<!DOCTYPE svg PUBLIC "-//W3C//DTD SVG 1.1//EN" "http://www.w3.org/Graphics/SVG/1.1/DTD/svg11.dtd" >
<svg xmlns="http://www.w3.org/2000/svg" xmlns:xlink="http://www.w3.org/1999/xlink" version="1.1">
<metadata>
Created by FontForge 20170731 at Fri Mar 13 16:23:31 2015
 By Aleksey,,,
Copyright (c) 2015 by Fontfabric LLC. All rights reserved.
</metadata>
<defs>
<font id="MullerThin" horiz-adv-x="574" >
  <font-face 
    font-family="Muller Thin"
    font-weight="250"
    font-stretch="normal"
    units-per-em="1000"
    panose-1="0 0 0 0 0 0 0 0 0 0"
    ascent="780"
    descent="-220"
    x-height="480"
    cap-height="700"
    bbox="-157 -231 1213 922"
    underline-thickness="50"
    underline-position="-225"
    unicode-range="U+0020-25CA"
  />
<missing-glyph horiz-adv-x="267" 
 />
    <glyph glyph-name="f_f" unicode="ff" horiz-adv-x="657" 
d="M682 674q-43 24 -110 24q-58 0 -95 -30t-37 -96v-92h213v-23h-213v-457h-24v457h-286v-457h-24v457h-82v23h82v58q0 74 46.5 114t116.5 40q87 0 160 -50q34 78 139 78q70 0 114 -23v-23zM130 480h286v93q0 27 6 48q-72 49 -152 49q-63 0 -101.5 -35t-38.5 -97v-58z" />
    <glyph glyph-name="f_f_i" unicode="ffi" horiz-adv-x="834" 
d="M130 0h-24v457h-82v23h82v58q0 75 47.5 114.5t123.5 39.5q82 0 158 -52q42 72 144 72q83 0 157 -45v-25q-75 48 -156 48q-63 0 -101.5 -34t-38.5 -92v-84h307v-480h-24v457h-283v-457h-24v457h-286v-457zM130 538v-58h286v84q0 29 10 57q-70 49 -148 49q-69 0 -108.5 -35
t-39.5 -97z" />
    <glyph glyph-name="f_f_l" unicode="ffl" horiz-adv-x="844" 
d="M733 673v25l24 8v-706h-24v650q-70 40 -153 40q-64 0 -102 -35.5t-38 -98.5v-76h195v-23h-195v-457h-24v457h-286v-457h-24v457h-82v23h82v58q0 75 47.5 114.5t123.5 39.5q83 0 160 -53q39 73 142 73q84 0 154 -39zM416 480v76q0 37 12 64q-73 50 -150 50
q-69 0 -108.5 -35t-39.5 -97v-58h286z" />
    <glyph glyph-name=".notdef" horiz-adv-x="267" 
 />
    <glyph glyph-name=".null" horiz-adv-x="0" 
 />
    <glyph glyph-name="nonmarkingreturn" horiz-adv-x="333" 
 />
    <glyph glyph-name="space" unicode=" " horiz-adv-x="267" 
 />
    <glyph glyph-name="exclam" unicode="!" horiz-adv-x="194" 
d="M108 169h-22l-1 531h25zM119 16q0 -22 -22 -22q-9 0 -15.5 6t-6.5 16t6.5 16t15.5 6q22 0 22 -22z" />
    <glyph glyph-name="quotedbl" unicode="&#x22;" horiz-adv-x="248" 
d="M177 568h-18v132h25zM87 568h-18v132h25z" />
    <glyph glyph-name="numbersign" unicode="#" horiz-adv-x="647" 
d="M117 0h-24l44 190h-96v22h101l62 257h-113v22h118l45 190h24l-44 -190h250l45 190h25l-45 -190h96v-22h-101l-61 -257h112v-22h-117l-45 -190h-25l45 190h-251zM228 469l-61 -257h251l61 257h-251z" />
    <glyph glyph-name="dollar" unicode="$" horiz-adv-x="568" 
d="M299 -130h-22v120q-126 5 -221 58v25q106 -59 237 -59q92 0 149.5 34.5t57.5 109.5q0 47 -24.5 80t-63 51t-85.5 32t-94.5 28.5t-86 33.5t-63 54t-24.5 84q0 81 62.5 124t154.5 45v120h22v-120q107 -3 185 -47v-25q-88 50 -197 48q-87 0 -144.5 -36t-57.5 -109
q0 -45 24.5 -76t63 -48.5t85.5 -31t94.5 -28t86 -34.5t63 -56.5t24.5 -87.5q0 -86 -63.5 -127.5t-162.5 -41.5v-120z" />
    <glyph glyph-name="percent" unicode="%" horiz-adv-x="872" 
d="M244 -60h-25l409 820h25zM331 567q0 -68 -42.5 -105.5t-104.5 -37.5q-61 0 -104.5 37.5t-43.5 105.5t43.5 105.5t104.5 37.5q62 0 104.5 -37.5t42.5 -105.5zM59 567q0 -56 36 -88.5t89 -32.5t88.5 32.5t35.5 88.5t-35.5 88.5t-88.5 32.5t-89 -32.5t-36 -88.5zM836 133
q0 -68 -43 -105.5t-104 -37.5q-62 0 -105 37.5t-43 105.5t43 105.5t105 37.5q61 0 104 -37.5t43 -105.5zM564 133q0 -56 36 -88.5t89 -32.5t88.5 32.5t35.5 88.5t-35.5 88.5t-88.5 32.5t-89 -32.5t-36 -88.5z" />
    <glyph glyph-name="ampersand" unicode="&#x26;" horiz-adv-x="681" 
d="M542 111l125 -111h-30l-108 96q-94 -106 -251 -106q-103 0 -162.5 48.5t-59.5 122.5q0 66 45 115.5t121 93.5q-101 97 -101 176q0 67 54 115.5t144 48.5q75 0 122 -37.5t47 -97.5q0 -20 -6.5 -38t-22 -35.5t-28.5 -30t-40 -29.5t-41 -25.5t-47 -26.5l-44 -24
q10 -10 26 -24l240 -215q62 83 62 186h25q0 -114 -70 -202zM319 687q-80 0 -127 -42t-47 -100q0 -70 97 -163q13 7 49.5 27t53 29.5t44.5 28.5t41 33.5t23.5 34t10.5 39.5q0 50 -40.5 81.5t-104.5 31.5zM81 162q0 -65 53 -107t145 -42q144 0 232 98l-246 219l-27 24
q-73 -44 -115 -89t-42 -103z" />
    <glyph glyph-name="quotesingle" unicode="'" horiz-adv-x="158" 
d="M87 568h-18v132h25z" />
    <glyph glyph-name="parenleft" unicode="(" horiz-adv-x="246" 
d="M200 808h25q-68 -96 -108 -217.5t-40 -240.5t40 -240.5t108 -217.5h-25q-69 97 -109 218t-40 240t40 240t109 218z" />
    <glyph glyph-name="parenright" unicode=")" horiz-adv-x="246" 
d="M21 808h25q69 -97 109 -218t40 -240q0 -118 -40 -239.5t-109 -218.5h-25q69 95 108.5 217t39.5 241t-39.5 241t-108.5 217z" />
    <glyph glyph-name="asterisk" unicode="*" horiz-adv-x="425" 
d="M213 536l-85 -118l-19 13l87 115l-136 44l8 22l135 -48l-2 136h23l-2 -136l135 48l8 -22l-136 -44l87 -115l-19 -13z" />
    <glyph glyph-name="plus" unicode="+" horiz-adv-x="537" 
d="M280 362h201v-24h-201v-201h-23v201h-201v24h201v201h23v-201z" />
    <glyph glyph-name="comma" unicode="," horiz-adv-x="170" 
d="M53 -142h-21l50 214h25z" />
    <glyph glyph-name="hyphen" unicode="-" horiz-adv-x="485" 
d="M71 254h343v-23h-343v23z" />
    <glyph glyph-name="period" unicode="." horiz-adv-x="169" 
d="M107 16q0 -10 -6.5 -16t-15.5 -6t-16 6.5t-7 15.5t7 15.5t16 6.5t15.5 -6t6.5 -16z" />
    <glyph glyph-name="slash" unicode="/" horiz-adv-x="401" 
d="M62 -57h-20l297 814h20z" />
    <glyph glyph-name="zero" unicode="0" horiz-adv-x="702" 
d="M59 340q0 160 74.5 255t217.5 95t217.5 -95t74.5 -255t-74.5 -255t-217.5 -95t-217.5 95t-74.5 255zM618 340q0 151 -67.5 238.5t-199.5 87.5t-199.5 -87.5t-67.5 -238.5t67.5 -238.5t199.5 -87.5t199.5 87.5t67.5 238.5z" />
    <glyph glyph-name="one" unicode="1" horiz-adv-x="401" 
d="M220 680h16v-656h143v-24h-324v24h157v628l-157 -59v24z" />
    <glyph glyph-name="two" unicode="2" horiz-adv-x="558" 
d="M74 629q89 61 203 61q97 0 156.5 -44.5t59.5 -120.5q0 -42 -15 -76.5t-48 -64t-59.5 -47t-75.5 -46.5q-102 -59 -135 -88q-84 -72 -85 -179h427v-24h-453v16q0 46 14 86t31 65.5t52 54t56.5 42t66.5 39.5q2 1 3.5 2t4 2.5t4.5 2.5q40 23 58 34.5t48.5 34.5t44.5 41.5
t25.5 46t11.5 58.5q0 65 -53 103.5t-140 38.5q-106 0 -202 -63v25z" />
    <glyph glyph-name="three" unicode="3" horiz-adv-x="587" 
d="M500 511q0 -56 -34.5 -100t-101.5 -57q73 -12 119 -55.5t46 -119.5q0 -89 -63 -139t-165 -50q-147 0 -237 44v24q98 -45 236 -45q92 0 148.5 43.5t56.5 122.5q0 81 -58.5 121t-150.5 40h-98v24h96q91 0 136.5 42.5t45.5 103.5q0 67 -52 112t-142 45q-107 0 -206 -45v24
q91 44 209 44q98 0 156.5 -51.5t58.5 -127.5z" />
    <glyph glyph-name="four" unicode="4" horiz-adv-x="636" 
d="M429 680h27v-486h146v-24h-146v-170h-25v170h-403v22zM431 194v451l-370 -451h370z" />
    <glyph glyph-name="five" unicode="5" horiz-adv-x="573" 
d="M102 680h385v-24h-362l-19 -293q83 26 167 26q107 0 178 -49t71 -149q0 -90 -65.5 -145.5t-176.5 -55.5q-127 0 -217 46v24q94 -47 215 -47q102 0 160.5 48.5t58.5 129.5q0 88 -65 131.5t-165 43.5q-94 0 -187 -33z" />
    <glyph glyph-name="six" unicode="6" horiz-adv-x="603" 
d="M85 295q107 115 249 115q93 0 158 -54t65 -154q0 -98 -65 -155t-163 -57q-131 0 -200 87.5t-69 241.5q0 191 78.5 281t218.5 90q79 0 143 -36v-24q-63 36 -143 36q-272 0 -272 -348v-23zM87 267q11 -121 72 -187.5t168 -66.5q90 0 147.5 49.5t57.5 138.5q0 91 -58 138
t-144 47q-68 0 -132.5 -31.5t-110.5 -87.5z" />
    <glyph glyph-name="seven" unicode="7" horiz-adv-x="514" 
d="M38 680h458v-20l-322 -660h-26l319 656h-429v24z" />
    <glyph glyph-name="eight" unicode="8" horiz-adv-x="641" 
d="M83 527q0 68 60 115.5t177 47.5q110 0 174 -52.5t65 -120.5q0 -62 -31.5 -111.5t-87.5 -79.5q144 -53 144 -163q0 -71 -68.5 -122t-193.5 -51q-127 0 -195.5 54t-68.5 137q0 64 36 116.5t102 82.5q-113 50 -113 147zM321 338q-82 23 -103 32q-64 -26 -100 -76t-36 -111
q0 -75 61.5 -122.5t177.5 -47.5q112 0 174.5 43.5t62.5 105.5q0 32 -13 57.5t-32.5 42t-50.5 30.5t-60.5 23t-68.5 20zM534 514q0 60 -57.5 106.5t-157.5 46.5q-103 0 -157.5 -40.5t-54.5 -99.5q0 -31 13.5 -56t29.5 -39.5t49 -29t50.5 -20t55.5 -16.5q9 -3 14 -4
q11 -3 45 -12.5t52 -14.5q55 28 86.5 74.5t31.5 104.5z" />
    <glyph glyph-name="nine" unicode="9" horiz-adv-x="603" 
d="M46 478q0 98 64.5 155t163.5 57q131 0 200 -87.5t69 -241.5q0 -191 -78.5 -281t-218.5 -90q-80 0 -144 36v24q63 -36 143 -36q273 0 273 348v23q-107 -115 -249 -115q-93 0 -158 54t-65 154zM71 479q0 -91 57.5 -138t144.5 -47q68 0 132.5 31.5t110.5 87.5
q-11 121 -72.5 187.5t-168.5 66.5q-89 0 -146.5 -49.5t-57.5 -138.5z" />
    <glyph glyph-name="colon" unicode=":" horiz-adv-x="187" 
d="M116 406q0 -10 -6.5 -16t-16.5 -6q-9 0 -15.5 6.5t-6.5 15.5t6.5 15.5t15.5 6.5q10 0 16.5 -6t6.5 -16zM116 16q0 -10 -6.5 -16t-16.5 -6q-9 0 -15.5 6.5t-6.5 15.5t6.5 15.5t15.5 6.5q10 0 16.5 -6t6.5 -16z" />
    <glyph glyph-name="semicolon" unicode=";" horiz-adv-x="265" 
d="M101 -142h-21l50 214h25zM154 449q0 -10 -6.5 -16t-16.5 -6q-9 0 -15.5 6.5t-6.5 15.5t6.5 15.5t15.5 6.5q10 0 16.5 -6t6.5 -16z" />
    <glyph glyph-name="less" unicode="&#x3c;" horiz-adv-x="484" 
d="M404 201v-25l-356 161v26l356 161v-25l-331 -149z" />
    <glyph glyph-name="equal" unicode="=" horiz-adv-x="537" 
d="M463 429h-389v23h389v-23zM463 248h-389v23h389v-23z" />
    <glyph glyph-name="greater" unicode="&#x3e;" horiz-adv-x="484" 
d="M436 337l-356 -161v25l331 149l-331 149v25l356 -161v-26z" />
    <glyph glyph-name="question" unicode="?" horiz-adv-x="488" 
d="M245 187h-24q0 37 20.5 75.5t49.5 71t58.5 66t50 72.5t20.5 77q0 64 -51.5 100.5t-139.5 36.5q-99 0 -190 -56v24q86 56 192 56q97 0 155.5 -43t58.5 -117q0 -49 -31.5 -100.5t-68.5 -88.5t-68.5 -84.5t-31.5 -89.5zM255 16q0 -10 -6.5 -16t-15.5 -6t-16 6.5t-7 15.5
t7 15.5t16 6.5t15.5 -6t6.5 -16z" />
    <glyph glyph-name="at" unicode="@" horiz-adv-x="1058" 
d="M52 240q0 91 32.5 175t92 150t153 105.5t206.5 39.5q109 0 200 -40t147 -104t87 -138.5t31 -148.5q0 -131 -49 -200t-128 -69q-62 0 -97.5 33.5t-38.5 97.5q-25 -49 -71.5 -78.5t-104.5 -29.5q-85 0 -140 56.5t-55 148.5t55 148.5t140 56.5q58 0 104 -30t70 -77v98h23
v-286q0 -55 30 -85.5t86 -30.5q68 0 109.5 64t41.5 183q0 70 -29.5 141t-83 131t-139.5 97.5t-188 37.5q-142 0 -248.5 -64t-158.5 -164t-52 -218q0 -84 25.5 -156t70.5 -124.5t105.5 -90.5t131.5 -56.5t147 -18.5q125 0 223 36v-24q-97 -36 -224 -36q-100 0 -190.5 31.5
t-160.5 89.5t-111.5 148.5t-41.5 200.5zM685 296q-17 53 -63.5 88.5t-108.5 35.5q-75 0 -123.5 -49.5t-48.5 -132.5t48.5 -132.5t123.5 -49.5q62 0 108.5 35.5t63.5 88.5v116z" />
    <glyph glyph-name="A" unicode="A" horiz-adv-x="704" 
d="M43 0h-27l322 700h29l321 -700h-27l-99 215h-420zM346 660l-193 -421h400l-193 421q-3 6 -7 16q-4 -10 -7 -16z" />
    <glyph glyph-name="B" unicode="B" horiz-adv-x="674" 
d="M105 700h252q107 0 170.5 -43.5t63.5 -131.5q0 -65 -41 -106t-99 -51q41 -7 75.5 -23.5t63.5 -57t29 -99.5q0 -48 -17.5 -83.5t-44.5 -55t-65.5 -31t-71.5 -15t-71 -3.5h-244v700zM594 190q0 50 -22 85t-57.5 51t-67.5 22.5t-65 6.5h-252v-331h216q49 0 86 5.5t77.5 21
t62.5 51t22 88.5zM566 523q0 79 -55.5 116t-154.5 37h-226v-297h262q70 0 122 39t52 105z" />
    <glyph glyph-name="C" unicode="C" horiz-adv-x="658" 
d="M53 341q0 88 31.5 160t83 116.5t114.5 68.5t130 24q112 0 196 -48v-25q-84 49 -193 49q-63 0 -122 -22t-107.5 -63.5t-78 -109t-29.5 -150.5q0 -81 29.5 -145t78.5 -103t108 -59t123 -20q115 0 200 50v-25q-84 -49 -204 -49q-67 0 -130 22t-115 63.5t-83.5 110.5
t-31.5 155z" />
    <glyph glyph-name="D" unicode="D" horiz-adv-x="730" 
d="M105 700h199q182 0 277 -96t95 -254t-95 -254t-277 -96h-199v700zM651 350q0 148 -88.5 237t-258.5 89h-174v-652h174q170 0 258.5 89t88.5 237z" />
    <glyph glyph-name="E" unicode="E" horiz-adv-x="628" 
d="M105 700h455v-24h-430v-312h400v-24h-400v-316h439v-24h-464v700z" />
    <glyph glyph-name="F" unicode="F" horiz-adv-x="592" 
d="M105 700h456v-24h-431v-319h402v-24h-402v-333h-25v700z" />
    <glyph glyph-name="G" unicode="G" horiz-adv-x="710" 
d="M54 350q0 91 31.5 162.5t85 113t117.5 63t134 21.5q113 0 202 -46v-25q-88 47 -200 47q-66 0 -126 -19.5t-110 -58.5t-79.5 -105.5t-29.5 -152.5q0 -87 30 -153.5t80.5 -105t111.5 -58t129 -19.5q105 0 188 40v311h25v-328q-99 -47 -214 -47q-73 0 -138 21t-119 62.5
t-86 113t-32 163.5z" />
    <glyph glyph-name="H" unicode="H" horiz-adv-x="767" 
d="M637 700h25v-700h-25v340h-507v-340h-25v700h25v-336h507v336z" />
    <glyph glyph-name="I" unicode="I" horiz-adv-x="235" 
d="M105 700h25v-700h-25v700z" />
    <glyph glyph-name="J" unicode="J" horiz-adv-x="522" 
d="M169 700h256v-516q0 -95 -58.5 -144.5t-154.5 -49.5q-112 0 -179 43v25q67 -44 176 -44q87 0 139 42.5t52 127.5v492h-231v24z" />
    <glyph glyph-name="K" unicode="K" horiz-adv-x="654" 
d="M130 0h-25v700h25v-329h216l246 329h29l-254 -341l282 -359h-30l-274 347h-215v-347z" />
    <glyph glyph-name="L" unicode="L" horiz-adv-x="576" 
d="M105 700h25v-676h428v-24h-453v700z" />
    <glyph glyph-name="M" unicode="M" horiz-adv-x="897" 
d="M773 700h19v-700h-25v650l-311 -454h-15l-311 454v-650h-25v700h19l324 -473z" />
    <glyph glyph-name="N" unicode="N" horiz-adv-x="767" 
d="M130 0h-25v700h21l511 -656v60v596h25v-700h-22l-510 657v-60v-597z" />
    <glyph glyph-name="O" unicode="O" horiz-adv-x="826" 
d="M52 350q0 67 23 129.5t66 115t114 84t158 31.5t158 -31.5t114 -84t66 -115t23 -129.5t-23 -129.5t-66 -115t-114 -84t-158 -31.5t-158 31.5t-114 84t-66 115t-23 129.5zM749 350q0 63 -21.5 121.5t-61.5 107t-106 78t-147 29.5t-147 -29.5t-106 -78t-61.5 -107
t-21.5 -121.5t21.5 -121.5t61.5 -107t106 -78t147 -29.5t147 29.5t106 78t61.5 107t21.5 121.5z" />
    <glyph glyph-name="P" unicode="P" horiz-adv-x="651" 
d="M105 700h217q292 0 292 -217t-292 -217h-192v-266h-25v700zM589 483q0 193 -266 193h-193v-386h193q266 0 266 193z" />
    <glyph glyph-name="Q" unicode="Q" horiz-adv-x="826" 
d="M776 -42l-16 -16l-121 120q-93 -72 -226 -72q-87 0 -158 31.5t-114 84t-66 115t-23 129.5t23 129.5t66 115t114 84t158 31.5t158 -31.5t114 -84t66 -115t23 -129.5q0 -77 -30 -149t-87 -124zM77 350q0 -63 21.5 -121.5t61.5 -107t106 -78t147 -29.5q124 0 209 66
l-162 162l16 16l163 -163q54 47 82 115t28 140q0 63 -21.5 121.5t-61.5 107t-106 78t-147 29.5t-147 -29.5t-106 -78t-61.5 -107t-21.5 -121.5z" />
    <glyph glyph-name="R" unicode="R" horiz-adv-x="682" 
d="M130 0h-25v700h263q46 0 87.5 -11t78 -34t58.5 -63.5t22 -94.5q0 -51 -19.5 -90t-52 -62t-71 -35.5t-81.5 -14.5l268 -295h-31l-266 294h-231v-294zM130 676v-358h239q41 0 78 9.5t70 29t52.5 56t19.5 84.5q0 63 -34.5 105t-82 58t-103.5 16h-239z" />
    <glyph glyph-name="S" unicode="S" horiz-adv-x="563" 
d="M59 541q0 83 64 126t154 43q114 0 198 -47v-25q-39 22 -93 35.5t-104 12.5q-81 0 -137.5 -36.5t-56.5 -108.5q0 -45 24 -77.5t63 -51.5t85.5 -34.5t93.5 -32.5t86 -38.5t63 -59t24 -88.5q0 -87 -66.5 -128.5t-166.5 -40.5q-133 0 -238 58v25q106 -59 236 -59
q93 0 151.5 34.5t58.5 109.5q0 47 -24 81t-63 54t-85.5 36t-93.5 32.5t-86 37.5t-63 57t-24 85z" />
    <glyph glyph-name="T" unicode="T" horiz-adv-x="593" 
d="M15 700h563v-24h-269v-676h-25v676h-269v24z" />
    <glyph glyph-name="U" unicode="U" horiz-adv-x="749" 
d="M628 700h25v-459q0 -132 -75.5 -191.5t-202.5 -59.5t-203 59.5t-76 191.5v459h25v-458q0 -228 254 -228q253 0 253 228v458z" />
    <glyph glyph-name="V" unicode="V" horiz-adv-x="677" 
d="M351 0h-25l-306 700h27l292 -672l292 672h26z" />
    <glyph glyph-name="W" unicode="W" horiz-adv-x="987" 
d="M931 700h28l-224 -700h-27l-215 651l-214 -651h-27l-224 700h27l210 -666l217 658h23l216 -658z" />
    <glyph glyph-name="X" unicode="X" horiz-adv-x="606" 
d="M41 0h-30l277 360l-262 340h30l247 -321l248 321h29l-262 -340l277 -360h-29l-263 340z" />
    <glyph glyph-name="Y" unicode="Y" horiz-adv-x="625" 
d="M325 0h-25v284l-276 416h28l260 -392l260 392h28l-275 -416v-284z" />
    <glyph glyph-name="Z" unicode="Z" horiz-adv-x="569" 
d="M539 0h-515v22l476 654h-456v24h488v-22l-477 -654h484v-24z" />
    <glyph glyph-name="bracketleft" unicode="[" horiz-adv-x="235" 
d="M216 -110h-138v920h138v-24h-113v-872h113v-24z" />
    <glyph glyph-name="backslash" unicode="\" horiz-adv-x="401" 
d="M359 -57h-20l-297 814h20z" />
    <glyph glyph-name="bracketright" unicode="]" horiz-adv-x="235" 
d="M157 -110h-138v24h113v872h-113v24h138v-920z" />
    <glyph glyph-name="asciicircum" unicode="^" horiz-adv-x="484" 
d="M84 404h-27l174 296h22l174 -296h-26l-159 270z" />
    <glyph glyph-name="underscore" unicode="_" horiz-adv-x="427" 
d="M427 -127h-427v24h427v-24z" />
    <glyph glyph-name="grave" unicode="`" horiz-adv-x="165" 
d="M139 778h-28l-90 133h30z" />
    <glyph glyph-name="a" unicode="a" horiz-adv-x="539" 
d="M444 70q0 -49 52 -49q20 0 37 7v-21q-21 -8 -42 -8q-30 0 -50.5 17t-20.5 53v36q-34 -55 -92 -85t-125 -30t-115 35.5t-48 101.5q0 77 60 114t146 37t174 -30v52q0 78 -44.5 123t-128.5 45q-89 0 -170 -30v24q80 28 171 28q94 0 145 -51t51 -141v-228zM64 128
q0 -56 42 -86.5t101 -30.5q66 0 124 33t89 93v89q-85 30 -172 30q-78 0 -131 -31t-53 -97z" />
    <glyph glyph-name="b" unicode="b" horiz-adv-x="613" 
d="M84 700h24v-343q29 58 87 95.5t131 37.5q104 0 171 -68t67 -182t-67 -182t-171 -68q-73 0 -131 37.5t-89 97.5v-125h-22v700zM540 240q0 105 -60.5 166.5t-155.5 61.5q-76 0 -134.5 -44t-81.5 -111v-146q23 -67 81.5 -111t134.5 -44q95 0 155.5 61.5t60.5 166.5z" />
    <glyph glyph-name="c" unicode="c" horiz-adv-x="493" 
d="M49 236q0 64 22.5 114.5t60 80t82 44.5t93.5 15q83 0 140 -39v-23q-58 40 -138 40q-97 0 -166.5 -59t-69.5 -173q0 -108 65.5 -166t158.5 -58q87 0 155 39v-24q-67 -37 -157 -37q-101 0 -173.5 63t-72.5 183z" />
    <glyph glyph-name="d" unicode="d" horiz-adv-x="613" 
d="M505 700h24v-700h-22v125q-31 -60 -89 -97.5t-131 -37.5q-104 0 -171 68t-67 182t67 182t171 68q73 0 131 -37.5t87 -95.5v343zM505 313q-23 67 -81.5 111t-134.5 44q-94 0 -155 -61.5t-61 -166.5q0 -104 61 -166t155 -62q76 0 134.5 44t81.5 111v146z" />
    <glyph glyph-name="e" unicode="e" horiz-adv-x="545" 
d="M49 240q0 115 69.5 182.5t164.5 67.5q63 0 110 -25t70.5 -65t32 -85t1.5 -89h-424q3 -107 71.5 -160.5t168.5 -53.5q90 0 155 38v-24q-62 -36 -158 -36q-111 0 -186 63t-75 187zM476 248q5 51 -10.5 99t-62.5 84.5t-119 36.5q-86 0 -147.5 -58.5t-63.5 -161.5h403z" />
    <glyph glyph-name="f" unicode="f" horiz-adv-x="347" 
d="M130 0h-24v457h-82v23h82v83q0 76 43.5 111.5t108.5 35.5q70 0 114 -23v-23q-43 24 -110 24q-58 0 -95 -30t-37 -96v-82h213v-23h-213v-457z" />
    <glyph glyph-name="g" unicode="g" horiz-adv-x="613" 
d="M49 240q0 114 67 182t171 68q73 0 131 -37.5t89 -97.5v125h22v-480q0 -114 -72.5 -172t-178.5 -58q-100 0 -188 45v24q91 -47 186 -47q46 0 86.5 12t73 36.5t51 65.5t18.5 94v124q-29 -59 -87 -96.5t-131 -37.5q-104 0 -171 68t-67 182zM505 313q-23 67 -81.5 111
t-134.5 44q-94 0 -155 -61.5t-61 -166.5q0 -104 61 -166t155 -62q76 0 134.5 43.5t81.5 109.5v148z" />
    <glyph glyph-name="h" unicode="h" 
d="M84 700h24v-326q30 46 82 81t121 35q80 0 133 -52.5t53 -142.5v-295h-24v293q0 82 -46 128.5t-118 46.5q-70 0 -121 -38t-80 -91v-339h-24v700z" />
    <glyph glyph-name="i" unicode="i" horiz-adv-x="198" 
d="M111 0h-24v480h24v-480zM119 615q0 -19 -20 -19t-20 19q0 9 6 14.5t14 5.5t14 -5.5t6 -14.5z" />
    <glyph glyph-name="j" unicode="j" horiz-adv-x="198" 
d="M111 -116q0 -61 -33.5 -87.5t-83.5 -26.5q-37 0 -68 11v23q30 -11 64 -11q42 0 69.5 21.5t27.5 71.5v594h24v-596zM119 615q0 -19 -20 -19t-20 19q0 9 6 14.5t14 5.5q20 0 20 -20z" />
    <glyph glyph-name="k" unicode="k" horiz-adv-x="490" 
d="M486 0h-29l-220 237h-129v-237h-24v700h24v-440h131l190 220h29l-200 -233z" />
    <glyph glyph-name="l" unicode="l" horiz-adv-x="198" 
d="M87 730h24v-730h-24v730z" />
    <glyph glyph-name="m" unicode="m" horiz-adv-x="894" 
d="M108 0h-24v480h22v-102q29 44 78.5 78t112.5 34q57 0 99 -29.5t59 -79.5q32 44 81 76.5t110 32.5q76 0 123 -49.5t47 -127.5v-313h-24v312q0 68 -40 112t-108 44q-59 0 -105 -33t-76 -80q4 -17 4 -42v-313h-24v312q0 68 -40 112t-108 44q-62 0 -110.5 -37t-76.5 -86v-345
z" />
    <glyph glyph-name="n" unicode="n" 
d="M106 372q30 47 82.5 82.5t122.5 35.5q80 0 133 -52.5t53 -142.5v-295h-24v293q0 82 -46 128.5t-118 46.5q-70 0 -121 -38t-80 -91v-339h-24v480h22v-108z" />
    <glyph glyph-name="o" unicode="o" horiz-adv-x="592" 
d="M49 240q0 115 72.5 182.5t174.5 67.5q103 0 175 -67.5t72 -182.5t-72 -182.5t-175 -67.5q-102 0 -174.5 67.5t-72.5 182.5zM519 240q0 105 -64.5 166t-158.5 61t-158.5 -61t-64.5 -166t64.5 -166t158.5 -61t158.5 61t64.5 166z" />
    <glyph glyph-name="p" unicode="p" horiz-adv-x="613" 
d="M106 355q31 60 89 97.5t131 37.5q104 0 171 -68t67 -182t-67 -182t-171 -68q-73 0 -131 37.5t-87 95.5v-343h-24v700h22v-125zM540 240q0 105 -60.5 166.5t-155.5 61.5q-76 0 -134.5 -44t-81.5 -111v-146q23 -67 81.5 -111t134.5 -44q95 0 155.5 61.5t60.5 166.5z" />
    <glyph glyph-name="q" unicode="q" horiz-adv-x="613" 
d="M49 240q0 114 67 182t171 68q73 0 131 -37.5t89 -97.5v125h22v-700h-24v343q-29 -58 -87 -95.5t-131 -37.5q-104 0 -171 68t-67 182zM505 313q-23 67 -81.5 111t-134.5 44q-94 0 -155 -62t-61 -166q0 -105 61 -166.5t155 -61.5q76 0 134.5 44t81.5 111v146z" />
    <glyph glyph-name="r" unicode="r" horiz-adv-x="336" 
d="M106 333q25 67 83 112.5t136 44.5v-24q-85 1 -142.5 -52.5t-74.5 -128.5v-285h-24v480h22v-147z" />
    <glyph glyph-name="s" unicode="s" horiz-adv-x="452" 
d="M53 368q0 61 49.5 91.5t118.5 30.5q93 0 163 -41v-24q-67 43 -162 43q-60 0 -102 -24.5t-42 -74.5q0 -43 34.5 -69.5t83 -39t97.5 -26t83.5 -43t34.5 -78.5q0 -62 -51 -92.5t-128 -30.5q-49 0 -100 13.5t-83 34.5v24q76 -50 182 -50q67 0 111.5 25t44.5 75
q0 43 -34.5 68.5t-83.5 38t-98 26t-83.5 44t-34.5 79.5z" />
    <glyph glyph-name="t" unicode="t" horiz-adv-x="362" 
d="M103 638l24 8v-166h214v-23h-214v-321q0 -122 123 -122q58 0 103 24v-23q-42 -24 -108 -24q-68 0 -105 36.5t-37 105.5v324h-90v23h90v158z" />
    <glyph glyph-name="u" unicode="u" 
d="M466 480h24v-480h-22v108q-30 -47 -82.5 -82.5t-122.5 -35.5q-82 0 -134 52.5t-52 142.5v295h24v-293q0 -83 45.5 -129t118.5 -46q70 0 121 38t80 91v339z" />
    <glyph glyph-name="v" unicode="v" horiz-adv-x="522" 
d="M473 480h27l-226 -480h-26l-226 480h27l212 -453z" />
    <glyph glyph-name="w" unicode="w" horiz-adv-x="798" 
d="M746 480h25l-184 -480h-24l-164 441l-163 -441h-24l-185 480h26l171 -449l163 441h24l164 -441z" />
    <glyph glyph-name="x" unicode="x" horiz-adv-x="482" 
d="M426 480h28l-198 -234l209 -246h-29l-195 229l-195 -229h-29l210 246l-199 234h29l184 -216z" />
    <glyph glyph-name="y" unicode="y" horiz-adv-x="530" 
d="M277 25l204 455h26l-255 -568q-34 -77 -72 -109.5t-87 -32.5q-23 0 -49 6v22q24 -6 47 -6q45 0 78.5 31t62.5 100l33 75l-248 482h26z" />
    <glyph glyph-name="z" unicode="z" horiz-adv-x="443" 
d="M44 480h356v-20l-339 -438h350v-22h-381v20l339 438h-325v22z" />
    <glyph glyph-name="braceleft" unicode="{" horiz-adv-x="259" 
d="M221 -88v-22q-101 -18 -101 91v258q0 48 -28.5 74.5t-63.5 25.5v22q35 -1 63.5 25.5t28.5 74.5v258q0 110 101 91v-22q-43 7 -59.5 -12t-16.5 -64v-252q0 -46 -21 -74.5t-52 -35.5q31 -7 52 -35.5t21 -74.5v-252q0 -45 16.5 -64t59.5 -12z" />
    <glyph glyph-name="bar" unicode="|" horiz-adv-x="181" 
d="M103 -100h-25v910h25v-910z" />
    <glyph glyph-name="braceright" unicode="}" horiz-adv-x="259" 
d="M139 -19q0 -109 -101 -91v22q43 -7 59.5 12t16.5 64v252q0 46 21 74.5t52 35.5q-31 7 -52 35.5t-21 74.5v252q0 45 -16.5 64t-59.5 12v22q101 20 101 -91v-258q0 -48 28 -74.5t64 -25.5v-22q-36 1 -64 -25.5t-28 -74.5v-258z" />
    <glyph glyph-name="asciitilde" unicode="~" horiz-adv-x="577" 
d="M502 365q0 -36 -22.5 -59t-60.5 -23q-37 0 -129 35t-128 35q-29 0 -45.5 -16.5t-15.5 -43.5h-23q-1 37 21.5 60t60.5 23t129.5 -35t127.5 -35q29 0 45.5 16t16.5 43h23z" />
    <glyph glyph-name="exclamdown" unicode="&#xa1;" horiz-adv-x="180" 
d="M103 -216h-25l1 532h22zM112 468q0 -22 -22 -22q-9 0 -15.5 6t-6.5 16t6.5 16t15.5 6q22 0 22 -22z" />
    <glyph glyph-name="cent" unicode="&#xa2;" horiz-adv-x="511" 
d="M314 12q81 3 142 39v-24q-60 -34 -142 -37v-110h-22v110q-99 2 -169 65t-70 181q0 119 70 183t169 70v111h22v-110q79 0 137 -39v-23q-58 40 -137 40v-456zM292 467q-90 -7 -152.5 -65.5t-62.5 -165.5q0 -105 62.5 -163t152.5 -61v455z" />
    <glyph glyph-name="sterling" unicode="&#xa3;" horiz-adv-x="609" 
d="M559 0h-521v24h31q38 0 60 25t22 72v206h-81v24h81v114q0 113 63 169t154 56q82 0 140 -39v-24q-61 39 -138 39q-83 0 -138.5 -50t-55.5 -152v-113h256v-24h-256v-206q0 -74 -47 -97h430v-24z" />
    <glyph glyph-name="currency" unicode="&#xa4;" horiz-adv-x="573" 
d="M163 206l-65 -65l-17 17l64 64q-51 51 -51 128t51 128l-64 64l17 17l65 -65q53 42 123 42q71 0 124 -42l65 65l17 -17l-64 -64q51 -53 51 -128t-51 -128l64 -64l-17 -17l-65 65q-53 -42 -124 -42q-70 0 -123 42zM118 350q0 -72 49.5 -117.5t119.5 -45.5q69 0 119 45.5
t50 117.5t-49.5 117.5t-119.5 45.5q-71 0 -120 -45t-49 -118z" />
    <glyph glyph-name="yen" unicode="&#xa5;" horiz-adv-x="622" 
d="M558 680h28l-250 -376h177v-22h-189v-98h189v-22h-189v-162h-25v162h-190v22h190v98h-190v22h177l-250 376h28l247 -372z" />
    <glyph glyph-name="brokenbar" unicode="&#xa6;" horiz-adv-x="199" 
d="M112 467h-25v343h25v-343zM112 -100h-25v343h25v-343z" />
    <glyph glyph-name="section" unicode="&#xa7;" horiz-adv-x="483" 
d="M418 84q0 -55 -50 -86.5t-123 -31.5q-105 0 -169 45v22q68 -45 168 -45q65 0 107.5 26t42.5 70q0 23 -9.5 41t-21.5 29t-36.5 21.5t-41 15.5t-48.5 14q-37 10 -52.5 15t-45 17.5t-42.5 25t-24.5 33.5t-11.5 48q0 47 30.5 80.5t73.5 52.5q-94 37 -94 113q0 56 47.5 88
t115.5 32q94 0 155 -39v-23q-63 40 -154 40q-60 0 -100 -26t-40 -72q0 -35 26 -59.5t50.5 -33t80.5 -23.5q9 -3 14 -4q39 -10 61 -18.5t49.5 -24t40 -38.5t12.5 -55q0 -84 -112 -130q101 -38 101 -120zM243 227q35 -9 46 -13q116 37 116 117q0 27 -11 46.5t-34.5 33
t-44.5 21t-56 16.5q-51 14 -67 19q-40 -12 -74 -43.5t-34 -76.5q0 -23 10 -41t21.5 -28.5t37.5 -21.5t41 -15.5t49 -13.5z" />
    <glyph glyph-name="dieresis" unicode="&#xa8;" horiz-adv-x="276" 
d="M262 835q0 -9 -6.5 -16t-16.5 -7q-9 0 -16 7t-7 16q0 10 7 16.5t16 6.5q10 0 16.5 -6.5t6.5 -16.5zM61 835q0 -9 -6.5 -16t-16.5 -7q-9 0 -16 7t-7 16q0 10 7 16.5t16 6.5q10 0 16.5 -6.5t6.5 -16.5z" />
    <glyph glyph-name="copyright" unicode="&#xa9;" horiz-adv-x="855" 
d="M799 350q0 -86 -33.5 -156.5t-87.5 -114t-119 -66.5t-132 -23t-131.5 23t-119 66.5t-87.5 114t-33 156.5t33 156.5t87.5 114t119 66.5t131.5 23t132 -23t119 -66.5t87.5 -114t33.5 -156.5zM572 184q-60 -34 -132 -34q-79 0 -137 49.5t-58 142.5q0 102 61.5 155t145.5 53
q69 0 120 -34v-21q-52 35 -118 35q-76 0 -131.5 -47t-55.5 -140q0 -85 51.5 -129t125.5 -44q68 0 128 34v-20zM70 350q0 -83 32 -150.5t84 -109t114 -64t127 -22.5t127.5 22.5t114 64t83.5 109t32 150.5t-32 150.5t-83.5 109t-114 64t-127.5 22.5t-127 -22.5t-114 -64
t-84 -109t-32 -150.5z" />
    <glyph glyph-name="guillemotleft" unicode="&#xab;" horiz-adv-x="414" 
d="M346 69h-27l-118 167v8l118 167h27l-121 -171zM197 69h-27l-118 167v8l118 167h27l-121 -171z" />
    <glyph glyph-name="logicalnot" unicode="&#xac;" horiz-adv-x="576" 
d="M500 302h-24v155h-401v23h425v-178z" />
    <glyph glyph-name="registered" unicode="&#xae;" horiz-adv-x="855" 
d="M799 350q0 -86 -33.5 -156.5t-87.5 -114t-119 -66.5t-132 -23t-131.5 23t-119 66.5t-87.5 114t-33 156.5t33 156.5t87.5 114t119 66.5t131.5 23t132 -23t119 -66.5t87.5 -114t33.5 -156.5zM70 350q0 -83 32 -150.5t84 -109t114 -64t127 -22.5t127.5 22.5t114 64t83.5 109
t32 150.5t-32 150.5t-83.5 109t-114 64t-127.5 22.5t-127 -22.5t-114 -64t-84 -109t-32 -150.5zM318 149h-20v395h151q23 0 45 -5t46 -17.5t38.5 -38t14.5 -61.5q0 -90 -93 -108l116 -165h-22l-114 162q-12 -2 -33 -2h-129v-160zM318 524v-195h129q126 0 126 93
q0 31 -12.5 53t-33.5 31.5t-40 13.5t-40 4h-129z" />
    <glyph glyph-name="macron" unicode="&#xaf;" horiz-adv-x="296" 
d="M22 834h252v-23h-252v23z" />
    <glyph glyph-name="degree" unicode="&#xb0;" horiz-adv-x="388" 
d="M338 577q0 -64 -42.5 -102.5t-101.5 -38.5t-101.5 38.5t-42.5 102.5t42.5 102.5t101.5 38.5t101.5 -38.5t42.5 -102.5zM70 577q0 -55 36.5 -88.5t87.5 -33.5t87.5 33.5t36.5 88.5t-36.5 88.5t-87.5 33.5t-87.5 -33.5t-36.5 -88.5z" />
    <glyph glyph-name="plusminus" unicode="&#xb1;" horiz-adv-x="584" 
d="M303 569v-201h201v-23h-201v-201h-23v201h-201v23h201v201h23zM504 0h-425v23h425v-23z" />
    <glyph glyph-name="acute" unicode="&#xb4;" horiz-adv-x="165" 
d="M57 778h-28l88 133h30z" />
    <glyph glyph-name="paragraph" unicode="&#xb6;" horiz-adv-x="590" 
d="M275 -220h-25v516q-100 0 -157 53.5t-57 148.5t57 148.5t157 53.5h253v-920h-25v896h-203v-896z" />
    <glyph glyph-name="periodcentered" unicode="&#xb7;" horiz-adv-x="187" 
d="M116 239q0 -10 -6.5 -16t-15.5 -6q-10 0 -16.5 6t-6.5 16t6.5 16t16.5 6q9 0 15.5 -6t6.5 -16z" />
    <glyph glyph-name="cedilla" unicode="&#xb8;" horiz-adv-x="210" 
d="M90 0h22l-24 -96q47 11 84.5 -5t38.5 -53q1 -35 -28.5 -55.5t-84.5 -20.5q-56 0 -98 22v21q41 -22 96 -22q47 0 70.5 15.5t22.5 40.5q-1 32 -41 42t-86 -4z" />
    <glyph glyph-name="guillemotright" unicode="&#xbb;" horiz-adv-x="414" 
d="M244 69h-27l121 171l-121 171h27l118 -167v-8zM95 69h-27l121 171l-121 171h27l118 -167v-8z" />
    <glyph glyph-name="onequarter" unicode="&#xbc;" horiz-adv-x="916" 
d="M769 408h24v-288h87v-20h-87v-100h-22v100h-239v19zM771 120v257l-211 -257h211zM203 -11h-17l456 721h17zM165 680h16v-387h78v-21h-203v21h103v363l-93 -35v21z" />
    <glyph glyph-name="onehalf" unicode="&#xbd;" horiz-adv-x="869" 
d="M199 -11h-17l456 721h17zM563 377q55 37 124 37q59 0 95 -27t36 -74q0 -33 -19 -61t-40 -43t-59 -37q-70 -41 -91 -62q-36 -37 -37 -89h251v-21h-275v13q0 29 9.5 53.5t18.5 39t34 34t35 25t41 24.5q68 41 87 63q23 27 23 61q0 37 -30 58.5t-80 21.5q-67 0 -123 -38v22z
M161 680h16v-387h78v-21h-203v21h103v363l-93 -35v21z" />
    <glyph glyph-name="threequarters" unicode="&#xbe;" horiz-adv-x="965" 
d="M277 -11h-17l456 721h17zM817 408h24v-288h87v-20h-87v-100h-22v100h-239v19zM819 120v257l-211 -257h211zM325 582q0 -34 -19.5 -59.5t-57.5 -33.5q94 -19 94 -105q0 -54 -38.5 -84t-100.5 -30q-87 0 -142 26v22q57 -27 141 -27q54 0 86.5 24.5t32.5 69.5q0 47 -33.5 69
t-86.5 22h-60v21h58q52 0 78.5 24.5t26.5 59.5q0 38 -30 63t-82 25q-66 0 -124 -27v22q55 26 126 26q60 0 95.5 -31t35.5 -77z" />
    <glyph glyph-name="questiondown" unicode="&#xbf;" horiz-adv-x="477" 
d="M442 -170q-89 -56 -192 -56q-97 0 -155.5 43t-58.5 117q0 40 20.5 81t50 74.5t59 66.5t50 69.5t20.5 71.5h24q0 -37 -20.5 -75.5t-50 -71t-58.5 -65.5t-49.5 -72t-20.5 -77q0 -64 51.5 -101t140.5 -37q95 0 189 56v-24zM271 468q0 -9 -7 -15.5t-16 -6.5t-15.5 6t-6.5 16
t6.5 16t15.5 6t16 -6.5t7 -15.5z" />
    <glyph glyph-name="Agrave" unicode="&#xc0;" horiz-adv-x="704" 
d="M43 0h-27l322 700h29l321 -700h-27l-99 215h-420zM346 660l-193 -421h400l-193 421q-3 6 -7 16q-4 -10 -7 -16zM385 778h-28l-90 133h30z" />
    <glyph glyph-name="Aacute" unicode="&#xc1;" horiz-adv-x="704" 
d="M43 0h-27l322 700h29l321 -700h-27l-99 215h-420zM346 660l-193 -421h400l-193 421q-3 6 -7 16q-4 -10 -7 -16zM343 778h-28l88 133h30z" />
    <glyph glyph-name="Acircumflex" unicode="&#xc2;" horiz-adv-x="704" 
d="M43 0h-27l322 700h29l321 -700h-27l-99 215h-420zM346 660l-193 -421h400l-193 421q-3 6 -7 16q-4 -10 -7 -16zM342 903h21l127 -125h-29l-108 106l-108 -106h-29z" />
    <glyph glyph-name="Atilde" unicode="&#xc3;" horiz-adv-x="704" 
d="M43 0h-27l322 700h29l321 -700h-27l-99 215h-420zM346 660l-193 -421h400l-193 421q-3 6 -7 16q-4 -10 -7 -16zM496 861q4 -32 -11.5 -52t-45.5 -20q-28 0 -87 28t-81 28q-21 0 -31.5 -14t-7.5 -37h-22q-4 31 12 52t45 21q27 0 86.5 -28t81.5 -28q44 0 39 50h22z" />
    <glyph glyph-name="Adieresis" unicode="&#xc4;" horiz-adv-x="704" 
d="M43 0h-27l322 700h29l321 -700h-27l-99 215h-420zM346 660l-193 -421h400l-193 421q-3 6 -7 16q-4 -10 -7 -16zM475 835q0 -9 -6.5 -16t-16.5 -7q-9 0 -16 7t-7 16q0 10 7 16.5t16 6.5q10 0 16.5 -6.5t6.5 -16.5zM274 835q0 -9 -6.5 -16t-16.5 -7q-9 0 -16 7t-7 16
q0 10 7 16.5t16 6.5q10 0 16.5 -6.5t6.5 -16.5z" />
    <glyph glyph-name="Aring" unicode="&#xc5;" horiz-adv-x="704" 
d="M43 0h-27l322 700h29l321 -700h-27l-99 215h-420zM346 660l-193 -421h400l-193 421q-3 6 -7 16q-4 -10 -7 -16zM436 840q0 -36 -25 -59t-59 -23t-59.5 23t-25.5 59t25.5 59t59.5 23t59 -23t25 -59zM287 840q0 -28 19.5 -45.5t45.5 -17.5t45 17.5t19 45.5t-19 45.5
t-45 17.5t-45.5 -18t-19.5 -45z" />
    <glyph glyph-name="AE" unicode="&#xc6;" horiz-adv-x="991" 
d="M525 340v-316h407v-24h-431v216h-328l-155 -216h-29l501 700h436v-24h-401v-312h371v-24h-371zM188 239h312v435z" />
    <glyph glyph-name="Ccedilla" unicode="&#xc7;" horiz-adv-x="658" 
d="M617 64v-25q-80 -46 -193 -49l-22 -86q47 11 84.5 -5t38.5 -53q1 -35 -28.5 -55.5t-84.5 -20.5q-56 0 -98 22v21q41 -22 96 -22q47 0 70.5 15.5t22.5 40.5q-1 32 -41 42t-86 -4l26 105q-66 2 -127 24.5t-111.5 64.5t-80.5 110t-30 152q0 88 31.5 160t83 116.5t114.5 68.5
t130 24q112 0 196 -48v-25q-84 49 -193 49q-63 0 -122 -22t-107.5 -63.5t-78 -109t-29.5 -150.5q0 -81 29.5 -145t78.5 -103t108 -59t123 -20q115 0 200 50z" />
    <glyph glyph-name="Egrave" unicode="&#xc8;" horiz-adv-x="628" 
d="M105 700h455v-24h-430v-312h400v-24h-400v-316h439v-24h-464v700zM366 778h-28l-90 133h30z" />
    <glyph glyph-name="Eacute" unicode="&#xc9;" horiz-adv-x="628" 
d="M105 700h455v-24h-430v-312h400v-24h-400v-316h439v-24h-464v700zM324 778h-28l88 133h30z" />
    <glyph glyph-name="Ecircumflex" unicode="&#xca;" horiz-adv-x="628" 
d="M105 700h455v-24h-430v-312h400v-24h-400v-316h439v-24h-464v700zM323 903h21l127 -125h-29l-108 106l-108 -106h-29z" />
    <glyph glyph-name="Edieresis" unicode="&#xcb;" horiz-adv-x="628" 
d="M105 700h455v-24h-430v-312h400v-24h-400v-316h439v-24h-464v700zM456 835q0 -9 -6.5 -16t-16.5 -7q-9 0 -16 7t-7 16q0 10 7 16.5t16 6.5q10 0 16.5 -6.5t6.5 -16.5zM255 835q0 -9 -6.5 -16t-16.5 -7q-9 0 -16 7t-7 16q0 10 7 16.5t16 6.5q10 0 16.5 -6.5t6.5 -16.5z
" />
    <glyph glyph-name="Igrave" unicode="&#xcc;" horiz-adv-x="235" 
d="M105 700h25v-700h-25v700zM151 778h-28l-90 133h30z" />
    <glyph glyph-name="Iacute" unicode="&#xcd;" horiz-adv-x="235" 
d="M105 700h25v-700h-25v700zM109 778h-28l88 133h30z" />
    <glyph glyph-name="Icircumflex" unicode="&#xce;" horiz-adv-x="235" 
d="M105 700h25v-700h-25v700zM108 903h21l127 -125h-29l-108 106l-108 -106h-29z" />
    <glyph glyph-name="Idieresis" unicode="&#xcf;" horiz-adv-x="235" 
d="M105 700h25v-700h-25v700zM241 835q0 -9 -6.5 -16t-16.5 -7q-9 0 -16 7t-7 16q0 10 7 16.5t16 6.5q10 0 16.5 -6.5t6.5 -16.5zM40 835q0 -9 -6.5 -16t-16.5 -7q-9 0 -16 7t-7 16q0 10 7 16.5t16 6.5q10 0 16.5 -6.5t6.5 -16.5z" />
    <glyph glyph-name="Eth" unicode="&#xd0;" horiz-adv-x="730" 
d="M105 700h199q182 0 277 -96t95 -254t-95 -254t-277 -96h-199v338h-80v23h80v339zM130 24h174q170 0 258.5 89t88.5 237t-88.5 237t-258.5 89h-174v-315h242v-23h-242v-314z" />
    <glyph glyph-name="Ntilde" unicode="&#xd1;" horiz-adv-x="767" 
d="M130 0h-25v700h21l511 -656v60v596h25v-700h-22l-510 657v-60v-597zM527 861q4 -32 -11.5 -52t-45.5 -20q-28 0 -87 28t-81 28q-21 0 -31.5 -14t-7.5 -37h-22q-4 31 12 52t45 21q27 0 86.5 -28t81.5 -28q44 0 39 50h22z" />
    <glyph glyph-name="Ograve" unicode="&#xd2;" horiz-adv-x="826" 
d="M52 350q0 67 23 129.5t66 115t114 84t158 31.5t158 -31.5t114 -84t66 -115t23 -129.5t-23 -129.5t-66 -115t-114 -84t-158 -31.5t-158 31.5t-114 84t-66 115t-23 129.5zM749 350q0 63 -21.5 121.5t-61.5 107t-106 78t-147 29.5t-147 -29.5t-106 -78t-61.5 -107
t-21.5 -121.5t21.5 -121.5t61.5 -107t106 -78t147 -29.5t147 29.5t106 78t61.5 107t21.5 121.5zM446 778h-28l-90 133h30z" />
    <glyph glyph-name="Oacute" unicode="&#xd3;" horiz-adv-x="826" 
d="M52 350q0 67 23 129.5t66 115t114 84t158 31.5t158 -31.5t114 -84t66 -115t23 -129.5t-23 -129.5t-66 -115t-114 -84t-158 -31.5t-158 31.5t-114 84t-66 115t-23 129.5zM749 350q0 63 -21.5 121.5t-61.5 107t-106 78t-147 29.5t-147 -29.5t-106 -78t-61.5 -107
t-21.5 -121.5t21.5 -121.5t61.5 -107t106 -78t147 -29.5t147 29.5t106 78t61.5 107t21.5 121.5zM404 778h-28l88 133h30z" />
    <glyph glyph-name="Ocircumflex" unicode="&#xd4;" horiz-adv-x="826" 
d="M52 350q0 67 23 129.5t66 115t114 84t158 31.5t158 -31.5t114 -84t66 -115t23 -129.5t-23 -129.5t-66 -115t-114 -84t-158 -31.5t-158 31.5t-114 84t-66 115t-23 129.5zM749 350q0 63 -21.5 121.5t-61.5 107t-106 78t-147 29.5t-147 -29.5t-106 -78t-61.5 -107
t-21.5 -121.5t21.5 -121.5t61.5 -107t106 -78t147 -29.5t147 29.5t106 78t61.5 107t21.5 121.5zM403 903h21l127 -125h-29l-108 106l-108 -106h-29z" />
    <glyph glyph-name="Otilde" unicode="&#xd5;" horiz-adv-x="826" 
d="M52 350q0 67 23 129.5t66 115t114 84t158 31.5t158 -31.5t114 -84t66 -115t23 -129.5t-23 -129.5t-66 -115t-114 -84t-158 -31.5t-158 31.5t-114 84t-66 115t-23 129.5zM749 350q0 63 -21.5 121.5t-61.5 107t-106 78t-147 29.5t-147 -29.5t-106 -78t-61.5 -107
t-21.5 -121.5t21.5 -121.5t61.5 -107t106 -78t147 -29.5t147 29.5t106 78t61.5 107t21.5 121.5zM557 861q4 -32 -11.5 -52t-45.5 -20q-28 0 -87 28t-81 28q-21 0 -31.5 -14t-7.5 -37h-22q-4 31 12 52t45 21q27 0 86.5 -28t81.5 -28q44 0 39 50h22z" />
    <glyph glyph-name="Odieresis" unicode="&#xd6;" horiz-adv-x="826" 
d="M52 350q0 67 23 129.5t66 115t114 84t158 31.5t158 -31.5t114 -84t66 -115t23 -129.5t-23 -129.5t-66 -115t-114 -84t-158 -31.5t-158 31.5t-114 84t-66 115t-23 129.5zM749 350q0 63 -21.5 121.5t-61.5 107t-106 78t-147 29.5t-147 -29.5t-106 -78t-61.5 -107
t-21.5 -121.5t21.5 -121.5t61.5 -107t106 -78t147 -29.5t147 29.5t106 78t61.5 107t21.5 121.5zM536 835q0 -9 -6.5 -16t-16.5 -7q-9 0 -16 7t-7 16q0 10 7 16.5t16 6.5q10 0 16.5 -6.5t6.5 -16.5zM335 835q0 -9 -6.5 -16t-16.5 -7q-9 0 -16 7t-7 16q0 10 7 16.5t16 6.5
q10 0 16.5 -6.5t6.5 -16.5z" />
    <glyph glyph-name="multiply" unicode="&#xd7;" horiz-adv-x="445" 
d="M223 334l-135 -135l-16 17l134 134l-134 135l16 16l135 -134l134 134l16 -16l-134 -135l134 -134l-16 -17z" />
    <glyph glyph-name="Oslash" unicode="&#xd8;" horiz-adv-x="826" 
d="M721 748l-81 -111q65 -52 99.5 -128.5t34.5 -158.5q0 -67 -23 -129.5t-66 -115t-114 -84t-158 -31.5q-117 0 -203 56l-68 -94h-26l77 106q-68 51 -104.5 129.5t-36.5 162.5q0 67 23 129.5t66 115t114 84t158 31.5q122 0 210 -61l72 99h26zM413 686q-81 0 -147 -29.5
t-106 -78t-61.5 -107t-21.5 -121.5q0 -80 33.5 -153t97.5 -119l401 552q-82 56 -196 56zM225 66q80 -52 188 -52q82 0 147.5 29.5t106 78t62 107t21.5 121.5q0 77 -32 148.5t-92 118.5z" />
    <glyph glyph-name="Ugrave" unicode="&#xd9;" horiz-adv-x="749" 
d="M628 700h25v-459q0 -132 -75.5 -191.5t-202.5 -59.5t-203 59.5t-76 191.5v459h25v-458q0 -228 254 -228q253 0 253 228v458zM411 778h-28l-90 133h30z" />
    <glyph glyph-name="Uacute" unicode="&#xda;" horiz-adv-x="749" 
d="M628 700h25v-459q0 -132 -75.5 -191.5t-202.5 -59.5t-203 59.5t-76 191.5v459h25v-458q0 -228 254 -228q253 0 253 228v458zM369 778h-28l88 133h30z" />
    <glyph glyph-name="Ucircumflex" unicode="&#xdb;" horiz-adv-x="749" 
d="M628 700h25v-459q0 -132 -75.5 -191.5t-202.5 -59.5t-203 59.5t-76 191.5v459h25v-458q0 -228 254 -228q253 0 253 228v458zM368 903h21l127 -125h-29l-108 106l-108 -106h-29z" />
    <glyph glyph-name="Udieresis" unicode="&#xdc;" horiz-adv-x="749" 
d="M628 700h25v-459q0 -132 -75.5 -191.5t-202.5 -59.5t-203 59.5t-76 191.5v459h25v-458q0 -228 254 -228q253 0 253 228v458zM501 835q0 -9 -6.5 -16t-16.5 -7q-9 0 -16 7t-7 16q0 10 7 16.5t16 6.5q10 0 16.5 -6.5t6.5 -16.5zM300 835q0 -9 -6.5 -16t-16.5 -7q-9 0 -16 7
t-7 16q0 10 7 16.5t16 6.5q10 0 16.5 -6.5t6.5 -16.5z" />
    <glyph glyph-name="Yacute" unicode="&#xdd;" horiz-adv-x="625" 
d="M325 0h-25v284l-276 416h28l260 -392l260 392h28l-275 -416v-284zM304 778h-28l88 133h30z" />
    <glyph glyph-name="Thorn" unicode="&#xde;" horiz-adv-x="650" 
d="M130 567h192q292 0 292 -217t-292 -217h-192v-133h-25v700h25v-133zM130 157h193q266 0 266 193t-266 193h-193v-386z" />
    <glyph glyph-name="germandbls" unicode="&#xdf;" horiz-adv-x="588" 
d="M549 150q0 -79 -57.5 -119.5t-144.5 -40.5q-80 0 -131 32v22q54 -32 128 -32q79 0 130 34.5t51 104.5q0 39 -25 76t-54.5 61t-54.5 53t-25 54q0 22 12.5 43t27.5 36t27.5 39.5t12.5 52.5q0 48 -41.5 85t-111.5 37q-82 0 -133.5 -48t-51.5 -133v-507h-24v504q0 96 58 151
t151 55q81 1 129 -42.5t48 -99.5q0 -38 -20 -67.5t-40 -54t-20 -48.5q0 -22 25 -50t54.5 -52t54.5 -63.5t25 -82.5z" />
    <glyph glyph-name="agrave" unicode="&#xe0;" horiz-adv-x="539" 
d="M444 70q0 -49 52 -49q20 0 37 7v-21q-21 -8 -42 -8q-30 0 -50.5 17t-20.5 53v36q-34 -55 -92 -85t-125 -30t-115 35.5t-48 101.5q0 77 60 114t146 37t174 -30v52q0 78 -44.5 123t-128.5 45q-89 0 -170 -30v24q80 28 171 28q94 0 145 -51t51 -141v-228zM64 128
q0 -56 42 -86.5t101 -30.5q66 0 124 33t89 93v89q-85 30 -172 30q-78 0 -131 -31t-53 -97zM284 558h-28l-90 133h30z" />
    <glyph glyph-name="aacute" unicode="&#xe1;" horiz-adv-x="539" 
d="M444 70q0 -49 52 -49q20 0 37 7v-21q-21 -8 -42 -8q-30 0 -50.5 17t-20.5 53v36q-34 -55 -92 -85t-125 -30t-115 35.5t-48 101.5q0 77 60 114t146 37t174 -30v52q0 78 -44.5 123t-128.5 45q-89 0 -170 -30v24q80 28 171 28q94 0 145 -51t51 -141v-228zM64 128
q0 -56 42 -86.5t101 -30.5q66 0 124 33t89 93v89q-85 30 -172 30q-78 0 -131 -31t-53 -97zM242 558h-28l88 133h30z" />
    <glyph glyph-name="acircumflex" unicode="&#xe2;" horiz-adv-x="539" 
d="M444 70q0 -49 52 -49q20 0 37 7v-21q-21 -8 -42 -8q-30 0 -50.5 17t-20.5 53v36q-34 -55 -92 -85t-125 -30t-115 35.5t-48 101.5q0 77 60 114t146 37t174 -30v52q0 78 -44.5 123t-128.5 45q-89 0 -170 -30v24q80 28 171 28q94 0 145 -51t51 -141v-228zM64 128
q0 -56 42 -86.5t101 -30.5q66 0 124 33t89 93v89q-85 30 -172 30q-78 0 -131 -31t-53 -97zM241 683h21l127 -125h-29l-108 106l-108 -106h-29z" />
    <glyph glyph-name="atilde" unicode="&#xe3;" horiz-adv-x="539" 
d="M444 70q0 -49 52 -49q20 0 37 7v-21q-21 -8 -42 -8q-30 0 -50.5 17t-20.5 53v36q-34 -55 -92 -85t-125 -30t-115 35.5t-48 101.5q0 77 60 114t146 37t174 -30v52q0 78 -44.5 123t-128.5 45q-89 0 -170 -30v24q80 28 171 28q94 0 145 -51t51 -141v-228zM64 128
q0 -56 42 -86.5t101 -30.5q66 0 124 33t89 93v89q-85 30 -172 30q-78 0 -131 -31t-53 -97zM395 641q4 -32 -11.5 -52t-45.5 -20q-28 0 -87 28t-81 28q-21 0 -31.5 -14t-7.5 -37h-22q-4 31 12 52t45 21q27 0 86.5 -28t81.5 -28q44 0 39 50h22z" />
    <glyph glyph-name="adieresis" unicode="&#xe4;" horiz-adv-x="539" 
d="M444 70q0 -49 52 -49q20 0 37 7v-21q-21 -8 -42 -8q-30 0 -50.5 17t-20.5 53v36q-34 -55 -92 -85t-125 -30t-115 35.5t-48 101.5q0 77 60 114t146 37t174 -30v52q0 78 -44.5 123t-128.5 45q-89 0 -170 -30v24q80 28 171 28q94 0 145 -51t51 -141v-228zM64 128
q0 -56 42 -86.5t101 -30.5q66 0 124 33t89 93v89q-85 30 -172 30q-78 0 -131 -31t-53 -97zM374 615q0 -9 -6.5 -16t-16.5 -7q-9 0 -16 7t-7 16q0 10 7 16.5t16 6.5q10 0 16.5 -6.5t6.5 -16.5zM173 615q0 -9 -6.5 -16t-16.5 -7q-9 0 -16 7t-7 16q0 10 7 16.5t16 6.5
q10 0 16.5 -6.5t6.5 -16.5z" />
    <glyph glyph-name="aring" unicode="&#xe5;" horiz-adv-x="539" 
d="M444 70q0 -49 52 -49q20 0 37 7v-21q-21 -8 -42 -8q-30 0 -50.5 17t-20.5 53v36q-34 -55 -92 -85t-125 -30t-115 35.5t-48 101.5q0 77 60 114t146 37t174 -30v52q0 78 -44.5 123t-128.5 45q-89 0 -170 -30v24q80 28 171 28q94 0 145 -51t51 -141v-228zM64 128
q0 -56 42 -86.5t101 -30.5q66 0 124 33t89 93v89q-85 30 -172 30q-78 0 -131 -31t-53 -97zM335 620q0 -36 -25 -59t-59 -23t-59.5 23t-25.5 59t25.5 59t59.5 23t59 -23t25 -59zM186 620q0 -28 19.5 -45.5t45.5 -17.5t45 17.5t19 45.5t-19 45.5t-45 17.5t-45.5 -18t-19.5 -45
z" />
    <glyph glyph-name="ae" unicode="&#xe6;" horiz-adv-x="906" 
d="M453 115q-43 -61 -109 -93t-139 -32q-68 0 -116.5 35.5t-48.5 101.5q0 77 60 114t148 37q91 0 177 -31v53q0 77 -45 122.5t-133 45.5q-89 0 -170 -30v24q80 28 171 28q89 0 138.5 -43t57.5 -118q21 75 81 118t131 43q78 0 128.5 -42.5t66.5 -102t5 -124.5h-407
q4 -103 71 -156t160 -53q82 0 147 38v-23q-65 -37 -150 -37q-71 0 -132 31.5t-92 93.5zM64 128q0 -57 42 -87t102 -30q68 0 130.5 31t104.5 91q-17 42 -18 93q-87 30 -175 30q-79 0 -132.5 -31t-53.5 -97zM655 468q-84 0 -144 -59.5t-62 -165.5h386q4 40 -4 78.5t-27.5 72
t-58 54t-90.5 20.5z" />
    <glyph glyph-name="ccedilla" unicode="&#xe7;" horiz-adv-x="494" 
d="M452 51v-24q-64 -35 -148 -37l-21 -86q47 11 84 -5t38 -53q1 -35 -28.5 -55.5t-84.5 -20.5q-56 0 -98 22v21q41 -22 97 -22q46 0 69.5 15.5t23.5 40.5q-1 32 -41 42t-86 -4l26 105q-98 4 -166 67t-68 179q0 64 22.5 114.5t60 80t82 44.5t93.5 15q83 0 140 -39v-23
q-58 40 -138 40q-97 0 -166.5 -59t-69.5 -173q0 -108 65.5 -166t158.5 -58q87 0 155 39z" />
    <glyph glyph-name="egrave" unicode="&#xe8;" horiz-adv-x="545" 
d="M49 240q0 115 69.5 182.5t164.5 67.5q63 0 110 -25t70.5 -65t32 -85t1.5 -89h-424q3 -107 71.5 -160.5t168.5 -53.5q90 0 155 38v-24q-62 -36 -158 -36q-111 0 -186 63t-75 187zM476 248q5 51 -10.5 99t-62.5 84.5t-119 36.5q-86 0 -147.5 -58.5t-63.5 -161.5h403z
M315 558h-28l-90 133h30z" />
    <glyph glyph-name="eacute" unicode="&#xe9;" horiz-adv-x="545" 
d="M49 240q0 115 69.5 182.5t164.5 67.5q63 0 110 -25t70.5 -65t32 -85t1.5 -89h-424q3 -107 71.5 -160.5t168.5 -53.5q90 0 155 38v-24q-62 -36 -158 -36q-111 0 -186 63t-75 187zM476 248q5 51 -10.5 99t-62.5 84.5t-119 36.5q-86 0 -147.5 -58.5t-63.5 -161.5h403z
M273 558h-28l88 133h30z" />
    <glyph glyph-name="ecircumflex" unicode="&#xea;" horiz-adv-x="545" 
d="M49 240q0 115 69.5 182.5t164.5 67.5q63 0 110 -25t70.5 -65t32 -85t1.5 -89h-424q3 -107 71.5 -160.5t168.5 -53.5q90 0 155 38v-24q-62 -36 -158 -36q-111 0 -186 63t-75 187zM476 248q5 51 -10.5 99t-62.5 84.5t-119 36.5q-86 0 -147.5 -58.5t-63.5 -161.5h403z
M272 683h21l127 -125h-29l-108 106l-108 -106h-29z" />
    <glyph glyph-name="edieresis" unicode="&#xeb;" horiz-adv-x="545" 
d="M49 240q0 115 69.5 182.5t164.5 67.5q63 0 110 -25t70.5 -65t32 -85t1.5 -89h-424q3 -107 71.5 -160.5t168.5 -53.5q90 0 155 38v-24q-62 -36 -158 -36q-111 0 -186 63t-75 187zM476 248q5 51 -10.5 99t-62.5 84.5t-119 36.5q-86 0 -147.5 -58.5t-63.5 -161.5h403z
M405 615q0 -9 -6.5 -16t-16.5 -7q-9 0 -16 7t-7 16q0 10 7 16.5t16 6.5q10 0 16.5 -6.5t6.5 -16.5zM204 615q0 -9 -6.5 -16t-16.5 -7q-9 0 -16 7t-7 16q0 10 7 16.5t16 6.5q10 0 16.5 -6.5t6.5 -16.5z" />
    <glyph glyph-name="igrave" unicode="&#xec;" horiz-adv-x="199" 
d="M112 0h-24v480h24v-480zM144 558h-25l-86 133h27z" />
    <glyph glyph-name="iacute" unicode="&#xed;" horiz-adv-x="199" 
d="M87 480h24v-480h-24v480zM90 558h-28l88 133h30z" />
    <glyph glyph-name="icircumflex" unicode="&#xee;" horiz-adv-x="200" 
d="M90 673h21l98 -115h-27l-81 96l-81 -96h-27zM88 480h24v-480h-24v480z" />
    <glyph glyph-name="idieresis" unicode="&#xef;" horiz-adv-x="200" 
d="M195 615q0 -9 -6.5 -15.5t-15.5 -6.5t-15.5 7t-6.5 15q0 9 6.5 15.5t15.5 6.5q10 0 16 -6.5t6 -15.5zM50 615q0 -9 -6.5 -15.5t-15.5 -6.5t-15.5 7t-6.5 15q0 9 6.5 15.5t15.5 6.5q10 0 16 -6.5t6 -15.5zM88 480h24v-480h-24v480z" />
    <glyph glyph-name="eth" unicode="&#xf0;" horiz-adv-x="596" 
d="M537 266q0 -126 -67.5 -201t-178.5 -75q-106 0 -174 64t-68 170q0 98 68 161.5t165 63.5q83 0 150 -49t82 -140v24q-3 150 -70.5 237.5t-169.5 124.5l-119 -119l-15 15l112 111q-73 24 -151 24v23q89 0 169 -29l84 85l15 -15l-78 -79q107 -42 176.5 -138t69.5 -258z
M73 224q0 -96 60.5 -153.5t157.5 -57.5q87 0 143.5 50t72.5 136q-2 109 -68 168t-155 59q-88 0 -149.5 -56.5t-61.5 -145.5z" />
    <glyph glyph-name="ntilde" unicode="&#xf1;" 
d="M106 372q30 47 82.5 82.5t122.5 35.5q80 0 133 -52.5t53 -142.5v-295h-24v293q0 82 -46 128.5t-118 46.5q-70 0 -121 -38t-80 -91v-339h-24v480h22v-108zM429 641q4 -32 -11.5 -52t-45.5 -20q-28 0 -87 28t-81 28q-21 0 -31.5 -14t-7.5 -37h-22q-4 31 12 52t45 21
q27 0 86.5 -28t81.5 -28q44 0 39 50h22z" />
    <glyph glyph-name="ograve" unicode="&#xf2;" horiz-adv-x="592" 
d="M49 240q0 115 72.5 182.5t174.5 67.5q103 0 175 -67.5t72 -182.5t-72 -182.5t-175 -67.5q-102 0 -174.5 67.5t-72.5 182.5zM519 240q0 105 -64.5 166t-158.5 61t-158.5 -61t-64.5 -166t64.5 -166t158.5 -61t158.5 61t64.5 166zM329 550h-28l-90 133h30z" />
    <glyph glyph-name="oacute" unicode="&#xf3;" horiz-adv-x="592" 
d="M49 240q0 115 72.5 182.5t174.5 67.5q103 0 175 -67.5t72 -182.5t-72 -182.5t-175 -67.5q-102 0 -174.5 67.5t-72.5 182.5zM519 240q0 105 -64.5 166t-158.5 61t-158.5 -61t-64.5 -166t64.5 -166t158.5 -61t158.5 61t64.5 166zM287 550h-28l88 133h30z" />
    <glyph glyph-name="ocircumflex" unicode="&#xf4;" horiz-adv-x="592" 
d="M49 240q0 115 72.5 182.5t174.5 67.5q103 0 175 -67.5t72 -182.5t-72 -182.5t-175 -67.5q-102 0 -174.5 67.5t-72.5 182.5zM519 240q0 105 -64.5 166t-158.5 61t-158.5 -61t-64.5 -166t64.5 -166t158.5 -61t158.5 61t64.5 166zM286 675h21l127 -125h-29l-108 106
l-108 -106h-29z" />
    <glyph glyph-name="otilde" unicode="&#xf5;" horiz-adv-x="592" 
d="M49 240q0 115 72.5 182.5t174.5 67.5q103 0 175 -67.5t72 -182.5t-72 -182.5t-175 -67.5q-102 0 -174.5 67.5t-72.5 182.5zM519 240q0 105 -64.5 166t-158.5 61t-158.5 -61t-64.5 -166t64.5 -166t158.5 -61t158.5 61t64.5 166zM440 633q4 -32 -11.5 -52t-45.5 -20
q-28 0 -87 28t-81 28q-21 0 -31.5 -14t-7.5 -37h-22q-4 31 12 52t45 21q27 0 86.5 -28t81.5 -28q44 0 39 50h22z" />
    <glyph glyph-name="odieresis" unicode="&#xf6;" horiz-adv-x="592" 
d="M49 240q0 115 72.5 182.5t174.5 67.5q103 0 175 -67.5t72 -182.5t-72 -182.5t-175 -67.5q-102 0 -174.5 67.5t-72.5 182.5zM519 240q0 105 -64.5 166t-158.5 61t-158.5 -61t-64.5 -166t64.5 -166t158.5 -61t158.5 61t64.5 166zM419 607q0 -9 -6.5 -16t-16.5 -7
q-9 0 -16 7t-7 16q0 10 7 16.5t16 6.5q10 0 16.5 -6.5t6.5 -16.5zM218 607q0 -9 -6.5 -16t-16.5 -7q-9 0 -16 7t-7 16q0 10 7 16.5t16 6.5q10 0 16.5 -6.5t6.5 -16.5z" />
    <glyph glyph-name="divide" unicode="&#xf7;" horiz-adv-x="642" 
d="M561 338h-480v24h480v-24zM343 125q0 -10 -6.5 -16t-16.5 -6q-9 0 -15.5 6t-6.5 16t6.5 16t15.5 6q10 0 16.5 -6t6.5 -16zM343 572q0 -10 -6.5 -16t-16.5 -6q-9 0 -15.5 6t-6.5 16t6.5 16t15.5 6q10 0 16.5 -6t6.5 -16z" />
    <glyph glyph-name="oslash" unicode="&#xf8;" horiz-adv-x="592" 
d="M499 543l-60 -95q104 -69 104 -208q0 -115 -72 -182.5t-175 -67.5q-70 0 -129 33l-51 -81h-23l58 92q-102 70 -102 206q0 115 72.5 182.5t174.5 67.5q69 0 127 -32l54 85h22zM296 467q-94 0 -158.5 -61t-64.5 -166q0 -123 91 -187l246 386q-53 28 -114 28zM181 43
q51 -30 116 -30q93 0 158 61t65 166q0 125 -93 189z" />
    <glyph glyph-name="ugrave" unicode="&#xf9;" 
d="M466 480h24v-480h-22v108q-30 -47 -82.5 -82.5t-122.5 -35.5q-82 0 -134 52.5t-52 142.5v295h24v-293q0 -83 45.5 -129t118.5 -46q70 0 121 38t80 91v339zM324 558h-28l-90 133h30z" />
    <glyph glyph-name="uacute" unicode="&#xfa;" 
d="M466 480h24v-480h-22v108q-30 -47 -82.5 -82.5t-122.5 -35.5q-82 0 -134 52.5t-52 142.5v295h24v-293q0 -83 45.5 -129t118.5 -46q70 0 121 38t80 91v339zM282 558h-28l88 133h30z" />
    <glyph glyph-name="ucircumflex" unicode="&#xfb;" 
d="M466 480h24v-480h-22v108q-30 -47 -82.5 -82.5t-122.5 -35.5q-82 0 -134 52.5t-52 142.5v295h24v-293q0 -83 45.5 -129t118.5 -46q70 0 121 38t80 91v339zM281 683h21l127 -125h-29l-108 106l-108 -106h-29z" />
    <glyph glyph-name="udieresis" unicode="&#xfc;" 
d="M466 480h24v-480h-22v108q-30 -47 -82.5 -82.5t-122.5 -35.5q-82 0 -134 52.5t-52 142.5v295h24v-293q0 -83 45.5 -129t118.5 -46q70 0 121 38t80 91v339zM414 615q0 -9 -6.5 -16t-16.5 -7q-9 0 -16 7t-7 16q0 10 7 16.5t16 6.5q10 0 16.5 -6.5t6.5 -16.5zM213 615
q0 -9 -6.5 -16t-16.5 -7q-9 0 -16 7t-7 16q0 10 7 16.5t16 6.5q10 0 16.5 -6.5t6.5 -16.5z" />
    <glyph glyph-name="yacute" unicode="&#xfd;" horiz-adv-x="530" 
d="M277 25l204 455h26l-255 -568q-34 -77 -72 -109.5t-87 -32.5q-23 0 -49 6v22q24 -6 47 -6q45 0 78.5 31t62.5 100l33 75l-248 482h26zM249 558h-28l88 133h30z" />
    <glyph glyph-name="thorn" unicode="&#xfe;" horiz-adv-x="613" 
d="M84 700h24v-343q29 58 87 95.5t131 37.5q104 0 171 -68t67 -182t-67 -182t-171 -68q-73 0 -131 37.5t-87 95.5v-343h-24v920zM540 240q0 105 -60.5 166.5t-155.5 61.5q-76 0 -134.5 -44t-81.5 -111v-146q23 -67 81.5 -111t134.5 -44q95 0 155.5 61.5t60.5 166.5z" />
    <glyph glyph-name="ydieresis" unicode="&#xff;" horiz-adv-x="530" 
d="M277 25l204 455h26l-255 -568q-34 -77 -72 -109.5t-87 -32.5q-23 0 -49 6v22q24 -6 47 -6q45 0 78.5 31t62.5 100l33 75l-248 482h26zM381 615q0 -9 -6.5 -16t-16.5 -7q-9 0 -16 7t-7 16q0 10 7 16.5t16 6.5q10 0 16.5 -6.5t6.5 -16.5zM180 615q0 -9 -6.5 -16t-16.5 -7
q-9 0 -16 7t-7 16q0 10 7 16.5t16 6.5q10 0 16.5 -6.5t6.5 -16.5z" />
    <glyph glyph-name="Amacron" unicode="&#x100;" horiz-adv-x="704" 
d="M43 0h-27l322 700h29l321 -700h-27l-99 215h-420zM346 660l-193 -421h400l-193 421q-3 6 -7 16q-4 -10 -7 -16zM226 834h252v-23h-252v23z" />
    <glyph glyph-name="amacron" unicode="&#x101;" horiz-adv-x="539" 
d="M444 70q0 -49 52 -49q20 0 37 7v-21q-21 -8 -42 -8q-30 0 -50.5 17t-20.5 53v36q-34 -55 -92 -85t-125 -30t-115 35.5t-48 101.5q0 77 60 114t146 37t174 -30v52q0 78 -44.5 123t-128.5 45q-89 0 -170 -30v24q80 28 171 28q94 0 145 -51t51 -141v-228zM64 128
q0 -56 42 -86.5t101 -30.5q66 0 124 33t89 93v89q-85 30 -172 30q-78 0 -131 -31t-53 -97zM125 614h252v-23h-252v23z" />
    <glyph glyph-name="Abreve" unicode="&#x102;" horiz-adv-x="704" 
d="M43 0h-27l322 700h29l321 -700h-27l-99 215h-420zM346 660l-193 -421h400l-193 421q-3 6 -7 16q-4 -10 -7 -16zM476 823q-48 -41 -124 -41t-124 41v26q52 -44 124 -44t124 44v-26z" />
    <glyph glyph-name="abreve" unicode="&#x103;" horiz-adv-x="539" 
d="M444 70q0 -49 52 -49q20 0 37 7v-21q-21 -8 -42 -8q-30 0 -50.5 17t-20.5 53v36q-34 -55 -92 -85t-125 -30t-115 35.5t-48 101.5q0 77 60 114t146 37t174 -30v52q0 78 -44.5 123t-128.5 45q-89 0 -170 -30v24q80 28 171 28q94 0 145 -51t51 -141v-228zM64 128
q0 -56 42 -86.5t101 -30.5q66 0 124 33t89 93v89q-85 30 -172 30q-78 0 -131 -31t-53 -97zM375 603q-48 -41 -124 -41t-124 41v26q52 -44 124 -44t124 44v-26z" />
    <glyph glyph-name="Aogonek" unicode="&#x104;" horiz-adv-x="704" 
d="M567 -149q0 -28 18 -44t50 -16q36 0 73 19v-21q-35 -19 -77 -19q-41 0 -64 21t-23 56q0 75 114 160l-96 208h-420l-99 -215h-27l322 700h29l321 -700q-121 -85 -121 -149zM346 660l-192 -421h399l-193 421q-3 6 -7 16q-4 -10 -7 -16z" />
    <glyph glyph-name="aogonek" unicode="&#x105;" horiz-adv-x="539" 
d="M207 11q66 0 124 33t89 93v89q-85 30 -172 30q-78 0 -131 -31t-53 -97q0 -56 42 -86.5t101 -30.5zM531 -193v-21q-24 -10 -55 -10q-41 0 -64 21t-23 57q0 70 105 145h-3q-30 0 -50.5 17t-20.5 53v36q-34 -55 -92 -85t-125 -30t-115 35.5t-48 101.5q0 77 60 114t146 37
t174 -30v52q0 78 -44.5 123t-128.5 45q-89 0 -170 -30v24q80 28 171 28q94 0 145 -51t51 -141v-228q0 -49 52 -49q20 0 37 7v-21q-121 -85 -121 -149q0 -28 18 -44t50 -17q27 1 51 10z" />
    <glyph glyph-name="Cacute" unicode="&#x106;" horiz-adv-x="658" 
d="M53 341q0 88 31.5 160t83 116.5t114.5 68.5t130 24q112 0 196 -48v-25q-84 49 -193 49q-63 0 -122 -22t-107.5 -63.5t-78 -109t-29.5 -150.5q0 -81 29.5 -145t78.5 -103t108 -59t123 -20q115 0 200 50v-25q-84 -49 -204 -49q-67 0 -130 22t-115 63.5t-83.5 110.5
t-31.5 155zM395 778h-28l88 133h30z" />
    <glyph glyph-name="cacute" unicode="&#x107;" horiz-adv-x="493" 
d="M49 236q0 64 22.5 114.5t60 80t82 44.5t93.5 15q83 0 140 -39v-23q-58 40 -138 40q-97 0 -166.5 -59t-69.5 -173q0 -108 65.5 -166t158.5 -58q87 0 155 39v-24q-67 -37 -157 -37q-101 0 -173.5 63t-72.5 183zM286 558h-28l88 133h30z" />
    <glyph glyph-name="Cdotaccent" unicode="&#x10a;" horiz-adv-x="658" 
d="M53 341q0 88 31.5 160t83 116.5t114.5 68.5t130 24q112 0 196 -48v-25q-84 49 -193 49q-63 0 -122 -22t-107.5 -63.5t-78 -109t-29.5 -150.5q0 -81 29.5 -145t78.5 -103t108 -59t123 -20q115 0 200 50v-25q-84 -49 -204 -49q-67 0 -130 22t-115 63.5t-83.5 110.5
t-31.5 155zM375 817q0 12 8 20t20 8t20 -8t8 -20t-8 -19.5t-20 -7.5t-20 7.5t-8 19.5z" />
    <glyph glyph-name="cdotaccent" unicode="&#x10b;" horiz-adv-x="493" 
d="M49 236q0 64 22.5 114.5t60 80t82 44.5t93.5 15q83 0 140 -39v-23q-58 40 -138 40q-97 0 -166.5 -59t-69.5 -173q0 -108 65.5 -166t158.5 -58q87 0 155 39v-24q-67 -37 -157 -37q-101 0 -173.5 63t-72.5 183zM266 597q0 12 8 20t20 8t20 -8t8 -20t-8 -19.5t-20 -7.5
t-20 7.5t-8 19.5z" />
    <glyph glyph-name="Ccaron" unicode="&#x10c;" horiz-adv-x="658" 
d="M53 341q0 88 31.5 160t83 116.5t114.5 68.5t130 24q112 0 196 -48v-25q-84 49 -193 49q-63 0 -122 -22t-107.5 -63.5t-78 -109t-29.5 -150.5q0 -81 29.5 -145t78.5 -103t108 -59t123 -20q115 0 200 50v-25q-84 -49 -204 -49q-67 0 -130 22t-115 63.5t-83.5 110.5
t-31.5 155zM542 893l-127 -125h-21l-126 125h29l108 -106l108 106h29z" />
    <glyph glyph-name="ccaron" unicode="&#x10d;" horiz-adv-x="493" 
d="M49 236q0 64 22.5 114.5t60 80t82 44.5t93.5 15q83 0 140 -39v-23q-58 40 -138 40q-97 0 -166.5 -59t-69.5 -173q0 -108 65.5 -166t158.5 -58q87 0 155 39v-24q-67 -37 -157 -37q-101 0 -173.5 63t-72.5 183zM433 673l-127 -125h-21l-126 125h29l108 -106l108 106h29z
" />
    <glyph glyph-name="Dcaron" unicode="&#x10e;" horiz-adv-x="730" 
d="M105 700h199q182 0 277 -96t95 -254t-95 -254t-277 -96h-199v700zM651 350q0 148 -88.5 237t-258.5 89h-174v-652h174q170 0 258.5 89t88.5 237zM482 893l-127 -125h-21l-126 125h29l108 -106l108 106h29z" />
    <glyph glyph-name="dcaron" unicode="&#x10f;" horiz-adv-x="613" 
d="M614 700h23l-21 -156h-20zM505 700h24v-700h-22v125q-31 -60 -89 -97.5t-131 -37.5q-104 0 -171 68t-67 182t67 182t171 68q73 0 131 -37.5t87 -95.5v343zM505 313q-23 67 -81.5 111t-134.5 44q-94 0 -155 -61.5t-61 -166.5q0 -104 61 -166t155 -62q76 0 134.5 44
t81.5 111v146z" />
    <glyph glyph-name="Dcroat" unicode="&#x110;" horiz-adv-x="730" 
d="M105 700h199q182 0 277 -96t95 -254t-95 -254t-277 -96h-199v338h-80v23h80v339zM130 24h174q170 0 258.5 89t88.5 237t-88.5 237t-258.5 89h-174v-315h242v-23h-242v-314z" />
    <glyph glyph-name="dcroat" unicode="&#x111;" horiz-adv-x="613" 
d="M529 613h78v-20h-78v-593h-22v125q-31 -60 -89 -97.5t-131 -37.5q-104 0 -171 68t-67 182t67 182t171 68q73 0 131 -37.5t87 -95.5v236h-202v20h202v87h24v-87zM289 12q76 0 134.5 44t81.5 111v146q-23 67 -81.5 111t-134.5 44q-94 0 -155 -61.5t-61 -166.5
q0 -104 61 -166t155 -62z" />
    <glyph glyph-name="Emacron" unicode="&#x112;" horiz-adv-x="628" 
d="M105 700h455v-24h-430v-312h400v-24h-400v-316h439v-24h-464v700zM207 834h252v-23h-252v23z" />
    <glyph glyph-name="emacron" unicode="&#x113;" horiz-adv-x="545" 
d="M49 240q0 115 69.5 182.5t164.5 67.5q63 0 110 -25t70.5 -65t32 -85t1.5 -89h-424q3 -107 71.5 -160.5t168.5 -53.5q90 0 155 38v-24q-62 -36 -158 -36q-111 0 -186 63t-75 187zM476 248q5 51 -10.5 99t-62.5 84.5t-119 36.5q-86 0 -147.5 -58.5t-63.5 -161.5h403z
M156 614h252v-23h-252v23z" />
    <glyph glyph-name="Edotaccent" unicode="&#x116;" horiz-adv-x="628" 
d="M105 700h455v-24h-430v-312h400v-24h-400v-316h439v-24h-464v700zM304 817q0 12 8 20t20 8t20 -8t8 -20t-8 -19.5t-20 -7.5t-20 7.5t-8 19.5z" />
    <glyph glyph-name="edotaccent" unicode="&#x117;" horiz-adv-x="545" 
d="M49 240q0 115 69.5 182.5t164.5 67.5q63 0 110 -25t70.5 -65t32 -85t1.5 -89h-424q3 -107 71.5 -160.5t168.5 -53.5q90 0 155 38v-24q-62 -36 -158 -36q-111 0 -186 63t-75 187zM476 248q5 51 -10.5 99t-62.5 84.5t-119 36.5q-86 0 -147.5 -58.5t-63.5 -161.5h403z
M253 597q0 12 8 20t20 8t20 -8t8 -20t-8 -19.5t-20 -7.5t-20 7.5t-8 19.5z" />
    <glyph glyph-name="Eogonek" unicode="&#x118;" horiz-adv-x="628" 
d="M569 24v-24q-128 -85 -128 -149q0 -28 17 -44t47 -16t64 13v-21q-30 -13 -68 -13q-39 0 -61 20.5t-22 56.5q0 73 119 153h-432v700h455v-24h-430v-312h400v-24h-400v-316h439z" />
    <glyph glyph-name="eogonek" unicode="&#x119;" horiz-adv-x="545" 
d="M459 -211q-35 -19 -77 -19q-41 -1 -64 20.5t-23 56.5q0 68 119 158q-44 -15 -104 -15q-111 0 -186 63t-75 187q0 115 69.5 182.5t164.5 67.5q63 0 110 -25t70.5 -65t32 -85t1.5 -89h-424q3 -107 71.5 -160.5t168.5 -53.5q90 0 155 38v-24q-76 -56 -113 -97t-37 -78
q0 -28 18 -44t50 -16q36 0 73 19v-21zM284 468q-86 0 -147.5 -58.5t-63.5 -161.5h403q5 51 -10.5 99t-62.5 84.5t-119 36.5z" />
    <glyph glyph-name="Ecaron" unicode="&#x11a;" horiz-adv-x="628" 
d="M105 700h455v-24h-430v-312h400v-24h-400v-316h439v-24h-464v700zM471 893l-127 -125h-21l-126 125h29l108 -106l108 106h29z" />
    <glyph glyph-name="ecaron" unicode="&#x11b;" horiz-adv-x="545" 
d="M49 240q0 115 69.5 182.5t164.5 67.5q63 0 110 -25t70.5 -65t32 -85t1.5 -89h-424q3 -107 71.5 -160.5t168.5 -53.5q90 0 155 38v-24q-62 -36 -158 -36q-111 0 -186 63t-75 187zM476 248q5 51 -10.5 99t-62.5 84.5t-119 36.5q-86 0 -147.5 -58.5t-63.5 -161.5h403z
M420 673l-127 -125h-21l-126 125h29l108 -106l108 106h29z" />
    <glyph glyph-name="Gbreve" unicode="&#x11e;" horiz-adv-x="710" 
d="M54 350q0 91 31.5 162.5t85 113t117.5 63t134 21.5q113 0 202 -46v-25q-88 47 -200 47q-66 0 -126 -19.5t-110 -58.5t-79.5 -105.5t-29.5 -152.5q0 -87 30 -153.5t80.5 -105t111.5 -58t129 -19.5q105 0 188 40v311h25v-328q-99 -47 -214 -47q-73 0 -138 21t-119 62.5
t-86 113t-32 163.5zM531 823q-48 -41 -124 -41t-124 41v26q52 -44 124 -44t124 44v-26z" />
    <glyph glyph-name="gbreve" unicode="&#x11f;" horiz-adv-x="613" 
d="M49 240q0 114 67 182t171 68q73 0 131 -37.5t89 -97.5v125h22v-480q0 -114 -72.5 -172t-178.5 -58q-100 0 -188 45v24q91 -47 186 -47q46 0 86.5 12t73 36.5t51 65.5t18.5 94v124q-29 -59 -87 -96.5t-131 -37.5q-104 0 -171 68t-67 182zM505 313q-23 67 -81.5 111
t-134.5 44q-94 0 -155 -61.5t-61 -166.5q0 -104 61 -166t155 -62q76 0 134.5 43.5t81.5 109.5v148zM413 603q-48 -41 -124 -41t-124 41v26q52 -44 124 -44t124 44v-26z" />
    <glyph glyph-name="Gdotaccent" unicode="&#x120;" horiz-adv-x="710" 
d="M54 350q0 91 31.5 162.5t85 113t117.5 63t134 21.5q113 0 202 -46v-25q-88 47 -200 47q-66 0 -126 -19.5t-110 -58.5t-79.5 -105.5t-29.5 -152.5q0 -87 30 -153.5t80.5 -105t111.5 -58t129 -19.5q105 0 188 40v311h25v-328q-99 -47 -214 -47q-73 0 -138 21t-119 62.5
t-86 113t-32 163.5zM378 817q0 12 8 20t20 8t20 -8t8 -20t-8 -19.5t-20 -7.5t-20 7.5t-8 19.5z" />
    <glyph glyph-name="gdotaccent" unicode="&#x121;" horiz-adv-x="613" 
d="M49 240q0 114 67 182t171 68q73 0 131 -37.5t89 -97.5v125h22v-480q0 -114 -72.5 -172t-178.5 -58q-100 0 -188 45v24q91 -47 186 -47q46 0 86.5 12t73 36.5t51 65.5t18.5 94v124q-29 -59 -87 -96.5t-131 -37.5q-104 0 -171 68t-67 182zM505 313q-23 67 -81.5 111
t-134.5 44q-94 0 -155 -61.5t-61 -166.5q0 -104 61 -166t155 -62q76 0 134.5 43.5t81.5 109.5v148zM260 597q0 12 8 20t20 8t20 -8t8 -20t-8 -19.5t-20 -7.5t-20 7.5t-8 19.5z" />
    <glyph glyph-name="Gcommaaccent" unicode="&#x122;" horiz-adv-x="710" 
d="M54 350q0 91 31.5 162.5t85 113t117.5 63t134 21.5q113 0 202 -46v-25q-88 47 -200 47q-66 0 -126 -19.5t-110 -58.5t-79.5 -105.5t-29.5 -152.5q0 -87 30 -153.5t80.5 -105t111.5 -58t129 -19.5q105 0 188 40v311h25v-328q-99 -47 -214 -47q-73 0 -138 21t-119 62.5
t-86 113t-32 163.5zM414 -224h-22l20 166h24z" />
    <glyph glyph-name="gcommaaccent" unicode="&#x123;" horiz-adv-x="613" 
d="M306 550h-23l22 152h20zM49 240q0 114 67 182t171 68q73 0 131 -37.5t89 -97.5v125h22v-480q0 -114 -72.5 -172t-178.5 -58q-100 0 -188 45v24q91 -47 186 -47q46 0 86.5 12t73 36.5t51 65.5t18.5 94v124q-29 -59 -87 -96.5t-131 -37.5q-104 0 -171 68t-67 182zM505 313
q-23 67 -81.5 111t-134.5 44q-94 0 -155 -61.5t-61 -166.5q0 -104 61 -166t155 -62q76 0 134.5 43.5t81.5 109.5v148z" />
    <glyph glyph-name="Hbar" unicode="&#x126;" horiz-adv-x="767" 
d="M130 0h-25v520h-79v22h79v158h25v-158h507v158h25v-158h79v-22h-79v-520h-25v340h-507v-340zM130 520v-156h507v156h-507z" />
    <glyph glyph-name="hbar" unicode="&#x127;" 
d="M108 374q30 46 82 81t120 35q81 0 134 -52.5t53 -142.5v-295h-24v293q0 82 -46 128.5t-118 46.5q-70 0 -121 -38t-80 -91v-339h-24v591h-76v20h76v89h24v-89h203v-20h-203v-217z" />
    <glyph glyph-name="Imacron" unicode="&#x12a;" horiz-adv-x="235" 
d="M105 700h25v-700h-25v700zM-8 834h252v-23h-252v23z" />
    <glyph glyph-name="imacron" unicode="&#x12b;" horiz-adv-x="200" 
d="M-10 616h220v-23h-220v23zM88 480h24v-480h-24v480z" />
    <glyph glyph-name="Iogonek" unicode="&#x12e;" horiz-adv-x="235" 
d="M58 -149q0 -28 18.5 -44t49.5 -16q29 0 68 17v-21q-34 -17 -72 -17q-40 0 -63.5 21t-23.5 56q0 67 70 157v696h25v-700q-72 -90 -72 -149z" />
    <glyph glyph-name="iogonek" unicode="&#x12f;" horiz-adv-x="199" 
d="M120 615q0 -19 -20 -19t-20 19q0 9 6 14.5t14 5.5q20 0 20 -20zM34 -149q0 -28 18 -44t50 -17q37 1 73 20v-21q-34 -20 -77 -20q-41 0 -64 21t-23 57q0 67 77 159v474h24v-480q-78 -88 -78 -149z" />
    <glyph glyph-name="Idotaccent" unicode="&#x130;" horiz-adv-x="235" 
d="M105 700h25v-700h-25v700zM89 817q0 12 8 20t20 8t20 -8t8 -20t-8 -19.5t-20 -7.5t-20 7.5t-8 19.5z" />
    <glyph glyph-name="dotlessi" unicode="&#x131;" horiz-adv-x="198" 
d="M87 480h24v-480h-24v480z" />
    <glyph glyph-name="IJ" unicode="&#x132;" horiz-adv-x="757" 
d="M105 700h25v-700h-25v700zM404 700h256v-516q0 -95 -58.5 -144.5t-154.5 -49.5q-112 0 -179 43v25q67 -44 176 -44q87 0 139 42.5t52 127.5v492h-231v24z" />
    <glyph glyph-name="ij" unicode="&#x133;" horiz-adv-x="396" 
d="M111 0h-24v480h24v-480zM119 615q0 -19 -20 -19t-20 19q0 9 6 14.5t14 5.5t14 -5.5t6 -14.5zM309 -116q0 -61 -33.5 -87.5t-83.5 -26.5q-37 0 -68 11v23q30 -11 64 -11q42 0 69.5 21.5t27.5 71.5v594h24v-596zM317 615q0 -19 -20 -19t-20 19q0 9 6 14.5t14 5.5
q20 0 20 -20z" />
    <glyph glyph-name="Kcommaaccent" unicode="&#x136;" horiz-adv-x="654" 
d="M130 0h-25v700h25v-329h216l246 329h29l-254 -341l282 -359h-30l-274 347h-215v-347zM349 -214h-22l20 166h24z" />
    <glyph glyph-name="kcommaaccent" unicode="&#x137;" horiz-adv-x="490" 
d="M486 0h-29l-220 237h-129v-237h-24v700h24v-440h131l190 220h29l-200 -233zM262 -214h-22l20 166h24z" />
    <glyph glyph-name="Lacute" unicode="&#x139;" horiz-adv-x="576" 
d="M105 700h25v-676h428v-24h-453v700zM124 778h-28l88 133h30z" />
    <glyph glyph-name="lacute" unicode="&#x13a;" horiz-adv-x="198" 
d="M87 730h24v-730h-24v730zM97 786h-28l88 133h30z" />
    <glyph glyph-name="Lcommaaccent" unicode="&#x13b;" horiz-adv-x="576" 
d="M105 700h25v-676h428v-24h-453v700zM321 -214h-22l20 166h24z" />
    <glyph glyph-name="lcommaaccent" unicode="&#x13c;" horiz-adv-x="198" 
d="M87 730h24v-730h-24v730zM92 -214h-22l20 166h24z" />
    <glyph glyph-name="Lcaron" unicode="&#x13d;" horiz-adv-x="576" 
d="M375 700h23l-21 -156h-20zM105 700h25v-676h428v-24h-453v700z" />
    <glyph glyph-name="lcaron" unicode="&#x13e;" horiz-adv-x="199" 
d="M195 730h23l-21 -156h-20zM87 730h24v-730h-24v730z" />
    <glyph glyph-name="Ldot" unicode="&#x13f;" horiz-adv-x="584" 
d="M368 334q0 -10 -6.5 -16t-15.5 -6t-16 6.5t-7 15.5t7 15.5t16 6.5t15.5 -6t6.5 -16zM105 700h25v-676h428v-24h-453v700z" />
    <glyph glyph-name="ldot" unicode="&#x140;" horiz-adv-x="231" 
d="M87 730h24v-730h-24v730zM238 350q0 -10 -6.5 -16t-15.5 -6q-10 0 -16.5 6t-6.5 16t6.5 16t16.5 6q9 0 15.5 -6t6.5 -16z" />
    <glyph glyph-name="Lslash" unicode="&#x141;" horiz-adv-x="579" 
d="M561 0h-453v291l-96 -42v22l96 42v387h25v-377l242 107v-22l-242 -107v-277h428v-24z" />
    <glyph glyph-name="lslash" unicode="&#x142;" horiz-adv-x="222" 
d="M100 730h24v-341l89 39v-22l-89 -39v-367h-24v357l-89 -39v22l89 39v351z" />
    <glyph glyph-name="Nacute" unicode="&#x143;" horiz-adv-x="767" 
d="M130 0h-25v700h21l511 -656v60v596h25v-700h-22l-510 657v-60v-597zM374 778h-28l88 133h30z" />
    <glyph glyph-name="nacute" unicode="&#x144;" 
d="M106 372q30 47 82.5 82.5t122.5 35.5q80 0 133 -52.5t53 -142.5v-295h-24v293q0 82 -46 128.5t-118 46.5q-70 0 -121 -38t-80 -91v-339h-24v480h22v-108zM276 558h-28l88 133h30z" />
    <glyph glyph-name="Ncommaaccent" unicode="&#x145;" horiz-adv-x="767" 
d="M130 0h-25v700h21l511 -656v60v596h25v-700h-22l-510 657v-60v-597zM384 -214h-22l20 166h24z" />
    <glyph glyph-name="ncommaaccent" unicode="&#x146;" 
d="M106 372q30 47 82.5 82.5t122.5 35.5q80 0 133 -52.5t53 -142.5v-295h-24v293q0 82 -46 128.5t-118 46.5q-70 0 -121 -38t-80 -91v-339h-24v480h22v-108zM288 -214h-22l20 166h24z" />
    <glyph glyph-name="Ncaron" unicode="&#x147;" horiz-adv-x="767" 
d="M130 0h-25v700h21l511 -656v60v596h25v-700h-22l-510 657v-60v-597zM521 893l-127 -125h-21l-126 125h29l108 -106l108 106h29z" />
    <glyph glyph-name="ncaron" unicode="&#x148;" 
d="M106 372q30 47 82.5 82.5t122.5 35.5q80 0 133 -52.5t53 -142.5v-295h-24v293q0 82 -46 128.5t-118 46.5q-70 0 -121 -38t-80 -91v-339h-24v480h22v-108zM423 673l-127 -125h-21l-126 125h29l108 -106l108 106h29z" />
    <glyph glyph-name="Eng" unicode="&#x14a;" horiz-adv-x="767" 
d="M662 -115q0 -60 -33.5 -87.5t-84.5 -27.5q-35 0 -68 11v23q32 -10 64 -10q97 0 97 93v118l-507 652v-60v-597h-25v700h21l511 -656v60v596h25v-815z" />
    <glyph glyph-name="eng" unicode="&#x14b;" 
d="M497 -116q0 -61 -33.5 -87.5t-82.5 -26.5q-38 0 -69 11v23q33 -12 64 -12q42 0 69.5 22t27.5 72v407q0 82 -46 128.5t-118 46.5q-70 0 -121 -38t-80 -91v-339h-24v480h22v-108q30 47 82.5 82.5t122.5 35.5q80 0 133 -52.5t53 -142.5v-411z" />
    <glyph glyph-name="Omacron" unicode="&#x14c;" horiz-adv-x="826" 
d="M52 350q0 67 23 129.5t66 115t114 84t158 31.5t158 -31.5t114 -84t66 -115t23 -129.5t-23 -129.5t-66 -115t-114 -84t-158 -31.5t-158 31.5t-114 84t-66 115t-23 129.5zM749 350q0 63 -21.5 121.5t-61.5 107t-106 78t-147 29.5t-147 -29.5t-106 -78t-61.5 -107
t-21.5 -121.5t21.5 -121.5t61.5 -107t106 -78t147 -29.5t147 29.5t106 78t61.5 107t21.5 121.5zM287 834h252v-23h-252v23z" />
    <glyph glyph-name="omacron" unicode="&#x14d;" horiz-adv-x="592" 
d="M49 240q0 115 72.5 182.5t174.5 67.5q103 0 175 -67.5t72 -182.5t-72 -182.5t-175 -67.5q-102 0 -174.5 67.5t-72.5 182.5zM519 240q0 105 -64.5 166t-158.5 61t-158.5 -61t-64.5 -166t64.5 -166t158.5 -61t158.5 61t64.5 166zM170 606h252v-23h-252v23z" />
    <glyph glyph-name="Ohungarumlaut" unicode="&#x150;" horiz-adv-x="826" 
d="M52 350q0 67 23 129.5t66 115t114 84t158 31.5t158 -31.5t114 -84t66 -115t23 -129.5t-23 -129.5t-66 -115t-114 -84t-158 -31.5t-158 31.5t-114 84t-66 115t-23 129.5zM749 350q0 63 -21.5 121.5t-61.5 107t-106 78t-147 29.5t-147 -29.5t-106 -78t-61.5 -107
t-21.5 -121.5t21.5 -121.5t61.5 -107t106 -78t147 -29.5t147 29.5t106 78t61.5 107t21.5 121.5zM495 778h-27l75 142h28zM343 778h-27l75 142h28z" />
    <glyph glyph-name="ohungarumlaut" unicode="&#x151;" horiz-adv-x="592" 
d="M49 240q0 115 72.5 182.5t174.5 67.5q103 0 175 -67.5t72 -182.5t-72 -182.5t-175 -67.5q-102 0 -174.5 67.5t-72.5 182.5zM519 240q0 105 -64.5 166t-158.5 61t-158.5 -61t-64.5 -166t64.5 -166t158.5 -61t158.5 61t64.5 166zM378 550h-27l75 142h28zM226 550h-27
l75 142h28z" />
    <glyph glyph-name="OE" unicode="&#x152;" horiz-adv-x="1025" 
d="M535 0q-48 -10 -122 -10q-87 0 -158 31.5t-114 84t-66 115t-23 129.5t23 129.5t66 115t114 84t158 31.5q74 0 122 -10h425v-24h-400v-312h370v-24h-370v-316h406v-24h-431zM78 350q0 -64 22 -123t62.5 -107t106 -77t146.5 -29q75 0 121 11v650q-46 11 -121 11
q-81 0 -146.5 -29t-106 -77t-62.5 -107t-22 -123z" />
    <glyph glyph-name="oe" unicode="&#x153;" horiz-adv-x="994" 
d="M522 167q-21 -84 -84 -130.5t-147 -46.5q-102 0 -172 67t-70 183t70 183t172 67q85 0 147.5 -47t83.5 -132q20 82 81.5 130.5t135.5 48.5q50 0 89.5 -16.5t63 -44t39 -63t17 -72.5t-2.5 -73h-410q3 -103 71 -156t159 -53q86 0 151 38v-23q-63 -37 -154 -37
q-84 0 -152.5 45t-87.5 132zM73 240q0 -105 62 -166t156 -61t156.5 61t62.5 166t-62.5 166t-156.5 61t-156 -61t-62 -166zM741 468q-82 0 -143 -60t-63 -165h390q4 39 -4 77t-28 72t-59 55t-93 21z" />
    <glyph glyph-name="Racute" unicode="&#x154;" horiz-adv-x="682" 
d="M130 0h-25v700h263q46 0 87.5 -11t78 -34t58.5 -63.5t22 -94.5q0 -51 -19.5 -90t-52 -62t-71 -35.5t-81.5 -14.5l268 -295h-31l-266 294h-231v-294zM130 676v-358h239q41 0 78 9.5t70 29t52.5 56t19.5 84.5q0 63 -34.5 105t-82 58t-103.5 16h-239zM333 778h-28l88 133h30
z" />
    <glyph glyph-name="racute" unicode="&#x155;" horiz-adv-x="336" 
d="M106 333q25 67 83 112.5t136 44.5v-24q-85 1 -142.5 -52.5t-74.5 -128.5v-285h-24v480h22v-147zM178 558h-28l88 133h30z" />
    <glyph glyph-name="Rcommaaccent" unicode="&#x156;" horiz-adv-x="682" 
d="M130 0h-25v700h263q46 0 87.5 -11t78 -34t58.5 -63.5t22 -94.5q0 -51 -19.5 -90t-52 -62t-71 -35.5t-81.5 -14.5l268 -295h-31l-266 294h-231v-294zM130 676v-358h239q41 0 78 9.5t70 29t52.5 56t19.5 84.5q0 63 -34.5 105t-82 58t-103.5 16h-239zM355 -214h-22l20 166
h24z" />
    <glyph glyph-name="rcommaaccent" unicode="&#x157;" horiz-adv-x="336" 
d="M106 333q25 67 83 112.5t136 44.5v-24q-85 1 -142.5 -52.5t-74.5 -128.5v-285h-24v480h22v-147zM87 -214h-22l20 166h24z" />
    <glyph glyph-name="Rcaron" unicode="&#x158;" horiz-adv-x="682" 
d="M130 0h-25v700h263q46 0 87.5 -11t78 -34t58.5 -63.5t22 -94.5q0 -51 -19.5 -90t-52 -62t-71 -35.5t-81.5 -14.5l268 -295h-31l-266 294h-231v-294zM130 676v-358h239q41 0 78 9.5t70 29t52.5 56t19.5 84.5q0 63 -34.5 105t-82 58t-103.5 16h-239zM480 893l-127 -125h-21
l-126 125h29l108 -106l108 106h29z" />
    <glyph glyph-name="rcaron" unicode="&#x159;" horiz-adv-x="336" 
d="M106 333q25 67 83 112.5t136 44.5v-24q-85 1 -142.5 -52.5t-74.5 -128.5v-285h-24v480h22v-147zM325 673l-127 -125h-21l-126 125h29l108 -106l108 106h29z" />
    <glyph glyph-name="Sacute" unicode="&#x15a;" horiz-adv-x="563" 
d="M59 541q0 83 64 126t154 43q114 0 198 -47v-25q-39 22 -93 35.5t-104 12.5q-81 0 -137.5 -36.5t-56.5 -108.5q0 -45 24 -77.5t63 -51.5t85.5 -34.5t93.5 -32.5t86 -38.5t63 -59t24 -88.5q0 -87 -66.5 -128.5t-166.5 -40.5q-133 0 -238 58v25q106 -59 236 -59
q93 0 151.5 34.5t58.5 109.5q0 47 -24 81t-63 54t-85.5 36t-93.5 32.5t-86 37.5t-63 57t-24 85zM262 778h-28l88 133h30z" />
    <glyph glyph-name="sacute" unicode="&#x15b;" horiz-adv-x="452" 
d="M53 368q0 61 49.5 91.5t118.5 30.5q93 0 163 -41v-24q-67 43 -162 43q-60 0 -102 -24.5t-42 -74.5q0 -43 34.5 -69.5t83 -39t97.5 -26t83.5 -43t34.5 -78.5q0 -62 -51 -92.5t-128 -30.5q-49 0 -100 13.5t-83 34.5v24q76 -50 182 -50q67 0 111.5 25t44.5 75
q0 43 -34.5 68.5t-83.5 38t-98 26t-83.5 44t-34.5 79.5zM212 558h-28l88 133h30z" />
    <glyph glyph-name="Scedilla" unicode="&#x15e;" horiz-adv-x="562" 
d="M84 541q0 -45 24 -77.5t63 -51.5t85.5 -34.5t93.5 -32.5t86 -38.5t63 -59t24 -88.5q0 -83 -61 -124.5t-157 -44.5l-22 -86q47 11 84.5 -5t38.5 -53q1 -35 -28.5 -55.5t-84.5 -20.5q-56 0 -98 22v21q41 -22 96 -22q47 0 70.5 15.5t22.5 40.5q-1 32 -41 42t-86 -4l26 105
q-129 0 -231 58v25q106 -59 236 -59q93 0 151.5 34.5t58.5 109.5q0 47 -24 81t-63 54t-85.5 36t-93.5 32.5t-86 37.5t-63 57t-24 85q0 83 64 126t154 43q114 0 198 -47v-25q-39 22 -93 35.5t-104 12.5q-81 0 -137.5 -36.5t-56.5 -108.5z" />
    <glyph glyph-name="scedilla" unicode="&#x15f;" horiz-adv-x="452" 
d="M78 369q0 -43 34.5 -69.5t83 -39t97.5 -26t83.5 -43t34.5 -78.5q0 -58 -46.5 -89.5t-116.5 -33.5l-18 -86q47 11 84.5 -5t38.5 -53q1 -35 -28.5 -55.5t-84.5 -20.5q-57 0 -98 22v21q40 -22 96 -22q47 0 70.5 15.5t22.5 40.5q-1 32 -41 42t-86 -4l22 105q-109 2 -177 48
v24q76 -50 182 -50q67 0 111.5 25t44.5 75q0 43 -34.5 68.5t-83.5 38t-98 26t-83.5 44t-34.5 79.5q0 61 49.5 91.5t118.5 30.5q93 0 163 -41v-24q-67 43 -162 43q-60 0 -102 -24.5t-42 -74.5z" />
    <glyph glyph-name="Scaron" unicode="&#x160;" horiz-adv-x="563" 
d="M59 541q0 83 64 126t154 43q114 0 198 -47v-25q-39 22 -93 35.5t-104 12.5q-81 0 -137.5 -36.5t-56.5 -108.5q0 -45 24 -77.5t63 -51.5t85.5 -34.5t93.5 -32.5t86 -38.5t63 -59t24 -88.5q0 -87 -66.5 -128.5t-166.5 -40.5q-133 0 -238 58v25q106 -59 236 -59
q93 0 151.5 34.5t58.5 109.5q0 47 -24 81t-63 54t-85.5 36t-93.5 32.5t-86 37.5t-63 57t-24 85zM409 893l-127 -125h-21l-126 125h29l108 -106l108 106h29z" />
    <glyph glyph-name="scaron" unicode="&#x161;" horiz-adv-x="452" 
d="M53 368q0 61 49.5 91.5t118.5 30.5q93 0 163 -41v-24q-67 43 -162 43q-60 0 -102 -24.5t-42 -74.5q0 -43 34.5 -69.5t83 -39t97.5 -26t83.5 -43t34.5 -78.5q0 -62 -51 -92.5t-128 -30.5q-49 0 -100 13.5t-83 34.5v24q76 -50 182 -50q67 0 111.5 25t44.5 75
q0 43 -34.5 68.5t-83.5 38t-98 26t-83.5 44t-34.5 79.5zM359 673l-127 -125h-21l-126 125h29l108 -106l108 106h29z" />
    <glyph glyph-name="Tcommaaccent" unicode="&#x162;" horiz-adv-x="593" 
d="M15 700h563v-24h-269v-676h-25v676h-269v24zM289 -214h-22l20 166h24z" />
    <glyph glyph-name="tcommaaccent" unicode="&#x163;" horiz-adv-x="362" 
d="M103 638l24 8v-166h214v-23h-214v-321q0 -122 123 -122q58 0 103 24v-23q-42 -24 -108 -24q-68 0 -105 36.5t-37 105.5v324h-90v23h90v158zM226 -214h-22l20 166h24z" />
    <glyph glyph-name="Tcaron" unicode="&#x164;" horiz-adv-x="593" 
d="M15 700h563v-24h-269v-676h-25v676h-269v24zM436 893l-127 -125h-21l-126 125h29l108 -106l108 106h29z" />
    <glyph glyph-name="tcaron" unicode="&#x165;" horiz-adv-x="362" 
d="M240 730h23l-21 -154h-20zM103 638l24 8v-166h214v-23h-214v-321q0 -122 123 -122q58 0 103 24v-23q-42 -24 -108 -24q-68 0 -105 36.5t-37 105.5v324h-90v23h90v158z" />
    <glyph glyph-name="Tbar" unicode="&#x166;" horiz-adv-x="605" 
d="M315 0h-25v347h-140v22h140v307h-269v24h563v-24h-269v-307h140v-22h-140v-347z" />
    <glyph glyph-name="tbar" unicode="&#x167;" horiz-adv-x="363" 
d="M128 136q0 -122 123 -122q58 0 103 24v-23q-42 -24 -108 -24q-68 0 -105 36.5t-37 105.5v151h-57v22h57v151h-90v23h90v158l24 8v-166h214v-23h-214v-151h167v-22h-167v-148z" />
    <glyph glyph-name="Umacron" unicode="&#x16a;" horiz-adv-x="749" 
d="M628 700h25v-459q0 -132 -75.5 -191.5t-202.5 -59.5t-203 59.5t-76 191.5v459h25v-458q0 -228 254 -228q253 0 253 228v458zM252 834h252v-23h-252v23z" />
    <glyph glyph-name="umacron" unicode="&#x16b;" 
d="M466 480h24v-480h-22v108q-30 -47 -82.5 -82.5t-122.5 -35.5q-82 0 -134 52.5t-52 142.5v295h24v-293q0 -83 45.5 -129t118.5 -46q70 0 121 38t80 91v339zM165 614h252v-23h-252v23z" />
    <glyph glyph-name="Uring" unicode="&#x16e;" horiz-adv-x="749" 
d="M628 700h25v-459q0 -132 -75.5 -191.5t-202.5 -59.5t-203 59.5t-76 191.5v459h25v-458q0 -228 254 -228q253 0 253 228v458zM462 840q0 -36 -25 -59t-59 -23t-59.5 23t-25.5 59t25.5 59t59.5 23t59 -23t25 -59zM313 840q0 -28 19.5 -45.5t45.5 -17.5t45 17.5t19 45.5
t-19 45.5t-45 17.5t-45.5 -18t-19.5 -45z" />
    <glyph glyph-name="uring" unicode="&#x16f;" 
d="M466 480h24v-480h-22v108q-30 -47 -82.5 -82.5t-122.5 -35.5q-82 0 -134 52.5t-52 142.5v295h24v-293q0 -83 45.5 -129t118.5 -46q70 0 121 38t80 91v339zM375 620q0 -36 -25 -59t-59 -23t-59.5 23t-25.5 59t25.5 59t59.5 23t59 -23t25 -59zM226 620q0 -28 19.5 -45.5
t45.5 -17.5t45 17.5t19 45.5t-19 45.5t-45 17.5t-45.5 -18t-19.5 -45z" />
    <glyph glyph-name="Uhungarumlaut" unicode="&#x170;" horiz-adv-x="749" 
d="M628 700h25v-459q0 -132 -75.5 -191.5t-202.5 -59.5t-203 59.5t-76 191.5v459h25v-458q0 -228 254 -228q253 0 253 228v458zM460 778h-27l75 142h28zM308 778h-27l75 142h28z" />
    <glyph glyph-name="uhungarumlaut" unicode="&#x171;" 
d="M466 480h24v-480h-22v108q-30 -47 -82.5 -82.5t-122.5 -35.5q-82 0 -134 52.5t-52 142.5v295h24v-293q0 -83 45.5 -129t118.5 -46q70 0 121 38t80 91v339zM373 558h-27l75 142h28zM221 558h-27l75 142h28z" />
    <glyph glyph-name="Uogonek" unicode="&#x172;" horiz-adv-x="749" 
d="M574 -210q-34 -20 -76 -20q-41 0 -64 21t-23 57q0 34 24.5 79.5t62.5 80.5q-52 -18 -123 -18q-127 0 -203 59.5t-76 191.5v459h25v-458q0 -228 254 -228q253 0 253 228v458h25v-459q0 -139 -92 -204q-56 -39 -91.5 -92t-35.5 -93q0 -59 68 -61q38 2 72 20v-21z" />
    <glyph glyph-name="uogonek" unicode="&#x173;" 
d="M490 480v-480q-57 -49 -85 -83.5t-28 -69.5q0 -56 60 -56q29 0 53 10v-21q-24 -10 -57 -10q-36 0 -57.5 19.5t-21.5 53.5q0 38 27.5 76t86.5 88v101q-30 -47 -82.5 -82.5t-122.5 -35.5q-82 0 -134 52.5t-52 142.5v295h24v-293q0 -83 45.5 -129t118.5 -46q70 0 121 38
t80 91v339h24z" />
    <glyph glyph-name="Wcircumflex" unicode="&#x174;" horiz-adv-x="987" 
d="M931 700h28l-224 -700h-27l-215 651l-214 -651h-27l-224 700h27l210 -666l217 658h23l216 -658zM483 903h21l127 -125h-29l-108 106l-108 -106h-29z" />
    <glyph glyph-name="wcircumflex" unicode="&#x175;" horiz-adv-x="798" 
d="M746 480h25l-184 -480h-24l-164 441l-163 -441h-24l-185 480h26l171 -449l163 441h24l164 -441zM389 683h21l127 -125h-29l-108 106l-108 -106h-29z" />
    <glyph glyph-name="Ycircumflex" unicode="&#x176;" horiz-adv-x="625" 
d="M325 0h-25v284l-276 416h28l260 -392l260 392h28l-275 -416v-284zM303 903h21l127 -125h-29l-108 106l-108 -106h-29z" />
    <glyph glyph-name="ycircumflex" unicode="&#x177;" horiz-adv-x="530" 
d="M277 25l204 455h26l-255 -568q-34 -77 -72 -109.5t-87 -32.5q-23 0 -49 6v22q24 -6 47 -6q45 0 78.5 31t62.5 100l33 75l-248 482h26zM248 683h21l127 -125h-29l-108 106l-108 -106h-29z" />
    <glyph glyph-name="Ydieresis" unicode="&#x178;" horiz-adv-x="625" 
d="M325 0h-25v284l-276 416h28l260 -392l260 392h28l-275 -416v-284zM436 835q0 -9 -6.5 -16t-16.5 -7q-9 0 -16 7t-7 16q0 10 7 16.5t16 6.5q10 0 16.5 -6.5t6.5 -16.5zM235 835q0 -9 -6.5 -16t-16.5 -7q-9 0 -16 7t-7 16q0 10 7 16.5t16 6.5q10 0 16.5 -6.5t6.5 -16.5z
" />
    <glyph glyph-name="Zacute" unicode="&#x179;" horiz-adv-x="569" 
d="M539 0h-515v22l476 654h-456v24h488v-22l-477 -654h484v-24zM278 778h-28l88 133h30z" />
    <glyph glyph-name="zacute" unicode="&#x17a;" horiz-adv-x="443" 
d="M44 480h356v-20l-339 -438h350v-22h-381v20l339 438h-325v22zM225 558h-28l88 133h30z" />
    <glyph glyph-name="Zdotaccent" unicode="&#x17b;" horiz-adv-x="569" 
d="M539 0h-515v22l476 654h-456v24h488v-22l-477 -654h484v-24zM258 817q0 12 8 20t20 8t20 -8t8 -20t-8 -19.5t-20 -7.5t-20 7.5t-8 19.5z" />
    <glyph glyph-name="zdotaccent" unicode="&#x17c;" horiz-adv-x="443" 
d="M44 480h356v-20l-339 -438h350v-22h-381v20l339 438h-325v22zM205 597q0 12 8 20t20 8t20 -8t8 -20t-8 -19.5t-20 -7.5t-20 7.5t-8 19.5z" />
    <glyph glyph-name="Zcaron" unicode="&#x17d;" horiz-adv-x="569" 
d="M539 0h-515v22l476 654h-456v24h488v-22l-477 -654h484v-24zM425 893l-127 -125h-21l-126 125h29l108 -106l108 106h29z" />
    <glyph glyph-name="zcaron" unicode="&#x17e;" horiz-adv-x="443" 
d="M44 480h356v-20l-339 -438h350v-22h-381v20l339 438h-325v22zM372 673l-127 -125h-21l-126 125h29l108 -106l108 106h29z" />
    <glyph glyph-name="Scommaaccent" unicode="&#x218;" horiz-adv-x="563" 
d="M59 541q0 83 64 126t154 43q114 0 198 -47v-25q-39 22 -93 35.5t-104 12.5q-81 0 -137.5 -36.5t-56.5 -108.5q0 -45 24 -77.5t63 -51.5t85.5 -34.5t93.5 -32.5t86 -38.5t63 -59t24 -88.5q0 -87 -66.5 -128.5t-166.5 -40.5q-133 0 -238 58v25q106 -59 236 -59
q93 0 151.5 34.5t58.5 109.5q0 47 -24 81t-63 54t-85.5 36t-93.5 32.5t-86 37.5t-63 57t-24 85zM278 -214h-22l20 166h24z" />
    <glyph glyph-name="scommaaccent" unicode="&#x219;" horiz-adv-x="452" 
d="M53 368q0 61 49.5 91.5t118.5 30.5q93 0 163 -41v-24q-67 43 -162 43q-60 0 -102 -24.5t-42 -74.5q0 -43 34.5 -69.5t83 -39t97.5 -26t83.5 -43t34.5 -78.5q0 -62 -51 -92.5t-128 -30.5q-49 0 -100 13.5t-83 34.5v24q76 -50 182 -50q67 0 111.5 25t44.5 75
q0 43 -34.5 68.5t-83.5 38t-98 26t-83.5 44t-34.5 79.5zM233 -214h-22l20 166h24z" />
    <glyph glyph-name="uni021A" unicode="&#x21a;" horiz-adv-x="593" 
d="M15 700h563v-24h-269v-676h-25v676h-269v24zM289 -214h-22l20 166h24z" />
    <glyph glyph-name="uni021B" unicode="&#x21b;" horiz-adv-x="362" 
d="M103 638l24 8v-166h214v-23h-214v-321q0 -122 123 -122q58 0 103 24v-23q-42 -24 -108 -24q-68 0 -105 36.5t-37 105.5v324h-90v23h90v158zM226 -214h-22l20 166h24z" />
    <glyph glyph-name="circumflex" unicode="&#x2c6;" horiz-adv-x="258" 
d="M118 903h21l127 -125h-29l-108 106l-108 -106h-29z" />
    <glyph glyph-name="caron" unicode="&#x2c7;" horiz-adv-x="258" 
d="M266 893l-127 -125h-21l-126 125h29l108 -106l108 106h29z" />
    <glyph glyph-name="breve" unicode="&#x2d8;" horiz-adv-x="316" 
d="M282 823q-48 -41 -124 -41t-124 41v26q52 -44 124 -44t124 44v-26z" />
    <glyph glyph-name="dotaccent" unicode="&#x2d9;" horiz-adv-x="86" 
d="M15 817q0 12 8 20t20 8t20 -8t8 -20t-8 -19.5t-20 -7.5t-20 7.5t-8 19.5z" />
    <glyph glyph-name="ring" unicode="&#x2da;" horiz-adv-x="200" 
d="M184 840q0 -36 -25 -59t-59 -23t-59.5 23t-25.5 59t25.5 59t59.5 23t59 -23t25 -59zM35 840q0 -28 19.5 -45.5t45.5 -17.5t45 17.5t19 45.5t-19 45.5t-45 17.5t-45.5 -18t-19.5 -45z" />
    <glyph glyph-name="ogonek" unicode="&#x2db;" horiz-adv-x="203" 
d="M130 0h32q-121 -85 -121 -149q0 -28 18 -44t50 -17q37 1 73 20v-21q-34 -20 -77 -20q-41 0 -64 21t-23 57q0 74 112 153z" />
    <glyph glyph-name="tilde" unicode="&#x2dc;" horiz-adv-x="308" 
d="M296 861q4 -32 -11.5 -52t-45.5 -20q-28 0 -87 28t-81 28q-21 0 -31.5 -14t-7.5 -37h-22q-4 31 12 52t45 21q27 0 86.5 -28t81.5 -28q44 0 39 50h22z" />
    <glyph glyph-name="hungarumlaut" unicode="&#x2dd;" horiz-adv-x="299" 
d="M201 778h-27l75 142h28zM49 778h-27l75 142h28z" />
    <glyph glyph-name="uni0326" unicode="&#x326;" horiz-adv-x="85" 
d="M43 -214h-22l20 166h24z" />
    <glyph glyph-name="uni0401" unicode="&#x401;" horiz-adv-x="627" 
d="M456 835q0 -9 -6.5 -16t-16.5 -7q-9 0 -16 7t-7 16q0 10 7 16.5t16 6.5q10 0 16.5 -6.5t6.5 -16.5zM255 835q0 -9 -6.5 -16t-16.5 -7q-9 0 -16 7t-7 16q0 10 7 16.5t16 6.5q10 0 16.5 -6.5t6.5 -16.5zM105 700h455v-24h-430v-312h400v-24h-400v-316h439v-24h-464v700z
" />
    <glyph glyph-name="uni0410" unicode="&#x410;" horiz-adv-x="704" 
d="M43 0h-27l322 700h29l321 -700h-27l-99 215h-420zM346 660l-193 -421h400l-193 421q-3 6 -7 16q-4 -10 -7 -16z" />
    <glyph glyph-name="uni0411" unicode="&#x411;" horiz-adv-x="656" 
d="M130 395h199q49 0 87 -4t76.5 -17t64 -34t41.5 -57t16 -85t-16 -85.5t-41.5 -57.5t-64 -34t-76.5 -17t-87 -4h-224v700h458v-24h-433v-281zM130 24h200q46 0 80.5 3.5t70 14.5t58 29.5t37 50.5t14.5 76t-14.5 76t-37 50.5t-58 29t-70 14t-80.5 3.5h-200v-347z" />
    <glyph glyph-name="uni0412" unicode="&#x412;" horiz-adv-x="675" 
d="M105 700h252q107 0 170.5 -43.5t63.5 -131.5q0 -65 -41 -106t-99 -51q41 -7 75.5 -23.5t63.5 -57t29 -99.5q0 -48 -17.5 -83.5t-44.5 -55t-65.5 -31t-71.5 -15t-71 -3.5h-244v700zM594 190q0 50 -22 85t-57.5 51t-67.5 22.5t-65 6.5h-252v-331h216q49 0 86 5.5t77.5 21
t62.5 51t22 88.5zM566 523q0 79 -55.5 116t-154.5 37h-226v-297h262q70 0 122 39t52 105z" />
    <glyph glyph-name="uni0413" unicode="&#x413;" horiz-adv-x="571" 
d="M130 0h-25v700h450v-24h-425v-676z" />
    <glyph glyph-name="uni0414" unicode="&#x414;" horiz-adv-x="742" 
d="M40 -177h-24v201h71q69 122 101.5 304t31.5 372h406v-676h85v-201h-24v177h-647v-177zM245 676q-6 -426 -130 -652h486v652h-356z" />
    <glyph glyph-name="uni0415" unicode="&#x415;" horiz-adv-x="627" 
d="M105 700h455v-24h-430v-312h400v-24h-400v-316h439v-24h-464v700z" />
    <glyph glyph-name="uni0416" unicode="&#x416;" horiz-adv-x="927" 
d="M40 0h-29l244 359l-217 341h29l208 -329h176v329h25v-329h176l208 329h29l-217 -341l244 -359h-29l-236 347h-175v-347h-25v347h-175z" />
    <glyph glyph-name="uni0417" unicode="&#x417;" horiz-adv-x="603" 
d="M549 187q0 -52 -24 -91.5t-63.5 -61.5t-85 -33t-93.5 -11q-141 0 -239 43v25q102 -45 238 -44q61 0 113.5 15.5t90.5 57t38 102.5q0 46 -22 79.5t-59 51t-78 25.5t-87 8h-129v24h128q99 0 158.5 41.5t59.5 110.5q0 77 -62.5 117t-159.5 40q-115 1 -217 -45v25
q94 44 219 44q105 0 175 -46t70 -133q0 -67 -47 -110t-127 -55q86 -9 144.5 -52t58.5 -127z" />
    <glyph glyph-name="uni0418" unicode="&#x418;" horiz-adv-x="767" 
d="M662 0h-25v597v60l-510 -657h-22v700h25v-596v-60l511 656h21v-700z" />
    <glyph glyph-name="uni0419" unicode="&#x419;" horiz-adv-x="767" 
d="M637 0h25v700h-21l-511 -656v60v596h-25v-700h22l510 657v-60v-597zM508 823q-48 -41 -124 -41t-124 41v26q52 -44 124 -44t124 44v-26z" />
    <glyph glyph-name="uni041A" unicode="&#x41a;" horiz-adv-x="654" 
d="M130 0h-25v700h25v-329h216l246 329h29l-254 -341l282 -359h-30l-274 347h-215v-347z" />
    <glyph glyph-name="uni041B" unicode="&#x41b;" horiz-adv-x="729" 
d="M235 700h389v-700h-25v676h-340q-6 -80 -10.5 -132t-12.5 -123.5t-16 -118t-20 -101t-27.5 -88.5t-35 -64.5t-44.5 -44.5t-55 -14q-26 0 -48 9v24q23 -8 45 -8q27 0 49 14t39.5 44t31.5 64t25 88.5t18.5 101t14.5 118t11.5 123t10.5 132.5z" />
    <glyph glyph-name="uni041C" unicode="&#x41c;" horiz-adv-x="897" 
d="M773 700h19v-700h-25v650l-311 -454h-15l-311 454v-650h-25v700h19l324 -473z" />
    <glyph glyph-name="uni041D" unicode="&#x41d;" horiz-adv-x="767" 
d="M637 700h25v-700h-25v340h-507v-340h-25v700h25v-336h507v336z" />
    <glyph glyph-name="uni041E" unicode="&#x41e;" horiz-adv-x="826" 
d="M52 350q0 67 23 129.5t66 115t114 84t158 31.5t158 -31.5t114 -84t66 -115t23 -129.5t-23 -129.5t-66 -115t-114 -84t-158 -31.5t-158 31.5t-114 84t-66 115t-23 129.5zM749 350q0 63 -21.5 121.5t-61.5 107t-106 78t-147 29.5t-147 -29.5t-106 -78t-61.5 -107
t-21.5 -121.5t21.5 -121.5t61.5 -107t106 -78t147 -29.5t147 29.5t106 78t61.5 107t21.5 121.5z" />
    <glyph glyph-name="uni041F" unicode="&#x41f;" horiz-adv-x="748" 
d="M130 0h-25v700h538v-700h-25v676h-488v-676z" />
    <glyph glyph-name="uni0420" unicode="&#x420;" horiz-adv-x="651" 
d="M105 700h217q292 0 292 -217t-292 -217h-192v-266h-25v700zM589 483q0 193 -266 193h-193v-386h193q266 0 266 193z" />
    <glyph glyph-name="uni0421" unicode="&#x421;" horiz-adv-x="663" 
d="M53 341q0 88 31.5 160t83 116.5t114.5 68.5t130 24q112 0 196 -48v-25q-84 49 -193 49q-63 0 -122 -22t-107.5 -63.5t-78 -109t-29.5 -150.5q0 -81 29.5 -145t78.5 -103t108 -59t123 -20q115 0 200 50v-25q-84 -49 -204 -49q-67 0 -130 22t-115 63.5t-83.5 110.5
t-31.5 155z" />
    <glyph glyph-name="uni0422" unicode="&#x422;" horiz-adv-x="593" 
d="M15 700h563v-24h-269v-676h-25v676h-269v24z" />
    <glyph glyph-name="uni0423" unicode="&#x423;" horiz-adv-x="617" 
d="M342 159q-50 -97 -97.5 -133t-106.5 -36q-42 0 -75 10v24q33 -10 72 -10q51 0 90 29t79 100l12 23l-303 534h27l290 -510l262 510h27z" />
    <glyph glyph-name="uni0424" unicode="&#x424;" horiz-adv-x="843" 
d="M434 -35h-25v94q-173 2 -274.5 77.5t-101.5 213.5t101.5 213.5t274.5 77.5v94h25v-94q173 -2 274.5 -77.5t101.5 -213.5t-101.5 -213.5t-274.5 -77.5v-94zM58 350q0 -126 93.5 -196t257.5 -72v536q-164 -2 -257.5 -72t-93.5 -196zM434 618v-536q164 2 257.5 72t93.5 196
t-93.5 196t-257.5 72z" />
    <glyph glyph-name="uni0425" unicode="&#x425;" horiz-adv-x="606" 
d="M41 0h-30l277 360l-262 340h30l247 -321l248 321h29l-262 -340l277 -360h-29l-263 340z" />
    <glyph glyph-name="uni0426" unicode="&#x426;" horiz-adv-x="760" 
d="M729 -177h-24v177h-600v700h25v-676h489v676h25v-676h85v-201z" />
    <glyph glyph-name="uni0427" unicode="&#x427;" horiz-adv-x="672" 
d="M567 0h-24v295q-119 -41 -232 -39q-125 2 -193 61t-68 174v209h25v-210q0 -105 63 -156.5t177 -53.5q115 -2 228 41v379h24v-700z" />
    <glyph glyph-name="uni0428" unicode="&#x428;" horiz-adv-x="1065" 
d="M960 0h-855v700h25v-676h390v676h25v-676h390v676h25v-700z" />
    <glyph glyph-name="uni0429" unicode="&#x429;" horiz-adv-x="1077" 
d="M1046 -177h-24v177h-917v700h25v-676h390v676h25v-676h390v676h25v-676h86v-201z" />
    <glyph glyph-name="uni042A" unicode="&#x42a;" horiz-adv-x="748" 
d="M420 0h-217v676h-188v24h212v-266h193q291 0 291 -217t-291 -217zM227 410v-386h193q266 0 266 193t-266 193h-193z" />
    <glyph glyph-name="uni042B" unicode="&#x42b;" horiz-adv-x="830" 
d="M322 0h-217v700h25v-266h192q292 0 292 -217t-292 -217zM130 410v-386h193q266 0 266 193t-266 193h-193zM725 0h-25v700h25v-700z" />
    <glyph glyph-name="uni042C" unicode="&#x42c;" horiz-adv-x="651" 
d="M322 0h-217v700h25v-266h192q292 0 292 -217t-292 -217zM130 410v-386h193q266 0 266 193t-266 193h-193z" />
    <glyph glyph-name="uni042D" unicode="&#x42d;" horiz-adv-x="658" 
d="M50 662q84 48 196 48q67 0 130 -23.5t114.5 -67.5t83 -115t31.5 -159q0 -89 -31.5 -159t-83.5 -111.5t-115 -63t-130 -21.5q-111 0 -195 49v25q86 -50 192 -50q63 0 121.5 19.5t107 57.5t78.5 102t31 145h-409v24h408q-3 103 -54 178.5t-124.5 110.5t-157.5 35
q-111 0 -193 -49v25z" />
    <glyph glyph-name="uni042E" unicode="&#x42e;" horiz-adv-x="1076" 
d="M1024 350q0 -66 -23 -129.5t-66.5 -115.5t-114 -83.5t-157.5 -31.5q-85 0 -155 30.5t-113 80.5t-67 111t-26 126h-172v-338h-25v700h25v-338h172q2 65 26 126t67 111t113 80.5t155 30.5q87 0 157.5 -31.5t114 -83.5t66.5 -115.5t23 -129.5zM326 350q0 -63 21.5 -121.5
t61.5 -107t106 -78t147 -29.5t147 29.5t106 78t61.5 107t21.5 121.5t-21.5 121.5t-61.5 107t-106 78t-147 29.5t-147 -29.5t-106 -78t-61.5 -107t-21.5 -121.5z" />
    <glyph glyph-name="uni042F" unicode="&#x42f;" horiz-adv-x="677" 
d="M69 0h-30l218 279q-88 14 -141 67t-53 141q0 102 72 157.5t184 55.5h253v-700h-25v274h-228q-23 0 -35 1zM89 487q0 -91 64 -140t166 -49h228v378h-228q-102 0 -166 -49t-64 -140z" />
    <glyph glyph-name="uni0430" unicode="&#x430;" horiz-adv-x="540" 
d="M444 70q0 -49 52 -49q20 0 37 7v-21q-21 -8 -42 -8q-30 0 -50.5 17t-20.5 53v36q-34 -55 -92 -85t-125 -30t-115 35.5t-48 101.5q0 77 60 114t146 37t174 -30v52q0 78 -44.5 123t-128.5 45q-89 0 -170 -30v24q80 28 171 28q94 0 145 -51t51 -141v-228zM64 128
q0 -56 42 -86.5t101 -30.5q66 0 124 33t89 93v89q-85 30 -172 30q-78 0 -131 -31t-53 -97z" />
    <glyph glyph-name="uni0431" unicode="&#x431;" horiz-adv-x="590" 
d="M541 224q0 -105 -66 -169.5t-174 -64.5q-111 0 -179 76t-68 196q0 112 42.5 198.5t110.5 128.5q57 35 116.5 52t100.5 29t68 40v-27q-27 -25 -67.5 -36.5t-96 -27.5t-107.5 -48q-119 -74 -143 -262q27 71 89.5 111t138.5 40q101 0 168 -66.5t67 -169.5zM78 255
q0 -105 61.5 -173.5t161.5 -68.5q97 0 156.5 58.5t59.5 152.5q0 93 -59.5 153t-153.5 60q-80 0 -143.5 -47.5t-82.5 -134.5z" />
    <glyph glyph-name="uni0432" unicode="&#x432;" horiz-adv-x="541" 
d="M337 0h-253v480h241q69 0 107 -33t38 -90q0 -42 -21.5 -71.5t-62.5 -39.5q103 -20 103 -121q0 -61 -42 -93t-110 -32zM108 233v-211h226q60 0 95.5 25.5t35.5 78.5q0 56 -35 81.5t-91 25.5h-231zM108 458v-203h218q59 0 89.5 26.5t30.5 74.5t-32 75t-92 27h-214z" />
    <glyph glyph-name="uni0433" unicode="&#x433;" horiz-adv-x="436" 
d="M108 0h-24v480h337v-23h-313v-457z" />
    <glyph glyph-name="uni0434" unicode="&#x434;" horiz-adv-x="601" 
d="M46 -138h-24v160h61q49 101 71.5 205.5t22.5 252.5h323v-458h69v-160h-24v138h-499v-138zM201 458q-1 -137 -23.5 -237t-68.5 -199h368v436h-276z" />
    <glyph glyph-name="uni0435" unicode="&#x435;" horiz-adv-x="543" 
d="M49 240q0 115 69.5 182.5t164.5 67.5q63 0 110 -25t70.5 -65t32 -85t1.5 -89h-424q3 -107 71.5 -160.5t168.5 -53.5q90 0 155 38v-24q-62 -36 -158 -36q-111 0 -186 63t-75 187zM476 248q5 51 -10.5 99t-62.5 84.5t-119 36.5q-86 0 -147.5 -58.5t-63.5 -161.5h403z" />
    <glyph glyph-name="uni0436" unicode="&#x436;" horiz-adv-x="709" 
d="M698 0h-28l-210 236h-93v-236h-24v236h-94l-210 -236h-28l217 247l-189 233h29l181 -221h94v221h24v-221h93l182 221h28l-189 -233z" />
    <glyph glyph-name="uni0437" unicode="&#x437;" horiz-adv-x="464" 
d="M412 126q0 -69 -56.5 -102.5t-141.5 -33.5q-97 0 -171 34v23q77 -35 169 -35q74 0 125 28t51 88q0 49 -38.5 77t-84.5 28h-122v22h122q113 11 113 99q0 56 -47.5 85t-118.5 29q-82 0 -163 -34v23q84 34 164 34q83 0 136 -35t53 -100q0 -44 -25.5 -73t-71.5 -37
q43 -10 75 -41.5t32 -78.5z" />
    <glyph glyph-name="uni0438" unicode="&#x438;" horiz-adv-x="584" 
d="M107 0h-23v480h24v-443l369 443h23v-480h-24v443z" />
    <glyph glyph-name="uni0439" unicode="&#x439;" horiz-adv-x="584" 
d="M416 604q-49 -41 -124 -41t-124 41v25q52 -44 124 -44t124 44v-25zM107 0h-23v480h24v-443l369 443h23v-480h-24v443z" />
    <glyph glyph-name="uni043A" unicode="&#x43a;" horiz-adv-x="495" 
d="M108 0h-24v480h24v-220h131l190 220h29l-200 -233l228 -247h-29l-220 237h-129v-237z" />
    <glyph glyph-name="uni043B" unicode="&#x43b;" horiz-adv-x="583" 
d="M206 457q-8 -229 -45 -346t-114 -117q-20 0 -41 7v21q16 -6 36 -6q67 0 100 116.5t40 347.5h317v-480h-24v457h-269z" />
    <glyph glyph-name="uni043C" unicode="&#x43c;" horiz-adv-x="662" 
d="M107 0h-23v480h26l221 -308l220 308h27v-480h-24v444l-215 -301h-17l-215 301v-444z" />
    <glyph glyph-name="uni043D" unicode="&#x43d;" horiz-adv-x="576" 
d="M108 0h-24v480h24v-229h360v229h24v-480h-24v229h-360v-229z" />
    <glyph glyph-name="uni043E" unicode="&#x43e;" horiz-adv-x="592" 
d="M49 240q0 115 72.5 182.5t174.5 67.5q103 0 175 -67.5t72 -182.5t-72 -182.5t-175 -67.5q-102 0 -174.5 67.5t-72.5 182.5zM519 240q0 105 -64.5 166t-158.5 61t-158.5 -61t-64.5 -166t64.5 -166t158.5 -61t158.5 61t64.5 166z" />
    <glyph glyph-name="uni043F" unicode="&#x43f;" horiz-adv-x="576" 
d="M108 0h-24v480h408v-480h-24v457h-360v-457z" />
    <glyph glyph-name="uni0440" unicode="&#x440;" horiz-adv-x="613" 
d="M106 355q31 60 89 97.5t131 37.5q104 0 171 -68t67 -182t-67 -182t-171 -68q-73 0 -131 37.5t-87 95.5v-343h-24v700h22v-125zM540 240q0 105 -60.5 166.5t-155.5 61.5q-76 0 -134.5 -44t-81.5 -111v-146q23 -67 81.5 -111t134.5 -44q95 0 155.5 61.5t60.5 166.5z" />
    <glyph glyph-name="uni0441" unicode="&#x441;" horiz-adv-x="497" 
d="M49 236q0 64 22.5 114.5t60 80t82 44.5t93.5 15q83 0 140 -39v-23q-58 40 -138 40q-97 0 -166.5 -59t-69.5 -173q0 -108 65.5 -166t158.5 -58q87 0 155 39v-24q-67 -37 -157 -37q-101 0 -173.5 63t-72.5 183z" />
    <glyph glyph-name="uni0442" unicode="&#x442;" horiz-adv-x="451" 
d="M237 0h-24v457h-199v23h423v-23h-200v-457z" />
    <glyph glyph-name="uni0443" unicode="&#x443;" horiz-adv-x="530" 
d="M277 25l204 455h26l-255 -568q-34 -77 -72 -109.5t-87 -32.5q-23 0 -49 6v22q24 -6 47 -6q45 0 78.5 31t62.5 100l33 75l-248 482h26z" />
    <glyph glyph-name="uni0444" unicode="&#x444;" horiz-adv-x="696" 
d="M360 -220h-24v210q-126 2 -207 68t-81 182t81 182t207 68v210h24v-210q126 -2 207 -68t81 -182t-81 -182t-207 -68v-210zM72 240q0 -106 73.5 -166t190.5 -62v456q-117 -2 -190.5 -62t-73.5 -166zM360 468v-456q117 2 190.5 62t73.5 166t-73.5 166t-190.5 62z" />
    <glyph glyph-name="uni0445" unicode="&#x445;" horiz-adv-x="482" 
d="M426 480h28l-198 -234l209 -246h-29l-195 229l-195 -229h-29l210 246l-199 234h29l184 -216z" />
    <glyph glyph-name="uni0446" unicode="&#x446;" horiz-adv-x="589" 
d="M557 -138h-23v138h-450v480h24v-457h357v457h24v-457h68v-161z" />
    <glyph glyph-name="uni0447" unicode="&#x447;" horiz-adv-x="516" 
d="M432 0h-24v185q-74 -32 -167 -32q-91 0 -143 42.5t-52 128.5v156h24v-154q0 -76 46 -113t129 -37q93 0 163 31v273h24v-480z" />
    <glyph glyph-name="uni0448" unicode="&#x448;" horiz-adv-x="806" 
d="M722 0h-638v480h24v-457h283v457h24v-457h283v457h24v-480z" />
    <glyph glyph-name="uni0449" unicode="&#x449;" horiz-adv-x="822" 
d="M790 -138h-23v138h-683v480h24v-457h283v457h24v-457h283v457h24v-457h68v-161z" />
    <glyph glyph-name="uni044A" unicode="&#x44a;" 
d="M177 296h184q81 0 130 -41.5t49 -106.5t-49 -106.5t-130 -41.5h-208v458h-138v22h162v-184zM177 22h182q72 0 114.5 35t42.5 91t-43 91t-114 35h-182v-252z" />
    <glyph glyph-name="uni044B" unicode="&#x44b;" horiz-adv-x="677" 
d="M292 0h-208v480h24v-184h184q81 0 130 -41.5t49 -106.5t-49 -106.5t-130 -41.5zM108 274v-252h182q72 0 114.5 35t42.5 91t-43 91t-114 35h-182zM593 0h-24v480h24v-480z" />
    <glyph glyph-name="uni044C" unicode="&#x44c;" horiz-adv-x="505" 
d="M292 0h-208v480h24v-184h184q81 0 130 -41.5t49 -106.5t-49 -106.5t-130 -41.5zM108 274v-252h182q72 0 114.5 35t42.5 91t-43 91t-114 35h-182z" />
    <glyph glyph-name="uni044D" unicode="&#x44d;" horiz-adv-x="503" 
d="M454 235q0 -123 -71.5 -184t-172.5 -61q-89 0 -165 42v23q76 -43 161 -43q60 0 108.5 20.5t81.5 71t34 125.5h-291v22h291q-5 106 -74 161.5t-162 55.5q-79 0 -144 -44v23q64 43 145 43q67 0 123.5 -25.5t96 -85t39.5 -144.5z" />
    <glyph glyph-name="uni044E" unicode="&#x44e;" horiz-adv-x="799" 
d="M750 240q0 -115 -72.5 -182.5t-175.5 -67.5q-99 0 -170.5 64.5t-75.5 174.5h-148v-229h-24v480h24v-229h148q4 110 75.5 174.5t170.5 64.5q103 0 175.5 -67.5t72.5 -182.5zM279 240q0 -105 64.5 -166t158.5 -61t158.5 61t64.5 166t-64.5 166t-158.5 61t-158.5 -61
t-64.5 -166z" />
    <glyph glyph-name="uni044F" unicode="&#x44f;" horiz-adv-x="538" 
d="M65 0h-28l148 196q-60 12 -94 49.5t-34 90.5q0 64 48.5 104t129.5 40h219v-480h-24v192h-195q-17 0 -25 1zM81 336q0 -55 42 -88.5t113 -33.5h194v244h-194q-72 0 -113.5 -33.5t-41.5 -88.5z" />
    <glyph glyph-name="uni0451" unicode="&#x451;" horiz-adv-x="543" 
d="M405 615q0 -9 -6.5 -16t-16.5 -7q-9 0 -16 7t-7 16q0 10 7 16.5t16 6.5q10 0 16.5 -6.5t6.5 -16.5zM204 615q0 -9 -6.5 -16t-16.5 -7q-9 0 -16 7t-7 16q0 10 7 16.5t16 6.5q10 0 16.5 -6.5t6.5 -16.5zM49 240q0 115 69.5 182.5t164.5 67.5q63 0 110 -25t70.5 -65t32 -85
t1.5 -89h-424q3 -107 71.5 -160.5t168.5 -53.5q90 0 155 38v-24q-62 -36 -158 -36q-111 0 -186 63t-75 187zM476 248q5 51 -10.5 99t-62.5 84.5t-119 36.5q-86 0 -147.5 -58.5t-63.5 -161.5h403z" />
    <glyph glyph-name="Wgrave" unicode="&#x1e80;" horiz-adv-x="987" 
d="M931 700h28l-224 -700h-27l-215 651l-214 -651h-27l-224 700h27l210 -666l217 658h23l216 -658zM526 778h-28l-90 133h30z" />
    <glyph glyph-name="wgrave" unicode="&#x1e81;" horiz-adv-x="798" 
d="M746 480h25l-184 -480h-24l-164 441l-163 -441h-24l-185 480h26l171 -449l163 441h24l164 -441zM432 558h-28l-90 133h30z" />
    <glyph glyph-name="Wacute" unicode="&#x1e82;" horiz-adv-x="987" 
d="M931 700h28l-224 -700h-27l-215 651l-214 -651h-27l-224 700h27l210 -666l217 658h23l216 -658zM484 778h-28l88 133h30z" />
    <glyph glyph-name="wacute" unicode="&#x1e83;" horiz-adv-x="798" 
d="M746 480h25l-184 -480h-24l-164 441l-163 -441h-24l-185 480h26l171 -449l163 441h24l164 -441zM390 558h-28l88 133h30z" />
    <glyph glyph-name="Wdieresis" unicode="&#x1e84;" horiz-adv-x="987" 
d="M931 700h28l-224 -700h-27l-215 651l-214 -651h-27l-224 700h27l210 -666l217 658h23l216 -658zM616 835q0 -9 -6.5 -16t-16.5 -7q-9 0 -16 7t-7 16q0 10 7 16.5t16 6.5q10 0 16.5 -6.5t6.5 -16.5zM415 835q0 -9 -6.5 -16t-16.5 -7q-9 0 -16 7t-7 16q0 10 7 16.5t16 6.5
q10 0 16.5 -6.5t6.5 -16.5z" />
    <glyph glyph-name="wdieresis" unicode="&#x1e85;" horiz-adv-x="798" 
d="M746 480h25l-184 -480h-24l-164 441l-163 -441h-24l-185 480h26l171 -449l163 441h24l164 -441zM522 615q0 -9 -6.5 -16t-16.5 -7q-9 0 -16 7t-7 16q0 10 7 16.5t16 6.5q10 0 16.5 -6.5t6.5 -16.5zM321 615q0 -9 -6.5 -16t-16.5 -7q-9 0 -16 7t-7 16q0 10 7 16.5t16 6.5
q10 0 16.5 -6.5t6.5 -16.5z" />
    <glyph glyph-name="Ygrave" unicode="&#x1ef2;" horiz-adv-x="625" 
d="M325 0h-25v284l-276 416h28l260 -392l260 392h28l-275 -416v-284zM346 778h-28l-90 133h30z" />
    <glyph glyph-name="ygrave" unicode="&#x1ef3;" horiz-adv-x="530" 
d="M277 25l204 455h26l-255 -568q-34 -77 -72 -109.5t-87 -32.5q-23 0 -49 6v22q24 -6 47 -6q45 0 78.5 31t62.5 100l33 75l-248 482h26zM291 558h-28l-90 133h30z" />
    <glyph glyph-name="endash" unicode="&#x2013;" horiz-adv-x="567" 
d="M496 231h-425v23h425v-23z" />
    <glyph glyph-name="emdash" unicode="&#x2014;" horiz-adv-x="749" 
d="M678 231h-607v23h607v-23z" />
    <glyph glyph-name="quoteleft" unicode="&#x2018;" horiz-adv-x="181" 
d="M84 486h-25l54 214h21z" />
    <glyph glyph-name="quoteright" unicode="&#x2019;" horiz-adv-x="180" 
d="M81 486h-21l50 214h25z" />
    <glyph glyph-name="quotesinglbase" unicode="&#x201a;" horiz-adv-x="170" 
d="M53 -142h-21l50 214h25z" />
    <glyph glyph-name="quotedblleft" unicode="&#x201c;" horiz-adv-x="305" 
d="M208 486h-25l54 214h21zM84 486h-25l54 214h21z" />
    <glyph glyph-name="quotedblright" unicode="&#x201d;" horiz-adv-x="304" 
d="M205 486h-21l50 214h25zM81 486h-21l50 214h25z" />
    <glyph glyph-name="quotedblbase" unicode="&#x201e;" horiz-adv-x="294" 
d="M177 -142h-21l50 214h25zM53 -142h-21l50 214h25z" />
    <glyph glyph-name="dagger" unicode="&#x2020;" horiz-adv-x="482" 
d="M253 -220h-24v676h-193v24h193v220h24v-220h193v-24h-193v-676z" />
    <glyph glyph-name="daggerdbl" unicode="&#x2021;" horiz-adv-x="514" 
d="M269 -220h-25v339h-192v24h192v313h-192v24h192v220h25v-220h193v-24h-193v-313h193v-24h-193v-339z" />
    <glyph glyph-name="bullet" unicode="&#x2022;" horiz-adv-x="280" 
d="M99 350q0 18 11.5 29t28.5 11t29 -11t12 -29t-12 -29t-29 -11t-28.5 11t-11.5 29z" />
    <glyph glyph-name="ellipsis" unicode="&#x2026;" horiz-adv-x="437" 
d="M374 16q0 -10 -6.5 -16t-16.5 -6q-9 0 -15.5 6.5t-6.5 15.5t6.5 15.5t15.5 6.5q10 0 16.5 -6t6.5 -16zM107 16q0 -10 -6.5 -16t-15.5 -6t-16 6.5t-7 15.5t7 15.5t16 6.5t15.5 -6t6.5 -16zM241 16q0 -10 -6.5 -16t-15.5 -6t-16 6.5t-7 15.5t7 15.5t16 6.5t15.5 -6t6.5 -16
z" />
    <glyph glyph-name="perthousand" unicode="&#x2030;" horiz-adv-x="1237" 
d="M244 -60h-25l409 820h25zM331 567q0 -68 -42.5 -105.5t-104.5 -37.5q-61 0 -104.5 37.5t-43.5 105.5t43.5 105.5t104.5 37.5q62 0 104.5 -37.5t42.5 -105.5zM59 567q0 -56 36 -88.5t89 -32.5t88.5 32.5t35.5 88.5t-35.5 88.5t-88.5 32.5t-89 -32.5t-36 -88.5zM836 133
q0 -68 -43 -105.5t-104 -37.5q-62 0 -105 37.5t-43 105.5t43 105.5t105 37.5q61 0 104 -37.5t43 -105.5zM564 133q0 -56 36 -88.5t89 -32.5t88.5 32.5t35.5 88.5t-35.5 88.5t-88.5 32.5t-89 -32.5t-36 -88.5zM1201 133q0 -68 -43 -105.5t-104 -37.5q-62 0 -105 37.5
t-43 105.5t43 105.5t105 37.5q61 0 104 -37.5t43 -105.5zM929 133q0 -56 36 -88.5t89 -32.5t88.5 32.5t35.5 88.5t-35.5 88.5t-88.5 32.5t-89 -32.5t-36 -88.5z" />
    <glyph glyph-name="guilsinglleft" unicode="&#x2039;" horiz-adv-x="265" 
d="M197 69h-27l-118 167v8l118 167h27l-121 -171z" />
    <glyph glyph-name="guilsinglright" unicode="&#x203a;" horiz-adv-x="265" 
d="M95 69h-27l121 171l-121 171h27l118 -167v-8z" />
    <glyph glyph-name="fraction" unicode="&#x2044;" horiz-adv-x="162" 
d="M-140 -11h-17l456 721h17z" />
    <glyph glyph-name="Euro" unicode="&#x20ac;" horiz-adv-x="741" 
d="M671 39q-84 -49 -195 -49q-122 0 -219 69t-123 197h-87v22h84q-5 30 -5 58q0 34 6 66h-85v22h89q27 125 124 195.5t216 70.5q111 0 195 -48v-25q-84 49 -193 49q-110 0 -199.5 -64t-116.5 -178h395v-22h-400q-6 -32 -6 -66q0 -28 5 -58h401v-22h-397
q25 -117 115.5 -179.5t204.5 -62.5q106 0 191 50v-25z" />
    <glyph glyph-name="trademark" unicode="&#x2122;" horiz-adv-x="655" 
d="M323 449h-18v251h20l113 -157l114 157h19v-251h-17v225l-110 -152h-12l-109 152v-225zM158 449h-18v234h-93v17h204v-17h-93v-234z" />
    <glyph glyph-name="oneeighth" unicode="&#x215b;" horiz-adv-x="897" 
d="M553 315q0 41 37.5 70t106.5 29q66 0 105 -31.5t40 -73.5q0 -73 -68 -113q83 -32 83 -97q0 -43 -41.5 -74t-117.5 -31q-77 0 -118.5 32.5t-41.5 82.5q0 80 80 118q-65 31 -65 88zM699 199q-39 10 -62 19q-36 -16 -56.5 -44.5t-20.5 -61.5q0 -44 35.5 -71t102.5 -27
q64 0 100.5 24.5t36.5 59.5q0 18 -8.5 33t-18.5 24.5t-32.5 18.5t-35.5 13t-41 12zM820 305q0 36 -33 62.5t-90 26.5t-89.5 -23t-32.5 -56q0 -18 9 -33t18.5 -23.5t31 -17.5t30.5 -11.5t33 -9.5q5 -1 25.5 -7t31.5 -9q66 35 66 101zM197 -11h-17l456 721h17zM161 680h16
v-387h78v-21h-203v21h103v363l-93 -35v21z" />
    <glyph glyph-name="threeeighths" unicode="&#x215c;" horiz-adv-x="952" 
d="M607 315q0 41 37.5 70t106.5 29q66 0 105 -31.5t40 -73.5q0 -73 -68 -113q83 -32 83 -97q0 -43 -41.5 -74t-117.5 -31q-77 0 -118.5 32.5t-41.5 82.5q0 80 80 118q-65 31 -65 88zM753 199q-39 10 -62 19q-36 -16 -56.5 -44.5t-20.5 -61.5q0 -44 35.5 -71t102.5 -27
q64 0 100.5 24.5t36.5 59.5q0 18 -8.5 33t-18.5 24.5t-32.5 18.5t-35.5 13t-41 12zM874 305q0 36 -33 62.5t-90 26.5t-89.5 -23t-32.5 -56q0 -18 9 -33t18.5 -23.5t31 -17.5t30.5 -11.5t33 -9.5q5 -1 25.5 -7t31.5 -9q66 35 66 101zM261 -11h-17l456 721h17zM322 582
q0 -34 -19.5 -59.5t-57.5 -33.5q94 -19 94 -105q0 -54 -38.5 -84t-100.5 -30q-87 0 -142 26v22q57 -27 141 -27q54 0 86.5 24.5t32.5 69.5q0 47 -33.5 69t-86.5 22h-60v21h58q52 0 78.5 24.5t26.5 59.5q0 38 -30 63t-82 25q-65 0 -124 -27v22q55 26 126 26q60 0 95.5 -31
t35.5 -77z" />
    <glyph glyph-name="fiveeighths" unicode="&#x215d;" horiz-adv-x="941" 
d="M596 315q0 41 37.5 70t106.5 29q66 0 105 -31.5t40 -73.5q0 -73 -68 -113q83 -32 83 -97q0 -43 -41.5 -74t-117.5 -31q-77 0 -118.5 32.5t-41.5 82.5q0 80 80 118q-65 31 -65 88zM742 199q-39 10 -62 19q-36 -16 -56.5 -44.5t-20.5 -61.5q0 -44 35.5 -71t102.5 -27
q64 0 100.5 24.5t36.5 59.5q0 18 -8.5 33t-18.5 24.5t-32.5 18.5t-35.5 13t-41 12zM863 305q0 36 -33 62.5t-90 26.5t-89.5 -23t-32.5 -56q0 -18 9 -33t18.5 -23.5t31 -17.5t30.5 -11.5t33 -9.5q5 -1 25.5 -7t31.5 -9q66 35 66 101zM250 -11h-17l456 721h17zM78 680h235v-21
h-213l-11 -164q45 15 94 15q64 0 107 -30.5t43 -91.5q0 -55 -41 -88.5t-107 -33.5q-76 0 -130 27v21q57 -27 128 -27q58 0 93 27.5t35 73.5q0 52 -37.5 76.5t-97.5 24.5q-56 0 -111 -19z" />
    <glyph glyph-name="seveneighths" unicode="&#x215e;" horiz-adv-x="833" 
d="M140 -11h-17l456 721h17zM487 315q0 41 37.5 70t106.5 29q66 0 105 -31.5t40 -73.5q0 -73 -68 -113q83 -32 83 -97q0 -43 -41.5 -74t-117.5 -31q-77 0 -118.5 32.5t-41.5 82.5q0 80 80 118q-65 31 -65 88zM633 199q-39 10 -62 19q-36 -16 -56.5 -44.5t-20.5 -61.5
q0 -44 35.5 -71t102.5 -27q64 0 100.5 24.5t36.5 59.5q0 18 -8.5 33t-18.5 24.5t-32.5 18.5t-35.5 13t-41 12zM754 305q0 36 -33 62.5t-90 26.5t-89.5 -23t-32.5 -56q0 -18 9 -33t18.5 -23.5t31 -17.5t30.5 -11.5t33 -9.5q5 -1 25.5 -7t31.5 -9q66 35 66 101zM136 272h-24
l170 387h-244v21h269v-19z" />
    <glyph glyph-name="partialdiff" unicode="&#x2202;" horiz-adv-x="595" 
d="M537 266q0 -126 -67.5 -201t-178.5 -75q-106 0 -174 64t-68 170q0 98 68 161.5t165 63.5q83 0 149.5 -49t82.5 -140v24q-4 127 -62.5 218t-149 133t-201.5 42v23q88 0 166 -27.5t138.5 -80.5t96 -137t35.5 -189zM73 224q0 -96 60.5 -153.5t157.5 -57.5q87 0 143.5 50
t72.5 137q-2 108 -68 167t-155 59q-88 0 -149.5 -56.5t-61.5 -145.5z" />
    <glyph glyph-name="emptyset" unicode="&#x2205;" horiz-adv-x="822" 
d="M721 700l-70 -81q57 -50 89 -120.5t32 -148.5q0 -148 -106 -254t-254 -106q-129 0 -230 82l-61 -72h-19l70 82q-57 51 -89 120.5t-32 147.5q0 149 106 254.5t255 105.5q128 0 228 -82l62 72h19zM412 694q-142 0 -243 -101t-101 -243q0 -75 30.5 -141.5t84.5 -114.5
l447 521q-97 79 -218 79zM194 85q97 -79 218 -79q142 0 243 101t101 243q0 75 -30.5 141.5t-84.5 114.5z" />
    <glyph glyph-name="product" unicode="&#x220f;" horiz-adv-x="722" 
d="M165 -220h-25v896h-103v24h648v-24h-103v-896h-25v896h-392v-896z" />
    <glyph glyph-name="summation" unicode="&#x2211;" horiz-adv-x="562" 
d="M507 0h-467v16l291 334l-291 334v16h462v-24h-423l280 -322v-8l-280 -322h428v-24z" />
    <glyph glyph-name="minus" unicode="&#x2212;" horiz-adv-x="512" 
d="M438 337h-364v24h364v-24z" />
    <glyph glyph-name="radical" unicode="&#x221a;" horiz-adv-x="713" 
d="M342 0h-23l-193 456h-94v24h109l190 -451l351 751h27z" />
    <glyph glyph-name="infinity" unicode="&#x221e;" horiz-adv-x="823" 
d="M411 378q22 35 37.5 55.5t39.5 44.5t53 35.5t63 11.5q68 0 114.5 -45.5t46.5 -121.5t-46.5 -121.5t-114.5 -45.5q-34 0 -63 11.5t-53 35.5t-39.5 44.5t-37.5 55.5q-22 -35 -37 -55.5t-39.5 -44.5t-53 -35.5t-62.5 -11.5q-68 0 -114.5 45.5t-46.5 121.5t46.5 121.5
t114.5 45.5q64 0 106 -38t86 -109zM398 358q-22 36 -36 55t-36.5 43t-48 35t-56.5 11q-59 0 -99 -38.5t-40 -105.5t40 -105.5t99 -38.5q31 0 56.5 11t48 35t36.5 43t36 55zM741 358q0 67 -40 105.5t-99 38.5q-31 0 -56.5 -11t-48 -35t-36.5 -43t-36 -55q22 -36 36 -55
t36.5 -43t48 -35t56.5 -11q59 0 99 38.5t40 105.5z" />
    <glyph glyph-name="integral" unicode="&#x222b;" horiz-adv-x="389" 
d="M183 661q0 67 38 98t90 31q41 0 67 -13v-23q-29 13 -65 13q-44 0 -75 -25t-31 -81v-762q0 -67 -38.5 -98t-90.5 -31q-37 0 -67 13v23q29 -13 64 -13q45 0 76.5 25t31.5 81v762z" />
    <glyph glyph-name="approxequal" unicode="&#x2248;" horiz-adv-x="577" 
d="M503 466q0 -36 -22.5 -59t-60.5 -23q-37 0 -129 35t-128 35q-29 0 -45.5 -16.5t-15.5 -43.5h-23q-1 37 21.5 60t60.5 23t129.5 -35t127.5 -35q29 0 45.5 16t16.5 43h23zM503 324q0 -36 -22.5 -59.5t-60.5 -23.5q-37 0 -129 35t-128 35q-29 0 -45.5 -16t-15.5 -43h-23
q-1 36 21.5 59t60.5 23t129.5 -35t127.5 -35q29 0 45.5 16.5t16.5 43.5h23z" />
    <glyph glyph-name="notequal" unicode="&#x2260;" horiz-adv-x="537" 
d="M150 146h-23l65 102h-118v23h132l101 158h-233v23h247l65 102h24l-65 -102h118v-23h-132l-101 -158h233v-23h-248z" />
    <glyph glyph-name="lessequal" unicode="&#x2264;" horiz-adv-x="520" 
d="M434 205v-24l-356 161v26l356 161v-25l-331 -149zM434 0h-356v23h356v-23z" />
    <glyph glyph-name="greaterequal" unicode="&#x2265;" horiz-adv-x="520" 
d="M442 342l-356 -161v24l331 150l-331 149v25l356 -161v-26zM442 0h-356v23h356v-23z" />
    <glyph glyph-name="lozenge" unicode="&#x25ca;" horiz-adv-x="540" 
d="M284 0h-27l-217 350l217 350h27l216 -350zM68 350l203 -326l202 326l-202 326z" />
    <glyph glyph-name="i.loclTRK" horiz-adv-x="198" 
d="M87 480h24v-480h-24v480zM70 597q0 12 8 20t20 8t20 -8t8 -20t-8 -19.5t-20 -7.5t-20 7.5t-8 19.5z" />
    <glyph glyph-name="a.ss01" horiz-adv-x="613" 
d="M507 125q-29 -60 -86 -97.5t-130 -37.5q-104 0 -173 68.5t-69 181.5t69 181.5t173 68.5q73 0 130 -37.5t86 -97.5v125h22v-480h-22v125zM73 240q0 -104 63 -166t157 -62q76 0 133 44t79 111v146q-22 67 -79 111t-133 44q-95 0 -157.5 -62t-62.5 -166z" />
    <glyph glyph-name="aacute.ss01" horiz-adv-x="613" 
d="M507 125q-29 -60 -86 -97.5t-130 -37.5q-104 0 -173 68.5t-69 181.5t69 181.5t173 68.5q73 0 130 -37.5t86 -97.5v125h22v-480h-22v125zM73 240q0 -104 63 -166t157 -62q76 0 133 44t79 111v146q-22 67 -79 111t-133 44q-95 0 -157.5 -62t-62.5 -166zM297 558h-28l88 133
h30z" />
    <glyph glyph-name="abreve.ss01" horiz-adv-x="613" 
d="M507 125q-29 -60 -86 -97.5t-130 -37.5q-104 0 -173 68.5t-69 181.5t69 181.5t173 68.5q73 0 130 -37.5t86 -97.5v125h22v-480h-22v125zM73 240q0 -104 63 -166t157 -62q76 0 133 44t79 111v146q-22 67 -79 111t-133 44q-95 0 -157.5 -62t-62.5 -166zM430 603
q-48 -41 -124 -41t-124 41v26q52 -44 124 -44t124 44v-26z" />
    <glyph glyph-name="acircumflex.ss01" horiz-adv-x="613" 
d="M507 125q-29 -60 -86 -97.5t-130 -37.5q-104 0 -173 68.5t-69 181.5t69 181.5t173 68.5q73 0 130 -37.5t86 -97.5v125h22v-480h-22v125zM73 240q0 -104 63 -166t157 -62q76 0 133 44t79 111v146q-22 67 -79 111t-133 44q-95 0 -157.5 -62t-62.5 -166zM296 683h21
l127 -125h-29l-108 106l-108 -106h-29z" />
    <glyph glyph-name="adieresis.ss01" horiz-adv-x="613" 
d="M507 125q-29 -60 -86 -97.5t-130 -37.5q-104 0 -173 68.5t-69 181.5t69 181.5t173 68.5q73 0 130 -37.5t86 -97.5v125h22v-480h-22v125zM73 240q0 -104 63 -166t157 -62q76 0 133 44t79 111v146q-22 67 -79 111t-133 44q-95 0 -157.5 -62t-62.5 -166zM429 615
q0 -9 -6.5 -16t-16.5 -7q-9 0 -16 7t-7 16q0 10 7 16.5t16 6.5q10 0 16.5 -6.5t6.5 -16.5zM228 615q0 -9 -6.5 -16t-16.5 -7q-9 0 -16 7t-7 16q0 10 7 16.5t16 6.5q10 0 16.5 -6.5t6.5 -16.5z" />
    <glyph glyph-name="agrave.ss01" horiz-adv-x="613" 
d="M507 125q-29 -60 -86 -97.5t-130 -37.5q-104 0 -173 68.5t-69 181.5t69 181.5t173 68.5q73 0 130 -37.5t86 -97.5v125h22v-480h-22v125zM73 240q0 -104 63 -166t157 -62q76 0 133 44t79 111v146q-22 67 -79 111t-133 44q-95 0 -157.5 -62t-62.5 -166zM339 558h-28
l-90 133h30z" />
    <glyph glyph-name="amacron.ss01" horiz-adv-x="613" 
d="M507 125q-29 -60 -86 -97.5t-130 -37.5q-104 0 -173 68.5t-69 181.5t69 181.5t173 68.5q73 0 130 -37.5t86 -97.5v125h22v-480h-22v125zM73 240q0 -104 63 -166t157 -62q76 0 133 44t79 111v146q-22 67 -79 111t-133 44q-95 0 -157.5 -62t-62.5 -166zM180 614h252v-23
h-252v23z" />
    <glyph glyph-name="aogonek.ss01" horiz-adv-x="613" 
d="M529 480v-480q-55 -45 -84 -81t-29 -72q0 -27 16.5 -42t43.5 -15q26 0 53 11v-21q-27 -11 -57 -11q-36 0 -57.5 19.5t-21.5 54.5q0 72 114 166v116q-29 -60 -86 -97.5t-130 -37.5q-104 0 -173 68.5t-69 181.5t69 181.5t173 68.5q73 0 130 -37.5t86 -97.5v125h22zM293 12
q76 0 133 44t79 111v146q-22 67 -79 111t-133 44q-95 0 -157.5 -62t-62.5 -166t63 -166t157 -62z" />
    <glyph glyph-name="aring.ss01" horiz-adv-x="613" 
d="M507 125q-29 -60 -86 -97.5t-130 -37.5q-104 0 -173 68.5t-69 181.5t69 181.5t173 68.5q73 0 130 -37.5t86 -97.5v125h22v-480h-22v125zM73 240q0 -104 63 -166t157 -62q76 0 133 44t79 111v146q-22 67 -79 111t-133 44q-95 0 -157.5 -62t-62.5 -166zM390 620
q0 -36 -25 -59t-59 -23t-59.5 23t-25.5 59t25.5 59t59.5 23t59 -23t25 -59zM241 620q0 -28 19.5 -45.5t45.5 -17.5t45 17.5t19 45.5t-19 45.5t-45 17.5t-45.5 -18t-19.5 -45z" />
    <glyph glyph-name="atilde.ss01" horiz-adv-x="613" 
d="M507 125q-29 -60 -86 -97.5t-130 -37.5q-104 0 -173 68.5t-69 181.5t69 181.5t173 68.5q73 0 130 -37.5t86 -97.5v125h22v-480h-22v125zM73 240q0 -104 63 -166t157 -62q76 0 133 44t79 111v146q-22 67 -79 111t-133 44q-95 0 -157.5 -62t-62.5 -166zM450 641
q4 -32 -11.5 -52t-45.5 -20q-28 0 -87 28t-81 28q-21 0 -31.5 -14t-7.5 -37h-22q-4 31 12 52t45 21q27 0 86.5 -28t81.5 -28q44 0 39 50h22z" />
    <glyph glyph-name="ae.ss01" horiz-adv-x="1004" 
d="M507 125q-29 -60 -86 -97.5t-130 -37.5q-104 0 -173 68.5t-69 181.5t69 181.5t173 68.5q73 0 130 -37.5t86 -97.5v125h22v-146q24 74 83 115t132 41q63 0 109.5 -25t69.5 -65.5t31 -86.5t1 -92h-424q4 -104 72 -156.5t168 -52.5q90 0 155 38v-23q-65 -37 -156 -37
q-85 0 -150.5 38.5t-90.5 115.5v-144h-22v125zM73 240q0 -104 63 -166t157 -62q76 0 133 44t79 111v146q-22 67 -79 111t-133 44q-95 0 -157.5 -62t-62.5 -166zM742 468q-87 0 -148 -59.5t-63 -165.5h403q4 39 -5 77t-29.5 72t-61.5 55t-96 21z" />
    <glyph glyph-name="y.ss01" 
d="M490 -8q-1 -113 -70 -167.5t-163 -54.5q-99 0 -160 36v23q63 -37 158 -37q87 0 149 49t62 151v114q-30 -46 -82 -81t-121 -35q-82 0 -134 52.5t-52 142.5v295h24v-293q0 -83 45.5 -129t118.5 -46q70 0 121 38t80 91v339h24v-488z" />
    <glyph glyph-name="yacute.ss01" 
d="M490 -8q-1 -113 -70 -167.5t-163 -54.5q-99 0 -160 36v23q63 -37 158 -37q87 0 149 49t62 151v114q-30 -46 -82 -81t-121 -35q-82 0 -134 52.5t-52 142.5v295h24v-293q0 -83 45.5 -129t118.5 -46q70 0 121 38t80 91v339h24v-488zM282 558h-28l88 133h30z" />
    <glyph glyph-name="ycircumflex.ss01" 
d="M490 -8q-1 -113 -70 -167.5t-163 -54.5q-99 0 -160 36v23q63 -37 158 -37q87 0 149 49t62 151v114q-30 -46 -82 -81t-121 -35q-82 0 -134 52.5t-52 142.5v295h24v-293q0 -83 45.5 -129t118.5 -46q70 0 121 38t80 91v339h24v-488zM281 683h21l127 -125h-29l-108 106
l-108 -106h-29z" />
    <glyph glyph-name="ydieresis.ss01" 
d="M490 -8q-1 -113 -70 -167.5t-163 -54.5q-99 0 -160 36v23q63 -37 158 -37q87 0 149 49t62 151v114q-30 -46 -82 -81t-121 -35q-82 0 -134 52.5t-52 142.5v295h24v-293q0 -83 45.5 -129t118.5 -46q70 0 121 38t80 91v339h24v-488zM414 615q0 -9 -6.5 -16t-16.5 -7
q-9 0 -16 7t-7 16q0 10 7 16.5t16 6.5q10 0 16.5 -6.5t6.5 -16.5zM213 615q0 -9 -6.5 -16t-16.5 -7q-9 0 -16 7t-7 16q0 10 7 16.5t16 6.5q10 0 16.5 -6.5t6.5 -16.5z" />
    <glyph glyph-name="ygrave.ss01" 
d="M490 -8q-1 -113 -70 -167.5t-163 -54.5q-99 0 -160 36v23q63 -37 158 -37q87 0 149 49t62 151v114q-30 -46 -82 -81t-121 -35q-82 0 -134 52.5t-52 142.5v295h24v-293q0 -83 45.5 -129t118.5 -46q70 0 121 38t80 91v339h24v-488zM324 558h-28l-90 133h30z" />
    <glyph glyph-name="f_b" horiz-adv-x="952" 
d="M447 357q29 58 87 95.5t131 37.5q104 0 171 -68t67 -182t-67 -182t-171 -68q-73 0 -131 37.5t-89 97.5v-125h-22v648q-70 40 -153 40q-63 0 -101.5 -35t-38.5 -97v-76h195v-23h-195v-457h-24v457h-82v23h82v76q0 74 46.5 114t116.5 40q84 0 154 -39v25l24 8v-347z
M447 167q23 -67 81.5 -111t134.5 -44q95 0 155.5 61.5t60.5 166.5t-60.5 166.5t-155.5 61.5q-76 0 -134.5 -44t-81.5 -111v-146z" />
    <glyph glyph-name="f_f_b" horiz-adv-x="1262" 
d="M757 357q29 58 87 95.5t131 37.5q104 0 171 -68t67 -182t-67 -182t-171 -68q-73 0 -131 37.5t-89 97.5v-125h-22v650q-70 40 -153 40q-64 0 -102 -35.5t-38 -98.5v-76h195v-23h-195v-457h-24v457h-286v-457h-24v457h-82v23h82v58q0 75 47.5 114.5t123.5 39.5
q83 0 160 -53q39 73 142 73q84 0 154 -39v25l24 8v-349zM416 480v76q0 37 12 64q-73 50 -150 50q-69 0 -108.5 -35t-39.5 -97v-58h286zM757 167q23 -67 81.5 -111t134.5 -44q95 0 155.5 61.5t60.5 166.5t-60.5 166.5t-155.5 61.5q-76 0 -134.5 -44t-81.5 -111v-146z" />
    <glyph glyph-name="f_f_h" horiz-adv-x="1223" 
d="M757 374q30 46 82 81t121 35q80 0 133 -52.5t53 -142.5v-295h-24v293q0 82 -46 128.5t-118 46.5q-70 0 -121 -38t-80 -91v-339h-24v650q-70 40 -153 40q-64 0 -102 -35.5t-38 -98.5v-76h195v-23h-195v-457h-24v457h-286v-457h-24v457h-82v23h82v58q0 75 47.5 114.5
t123.5 39.5q83 0 160 -53q39 73 142 73q84 0 154 -39v25l24 8v-332zM416 480v76q0 37 12 64q-73 50 -150 50q-69 0 -108.5 -35t-39.5 -97v-58h286z" />
    <glyph glyph-name="f_f_j" horiz-adv-x="834" 
d="M747 -116q0 -61 -33.5 -87.5t-82.5 -26.5q-37 0 -68 11v23q33 -12 64 -12q42 0 69 22t27 72v571h-283v-457h-24v457h-286v-457h-24v457h-82v23h82v58q0 75 47.5 114.5t123.5 39.5q82 0 158 -52q42 72 144 72q83 0 157 -45v-25q-75 48 -156 48q-63 0 -101.5 -34t-38.5 -92
v-84h307v-596zM130 538v-58h286v84q0 29 10 57q-70 49 -148 49q-69 0 -108.5 -35t-39.5 -97z" />
    <glyph glyph-name="f_f_k" horiz-adv-x="1139" 
d="M1107 480l-200 -233l228 -247h-29l-220 237h-129v-237h-24v650q-70 40 -153 40q-64 0 -102 -35.5t-38 -98.5v-76h195v-23h-195v-457h-24v457h-286v-457h-24v457h-82v23h82v58q0 75 47.5 114.5t123.5 39.5q83 0 160 -53q39 73 142 73q84 0 154 -39v25l24 8v-446h131
l190 220h29zM416 480v76q0 37 12 64q-73 50 -150 50q-69 0 -108.5 -35t-39.5 -97v-58h286z" />
    <glyph glyph-name="f_h" horiz-adv-x="913" 
d="M447 374q30 46 82 81t121 35q80 0 133 -52.5t53 -142.5v-295h-24v293q0 82 -46 128.5t-118 46.5q-70 0 -121 -38t-80 -91v-339h-24v648q-70 40 -153 40q-63 0 -101.5 -35t-38.5 -97v-76h195v-23h-195v-457h-24v457h-82v23h82v76q0 74 46.5 114t116.5 40q84 0 154 -39v25
l24 8v-330z" />
    <glyph glyph-name="f_i" horiz-adv-x="524" 
d="M130 480h307v-480h-24v457h-283v-457h-24v457h-82v23h82v76q0 74 46.5 114t116.5 40q83 0 157 -45v-25q-75 48 -156 48q-63 0 -101.5 -35t-38.5 -97v-76z" />
    <glyph glyph-name="f_j" horiz-adv-x="524" 
d="M130 480h307v-596q0 -61 -33.5 -87.5t-82.5 -26.5q-37 0 -68 11v23q33 -12 64 -12q42 0 69 22t27 72v571h-283v-457h-24v457h-82v23h82v76q0 74 46.5 114t116.5 40q83 0 157 -45v-25q-75 48 -156 48q-63 0 -101.5 -35t-38.5 -97v-76z" />
    <glyph glyph-name="f_k" horiz-adv-x="829" 
d="M797 480l-200 -233l228 -247h-29l-220 237h-129v-237h-24v648q-70 40 -153 40q-63 0 -101.5 -35t-38.5 -97v-76h195v-23h-195v-457h-24v457h-82v23h82v76q0 74 46.5 114t116.5 40q84 0 154 -39v25l24 8v-444h131l190 220h29z" />
    <glyph glyph-name="f_l" horiz-adv-x="534" 
d="M423 671v25l24 8v-704h-24v648q-70 40 -153 40q-63 0 -101.5 -35t-38.5 -97v-76h195v-23h-195v-457h-24v457h-82v23h82v76q0 74 46.5 114t116.5 40q84 0 154 -39z" />
    <glyph glyph-name="uni0414.loclBGR" horiz-adv-x="795" 
d="M52 -177h-24v201h72l283 676h29l283 -676h72v-201h-24v177h-691v-177zM398 674l-271 -650h541z" />
    <glyph glyph-name="uni041B.loclBGR" horiz-adv-x="671" 
d="M323 700h25l306 -700h-26l-292 672l-292 -672h-27z" />
    <glyph glyph-name="uni0424.loclBGR" horiz-adv-x="883" 
d="M454 -108h-25v99q-170 3 -273.5 104t-103.5 255t103.5 255t273.5 104v99h25v-99q170 -3 273.5 -104t103.5 -255t-103.5 -255t-273.5 -104v-99zM77 350q0 -144 96 -238t256 -97v670q-160 -3 -256 -97t-96 -238zM454 685v-670q160 3 256 97t96 238t-96 238t-256 97z" />
    <glyph glyph-name="uni0432.loclBGR" 
d="M483 551q0 -115 -129 -163q74 -7 123.5 -61t49.5 -133q0 -89 -61.5 -146.5t-160.5 -57.5q-107 0 -170.5 69.5t-63.5 206.5v105q-1 164 59.5 251.5t177.5 87.5q78 0 126.5 -45t48.5 -114zM459 550q0 59 -41.5 98.5t-109.5 39.5q-213 0 -213 -317v-16l198 35
q80 14 123 56.5t43 103.5zM95 266q0 -128 57 -191t153 -63q86 0 142 49.5t56 132.5q0 86 -62 137.5t-150 35.5l-196 -35v-66z" />
    <glyph glyph-name="uni0433.loclBGR" horiz-adv-x="464" 
d="M415 38q-31 -21 -82 -34.5t-100 -13.5q-83 0 -136.5 31t-53.5 92q0 53 35.5 83.5t86 41.5t101 21t86 35t35.5 71q0 51 -43.5 77t-106.5 26q-86 0 -172 -43v24q85 41 173 41q72 0 122.5 -31t50.5 -94q0 -44 -25.5 -72.5t-63.5 -39t-83 -21t-83 -20t-63.5 -34.5t-25.5 -65
q0 -50 46 -75.5t120 -25.5q47 0 97.5 13.5t84.5 36.5v-24z" />
    <glyph glyph-name="uni0434.loclBGR" horiz-adv-x="613" 
d="M49 240q0 114 67 182t171 68q73 0 131 -37.5t89 -97.5v125h22v-480q0 -114 -72.5 -172t-178.5 -58q-100 0 -188 45v24q91 -47 186 -47q46 0 86.5 12t73 36.5t51 65.5t18.5 94v124q-29 -59 -87 -96.5t-131 -37.5q-104 0 -171 68t-67 182zM505 313q-23 67 -81.5 111
t-134.5 44q-94 0 -155 -61.5t-61 -166.5q0 -104 61 -166t155 -62q76 0 134.5 43.5t81.5 109.5v148z" />
    <glyph glyph-name="uni0436.loclBGR" horiz-adv-x="709" 
d="M39 0h-28l217 247l-189 233h29l181 -221h94v441h24v-441h93l182 221h28l-189 -233l217 -247h-28l-210 236h-93v-236h-24v236h-94z" />
    <glyph glyph-name="uni0438.loclBGR" 
d="M466 480h24v-480h-22v108q-30 -47 -82.5 -82.5t-122.5 -35.5q-82 0 -134 52.5t-52 142.5v295h24v-293q0 -83 45.5 -129t118.5 -46q70 0 121 38t80 91v339z" />
    <glyph glyph-name="uni0439.loclBGR" 
d="M415 604q-49 -41 -124 -41t-124 41v25q52 -44 124 -44t124 44v-25zM466 480h24v-480h-22v108q-30 -47 -82.5 -82.5t-122.5 -35.5q-82 0 -134 52.5t-52 142.5v295h24v-293q0 -83 45.5 -129t118.5 -46q70 0 121 38t80 91v339z" />
    <glyph glyph-name="uni043A.loclBGR" horiz-adv-x="495" 
d="M486 0h-29l-220 237h-129v-237h-24v700h24v-440h131l190 220h29l-200 -233z" />
    <glyph glyph-name="uni043B.loclBGR" horiz-adv-x="522" 
d="M500 0h-27l-212 453l-212 -453h-27l226 480h26z" />
    <glyph glyph-name="uni043F.loclBGR" 
d="M106 372q30 47 82.5 82.5t122.5 35.5q80 0 133 -52.5t53 -142.5v-295h-24v293q0 82 -46 128.5t-118 46.5q-70 0 -121 -38t-80 -91v-339h-24v480h22v-108z" />
    <glyph glyph-name="uni0442.loclBGR" horiz-adv-x="894" 
d="M108 0h-24v480h22v-102q29 44 78.5 78t112.5 34q57 0 99 -29.5t59 -79.5q32 44 81 76.5t110 32.5q76 0 123 -49.5t47 -127.5v-313h-24v312q0 68 -40 112t-108 44q-59 0 -105 -33t-76 -80q4 -17 4 -42v-313h-24v312q0 68 -40 112t-108 44q-62 0 -110.5 -37t-76.5 -86v-345
z" />
    <glyph glyph-name="uni0446.loclBGR" horiz-adv-x="598" 
d="M490 86q0 -65 67 -65h17v-159h-23v137q-85 2 -85 86v20q-30 -46 -82.5 -80.5t-120.5 -34.5q-82 0 -134 52.5t-52 142.5v295h24v-293q0 -83 45.5 -129t118.5 -46q70 0 121 38t80 91v339h24v-394z" />
    <glyph glyph-name="uni0448.loclBGR" horiz-adv-x="893" 
d="M785 480h24v-480h-22v102q-29 -44 -78.5 -78t-112.5 -34q-57 0 -99 29.5t-59 79.5q-32 -44 -81 -76.5t-110 -32.5q-76 0 -123 49.5t-47 127.5v313h24v-312q0 -68 40 -112t108 -44q59 0 105 33t76 80q-4 17 -4 42v313h24v-312q0 -68 40 -112t108 -44q62 0 110.5 37
t76.5 86v345z" />
    <glyph glyph-name="uni0449.loclBGR" horiz-adv-x="917" 
d="M809 86q0 -65 67 -65h17v-159h-23v137q-85 2 -85 86v14q-30 -43 -78.5 -76t-110.5 -33q-57 0 -99 29t-60 79q-33 -44 -81.5 -76t-108.5 -32q-76 0 -123 49.5t-47 127.5v313h24v-312q0 -68 40 -112t108 -44q58 0 105 33.5t76 79.5q-4 17 -4 42v313h24v-312q0 -68 40 -112
t108 -44q62 0 110.5 37t76.5 86v345h24v-394z" />
    <glyph glyph-name="uni044E.loclBGR" horiz-adv-x="799" 
d="M750 240q0 -115 -72.5 -182.5t-175.5 -67.5q-99 0 -170.5 64.5t-75.5 174.5h-148v-229h-24v700h24v-449h148q4 110 75.5 174.5t170.5 64.5q103 0 175.5 -67.5t72.5 -182.5zM279 240q0 -105 64.5 -166t158.5 -61t158.5 61t64.5 166t-64.5 166t-158.5 61t-158.5 -61
t-64.5 -166z" />
    <glyph glyph-name="uni0430.ss01" horiz-adv-x="613" 
d="M507 125q-29 -60 -86 -97.5t-130 -37.5q-104 0 -173 68.5t-69 181.5t69 181.5t173 68.5q73 0 130 -37.5t86 -97.5v125h22v-480h-22v125zM73 240q0 -104 63 -166t157 -62q76 0 133 44t79 111v146q-22 67 -79 111t-133 44q-95 0 -157.5 -62t-62.5 -166z" />
    <glyph glyph-name="uni0437.ss01" horiz-adv-x="449" 
d="M371 332q0 -117 -132 -164q75 -6 125.5 -60t50.5 -134q0 -92 -64.5 -148t-169.5 -56q-103 0 -168 44v23q67 -45 166 -45q93 0 152.5 49t59.5 133q0 87 -63.5 139.5t-153.5 32.5l-55 -12v23l64 14q85 19 124.5 58t39.5 102q0 61 -43 99t-111 38q-89 0 -161 -44v23
q72 44 163 44q77 0 126.5 -44.5t49.5 -114.5z" />
    <glyph glyph-name="uni0443.ss01" 
d="M490 -8q-1 -113 -70 -167.5t-163 -54.5q-99 0 -160 36v23q63 -37 158 -37q87 0 149 49t62 151v114q-30 -46 -82 -81t-121 -35q-82 0 -134 52.5t-52 142.5v295h24v-293q0 -83 45.5 -129t118.5 -46q70 0 121 38t80 91v339h24v-488z" />
    <glyph glyph-name="zero.osf" horiz-adv-x="662" 
d="M608 260q0 -109 -74 -189.5t-203 -80.5t-203 80.5t-74 189.5t74 189.5t203 80.5t203 -80.5t74 -189.5zM79 260q0 -100 67 -173t185 -73q117 0 184.5 73t67.5 173t-67.5 173t-184.5 73q-118 0 -185 -73t-67 -173z" />
    <glyph glyph-name="one.osf" horiz-adv-x="407" 
d="M223 520h16v-496h143v-24h-324v24h157v468l-157 -59v24z" />
    <glyph glyph-name="two.osf" horiz-adv-x="520" 
d="M465 0h-413v18q0 19 3 35t11.5 30.5t14.5 25.5t22 22.5t24 18.5t30 18t30.5 15t34.5 15.5t34 15.5q11 5 40 17.5t42 19t35 20t32 26.5t18.5 32.5t8.5 42.5q0 59 -48.5 97t-119.5 38q-94 0 -195 -56v24q93 55 196 55q81 0 136 -43.5t55 -114.5q0 -27 -9.5 -49.5t-20 -37
t-35.5 -30.5t-37.5 -22.5t-46 -21t-42.5 -18.5t-32 -14.5t-32 -15l-28 -14t-27 -15.5t-22 -16t-20 -19t-13.5 -21t-10 -25.5t-2.5 -28.5h387v-24z" />
    <glyph glyph-name="three.osf" horiz-adv-x="539" 
d="M459 351q0 -56 -33 -100t-94 -57q67 -13 111.5 -56.5t44.5 -118.5q0 -88 -65.5 -138.5t-160.5 -50.5q-130 0 -209 44v24q84 -45 208 -45q85 0 144 44.5t59 121.5q0 80 -55.5 120.5t-133.5 40.5h-88v24h86q77 -1 119.5 42.5t42.5 103.5q0 70 -49.5 113.5t-133.5 43.5
q-88 0 -187 -47v24q91 46 190 46q92 0 148 -50t56 -129z" />
    <glyph glyph-name="four.osf" horiz-adv-x="593" 
d="M399 520h27v-486h138v-24h-138v-170h-25v170h-381v22zM401 34v450l-350 -450h350z" />
    <glyph glyph-name="five.osf" horiz-adv-x="527" 
d="M95 520h355v-24h-332l-19 -293q76 26 157 26q96 0 162.5 -49.5t66.5 -148.5q0 -90 -64 -145.5t-168 -55.5q-113 0 -197 46v24q88 -47 195 -47q94 0 151.5 49t57.5 129q0 88 -60.5 131.5t-149.5 43.5q-91 0 -177 -33z" />
    <glyph glyph-name="six.osf" horiz-adv-x="575" 
d="M85 297q44 53 105.5 83t123.5 30q86 0 149.5 -54.5t63.5 -153.5q0 -97 -62 -154.5t-148 -57.5q-123 0 -190 88t-67 241q0 96 23.5 169.5t63.5 116t88.5 64t103.5 21.5q77 0 141 -36v-24q-63 36 -141 36q-49 0 -93 -19.5t-81 -59.5t-58.5 -109t-21.5 -160v-21zM87 268
q11 -120 70 -187.5t158 -67.5q77 0 132 50.5t55 137.5q0 91 -56.5 138t-135.5 47q-61 0 -121.5 -31.5t-101.5 -86.5z" />
    <glyph glyph-name="seven.osf" horiz-adv-x="464" 
d="M26 520h428v-20l-312 -660h-26l309 656h-399v24z" />
    <glyph glyph-name="eight.osf" horiz-adv-x="611" 
d="M83 527q0 66 60.5 114.5t161.5 48.5q100 0 161.5 -52.5t62.5 -120.5q0 -113 -119 -191q68 -26 106 -64t38 -99q0 -71 -65.5 -122t-181.5 -51q-117 0 -183 54t-66 137q0 61 36 112.5t101 86.5q-112 50 -112 147zM305 338q-55 20 -88 31q-63 -30 -99 -79t-36 -107
q0 -75 59 -122.5t165 -47.5q102 0 162 44t60 105q0 18 -3.5 34t-12 29.5t-16 23.5t-24.5 20t-27 16.5t-32.5 15t-33 12.5t-37.5 12.5t-37 12.5zM504 514q0 60 -55 106.5t-145 46.5q-89 0 -143 -41.5t-54 -98.5q0 -18 3.5 -33.5t13 -28.5t17 -23t23.5 -20t25 -16t30 -14.5
t28.5 -11t30 -10.5t26.5 -9q64 -21 83 -26q117 73 117 179z" />
    <glyph glyph-name="nine.osf" horiz-adv-x="562" 
d="M41 318q0 97 62 154.5t148 57.5q123 0 190 -88t67 -241q0 -96 -23.5 -169.5t-63.5 -116t-88.5 -64t-103.5 -21.5q-78 0 -142 36v24q63 -36 141 -36q50 0 94 19.5t81 59.5t58.5 109t21.5 160v21q-44 -52 -105.5 -82.5t-123.5 -30.5q-86 0 -149.5 54.5t-63.5 153.5zM66 319
q0 -91 56 -138t136 -47q61 0 121.5 31.5t101.5 86.5q-11 120 -70.5 187.5t-158.5 67.5q-77 0 -131.5 -50.5t-54.5 -137.5z" />
    <glyph glyph-name="zero.sinf" horiz-adv-x="430" 
d="M391 104q0 -95 -44.5 -152.5t-130.5 -57.5q-87 0 -132 57.5t-45 152.5t45 152.5t132 57.5q86 0 130.5 -57.5t44.5 -152.5zM61 104q0 -88 39 -138.5t116 -50.5q76 0 114.5 50.5t38.5 138.5t-38.5 138.5t-114.5 50.5q-77 0 -116 -50.5t-39 -138.5z" />
    <glyph glyph-name="one.sinf" horiz-adv-x="247" 
d="M137 308h16v-387h78v-21h-203v21h103v363l-93 -35v21z" />
    <glyph glyph-name="two.sinf" horiz-adv-x="341" 
d="M46 277q55 37 124 37q59 0 95 -27t36 -74q0 -33 -19 -61t-40 -43t-59 -37q-70 -41 -91 -62q-36 -37 -37 -89h251v-21h-275v13q0 29 9.5 53.5t18.5 39t34 34t35 25t41 24.5q68 41 87 63q23 27 23 61q0 37 -30 58.5t-80 21.5q-67 0 -123 -38v22z" />
    <glyph glyph-name="three.sinf" horiz-adv-x="355" 
d="M300 206q0 -34 -19.5 -59.5t-57.5 -33.5q94 -19 94 -105q0 -54 -38.5 -84t-100.5 -30q-87 0 -142 26v22q57 -27 141 -27q54 0 86.5 24.5t32.5 69.5q0 47 -33.5 69t-86.5 22h-60v21h58q52 0 78.5 24.5t26.5 59.5q0 38 -30 63t-82 25q-65 0 -124 -27v22q55 26 126 26
q60 0 95.5 -31t35.5 -77z" />
    <glyph glyph-name="four.sinf" horiz-adv-x="389" 
d="M256 308h24v-288h87v-20h-87v-100h-22v100h-239v19zM258 20v257l-211 -257h211z" />
    <glyph glyph-name="five.sinf" horiz-adv-x="350" 
d="M62 308h235v-21h-213l-11 -164q45 15 94 15q64 0 107 -30.5t43 -91.5q0 -55 -41 -88.5t-107 -33.5q-76 0 -130 27v21q57 -27 128 -27q58 0 93 27.5t35 73.5q0 52 -37.5 76.5t-97.5 24.5q-56 0 -111 -19z" />
    <glyph glyph-name="six.sinf" horiz-adv-x="372" 
d="M62 85q65 63 145 63q56 0 95.5 -32.5t39.5 -92.5t-39.5 -94.5t-98.5 -34.5q-80 0 -122 52.5t-42 145.5q0 114 48 168t131 54q49 0 90 -22v-21q-42 22 -89 22q-158 0 -158 -201v-7zM63 62q7 -71 42 -109t97 -38q52 0 85 27.5t33 78.5q0 53 -33 79.5t-84 26.5
q-81 0 -140 -65z" />
    <glyph glyph-name="seven.sinf" horiz-adv-x="301" 
d="M115 -100h-24l170 387h-244v21h269v-19z" />
    <glyph glyph-name="eight.sinf" horiz-adv-x="395" 
d="M53 215q0 41 37.5 70t106.5 29q66 0 105 -31.5t40 -73.5q0 -73 -68 -113q83 -32 83 -97q0 -43 -41.5 -74t-117.5 -31q-77 0 -118.5 32.5t-41.5 82.5q0 80 80 118q-65 31 -65 88zM199 99q-39 10 -62 19q-36 -16 -56.5 -44.5t-20.5 -61.5q0 -44 35.5 -71t102.5 -27
q64 0 100.5 24.5t36.5 59.5q0 18 -8.5 33t-18.5 24.5t-32.5 18.5t-35.5 13t-41 12zM320 205q0 36 -33 62.5t-90 26.5t-89.5 -23t-32.5 -56q0 -18 9 -33t18.5 -23.5t31 -17.5t30.5 -11.5t33 -9.5q4 -1 25 -7t32 -9q66 35 66 101z" />
    <glyph glyph-name="nine.sinf" horiz-adv-x="372" 
d="M30 185q0 60 39.5 94.5t99.5 34.5q80 0 121.5 -52.5t41.5 -145.5q0 -114 -48 -168t-132 -54q-47 0 -88 22v21q41 -22 88 -22q158 0 158 201v7q-65 -63 -145 -63q-56 0 -95.5 32.5t-39.5 92.5zM52 187q0 -53 33.5 -79.5t83.5 -26.5q81 0 140 65q-7 71 -42 109t-97 38
q-52 0 -85 -27.5t-33 -78.5z" />
    <glyph glyph-name="zero.sups" horiz-adv-x="430" 
d="M391 580q0 -95 -44.5 -152.5t-130.5 -57.5q-87 0 -132 57.5t-45 152.5t45 152.5t132 57.5q86 0 130.5 -57.5t44.5 -152.5zM61 580q0 -88 39 -138.5t116 -50.5q76 0 114.5 50.5t38.5 138.5t-38.5 138.5t-114.5 50.5q-77 0 -116 -50.5t-39 -138.5z" />
    <glyph glyph-name="one.sups" horiz-adv-x="247" 
d="M137 780h16v-387h78v-21h-203v21h103v363l-93 -35v21z" />
    <glyph glyph-name="two.sups" horiz-adv-x="342" 
d="M46 753q55 37 124 37q59 0 95 -27t36 -74q0 -33 -19 -61t-40 -43t-59 -37q-70 -41 -91 -62q-36 -37 -37 -89h251v-21h-275v13q0 29 9.5 53.5t18.5 39t34 34t35 25t41 24.5q68 41 87 63q23 27 23 61q0 37 -30 58.5t-80 21.5q-67 0 -123 -38v22z" />
    <glyph glyph-name="three.sups" horiz-adv-x="355" 
d="M300 682q0 -34 -19.5 -59.5t-57.5 -33.5q94 -19 94 -105q0 -54 -38.5 -84t-100.5 -30q-87 0 -142 26v22q57 -27 141 -27q54 0 86.5 24.5t32.5 69.5q0 47 -33.5 69t-86.5 22h-60v21h58q52 0 78.5 24.5t26.5 59.5q0 38 -30 63t-82 25q-65 0 -124 -27v22q55 26 126 26
q60 0 95.5 -31t35.5 -77z" />
    <glyph glyph-name="four.sups" horiz-adv-x="389" 
d="M256 780h24v-288h87v-20h-87v-100h-22v100h-239v19zM258 492v257l-211 -257h211z" />
    <glyph glyph-name="five.sups" horiz-adv-x="350" 
d="M62 780h235v-21h-213l-11 -164q45 15 94 15q64 0 107 -30.5t43 -91.5q0 -55 -41 -88.5t-107 -33.5q-76 0 -130 27v21q57 -27 128 -27q58 0 93 27.5t35 73.5q0 52 -37.5 76.5t-97.5 24.5q-56 0 -111 -19z" />
    <glyph glyph-name="six.sups" horiz-adv-x="372" 
d="M62 561q65 63 145 63q56 0 95.5 -32.5t39.5 -92.5t-39.5 -94.5t-98.5 -34.5q-80 0 -122 52.5t-42 145.5q0 114 48 168t131 54q49 0 90 -22v-21q-42 22 -89 22q-158 0 -158 -201v-7zM63 538q7 -71 42 -109t97 -38q52 0 85 27.5t33 78.5q0 53 -33 79.5t-84 26.5
q-81 0 -140 -65z" />
    <glyph glyph-name="seven.sups" horiz-adv-x="301" 
d="M115 372h-24l170 387h-244v21h269v-19z" />
    <glyph glyph-name="eight.sups" horiz-adv-x="395" 
d="M53 691q0 41 37.5 70t106.5 29q66 0 105 -31.5t40 -73.5q0 -73 -68 -113q83 -32 83 -97q0 -43 -41.5 -74t-117.5 -31q-77 0 -118.5 32.5t-41.5 82.5q0 80 80 118q-65 31 -65 88zM199 575q-39 10 -62 19q-36 -16 -56.5 -44.5t-20.5 -61.5q0 -44 35.5 -71t102.5 -27
q64 0 100.5 24.5t36.5 59.5q0 18 -8.5 33t-18.5 24.5t-32.5 18.5t-35.5 13t-41 12zM320 681q0 36 -33 62.5t-90 26.5t-89.5 -23t-32.5 -56q0 -18 9 -33t18.5 -23.5t31 -17.5t30.5 -11.5t33 -9.5q5 -1 25.5 -7t31.5 -9q66 35 66 101z" />
    <glyph glyph-name="nine.sups" horiz-adv-x="372" 
d="M30 661q0 60 39.5 94.5t99.5 34.5q80 0 121.5 -52.5t41.5 -145.5q0 -114 -48 -168t-132 -54q-47 0 -88 22v21q41 -22 88 -22q158 0 158 201v7q-65 -63 -145 -63q-56 0 -95.5 32.5t-39.5 92.5zM52 663q0 -53 33.5 -79.5t83.5 -26.5q81 0 140 65q-7 71 -42 109t-97 38
q-52 0 -85 -27.5t-33 -78.5z" />
    <glyph glyph-name="zero.tf" horiz-adv-x="614" 
d="M578 340q0 -157 -71 -253.5t-200 -96.5t-200 96.5t-71 253.5q0 158 71 254t200 96t200 -96t71 -254zM61 340q0 -149 64 -237.5t182 -88.5t182 88.5t64 237.5t-64 237.5t-182 88.5t-182 -88.5t-64 -237.5z" />
    <glyph glyph-name="one.tf" horiz-adv-x="614" 
d="M325 680h17v-656h222v-24h-487v24h240v628l-212 -79v24z" />
    <glyph glyph-name="two.tf" horiz-adv-x="614" 
d="M87 629q91 61 213 61q103 0 164.5 -44t61.5 -121q0 -42 -15 -76.5t-47.5 -63t-63 -48t-80.5 -46.5q-43 -23 -66 -36.5t-57.5 -39.5t-52.5 -50.5t-31.5 -61t-14.5 -79.5h446v-24h-472v16q0 48 14.5 89t34 68t55.5 55.5t61 43t69 38.5q49 26 77 43.5t59.5 44.5t45.5 58
t14 69q0 65 -54.5 103.5t-148.5 38.5q-115 0 -212 -63v25z" />
    <glyph glyph-name="three.tf" horiz-adv-x="614" 
d="M520 511q0 -56 -34.5 -100t-100.5 -57q72 -12 118 -56t46 -119q0 -90 -64.5 -139.5t-173.5 -49.5q-147 0 -239 45v24q97 -46 238 -46q99 1 157 44t58 122q0 82 -60 121.5t-159 39.5h-100v24h98q97 -1 144.5 41.5t47.5 104.5q0 67 -54 112t-150 45q-108 0 -208 -46v25
q96 44 211 44q105 0 165 -51.5t60 -127.5z" />
    <glyph glyph-name="four.tf" horiz-adv-x="614" 
d="M421 680h27v-486h140v-24h-140v-170h-25v170h-403v22zM423 194v451l-370 -451h370z" />
    <glyph glyph-name="five.tf" horiz-adv-x="614" 
d="M117 680h397v-24h-374l-19 -293q83 26 173 26q111 0 183 -49t72 -149q0 -90 -67.5 -145.5t-180.5 -55.5q-133 0 -223 46v24q94 -47 221 -47q104 0 164.5 48.5t60.5 129.5q0 89 -66 132t-170 43q-100 0 -193 -33z" />
    <glyph glyph-name="six.tf" horiz-adv-x="614" 
d="M91 295q107 115 249 115q93 0 158 -54t65 -154q0 -98 -65 -155t-163 -57q-131 0 -200 87.5t-69 241.5q0 191 78.5 281t218.5 90q79 0 143 -36v-24q-63 36 -143 36q-272 0 -272 -348v-23zM93 267q11 -121 72 -187.5t168 -66.5q90 0 147.5 49.5t57.5 138.5q0 91 -58 138
t-144 47q-68 0 -132.5 -31.5t-110.5 -87.5z" />
    <glyph glyph-name="seven.tf" horiz-adv-x="614" 
d="M70 680h496v-20l-340 -660h-26l337 656h-467v24z" />
    <glyph glyph-name="eight.tf" horiz-adv-x="614" 
d="M69 527q0 67 62.5 115t174.5 48q110 0 174 -52.5t65 -120.5q0 -62 -31.5 -111.5t-87.5 -79.5q68 -26 106 -64t38 -99q0 -71 -68.5 -122t-193.5 -51q-127 0 -195.5 54t-68.5 137q0 64 36 116.5t102 82.5q-113 50 -113 147zM308 338q-70 20 -103 32q-64 -26 -100 -76
t-36 -111q0 -75 61.5 -122.5t177.5 -47.5q112 0 174.5 43.5t62.5 105.5q0 32 -13 57.5t-32.5 42t-50.5 30.5t-60.5 23t-68.5 20zM521 514q0 60 -57.5 106.5t-157.5 46.5q-99 0 -155.5 -41t-56.5 -99q0 -31 13.5 -56t29.5 -39.5t49 -29t50.5 -20t55.5 -16.5q9 -3 14 -4
q11 -3 31 -8.5t36 -10t29 -8.5q56 27 87.5 73.5t31.5 105.5z" />
    <glyph glyph-name="nine.tf" horiz-adv-x="614" 
d="M51 478q0 98 64.5 155t163.5 57q131 0 200 -87.5t69 -241.5q0 -191 -78.5 -281t-218.5 -90q-80 0 -144 36v24q63 -36 143 -36q273 0 273 348v23q-107 -115 -249 -115q-93 0 -158 54t-65 154zM76 479q0 -91 57.5 -138t144.5 -47q68 0 132.5 31.5t110.5 87.5
q-11 121 -72.5 187.5t-168.5 66.5q-89 0 -146.5 -49.5t-57.5 -138.5z" />
    <glyph glyph-name="zero.tosf" horiz-adv-x="614" 
d="M583 260q0 -109 -74 -189.5t-202 -80.5t-202 80.5t-74 189.5t73.5 189.5t202.5 80.5t202.5 -80.5t73.5 -189.5zM56 260q0 -100 67 -173t184 -73t184 73t67 173t-67 173t-184 73t-184 -73t-67 -173z" />
    <glyph glyph-name="one.tosf" horiz-adv-x="614" 
d="M324 520h17v-496h222v-24h-487v24h240v468l-212 -79v24z" />
    <glyph glyph-name="two.tosf" horiz-adv-x="614" 
d="M542 0h-470v18q0 43 20 78t57 58.5t73 39t84 28.5q105 30 150.5 59.5t45.5 89.5q0 62 -53 99t-145 37q-119 0 -215 -63v25q89 61 216 61q102 0 161.5 -43t59.5 -116q0 -37 -14 -64t-46 -46.5t-63.5 -31.5t-87.5 -28q-44 -13 -78 -27t-68 -35t-52.5 -50.5t-18.5 -64.5h444
v-24z" />
    <glyph glyph-name="three.tosf" horiz-adv-x="614" 
d="M517 351q0 -56 -34.5 -100t-100.5 -57q72 -12 118 -56t46 -119q0 -90 -64.5 -139.5t-172.5 -49.5q-148 0 -238 44v24q98 -45 237 -45q99 1 156.5 44t57.5 122q0 82 -60 121.5t-158 39.5h-99v24h97q96 -1 143.5 41.5t47.5 104.5q0 67 -53.5 112t-149.5 45q-108 0 -207 -45
v24q91 44 210 44q104 0 164 -51.5t60 -127.5z" />
    <glyph glyph-name="four.tosf" horiz-adv-x="614" 
d="M420 520h27v-486h138v-24h-138v-170h-25v170h-403v22zM422 34v451l-370 -451h370z" />
    <glyph glyph-name="five.tosf" horiz-adv-x="614" 
d="M118 520h395v-24h-372l-19 -293q83 26 169 26q113 0 185 -49t72 -149q0 -91 -66.5 -146t-183.5 -55q-129 0 -219 46v24q94 -47 217 -47q107 0 167 48.5t60 129.5q0 89 -66 132t-172 43q-96 0 -189 -33z" />
    <glyph glyph-name="six.tosf" horiz-adv-x="614" 
d="M91 295q107 115 249 115q93 0 158 -54t65 -154q0 -98 -65 -155t-163 -57q-131 0 -200 87.5t-69 241.5q0 191 78.5 281t218.5 90q79 0 143 -36v-24q-63 36 -143 36q-272 0 -272 -348v-23zM93 267q11 -121 72 -187.5t168 -66.5q90 0 147.5 49.5t57.5 138.5q0 91 -58 138
t-144 47q-68 0 -132.5 -31.5t-110.5 -87.5z" />
    <glyph glyph-name="seven.tosf" horiz-adv-x="614" 
d="M68 520h496v-20l-340 -660h-26l337 656h-467v24z" />
    <glyph glyph-name="eight.tosf" horiz-adv-x="614" 
d="M69 527q0 67 62.5 115t174.5 48q110 0 174 -52.5t65 -120.5q0 -62 -31.5 -111.5t-87.5 -79.5q68 -26 106 -64t38 -99q0 -71 -68.5 -122t-193.5 -51q-127 0 -195.5 54t-68.5 137q0 64 36 116.5t102 82.5q-113 50 -113 147zM308 338q-70 20 -103 32q-64 -26 -100 -76
t-36 -111q0 -75 61.5 -122.5t177.5 -47.5q112 0 174.5 43.5t62.5 105.5q0 32 -13 57.5t-32.5 42t-50.5 30.5t-60.5 23t-68.5 20zM521 514q0 60 -57.5 106.5t-157.5 46.5q-99 0 -155.5 -41t-56.5 -99q0 -31 13.5 -56t29.5 -39.5t49 -29t50.5 -20t55.5 -16.5q9 -3 14 -4
q11 -3 31 -8.5t36 -10t29 -8.5q56 27 87.5 73.5t31.5 105.5z" />
    <glyph glyph-name="nine.tosf" horiz-adv-x="614" 
d="M51 318q0 98 64.5 155t163.5 57q131 0 200 -87.5t69 -241.5q0 -191 -78.5 -281t-218.5 -90q-80 0 -144 36v24q63 -36 143 -36q273 0 273 348v23q-107 -115 -249 -115q-93 0 -158 54t-65 154zM76 319q0 -91 57.5 -138t144.5 -47q68 0 132.5 31.5t110.5 87.5
q-11 121 -72.5 187.5t-168.5 66.5q-89 0 -146.5 -49.5t-57.5 -138.5z" />
    <glyph glyph-name="zero.dnom" horiz-adv-x="430" 
d="M391 204q0 -95 -44.5 -152.5t-130.5 -57.5q-87 0 -132 57.5t-45 152.5t45 152.5t132 57.5q86 0 130.5 -57.5t44.5 -152.5zM61 204q0 -88 39 -138.5t116 -50.5q76 0 114.5 50.5t38.5 138.5t-38.5 138.5t-114.5 50.5q-77 0 -116 -50.5t-39 -138.5z" />
    <glyph glyph-name="one.dnom" horiz-adv-x="247" 
d="M137 408h16v-387h78v-21h-203v21h103v363l-93 -35v21z" />
    <glyph glyph-name="two.dnom" horiz-adv-x="341" 
d="M46 377q55 37 124 37q59 0 95 -27t36 -74q0 -33 -19 -61t-40 -43t-59 -37q-70 -41 -91 -62q-36 -37 -37 -89h251v-21h-275v13q0 29 9.5 53.5t18.5 39t34 34t35 25t41 24.5q68 41 87 63q23 27 23 61q0 37 -30 58.5t-80 21.5q-67 0 -123 -38v22z" />
    <glyph glyph-name="three.dnom" horiz-adv-x="355" 
d="M300 306q0 -34 -19.5 -59.5t-57.5 -33.5q94 -19 94 -105q0 -54 -38.5 -84t-100.5 -30q-87 0 -142 26v22q57 -27 141 -27q54 0 86.5 24.5t32.5 69.5q0 47 -33.5 69t-86.5 22h-60v21h58q52 0 78.5 24.5t26.5 59.5q0 38 -30 63t-82 25q-65 0 -124 -27v22q55 26 126 26
q60 0 95.5 -31t35.5 -77z" />
    <glyph glyph-name="four.dnom" horiz-adv-x="389" 
d="M256 408h24v-288h87v-20h-87v-100h-22v100h-239v19zM258 120v257l-211 -257h211z" />
    <glyph glyph-name="five.dnom" horiz-adv-x="350" 
d="M62 408h235v-21h-213l-11 -164q45 15 94 15q64 0 107 -30.5t43 -91.5q0 -55 -41 -88.5t-107 -33.5q-76 0 -130 27v21q57 -27 128 -27q58 0 93 27.5t35 73.5q0 52 -37.5 76.5t-97.5 24.5q-56 0 -111 -19z" />
    <glyph glyph-name="six.dnom" horiz-adv-x="372" 
d="M62 185q65 63 145 63q56 0 95.5 -32.5t39.5 -92.5t-39.5 -94.5t-98.5 -34.5q-80 0 -122 52.5t-42 145.5q0 114 48 168t131 54q49 0 90 -22v-21q-42 22 -89 22q-158 0 -158 -201v-7zM63 162q7 -71 42 -109t97 -38q52 0 85 27.5t33 78.5q0 53 -33 79.5t-84 26.5
q-81 0 -140 -65z" />
    <glyph glyph-name="seven.dnom" horiz-adv-x="301" 
d="M115 0h-24l170 387h-244v21h269v-19z" />
    <glyph glyph-name="eight.dnom" horiz-adv-x="395" 
d="M53 315q0 41 37.5 70t106.5 29q66 0 105 -31.5t40 -73.5q0 -73 -68 -113q83 -32 83 -97q0 -43 -41.5 -74t-117.5 -31q-77 0 -118.5 32.5t-41.5 82.5q0 80 80 118q-65 31 -65 88zM199 199q-39 10 -62 19q-36 -16 -56.5 -44.5t-20.5 -61.5q0 -44 35.5 -71t102.5 -27
q64 0 100.5 24.5t36.5 59.5q0 18 -8.5 33t-18.5 24.5t-32.5 18.5t-35.5 13t-41 12zM320 305q0 36 -33 62.5t-90 26.5t-89.5 -23t-32.5 -56q0 -18 9 -33t18.5 -23.5t31 -17.5t30.5 -11.5t33 -9.5q4 -1 25 -7t32 -9q66 35 66 101z" />
    <glyph glyph-name="nine.dnom" horiz-adv-x="372" 
d="M30 285q0 60 39.5 94.5t99.5 34.5q80 0 121.5 -52.5t41.5 -145.5q0 -114 -48 -168t-132 -54q-47 0 -88 22v21q41 -22 88 -22q158 0 158 201v7q-65 -63 -145 -63q-56 0 -95.5 32.5t-39.5 92.5zM52 287q0 -53 33.5 -79.5t83.5 -26.5q81 0 140 65q-7 71 -42 109t-97 38
q-52 0 -85 -27.5t-33 -78.5z" />
    <glyph glyph-name="zero.numr" horiz-adv-x="430" 
d="M391 480q0 -95 -44.5 -152.5t-130.5 -57.5q-87 0 -132 57.5t-45 152.5t45 152.5t132 57.5q86 0 130.5 -57.5t44.5 -152.5zM61 480q0 -88 39 -138.5t116 -50.5q76 0 114.5 50.5t38.5 138.5t-38.5 138.5t-114.5 50.5q-77 0 -116 -50.5t-39 -138.5z" />
    <glyph glyph-name="one.numr" horiz-adv-x="247" 
d="M137 680h16v-387h78v-21h-203v21h103v363l-93 -35v21z" />
    <glyph glyph-name="two.numr" horiz-adv-x="342" 
d="M46 653q55 37 124 37q59 0 95 -27t36 -74q0 -33 -19 -61t-40 -43t-59 -37q-70 -41 -91 -62q-36 -37 -37 -89h251v-21h-275v13q0 29 9.5 53.5t18.5 39t34 34t35 25t41 24.5q68 41 87 63q23 27 23 61q0 37 -30 58.5t-80 21.5q-67 0 -123 -38v22z" />
    <glyph glyph-name="three.numr" horiz-adv-x="355" 
d="M300 582q0 -34 -19.5 -59.5t-57.5 -33.5q94 -19 94 -105q0 -54 -38.5 -84t-100.5 -30q-87 0 -142 26v22q57 -27 141 -27q54 0 86.5 24.5t32.5 69.5q0 47 -33.5 69t-86.5 22h-60v21h58q52 0 78.5 24.5t26.5 59.5q0 38 -30 63t-82 25q-65 0 -124 -27v22q55 26 126 26
q60 0 95.5 -31t35.5 -77z" />
    <glyph glyph-name="four.numr" horiz-adv-x="389" 
d="M256 680h24v-288h87v-20h-87v-100h-22v100h-239v19zM258 392v257l-211 -257h211z" />
    <glyph glyph-name="five.numr" horiz-adv-x="350" 
d="M62 680h235v-21h-213l-11 -164q45 15 94 15q64 0 107 -30.5t43 -91.5q0 -55 -41 -88.5t-107 -33.5q-76 0 -130 27v21q57 -27 128 -27q58 0 93 27.5t35 73.5q0 52 -37.5 76.5t-97.5 24.5q-56 0 -111 -19z" />
    <glyph glyph-name="six.numr" horiz-adv-x="372" 
d="M62 461q65 63 145 63q56 0 95.5 -32.5t39.5 -92.5t-39.5 -94.5t-98.5 -34.5q-80 0 -122 52.5t-42 145.5q0 114 48 168t131 54q49 0 90 -22v-21q-42 22 -89 22q-158 0 -158 -201v-7zM63 438q7 -71 42 -109t97 -38q52 0 85 27.5t33 78.5q0 53 -33 79.5t-84 26.5
q-81 0 -140 -65z" />
    <glyph glyph-name="seven.numr" horiz-adv-x="301" 
d="M115 272h-24l170 387h-244v21h269v-19z" />
    <glyph glyph-name="eight.numr" horiz-adv-x="395" 
d="M53 591q0 41 37.5 70t106.5 29q66 0 105 -31.5t40 -73.5q0 -73 -68 -113q83 -32 83 -97q0 -43 -41.5 -74t-117.5 -31q-77 0 -118.5 32.5t-41.5 82.5q0 80 80 118q-65 31 -65 88zM199 475q-39 10 -62 19q-36 -16 -56.5 -44.5t-20.5 -61.5q0 -44 35.5 -71t102.5 -27
q64 0 100.5 24.5t36.5 59.5q0 18 -8.5 33t-18.5 24.5t-32.5 18.5t-35.5 13t-41 12zM320 581q0 36 -33 62.5t-90 26.5t-89.5 -23t-32.5 -56q0 -18 9 -33t18.5 -23.5t31 -17.5t30.5 -11.5t33 -9.5q5 -1 25.5 -7t31.5 -9q66 35 66 101z" />
    <glyph glyph-name="nine.numr" horiz-adv-x="372" 
d="M30 561q0 60 39.5 94.5t99.5 34.5q80 0 121.5 -52.5t41.5 -145.5q0 -114 -48 -168t-132 -54q-47 0 -88 22v21q41 -22 88 -22q158 0 158 201v7q-65 -63 -145 -63q-56 0 -95.5 32.5t-39.5 92.5zM52 563q0 -53 33.5 -79.5t83.5 -26.5q81 0 140 65q-7 71 -42 109t-97 38
q-52 0 -85 -27.5t-33 -78.5z" />
    <glyph glyph-name="emdash.case" horiz-adv-x="755" 
d="M681 338h-607v24h607v-24z" />
    <glyph glyph-name="endash.case" horiz-adv-x="573" 
d="M499 338h-425v24h425v-24z" />
    <glyph glyph-name="hyphen.case" horiz-adv-x="491" 
d="M74 362h343v-24h-343v24z" />
    <glyph glyph-name="guillemotleft.case" horiz-adv-x="432" 
d="M355 179h-27l-118 167v8l118 167h27l-121 -171zM206 179h-27l-118 167v8l118 167h27l-121 -171z" />
    <glyph glyph-name="guillemotright.case" horiz-adv-x="432" 
d="M253 179h-27l121 171l-121 171h27l118 -167v-8zM104 179h-27l121 171l-121 171h27l118 -167v-8z" />
    <glyph glyph-name="guilsinglleft.case" horiz-adv-x="283" 
d="M206 179h-27l-118 167v8l118 167h27l-121 -171z" />
    <glyph glyph-name="guilsinglright.case" horiz-adv-x="283" 
d="M104 179h-27l121 171l-121 171h27l118 -167v-8z" />
    <glyph glyph-name="cent.tf" horiz-adv-x="614" 
d="M365 12q80 3 143 39v-24q-60 -34 -143 -37v-110h-22v110q-99 2 -168.5 65.5t-69.5 180.5q0 118 69.5 182.5t168.5 70.5v111h22v-110q82 0 138 -39v-23q-58 40 -138 40v-456zM343 467q-90 -7 -152 -65.5t-62 -165.5q0 -105 62 -163t152 -61v455z" />
    <glyph glyph-name="currency.tf" horiz-adv-x="614" 
d="M184 206l-85 -85l-17 17l84 84q-51 53 -51 128t51 128l-84 84l17 17l85 -85q51 42 123 42q73 0 124 -42l85 85l17 -17l-84 -84q51 -53 51 -128t-51 -128l84 -84l-17 -17l-85 85q-51 -42 -124 -42q-72 0 -123 42zM138 350q0 -72 49.5 -117.5t119.5 -45.5q69 0 119 45.5
t50 117.5t-49.5 117.5t-119.5 45.5q-71 0 -120 -45t-49 -118z" />
    <glyph glyph-name="dollar.tf" horiz-adv-x="614" 
d="M323 -130h-22v120q-123 3 -221 58v25q106 -59 237 -59q93 0 150 34t57 109q0 54 -33 91t-82 54t-106.5 35.5t-106.5 36.5t-82 56.5t-33 95.5q0 81 62.5 121.5t156.5 42.5v120h22v-120q102 -3 183 -47v-25q-88 50 -197 48q-88 0 -145 -34t-57 -106q0 -45 24.5 -76.5
t63.5 -49.5t86.5 -32t94.5 -29.5t86 -36t63.5 -57t24.5 -87.5q0 -85 -63.5 -126.5t-162.5 -41.5v-120z" />
    <glyph glyph-name="Euro.tf" horiz-adv-x="614" 
d="M124 256q26 -116 120 -179t209 -63q67 0 129 21v-24q-62 -21 -133 -21q-123 0 -224 69.5t-127 196.5h-87v22h83q-4 34 -4 54q0 32 7 70h-86v22h90q29 124 128 195t215 71q70 0 133 -21v-24q-60 21 -130 21q-108 0 -199.5 -64t-120.5 -178h362v-22h-367q-7 -38 -7 -70
q0 -26 5 -54h369v-22h-365z" />
    <glyph glyph-name="sterling.tf" horiz-adv-x="614" 
d="M563 0h-525v24h47q31 0 48.5 22.5t17.5 58.5v222h-79v24h79v114q0 113 63.5 169t157.5 56q82 0 140 -39v-24q-61 39 -138 39q-86 0 -142 -49.5t-56 -152.5v-113h256v-24h-256v-222q0 -60 -38 -81h425v-24z" />
    <glyph glyph-name="yen.tf" horiz-adv-x="614" 
d="M552 680h28l-249 -377h178v-22h-190v-97h190v-22h-190v-162h-24v162h-190v22h190v97h-190v22h178l-249 377h28l245 -372z" />
    </font>
</defs>
</svg>
